# Blender 5.1.2
# www.blender.org
mtllib bottle_family__angular.mtl
g ITEM_Bottle_Family.001_Mesh
v 0.394400 -0.803400 0.000000
v 0.147995 -0.803400 -0.256334
v 0.178405 -0.803400 -0.309007
v -0.178405 -0.803400 -0.309007
v -0.147995 -0.803400 -0.256334
v -0.394400 -0.803400 -0.000000
v -0.147995 -0.803400 0.256334
v -0.178405 -0.803400 0.309007
v 0.178405 -0.803400 0.309007
v 0.147995 -0.803400 0.256334
v 0.464000 -0.721000 0.000000
v 0.174111 -0.721000 -0.301570
v 0.209889 -0.721000 -0.363538
v -0.209889 -0.721000 -0.363538
v -0.174111 -0.721000 -0.301570
v -0.464000 -0.721000 -0.000000
v -0.174111 -0.721000 0.301570
v -0.209889 -0.721000 0.363538
v 0.209889 -0.721000 0.363538
v 0.174111 -0.721000 0.301570
v 0.487200 -0.236900 0.000000
v 0.182817 -0.236900 -0.316648
v 0.220383 -0.236900 -0.381714
v -0.220383 -0.236900 -0.381714
v -0.182817 -0.236900 -0.316648
v -0.487200 -0.236900 -0.000000
v -0.182817 -0.236900 0.316648
v -0.220383 -0.236900 0.381714
v 0.220383 -0.236900 0.381714
v 0.182817 -0.236900 0.316648
v 0.394400 0.103000 0.000000
v 0.147995 0.103000 -0.256334
v 0.178405 0.103000 -0.309007
v -0.178405 0.103000 -0.309007
v -0.147995 0.103000 -0.256334
v -0.394400 0.103000 -0.000000
v -0.147995 0.103000 0.256334
v -0.178405 0.103000 0.309007
v 0.178405 0.103000 0.309007
v 0.147995 0.103000 0.256334
v 0.208800 0.267800 0.000000
v 0.078350 0.267800 -0.135706
v 0.094450 0.267800 -0.163592
v -0.094450 0.267800 -0.163592
v -0.078350 0.267800 -0.135706
v -0.208800 0.267800 -0.000000
v -0.078350 0.267800 0.135706
v -0.094450 0.267800 0.163592
v 0.094450 0.267800 0.163592
v 0.078350 0.267800 0.135706
v 0.174000 0.576800 0.000000
v 0.065292 0.576800 -0.113089
v 0.078708 0.576800 -0.136327
v -0.078708 0.576800 -0.136327
v -0.065292 0.576800 -0.113089
v -0.174000 0.576800 -0.000000
v -0.065292 0.576800 0.113089
v -0.078708 0.576800 0.136327
v 0.078708 0.576800 0.136327
v 0.065292 0.576800 0.113089
v 0.255200 0.700400 0.000000
v 0.095761 0.700400 -0.165863
v 0.115439 0.700400 -0.199946
v -0.115439 0.700400 -0.199946
v -0.095761 0.700400 -0.165863
v -0.255200 0.700400 -0.000000
v -0.095761 0.700400 0.165863
v -0.115439 0.700400 0.199946
v 0.115439 0.700400 0.199946
v 0.095761 0.700400 0.165863
v 0.255200 0.803400 0.000000
v 0.095761 0.803400 -0.165863
v 0.115439 0.803400 -0.199946
v -0.115439 0.803400 -0.199946
v -0.095761 0.803400 -0.165863
v -0.255200 0.803400 -0.000000
v -0.095761 0.803400 0.165863
v -0.115439 0.803400 0.199946
v 0.115439 0.803400 0.199946
v 0.095761 0.803400 0.165863
vn 0.6158 -0.5201 -0.5919
vn 0.8660 -0.0000 0.5000
vn -0.0000 -0.5519 -0.8339
vn -0.8660 -0.0000 0.5000
vn -0.6158 -0.5201 -0.5919
vn -0.6158 -0.5201 0.5919
vn -0.8660 -0.0000 -0.5000
vn -0.0000 -0.5519 0.8339
vn 0.8660 -0.0000 -0.5000
vn 0.6158 -0.5201 0.5919
vn 0.7205 -0.0345 -0.6926
vn -0.0000 -0.0375 -0.9993
vn -0.7205 -0.0345 -0.6926
vn -0.7205 -0.0345 0.6926
vn -0.0000 -0.0375 0.9993
vn 0.7205 -0.0345 0.6926
vn 0.7074 0.1931 -0.6800
vn -0.0000 0.2092 -0.9779
vn -0.7074 0.1931 -0.6800
vn -0.7074 0.1931 0.6800
vn -0.0000 0.2092 0.9779
vn 0.7074 0.1931 0.6800
vn 0.5597 0.6303 -0.5380
vn -0.0000 0.6616 -0.7498
vn -0.5597 0.6303 -0.5380
vn -0.5597 0.6303 0.5380
vn -0.0000 0.6616 0.7498
vn 0.5597 0.6303 0.5380
vn 0.7186 0.0809 -0.6907
vn -0.0000 0.0879 -0.9961
vn -0.7186 0.0809 -0.6907
vn -0.7186 0.0809 0.6907
vn -0.0000 0.0879 0.9961
vn 0.7186 0.0809 0.6907
vn 0.6515 -0.4280 -0.6263
vn -0.0000 -0.4577 -0.8891
vn -0.6515 -0.4280 -0.6263
vn -0.6515 -0.4280 0.6263
vn -0.0000 -0.4577 0.8891
vn 0.6515 -0.4280 0.6263
vn 0.7209 -0.0000 -0.6930
vn -0.0000 -0.0000 -1.0000
vn -0.7209 -0.0000 -0.6930
vn -0.7209 -0.0000 0.6930
vn -0.0000 -0.0000 1.0000
vn 0.7209 -0.0000 0.6930
vn -0.0000 -1.0000 -0.0000
vn -0.0000 1.0000 -0.0000
s 0
g ITEM_Bottle_Family.001_MAT_GlassEmerald
usemtl MAT_GlassEmerald
f 1//1 12//1 11//1
f 3//2 12//2 2//2
f 4//3 13//3 3//3
f 4//4 15//4 14//4
f 6//5 15//5 5//5
f 6//6 17//6 16//6
f 8//7 17//7 7//7
f 9//8 18//8 8//8
f 9//9 20//9 19//9
f 1//10 20//10 10//10
f 11//11 22//11 21//11
f 13//2 22//2 12//2
f 14//12 23//12 13//12
f 14//4 25//4 24//4
f 16//13 25//13 15//13
f 16//14 27//14 26//14
f 18//7 27//7 17//7
f 19//15 28//15 18//15
f 19//9 30//9 29//9
f 11//16 30//16 20//16
f 22//17 31//17 21//17
f 22//2 33//2 32//2
f 24//18 33//18 23//18
f 25//4 34//4 24//4
f 25//19 36//19 35//19
f 27//20 36//20 26//20
f 27//7 38//7 37//7
f 29//21 38//21 28//21
f 30//9 39//9 29//9
f 30//22 31//22 40//22
f 32//23 41//23 31//23
f 32//2 43//2 42//2
f 34//24 43//24 33//24
f 35//4 44//4 34//4
f 35//25 46//25 45//25
f 37//26 46//26 36//26
f 37//7 48//7 47//7
f 39//27 48//27 38//27
f 40//9 49//9 39//9
f 40//28 41//28 50//28
f 42//29 51//29 41//29
f 42//2 53//2 52//2
f 44//30 53//30 43//30
f 45//4 54//4 44//4
f 45//31 56//31 55//31
f 47//32 56//32 46//32
f 47//7 58//7 57//7
f 49//33 58//33 48//33
f 50//9 59//9 49//9
f 50//34 51//34 60//34
f 10//47 5//47 2//47
f 1//1 2//1 12//1
f 3//2 13//2 12//2
f 4//3 14//3 13//3
f 4//4 5//4 15//4
f 6//5 16//5 15//5
f 6//6 7//6 17//6
f 8//7 18//7 17//7
f 9//8 19//8 18//8
f 9//9 10//9 20//9
f 1//10 11//10 20//10
f 11//11 12//11 22//11
f 13//2 23//2 22//2
f 14//12 24//12 23//12
f 14//4 15//4 25//4
f 16//13 26//13 25//13
f 16//14 17//14 27//14
f 18//7 28//7 27//7
f 19//15 29//15 28//15
f 19//9 20//9 30//9
f 11//16 21//16 30//16
f 22//17 32//17 31//17
f 22//2 23//2 33//2
f 24//18 34//18 33//18
f 25//4 35//4 34//4
f 25//19 26//19 36//19
f 27//20 37//20 36//20
f 27//7 28//7 38//7
f 29//21 39//21 38//21
f 30//9 40//9 39//9
f 30//22 21//22 31//22
f 32//23 42//23 41//23
f 32//2 33//2 43//2
f 34//24 44//24 43//24
f 35//4 45//4 44//4
f 35//25 36//25 46//25
f 37//26 47//26 46//26
f 37//7 38//7 48//7
f 39//27 49//27 48//27
f 40//9 50//9 49//9
f 40//28 31//28 41//28
f 42//29 52//29 51//29
f 42//2 43//2 53//2
f 44//30 54//30 53//30
f 45//4 55//4 54//4
f 45//31 46//31 56//31
f 47//32 57//32 56//32
f 47//7 48//7 58//7
f 49//33 59//33 58//33
f 50//9 60//9 59//9
f 50//34 41//34 51//34
f 10//47 9//47 8//47
f 7//47 6//47 5//47
f 10//47 8//47 7//47
f 2//47 1//47 10//47
f 4//47 3//47 2//47
f 10//47 7//47 5//47
f 5//47 4//47 2//47
g ITEM_Bottle_Family.001_MAT_Cork
usemtl MAT_Cork
f 51//35 62//35 61//35
f 53//2 62//2 52//2
f 54//36 63//36 53//36
f 54//4 65//4 64//4
f 56//37 65//37 55//37
f 56//38 67//38 66//38
f 58//7 67//7 57//7
f 59//39 68//39 58//39
f 59//9 70//9 69//9
f 51//40 70//40 60//40
f 62//41 71//41 61//41
f 63//2 72//2 62//2
f 64//42 73//42 63//42
f 65//4 74//4 64//4
f 66//43 75//43 65//43
f 67//44 76//44 66//44
f 68//7 77//7 67//7
f 69//45 78//45 68//45
f 70//9 79//9 69//9
f 61//46 80//46 70//46
f 75//48 77//48 80//48
f 51//35 52//35 62//35
f 53//2 63//2 62//2
f 54//36 64//36 63//36
f 54//4 55//4 65//4
f 56//37 66//37 65//37
f 56//38 57//38 67//38
f 58//7 68//7 67//7
f 59//39 69//39 68//39
f 59//9 60//9 70//9
f 51//40 61//40 70//40
f 62//41 72//41 71//41
f 63//2 73//2 72//2
f 64//42 74//42 73//42
f 65//4 75//4 74//4
f 66//43 76//43 75//43
f 67//44 77//44 76//44
f 68//7 78//7 77//7
f 69//45 79//45 78//45
f 70//9 80//9 79//9
f 61//46 71//46 80//46
f 80//48 71//48 72//48
f 72//48 73//48 74//48
f 75//48 76//48 77//48
f 72//48 74//48 75//48
f 78//48 79//48 80//48
f 80//48 72//48 75//48
f 77//48 78//48 80//48
