# Blender 5.1.2
# www.blender.org
mtllib bottle_family__round.mtl
g ITEM_Bottle_Family.001_Mesh
v 0.340000 -0.702000 0.000000
v 0.275066 -0.702000 -0.199847
v 0.105066 -0.702000 -0.323359
v -0.105066 -0.702000 -0.323359
v -0.275066 -0.702000 -0.199847
v -0.340000 -0.702000 -0.000000
v -0.275066 -0.702000 0.199847
v -0.105066 -0.702000 0.323359
v 0.105066 -0.702000 0.323359
v 0.275066 -0.702000 0.199847
v 0.426949 -0.630000 0.000000
v 0.345409 -0.630000 -0.250954
v 0.131935 -0.630000 -0.406053
v -0.131935 -0.630000 -0.406053
v -0.345409 -0.630000 -0.250954
v -0.426949 -0.630000 -0.000000
v -0.345409 -0.630000 0.250954
v -0.131935 -0.630000 0.406053
v 0.131935 -0.630000 0.406053
v 0.345409 -0.630000 0.250954
v 0.577814 -0.207000 0.000000
v 0.467461 -0.207000 -0.339630
v 0.178554 -0.207000 -0.549533
v -0.178554 -0.207000 -0.549533
v -0.467461 -0.207000 -0.339630
v -0.577814 -0.207000 -0.000000
v -0.467461 -0.207000 0.339630
v -0.178554 -0.207000 0.549533
v 0.178554 -0.207000 0.549533
v 0.467461 -0.207000 0.339630
v 0.479914 0.090000 0.000000
v 0.388259 0.090000 -0.282086
v 0.148302 0.090000 -0.456425
v -0.148302 0.090000 -0.456425
v -0.388259 0.090000 -0.282086
v -0.479914 0.090000 -0.000000
v -0.388259 0.090000 0.282086
v -0.148302 0.090000 0.456425
v 0.148302 0.090000 0.456425
v 0.388259 0.090000 0.282086
v 0.245472 0.234000 0.000000
v 0.198591 0.234000 -0.144285
v 0.075855 0.234000 -0.233457
v -0.075855 0.234000 -0.233457
v -0.198591 0.234000 -0.144285
v -0.245472 0.234000 -0.000000
v -0.198591 0.234000 0.144285
v -0.075855 0.234000 0.233457
v 0.075855 0.234000 0.233457
v 0.198591 0.234000 0.144285
v 0.177008 0.504000 0.000000
v 0.143202 0.504000 -0.104042
v 0.054698 0.504000 -0.168344
v -0.054698 0.504000 -0.168344
v -0.143202 0.504000 -0.104042
v -0.177008 0.504000 -0.000000
v -0.143202 0.504000 0.104042
v -0.054698 0.504000 0.168344
v 0.054698 0.504000 0.168344
v 0.143202 0.504000 0.104042
v 0.238482 0.612000 0.000000
v 0.192936 0.612000 -0.140176
v 0.073695 0.612000 -0.226810
v -0.073695 0.612000 -0.226810
v -0.192936 0.612000 -0.140176
v -0.238482 0.612000 -0.000000
v -0.192936 0.612000 0.140176
v -0.073695 0.612000 0.226810
v 0.073695 0.612000 0.226810
v 0.192936 0.612000 0.140176
v 0.220000 0.702000 0.000000
v 0.177984 0.702000 -0.129313
v 0.067984 0.702000 -0.209232
v -0.067984 0.702000 -0.209232
v -0.177984 0.702000 -0.129313
v -0.220000 0.702000 -0.000000
v -0.177984 0.702000 0.129313
v -0.067984 0.702000 0.209232
v 0.067984 0.702000 0.209232
v 0.177984 0.702000 0.129313
vn 0.6245 -0.7542 -0.2029
vn 0.3860 -0.7542 -0.5312
vn -0.0000 -0.7542 -0.6567
vn -0.3860 -0.7542 -0.5312
vn -0.6245 -0.7542 -0.2029
vn -0.6245 -0.7542 0.2029
vn -0.3860 -0.7542 0.5312
vn -0.0000 -0.7542 0.6567
vn 0.3860 -0.7542 0.5312
vn 0.6245 -0.7542 0.2029
vn 0.9007 -0.3212 -0.2926
vn 0.5566 -0.3212 -0.7661
vn -0.0000 -0.3212 -0.9470
vn -0.5566 -0.3212 -0.7661
vn -0.9007 -0.3212 -0.2926
vn -0.9007 -0.3212 0.2926
vn -0.5566 -0.3212 0.7661
vn -0.0000 -0.3212 0.9470
vn 0.5566 -0.3212 0.7661
vn 0.9007 -0.3212 0.2926
vn 0.9075 0.2991 -0.2949
vn 0.5609 0.2991 -0.7720
vn -0.0000 0.2991 -0.9542
vn -0.5609 0.2991 -0.7720
vn -0.9075 0.2991 -0.2949
vn -0.9075 0.2991 0.2949
vn -0.5609 0.2991 0.7720
vn -0.0000 0.2991 0.9542
vn 0.5609 0.2991 0.7720
vn 0.9075 0.2991 0.2949
vn 0.5160 0.8400 -0.1676
vn 0.3189 0.8400 -0.4389
vn -0.0000 0.8400 -0.5425
vn -0.3189 0.8400 -0.4389
vn -0.5160 0.8400 -0.1676
vn -0.5160 0.8400 0.1676
vn -0.3189 0.8400 0.4389
vn -0.0000 0.8400 0.5425
vn 0.3189 0.8400 0.4389
vn 0.5160 0.8400 0.1676
vn 0.9246 0.2344 -0.3004
vn 0.5714 0.2344 -0.7865
vn -0.0000 0.2344 -0.9721
vn -0.5714 0.2344 -0.7865
vn -0.9246 0.2344 -0.3004
vn -0.9246 0.2344 0.3004
vn -0.5714 0.2344 0.7865
vn -0.0000 0.2344 0.9721
vn 0.5714 0.2344 0.7865
vn 0.9246 0.2344 0.3004
vn 0.8364 -0.4761 -0.2718
vn 0.5169 -0.4761 -0.7115
vn -0.0000 -0.4761 -0.8794
vn -0.5169 -0.4761 -0.7115
vn -0.8364 -0.4761 -0.2718
vn -0.8364 -0.4761 0.2718
vn -0.5169 -0.4761 0.7115
vn -0.0000 -0.4761 0.8794
vn 0.5169 -0.4761 0.7115
vn 0.8364 -0.4761 0.2718
vn 0.9334 0.1917 -0.3033
vn 0.5769 0.1917 -0.7940
vn -0.0000 0.1917 -0.9815
vn -0.5769 0.1917 -0.7940
vn -0.9334 0.1917 -0.3033
vn -0.9334 0.1917 0.3033
vn -0.5769 0.1917 0.7940
vn -0.0000 0.1917 0.9815
vn 0.5769 0.1917 0.7940
vn 0.9334 0.1917 0.3033
vn -0.0000 -1.0000 -0.0000
vn -0.0000 1.0000 -0.0000
s 0
g ITEM_Bottle_Family.001_MAT_GlassEmerald
usemtl MAT_GlassEmerald
f 1//1 12//1 11//1
f 3//2 12//2 2//2
f 4//3 13//3 3//3
f 5//4 14//4 4//4
f 6//5 15//5 5//5
f 6//6 17//6 16//6
f 8//7 17//7 7//7
f 9//8 18//8 8//8
f 10//9 19//9 9//9
f 1//10 20//10 10//10
f 12//11 21//11 11//11
f 13//12 22//12 12//12
f 14//13 23//13 13//13
f 14//14 25//14 24//14
f 16//15 25//15 15//15
f 17//16 26//16 16//16
f 18//17 27//17 17//17
f 19//18 28//18 18//18
f 19//19 30//19 29//19
f 11//20 30//20 20//20
f 22//21 31//21 21//21
f 23//22 32//22 22//22
f 23//23 34//23 33//23
f 25//24 34//24 24//24
f 26//25 35//25 25//25
f 27//26 36//26 26//26
f 28//27 37//27 27//27
f 28//28 39//28 38//28
f 30//29 39//29 29//29
f 21//30 40//30 30//30
f 32//31 41//31 31//31
f 32//32 43//32 42//32
f 34//33 43//33 33//33
f 35//34 44//34 34//34
f 36//35 45//35 35//35
f 37//36 46//36 36//36
f 37//37 48//37 47//37
f 39//38 48//38 38//38
f 40//39 49//39 39//39
f 31//40 50//40 40//40
f 42//41 51//41 41//41
f 43//42 52//42 42//42
f 44//43 53//43 43//43
f 45//44 54//44 44//44
f 45//45 56//45 55//45
f 47//46 56//46 46//46
f 48//47 57//47 47//47
f 49//48 58//48 48//48
f 50//49 59//49 49//49
f 50//50 51//50 60//50
f 7//71 3//71 1//71
f 1//1 2//1 12//1
f 3//2 13//2 12//2
f 4//3 14//3 13//3
f 5//4 15//4 14//4
f 6//5 16//5 15//5
f 6//6 7//6 17//6
f 8//7 18//7 17//7
f 9//8 19//8 18//8
f 10//9 20//9 19//9
f 1//10 11//10 20//10
f 12//11 22//11 21//11
f 13//12 23//12 22//12
f 14//13 24//13 23//13
f 14//14 15//14 25//14
f 16//15 26//15 25//15
f 17//16 27//16 26//16
f 18//17 28//17 27//17
f 19//18 29//18 28//18
f 19//19 20//19 30//19
f 11//20 21//20 30//20
f 22//21 32//21 31//21
f 23//22 33//22 32//22
f 23//23 24//23 34//23
f 25//24 35//24 34//24
f 26//25 36//25 35//25
f 27//26 37//26 36//26
f 28//27 38//27 37//27
f 28//28 29//28 39//28
f 30//29 40//29 39//29
f 21//30 31//30 40//30
f 32//31 42//31 41//31
f 32//32 33//32 43//32
f 34//33 44//33 43//33
f 35//34 45//34 44//34
f 36//35 46//35 45//35
f 37//36 47//36 46//36
f 37//37 38//37 48//37
f 39//38 49//38 48//38
f 40//39 50//39 49//39
f 31//40 41//40 50//40
f 42//41 52//41 51//41
f 43//42 53//42 52//42
f 44//43 54//43 53//43
f 45//44 55//44 54//44
f 45//45 46//45 56//45
f 47//46 57//46 56//46
f 48//47 58//47 57//47
f 49//48 59//48 58//48
f 50//49 60//49 59//49
f 50//50 41//50 51//50
f 1//71 10//71 9//71
f 9//71 8//71 7//71
f 7//71 6//71 5//71
f 5//71 4//71 3//71
f 3//71 2//71 1//71
f 1//71 9//71 7//71
f 7//71 5//71 3//71
g ITEM_Bottle_Family.001_MAT_Cork
usemtl MAT_Cork
f 52//51 61//51 51//51
f 53//52 62//52 52//52
f 54//53 63//53 53//53
f 55//54 64//54 54//54
f 56//55 65//55 55//55
f 57//56 66//56 56//56
f 58//57 67//57 57//57
f 59//58 68//58 58//58
f 60//59 69//59 59//59
f 51//60 70//60 60//60
f 62//61 71//61 61//61
f 63//62 72//62 62//62
f 64//63 73//63 63//63
f 65//64 74//64 64//64
f 66//65 75//65 65//65
f 67//66 76//66 66//66
f 68//67 77//67 67//67
f 69//68 78//68 68//68
f 70//69 79//69 69//69
f 61//70 80//70 70//70
f 74//72 78//72 80//72
f 52//51 62//51 61//51
f 53//52 63//52 62//52
f 54//53 64//53 63//53
f 55//54 65//54 64//54
f 56//55 66//55 65//55
f 57//56 67//56 66//56
f 58//57 68//57 67//57
f 59//58 69//58 68//58
f 60//59 70//59 69//59
f 51//60 61//60 70//60
f 62//61 72//61 71//61
f 63//62 73//62 72//62
f 64//63 74//63 73//63
f 65//64 75//64 74//64
f 66//65 76//65 75//65
f 67//66 77//66 76//66
f 68//67 78//67 77//67
f 69//68 79//68 78//68
f 70//69 80//69 79//69
f 61//70 71//70 80//70
f 80//72 71//72 72//72
f 72//72 73//72 74//72
f 74//72 75//72 76//72
f 76//72 77//72 78//72
f 78//72 79//72 80//72
f 80//72 72//72 74//72
f 74//72 76//72 78//72
