# Blender 5.1.2
# www.blender.org
mtllib crystal.mtl
g ITEM_Crystal.001_Mesh
v 0.000000 -0.750000 0.000000
v 0.000000 0.950000 0.000000
v 0.340000 -0.380000 0.000000
v 0.170000 -0.380000 -0.294449
v -0.170000 -0.380000 -0.294449
v -0.340000 -0.380000 -0.000000
v -0.170000 -0.380000 0.294449
v 0.170000 -0.380000 0.294449
v 0.329090 0.480000 -0.190000
v 0.000000 0.480000 -0.380000
v -0.329090 0.480000 -0.190000
v -0.329090 0.480000 0.190000
v -0.000000 0.480000 0.380000
v 0.329090 0.480000 0.190000
vn 0.6776 -0.6227 -0.3912
vn 0.8618 -0.0990 -0.4975
vn 0.4096 0.5736 -0.7094
vn -0.0000 -0.6227 -0.7825
vn -0.0000 -0.0990 -0.9951
vn -0.4096 0.5736 -0.7094
vn -0.6776 -0.6227 -0.3912
vn -0.8618 -0.0990 -0.4975
vn -0.8192 0.5736 -0.0000
vn -0.6776 -0.6227 0.3912
vn -0.8618 -0.0990 0.4975
vn -0.4096 0.5736 0.7094
vn -0.0000 -0.6227 0.7825
vn -0.0000 -0.0990 0.9951
vn 0.4096 0.5736 0.7094
vn 0.6776 -0.6227 0.3912
vn 0.8618 -0.0990 0.4975
vn 0.8192 0.5736 -0.0000
vn 0.5000 0.0127 -0.8660
vn -0.5000 0.0127 -0.8660
vn -0.9999 0.0127 -0.0000
vn -0.5000 0.0127 0.8660
vn 0.5000 0.0127 0.8660
vn 0.9999 0.0127 -0.0000
s 0
g ITEM_Crystal.001_MAT_CrystalVoid
usemtl MAT_CrystalVoid
f 1//1 4//1 3//1
f 4//2 9//2 3//2
f 2//3 9//3 10//3
f 1//4 5//4 4//4
f 5//5 10//5 4//5
f 2//6 10//6 11//6
f 1//7 6//7 5//7
f 6//8 11//8 5//8
f 2//9 11//9 12//9
f 1//10 7//10 6//10
f 7//11 12//11 6//11
f 2//12 12//12 13//12
f 1//13 8//13 7//13
f 8//14 13//14 7//14
f 2//15 13//15 14//15
f 1//16 3//16 8//16
f 3//17 14//17 8//17
f 2//18 14//18 9//18
f 4//19 10//19 9//19
f 5//20 11//20 10//20
f 6//21 12//21 11//21
f 7//22 13//22 12//22
f 8//23 14//23 13//23
f 3//24 9//24 14//24
