# Blender 5.1.2
# www.blender.org
mtllib wind_charm.mtl
g CharmLink.001_Mesh
v -0.025000 -0.010000 0.025000
v -0.025000 0.170000 0.025000
v -0.025000 -0.010000 -0.025000
v -0.025000 0.170000 -0.025000
v 0.025000 -0.010000 0.025000
v 0.025000 0.170000 0.025000
v 0.025000 -0.010000 -0.025000
v 0.025000 0.170000 -0.025000
vn -1.0000 -0.0000 -0.0000
vn -0.0000 -0.0000 -1.0000
vn 1.0000 -0.0000 -0.0000
vn -0.0000 -0.0000 1.0000
vn -0.0000 -1.0000 -0.0000
vn -0.0000 1.0000 -0.0000
vt 0.625000 0.000000
vt 0.375000 0.250000
vt 0.375000 0.000000
vt 0.625000 0.250000
vt 0.375000 0.500000
vt 0.625000 0.500000
vt 0.375000 0.750000
vt 0.625000 0.750000
vt 0.375000 1.000000
vt 0.125000 0.750000
vt 0.125000 0.500000
vt 0.875000 0.500000
vt 0.625000 1.000000
vt 0.875000 0.750000
s 0
g CharmLink.001_MAT_OldGold
usemtl MAT_OldGold
f 2/1/1 3/2/1 1/3/1
f 4/4/2 7/5/2 3/2/2
f 8/6/3 5/7/3 7/5/3
f 6/8/4 1/9/4 5/7/4
f 7/5/5 1/10/5 3/11/5
f 4/12/6 6/8/6 8/6/6
f 2/1/1 4/4/1 3/2/1
f 4/4/2 8/6/2 7/5/2
f 8/6/3 6/8/3 5/7/3
f 6/8/4 2/13/4 1/9/4
f 7/5/5 5/7/5 1/10/5
f 4/12/6 2/14/6 6/8/6
g CharmRing.001_Mesh
v 0.490000 0.450000 0.000000
v 0.420000 0.450000 0.070000
v 0.350000 0.450000 0.000000
v 0.420000 0.450000 -0.070000
v 0.396418 0.738015 -0.000000
v 0.339787 0.696870 0.070000
v 0.283156 0.655725 -0.000000
v 0.339787 0.696870 -0.070000
v 0.151418 0.916018 -0.000000
v 0.129787 0.849444 0.070000
v 0.108156 0.782870 -0.000000
v 0.129787 0.849444 -0.070000
v -0.151418 0.916018 -0.000000
v -0.129787 0.849444 0.070000
v -0.108156 0.782870 -0.000000
v -0.129787 0.849444 -0.070000
v -0.396418 0.738015 -0.000000
v -0.339787 0.696870 0.070000
v -0.283156 0.655725 -0.000000
v -0.339787 0.696870 -0.070000
v -0.490000 0.450000 -0.000000
v -0.420000 0.450000 0.070000
v -0.350000 0.450000 -0.000000
v -0.420000 0.450000 -0.070000
v -0.396418 0.161985 0.000000
v -0.339787 0.203130 0.070000
v -0.283156 0.244275 0.000000
v -0.339787 0.203130 -0.070000
v -0.151418 -0.016018 0.000000
v -0.129787 0.050556 0.070000
v -0.108156 0.117130 0.000000
v -0.129787 0.050556 -0.070000
v 0.151418 -0.016018 0.000000
v 0.129787 0.050556 0.070000
v 0.108156 0.117130 0.000000
v 0.129787 0.050556 -0.070000
v 0.396418 0.161985 0.000000
v 0.339787 0.203130 0.070000
v 0.283156 0.244275 0.000000
v 0.339787 0.203130 -0.070000
vn 0.6892 0.2239 0.6892
vn -0.6892 -0.2239 0.6892
vn -0.6892 -0.2239 -0.6892
vn 0.6892 0.2239 -0.6892
vn 0.4259 0.5862 0.6892
vn -0.4259 -0.5862 0.6892
vn -0.4259 -0.5862 -0.6892
vn 0.4259 0.5862 -0.6892
vn -0.0000 0.7246 0.6892
vn -0.0000 -0.7246 0.6892
vn -0.0000 -0.7246 -0.6892
vn -0.0000 0.7246 -0.6892
vn -0.4259 0.5862 0.6892
vn 0.4259 -0.5862 0.6892
vn 0.4259 -0.5862 -0.6892
vn -0.4259 0.5862 -0.6892
vn -0.6892 0.2239 0.6892
vn 0.6892 -0.2239 0.6892
vn 0.6892 -0.2239 -0.6892
vn -0.6892 0.2239 -0.6892
vt 0.600000 0.500000
vt 0.700000 0.750000
vt 0.600000 0.750000
vt 0.600000 1.000000
vt 0.700000 0.000000
vt 0.600000 0.250000
vt 0.600000 0.000000
vt 0.700000 0.250000
vt 0.800000 0.500000
vt 0.700000 0.500000
vt 0.800000 1.000000
vt 0.700000 1.000000
vt 0.800000 0.000000
vt 0.800000 0.250000
vt 0.900000 0.500000
vt 0.800000 0.750000
vt 0.900000 0.750000
vt 0.900000 0.250000
vt 1.000000 0.500000
vt 1.000000 1.000000
vt 0.900000 1.000000
vt 1.000000 0.000000
vt 0.900000 0.000000
vt 1.000000 0.250000
vt 0.100000 0.500000
vt -0.000000 0.750000
vt -0.000000 0.500000
vt 0.100000 0.750000
vt -0.000000 1.000000
vt -0.000000 0.000000
vt 0.100000 0.250000
vt -0.000000 0.250000
vt 0.200000 0.500000
vt 0.200000 1.000000
vt 0.100000 1.000000
vt 0.100000 0.000000
vt 0.200000 0.250000
vt 0.300000 0.750000
vt 0.200000 0.750000
vt 0.300000 0.000000
vt 0.200000 0.000000
vt 0.300000 0.500000
vt 0.400000 0.500000
vt 0.400000 0.750000
vt 0.300000 1.000000
vt 0.400000 0.000000
vt 0.300000 0.250000
vt 0.400000 0.250000
vt 0.500000 0.500000
vt 0.500000 0.750000
vt 0.400000 1.000000
vt 0.500000 0.000000
vt 0.500000 1.000000
vt 0.500000 0.250000
vt 1.000000 0.750000
s 0
g CharmRing.001_MAT_OldGold
usemtl MAT_OldGold
f 9/15/7 14/16/7 10/17/7
f 14/16/8 11/18/8 10/17/8
f 15/19/9 12/20/9 11/21/9
f 16/22/10 9/15/10 12/20/10
f 17/23/11 14/16/11 13/24/11
f 14/16/12 19/25/12 15/26/12
f 19/27/13 16/22/13 15/19/13
f 20/28/14 13/24/14 16/22/14
f 21/29/15 18/30/15 17/23/15
f 22/31/16 19/25/16 18/30/16
f 19/27/17 24/32/17 20/28/17
f 24/32/18 17/23/18 20/28/18
f 25/33/19 22/31/19 21/29/19
f 22/31/20 27/34/20 23/35/20
f 27/36/21 24/32/21 23/37/21
f 28/38/22 21/29/22 24/32/22
f 29/39/23 26/40/23 25/41/23
f 30/42/24 27/43/24 26/40/24
f 27/44/25 32/45/25 28/46/25
f 32/45/26 25/41/26 28/46/26
f 33/47/8 30/42/8 29/39/8
f 30/42/7 35/48/7 31/49/7
f 31/50/10 36/51/10 32/45/10
f 36/51/9 29/39/9 32/45/9
f 33/47/12 38/52/12 34/53/12
f 38/52/11 35/48/11 34/53/11
f 39/54/14 36/51/14 35/55/14
f 36/51/13 37/56/13 33/47/13
f 41/57/16 38/52/16 37/56/16
f 42/58/15 39/59/15 38/52/15
f 43/60/18 40/61/18 39/54/18
f 44/62/17 37/56/17 40/61/17
f 45/63/20 42/58/20 41/57/20
f 46/64/19 43/65/19 42/58/19
f 47/66/22 44/62/22 43/60/22
f 44/62/21 45/63/21 41/57/21
f 9/15/24 46/64/24 45/63/24
f 10/17/23 47/67/23 46/64/23
f 47/66/26 12/20/26 48/68/26
f 12/20/25 45/63/25 48/68/25
f 9/15/7 13/24/7 14/16/7
f 14/16/8 15/26/8 11/18/8
f 15/19/9 16/22/9 12/20/9
f 16/22/10 13/24/10 9/15/10
f 17/23/11 18/30/11 14/16/11
f 14/16/12 18/30/12 19/25/12
f 19/27/13 20/28/13 16/22/13
f 20/28/14 17/23/14 13/24/14
f 21/29/15 22/31/15 18/30/15
f 22/31/16 23/35/16 19/25/16
f 19/27/17 23/37/17 24/32/17
f 24/32/18 21/29/18 17/23/18
f 25/33/19 26/69/19 22/31/19
f 22/31/20 26/69/20 27/34/20
f 27/36/21 28/38/21 24/32/21
f 28/38/22 25/33/22 21/29/22
f 29/39/23 30/42/23 26/40/23
f 30/42/24 31/49/24 27/43/24
f 27/44/25 31/50/25 32/45/25
f 32/45/26 29/39/26 25/41/26
f 33/47/8 34/53/8 30/42/8
f 30/42/7 34/53/7 35/48/7
f 31/50/10 35/55/10 36/51/10
f 36/51/9 33/47/9 29/39/9
f 33/47/12 37/56/12 38/52/12
f 38/52/11 39/59/11 35/48/11
f 39/54/14 40/61/14 36/51/14
f 36/51/13 40/61/13 37/56/13
f 41/57/16 42/58/16 38/52/16
f 42/58/15 43/65/15 39/59/15
f 43/60/18 44/62/18 40/61/18
f 44/62/17 41/57/17 37/56/17
f 45/63/20 46/64/20 42/58/20
f 46/64/19 47/67/19 43/65/19
f 47/66/22 48/68/22 44/62/22
f 44/62/21 48/68/21 45/63/21
f 9/15/24 10/17/24 46/64/24
f 10/17/23 11/18/23 47/67/23
f 47/66/26 11/21/26 12/20/26
f 12/20/25 9/15/25 45/63/25
g WindPendant.001_Mesh
v 0.000000 -0.610000 -0.270000
v 0.000000 0.010000 -0.120000
v 0.256785 -0.610000 -0.083435
v 0.114127 0.010000 -0.037082
v 0.158702 -0.610000 0.218435
v 0.070534 0.010000 0.097082
v -0.158702 -0.610000 0.218435
v -0.070534 0.010000 0.097082
v -0.256785 -0.610000 -0.083435
v -0.114127 0.010000 -0.037082
vn 0.5768 0.1921 -0.7940
vn 0.9333 0.1921 0.3033
vn -0.0000 0.1921 0.9814
vn -0.0000 1.0000 -0.0000
vn -0.9333 0.1921 0.3033
vn -0.5768 0.1921 -0.7940
vn -0.0000 -1.0000 -0.0000
vt 1.000000 0.500000
vt 0.800000 1.000000
vt 0.800000 0.500000
vt 0.600000 0.500000
vt 0.600000 1.000000
vt 0.400000 0.500000
vt 0.250000 0.490000
vt 0.108932 0.055836
vt 0.391068 0.055836
vt 0.400000 1.000000
vt 0.200000 0.500000
vt 0.200000 1.000000
vt 0.000000 0.500000
vt 0.978254 0.324164
vt 0.608932 0.055836
vt 0.521746 0.324164
vt 1.000000 1.000000
vt 0.478254 0.324164
vt 0.021746 0.324164
vt 0.000000 1.000000
vt 0.750000 0.490000
vt 0.891068 0.055836
s 0
g WindPendant.001_MAT_WindTeal
usemtl MAT_WindTeal
f 49/70/27 52/71/27 51/72/27
f 52/71/28 53/73/28 51/72/28
f 54/74/29 55/75/29 53/73/29
f 50/76/30 56/77/30 54/78/30
f 56/79/31 57/80/31 55/75/31
f 58/81/32 49/82/32 57/80/32
f 51/83/33 55/84/33 57/85/33
f 49/70/27 50/86/27 52/71/27
f 52/71/28 54/74/28 53/73/28
f 54/74/29 56/79/29 55/75/29
f 54/78/30 52/87/30 50/76/30
f 50/76/30 58/88/30 56/77/30
f 56/79/31 58/81/31 57/80/31
f 58/81/32 50/89/32 49/82/32
f 57/85/33 49/90/33 51/83/33
f 51/83/33 53/91/33 55/84/33
