# Generated by tools/asset-gen/build_first_stratum_props.py
mtllib dungeon_chest.mtl
o dungeon_chest

v -0.320000 0.000000 -0.220000
v 0.320000 0.000000 -0.220000
v 0.320000 0.280000 -0.220000
v -0.320000 0.280000 -0.220000
v 0.320000 0.000000 0.220000
v -0.320000 0.000000 0.220000
v -0.320000 0.280000 0.220000
v 0.320000 0.280000 0.220000
v 0.320000 0.000000 -0.220000
v 0.320000 0.000000 0.220000
v 0.320000 0.280000 0.220000
v 0.320000 0.280000 -0.220000
v -0.320000 0.000000 0.220000
v -0.320000 0.000000 -0.220000
v -0.320000 0.280000 -0.220000
v -0.320000 0.280000 0.220000
v -0.320000 0.280000 0.220000
v 0.320000 0.280000 0.220000
v 0.320000 0.280000 -0.220000
v -0.320000 0.280000 -0.220000
v -0.320000 0.000000 -0.220000
v 0.320000 0.000000 -0.220000
v 0.320000 0.000000 0.220000
v -0.320000 0.000000 0.220000
v -0.330000 0.000000 -0.225000
v -0.290000 0.000000 -0.225000
v -0.290000 0.290000 -0.225000
v -0.330000 0.290000 -0.225000
v -0.290000 0.000000 0.225000
v -0.330000 0.000000 0.225000
v -0.330000 0.290000 0.225000
v -0.290000 0.290000 0.225000
v -0.290000 0.000000 -0.225000
v -0.290000 0.000000 0.225000
v -0.290000 0.290000 0.225000
v -0.290000 0.290000 -0.225000
v -0.330000 0.000000 0.225000
v -0.330000 0.000000 -0.225000
v -0.330000 0.290000 -0.225000
v -0.330000 0.290000 0.225000
v -0.330000 0.290000 0.225000
v -0.290000 0.290000 0.225000
v -0.290000 0.290000 -0.225000
v -0.330000 0.290000 -0.225000
v -0.330000 0.000000 -0.225000
v -0.290000 0.000000 -0.225000
v -0.290000 0.000000 0.225000
v -0.330000 0.000000 0.225000
v 0.290000 0.000000 -0.225000
v 0.330000 0.000000 -0.225000
v 0.330000 0.290000 -0.225000
v 0.290000 0.290000 -0.225000
v 0.330000 0.000000 0.225000
v 0.290000 0.000000 0.225000
v 0.290000 0.290000 0.225000
v 0.330000 0.290000 0.225000
v 0.330000 0.000000 -0.225000
v 0.330000 0.000000 0.225000
v 0.330000 0.290000 0.225000
v 0.330000 0.290000 -0.225000
v 0.290000 0.000000 0.225000
v 0.290000 0.000000 -0.225000
v 0.290000 0.290000 -0.225000
v 0.290000 0.290000 0.225000
v 0.290000 0.290000 0.225000
v 0.330000 0.290000 0.225000
v 0.330000 0.290000 -0.225000
v 0.290000 0.290000 -0.225000
v 0.290000 0.000000 -0.225000
v 0.330000 0.000000 -0.225000
v 0.330000 0.000000 0.225000
v 0.290000 0.000000 0.225000
v -0.325000 0.000000 -0.230000
v 0.325000 0.000000 -0.230000
v 0.325000 0.290000 -0.230000
v -0.325000 0.290000 -0.230000
v 0.325000 0.000000 -0.190000
v -0.325000 0.000000 -0.190000
v -0.325000 0.290000 -0.190000
v 0.325000 0.290000 -0.190000
v 0.325000 0.000000 -0.230000
v 0.325000 0.000000 -0.190000
v 0.325000 0.290000 -0.190000
v 0.325000 0.290000 -0.230000
v -0.325000 0.000000 -0.190000
v -0.325000 0.000000 -0.230000
v -0.325000 0.290000 -0.230000
v -0.325000 0.290000 -0.190000
v -0.325000 0.290000 -0.190000
v 0.325000 0.290000 -0.190000
v 0.325000 0.290000 -0.230000
v -0.325000 0.290000 -0.230000
v -0.325000 0.000000 -0.230000
v 0.325000 0.000000 -0.230000
v 0.325000 0.000000 -0.190000
v -0.325000 0.000000 -0.190000
v -0.325000 0.000000 0.190000
v 0.325000 0.000000 0.190000
v 0.325000 0.290000 0.190000
v -0.325000 0.290000 0.190000
v 0.325000 0.000000 0.230000
v -0.325000 0.000000 0.230000
v -0.325000 0.290000 0.230000
v 0.325000 0.290000 0.230000
v 0.325000 0.000000 0.190000
v 0.325000 0.000000 0.230000
v 0.325000 0.290000 0.230000
v 0.325000 0.290000 0.190000
v -0.325000 0.000000 0.230000
v -0.325000 0.000000 0.190000
v -0.325000 0.290000 0.190000
v -0.325000 0.290000 0.230000
v -0.325000 0.290000 0.230000
v 0.325000 0.290000 0.230000
v 0.325000 0.290000 0.190000
v -0.325000 0.290000 0.190000
v -0.325000 0.000000 0.190000
v 0.325000 0.000000 0.190000
v 0.325000 0.000000 0.230000
v -0.325000 0.000000 0.230000
v -0.325000 0.130000 -0.225000
v 0.325000 0.130000 -0.225000
v 0.325000 0.160000 -0.225000
v -0.325000 0.160000 -0.225000
v 0.325000 0.130000 0.225000
v -0.325000 0.130000 0.225000
v -0.325000 0.160000 0.225000
v 0.325000 0.160000 0.225000
v 0.325000 0.130000 -0.225000
v 0.325000 0.130000 0.225000
v 0.325000 0.160000 0.225000
v 0.325000 0.160000 -0.225000
v -0.325000 0.130000 0.225000
v -0.325000 0.130000 -0.225000
v -0.325000 0.160000 -0.225000
v -0.325000 0.160000 0.225000
v -0.325000 0.160000 0.225000
v 0.325000 0.160000 0.225000
v 0.325000 0.160000 -0.225000
v -0.325000 0.160000 -0.225000
v -0.325000 0.130000 -0.225000
v 0.325000 0.130000 -0.225000
v 0.325000 0.130000 0.225000
v -0.325000 0.130000 0.225000
v -0.310000 0.140000 0.220000
v 0.310000 0.140000 0.220000
v 0.310000 0.220000 0.190526
v -0.310000 0.220000 0.190526
v -0.310000 0.220000 0.190526
v 0.310000 0.220000 0.190526
v 0.310000 0.278564 0.110000
v -0.310000 0.278564 0.110000
v -0.310000 0.278564 0.110000
v 0.310000 0.278564 0.110000
v 0.310000 0.300000 0.000000
v -0.310000 0.300000 0.000000
v -0.310000 0.300000 0.000000
v 0.310000 0.300000 0.000000
v 0.310000 0.278564 -0.110000
v -0.310000 0.278564 -0.110000
v -0.310000 0.278564 -0.110000
v 0.310000 0.278564 -0.110000
v 0.310000 0.220000 -0.190526
v -0.310000 0.220000 -0.190526
v -0.310000 0.220000 -0.190526
v 0.310000 0.220000 -0.190526
v 0.310000 0.140000 -0.220000
v -0.310000 0.140000 -0.220000
v -0.320000 0.140000 0.220000
v -0.320000 0.220000 0.190526
v -0.320000 0.278564 0.110000
v -0.320000 0.300000 0.000000
v -0.320000 0.278564 -0.110000
v -0.320000 0.220000 -0.190526
v -0.320000 0.140000 -0.220000
v 0.320000 0.140000 -0.220000
v 0.320000 0.220000 -0.190526
v 0.320000 0.278564 -0.110000
v 0.320000 0.300000 0.000000
v 0.320000 0.278564 0.110000
v 0.320000 0.220000 0.190526
v 0.320000 0.140000 0.220000
v -0.325000 0.220000 -0.025000
v 0.325000 0.220000 -0.025000
v 0.325000 0.260000 -0.025000
v -0.325000 0.260000 -0.025000
v 0.325000 0.220000 0.025000
v -0.325000 0.220000 0.025000
v -0.325000 0.260000 0.025000
v 0.325000 0.260000 0.025000
v 0.325000 0.220000 -0.025000
v 0.325000 0.220000 0.025000
v 0.325000 0.260000 0.025000
v 0.325000 0.260000 -0.025000
v -0.325000 0.220000 0.025000
v -0.325000 0.220000 -0.025000
v -0.325000 0.260000 -0.025000
v -0.325000 0.260000 0.025000
v -0.325000 0.260000 0.025000
v 0.325000 0.260000 0.025000
v 0.325000 0.260000 -0.025000
v -0.325000 0.260000 -0.025000
v -0.325000 0.220000 -0.025000
v 0.325000 0.220000 -0.025000
v 0.325000 0.220000 0.025000
v -0.325000 0.220000 0.025000
v -0.220000 0.220000 -0.225000
v -0.180000 0.220000 -0.225000
v -0.180000 0.260000 -0.225000
v -0.220000 0.260000 -0.225000
v -0.180000 0.220000 0.225000
v -0.220000 0.220000 0.225000
v -0.220000 0.260000 0.225000
v -0.180000 0.260000 0.225000
v -0.180000 0.220000 -0.225000
v -0.180000 0.220000 0.225000
v -0.180000 0.260000 0.225000
v -0.180000 0.260000 -0.225000
v -0.220000 0.220000 0.225000
v -0.220000 0.220000 -0.225000
v -0.220000 0.260000 -0.225000
v -0.220000 0.260000 0.225000
v -0.220000 0.260000 0.225000
v -0.180000 0.260000 0.225000
v -0.180000 0.260000 -0.225000
v -0.220000 0.260000 -0.225000
v -0.220000 0.220000 -0.225000
v -0.180000 0.220000 -0.225000
v -0.180000 0.220000 0.225000
v -0.220000 0.220000 0.225000
v 0.180000 0.220000 -0.225000
v 0.220000 0.220000 -0.225000
v 0.220000 0.260000 -0.225000
v 0.180000 0.260000 -0.225000
v 0.220000 0.220000 0.225000
v 0.180000 0.220000 0.225000
v 0.180000 0.260000 0.225000
v 0.220000 0.260000 0.225000
v 0.220000 0.220000 -0.225000
v 0.220000 0.220000 0.225000
v 0.220000 0.260000 0.225000
v 0.220000 0.260000 -0.225000
v 0.180000 0.220000 0.225000
v 0.180000 0.220000 -0.225000
v 0.180000 0.260000 -0.225000
v 0.180000 0.260000 0.225000
v 0.180000 0.260000 0.225000
v 0.220000 0.260000 0.225000
v 0.220000 0.260000 -0.225000
v 0.180000 0.260000 -0.225000
v 0.180000 0.220000 -0.225000
v 0.220000 0.220000 -0.225000
v 0.220000 0.220000 0.225000
v 0.180000 0.220000 0.225000
v -0.060000 0.120000 -0.245000
v 0.060000 0.120000 -0.245000
v 0.060000 0.260000 -0.245000
v -0.060000 0.260000 -0.245000
v 0.060000 0.120000 -0.215000
v -0.060000 0.120000 -0.215000
v -0.060000 0.260000 -0.215000
v 0.060000 0.260000 -0.215000
v 0.060000 0.120000 -0.245000
v 0.060000 0.120000 -0.215000
v 0.060000 0.260000 -0.215000
v 0.060000 0.260000 -0.245000
v -0.060000 0.120000 -0.215000
v -0.060000 0.120000 -0.245000
v -0.060000 0.260000 -0.245000
v -0.060000 0.260000 -0.215000
v -0.060000 0.260000 -0.215000
v 0.060000 0.260000 -0.215000
v 0.060000 0.260000 -0.245000
v -0.060000 0.260000 -0.245000
v -0.060000 0.120000 -0.245000
v 0.060000 0.120000 -0.245000
v 0.060000 0.120000 -0.215000
v -0.060000 0.120000 -0.215000
v -0.020000 0.100000 -0.250000
v 0.020000 0.100000 -0.250000
v 0.020000 0.160000 -0.250000
v -0.020000 0.160000 -0.250000
v 0.020000 0.100000 -0.230000
v -0.020000 0.100000 -0.230000
v -0.020000 0.160000 -0.230000
v 0.020000 0.160000 -0.230000
v 0.020000 0.100000 -0.250000
v 0.020000 0.100000 -0.230000
v 0.020000 0.160000 -0.230000
v 0.020000 0.160000 -0.250000
v -0.020000 0.100000 -0.230000
v -0.020000 0.100000 -0.250000
v -0.020000 0.160000 -0.250000
v -0.020000 0.160000 -0.230000
v -0.020000 0.160000 -0.230000
v 0.020000 0.160000 -0.230000
v 0.020000 0.160000 -0.250000
v -0.020000 0.160000 -0.250000
v -0.020000 0.100000 -0.250000
v 0.020000 0.100000 -0.250000
v 0.020000 0.100000 -0.230000
v -0.020000 0.100000 -0.230000
v -0.345000 0.100000 -0.050000
v -0.315000 0.100000 -0.050000
v -0.315000 0.140000 -0.050000
v -0.345000 0.140000 -0.050000
v -0.315000 0.100000 0.050000
v -0.345000 0.100000 0.050000
v -0.345000 0.140000 0.050000
v -0.315000 0.140000 0.050000
v -0.315000 0.100000 -0.050000
v -0.315000 0.100000 0.050000
v -0.315000 0.140000 0.050000
v -0.315000 0.140000 -0.050000
v -0.345000 0.100000 0.050000
v -0.345000 0.100000 -0.050000
v -0.345000 0.140000 -0.050000
v -0.345000 0.140000 0.050000
v -0.345000 0.140000 0.050000
v -0.315000 0.140000 0.050000
v -0.315000 0.140000 -0.050000
v -0.345000 0.140000 -0.050000
v -0.345000 0.100000 -0.050000
v -0.315000 0.100000 -0.050000
v -0.315000 0.100000 0.050000
v -0.345000 0.100000 0.050000
v 0.315000 0.100000 -0.050000
v 0.345000 0.100000 -0.050000
v 0.345000 0.140000 -0.050000
v 0.315000 0.140000 -0.050000
v 0.345000 0.100000 0.050000
v 0.315000 0.100000 0.050000
v 0.315000 0.140000 0.050000
v 0.345000 0.140000 0.050000
v 0.345000 0.100000 -0.050000
v 0.345000 0.100000 0.050000
v 0.345000 0.140000 0.050000
v 0.345000 0.140000 -0.050000
v 0.315000 0.100000 0.050000
v 0.315000 0.100000 -0.050000
v 0.315000 0.140000 -0.050000
v 0.315000 0.140000 0.050000
v 0.315000 0.140000 0.050000
v 0.345000 0.140000 0.050000
v 0.345000 0.140000 -0.050000
v 0.315000 0.140000 -0.050000
v 0.315000 0.100000 -0.050000
v 0.345000 0.100000 -0.050000
v 0.345000 0.100000 0.050000
v 0.315000 0.100000 0.050000
vt 0.000000 1.000000
vt 1.000000 1.000000
vt 1.000000 0.000000
vt 0.000000 0.000000
vt 0.000000 1.000000
vt 1.000000 1.000000
vt 1.000000 0.000000
vt 0.000000 0.000000
vt 0.000000 1.000000
vt 1.000000 1.000000
vt 1.000000 0.000000
vt 0.000000 0.000000
vt 0.000000 1.000000
vt 1.000000 1.000000
vt 1.000000 0.000000
vt 0.000000 0.000000
vt 0.000000 1.000000
vt 1.000000 1.000000
vt 1.000000 0.000000
vt 0.000000 0.000000
vt 0.000000 1.000000
vt 1.000000 1.000000
vt 1.000000 0.000000
vt 0.000000 0.000000
vt 0.000000 1.000000
vt 1.000000 1.000000
vt 1.000000 0.000000
vt 0.000000 0.000000
vt 0.000000 1.000000
vt 1.000000 1.000000
vt 1.000000 0.000000
vt 0.000000 0.000000
vt 0.000000 1.000000
vt 1.000000 1.000000
vt 1.000000 0.000000
vt 0.000000 0.000000
vt 0.000000 1.000000
vt 1.000000 1.000000
vt 1.000000 0.000000
vt 0.000000 0.000000
vt 0.000000 1.000000
vt 1.000000 1.000000
vt 1.000000 0.000000
vt 0.000000 0.000000
vt 0.000000 1.000000
vt 1.000000 1.000000
vt 1.000000 0.000000
vt 0.000000 0.000000
vt 0.000000 1.000000
vt 1.000000 1.000000
vt 1.000000 0.000000
vt 0.000000 0.000000
vt 0.000000 1.000000
vt 1.000000 1.000000
vt 1.000000 0.000000
vt 0.000000 0.000000
vt 0.000000 1.000000
vt 1.000000 1.000000
vt 1.000000 0.000000
vt 0.000000 0.000000
vt 0.000000 1.000000
vt 1.000000 1.000000
vt 1.000000 0.000000
vt 0.000000 0.000000
vt 0.000000 1.000000
vt 1.000000 1.000000
vt 1.000000 0.000000
vt 0.000000 0.000000
vt 0.000000 1.000000
vt 1.000000 1.000000
vt 1.000000 0.000000
vt 0.000000 0.000000
vt 0.000000 1.000000
vt 1.000000 1.000000
vt 1.000000 0.000000
vt 0.000000 0.000000
vt 0.000000 1.000000
vt 1.000000 1.000000
vt 1.000000 0.000000
vt 0.000000 0.000000
vt 0.000000 1.000000
vt 1.000000 1.000000
vt 1.000000 0.000000
vt 0.000000 0.000000
vt 0.000000 1.000000
vt 1.000000 1.000000
vt 1.000000 0.000000
vt 0.000000 0.000000
vt 0.000000 1.000000
vt 1.000000 1.000000
vt 1.000000 0.000000
vt 0.000000 0.000000
vt 0.000000 1.000000
vt 1.000000 1.000000
vt 1.000000 0.000000
vt 0.000000 0.000000
vt 0.000000 1.000000
vt 1.000000 1.000000
vt 1.000000 0.000000
vt 0.000000 0.000000
vt 0.000000 1.000000
vt 1.000000 1.000000
vt 1.000000 0.000000
vt 0.000000 0.000000
vt 0.000000 1.000000
vt 1.000000 1.000000
vt 1.000000 0.000000
vt 0.000000 0.000000
vt 0.000000 1.000000
vt 1.000000 1.000000
vt 1.000000 0.000000
vt 0.000000 0.000000
vt 0.000000 1.000000
vt 1.000000 1.000000
vt 1.000000 0.000000
vt 0.000000 0.000000
vt 0.000000 1.000000
vt 1.000000 1.000000
vt 1.000000 0.000000
vt 0.000000 0.000000
vt 0.000000 1.000000
vt 1.000000 1.000000
vt 1.000000 0.000000
vt 0.000000 0.000000
vt 0.000000 1.000000
vt 1.000000 1.000000
vt 1.000000 0.000000
vt 0.000000 0.000000
vt 0.000000 1.000000
vt 1.000000 1.000000
vt 1.000000 0.000000
vt 0.000000 0.000000
vt 0.000000 1.000000
vt 1.000000 1.000000
vt 1.000000 0.000000
vt 0.000000 0.000000
vt 0.000000 1.000000
vt 1.000000 1.000000
vt 1.000000 0.000000
vt 0.000000 0.000000
vt 0.000000 1.000000
vt 1.000000 1.000000
vt 1.000000 0.000000
vt 0.000000 0.000000
vt 0.000000 1.000000
vt 1.000000 1.000000
vt 1.000000 0.000000
vt 0.000000 0.000000
vt 0.000000 1.000000
vt 1.000000 1.000000
vt 1.000000 0.000000
vt 0.000000 0.000000
vt 0.000000 1.000000
vt 1.000000 1.000000
vt 1.000000 0.000000
vt 0.000000 0.000000
vt 0.000000 1.000000
vt 1.000000 1.000000
vt 1.000000 0.000000
vt 0.000000 0.000000
vt 0.000000 1.000000
vt 1.000000 1.000000
vt 1.000000 0.000000
vt 0.000000 0.000000
vt 0.000000 1.000000
vt 1.000000 1.000000
vt 1.000000 0.000000
vt 0.000000 0.000000
vt 0.500000 0.500000
vt 0.500000 0.500000
vt 0.500000 0.500000
vt 0.500000 0.500000
vt 0.500000 0.500000
vt 0.500000 0.500000
vt 0.500000 0.500000
vt 0.500000 0.500000
vt 0.500000 0.500000
vt 0.500000 0.500000
vt 0.500000 0.500000
vt 0.500000 0.500000
vt 0.500000 0.500000
vt 0.500000 0.500000
vt 0.000000 1.000000
vt 1.000000 1.000000
vt 1.000000 0.000000
vt 0.000000 0.000000
vt 0.000000 1.000000
vt 1.000000 1.000000
vt 1.000000 0.000000
vt 0.000000 0.000000
vt 0.000000 1.000000
vt 1.000000 1.000000
vt 1.000000 0.000000
vt 0.000000 0.000000
vt 0.000000 1.000000
vt 1.000000 1.000000
vt 1.000000 0.000000
vt 0.000000 0.000000
vt 0.000000 1.000000
vt 1.000000 1.000000
vt 1.000000 0.000000
vt 0.000000 0.000000
vt 0.000000 1.000000
vt 1.000000 1.000000
vt 1.000000 0.000000
vt 0.000000 0.000000
vt 0.000000 1.000000
vt 1.000000 1.000000
vt 1.000000 0.000000
vt 0.000000 0.000000
vt 0.000000 1.000000
vt 1.000000 1.000000
vt 1.000000 0.000000
vt 0.000000 0.000000
vt 0.000000 1.000000
vt 1.000000 1.000000
vt 1.000000 0.000000
vt 0.000000 0.000000
vt 0.000000 1.000000
vt 1.000000 1.000000
vt 1.000000 0.000000
vt 0.000000 0.000000
vt 0.000000 1.000000
vt 1.000000 1.000000
vt 1.000000 0.000000
vt 0.000000 0.000000
vt 0.000000 1.000000
vt 1.000000 1.000000
vt 1.000000 0.000000
vt 0.000000 0.000000
vt 0.000000 1.000000
vt 1.000000 1.000000
vt 1.000000 0.000000
vt 0.000000 0.000000
vt 0.000000 1.000000
vt 1.000000 1.000000
vt 1.000000 0.000000
vt 0.000000 0.000000
vt 0.000000 1.000000
vt 1.000000 1.000000
vt 1.000000 0.000000
vt 0.000000 0.000000
vt 0.000000 1.000000
vt 1.000000 1.000000
vt 1.000000 0.000000
vt 0.000000 0.000000
vt 0.000000 1.000000
vt 1.000000 1.000000
vt 1.000000 0.000000
vt 0.000000 0.000000
vt 0.000000 1.000000
vt 1.000000 1.000000
vt 1.000000 0.000000
vt 0.000000 0.000000
vt 0.000000 1.000000
vt 1.000000 1.000000
vt 1.000000 0.000000
vt 0.000000 0.000000
vt 0.000000 1.000000
vt 1.000000 1.000000
vt 1.000000 0.000000
vt 0.000000 0.000000
vt 0.000000 1.000000
vt 1.000000 1.000000
vt 1.000000 0.000000
vt 0.000000 0.000000
vt 0.000000 1.000000
vt 1.000000 1.000000
vt 1.000000 0.000000
vt 0.000000 0.000000
vt 0.000000 1.000000
vt 1.000000 1.000000
vt 1.000000 0.000000
vt 0.000000 0.000000
vt 0.000000 1.000000
vt 1.000000 1.000000
vt 1.000000 0.000000
vt 0.000000 0.000000
vt 0.000000 1.000000
vt 1.000000 1.000000
vt 1.000000 0.000000
vt 0.000000 0.000000
vt 0.000000 1.000000
vt 1.000000 1.000000
vt 1.000000 0.000000
vt 0.000000 0.000000
vt 0.000000 1.000000
vt 1.000000 1.000000
vt 1.000000 0.000000
vt 0.000000 0.000000
vt 0.000000 1.000000
vt 1.000000 1.000000
vt 1.000000 0.000000
vt 0.000000 0.000000
vt 0.000000 1.000000
vt 1.000000 1.000000
vt 1.000000 0.000000
vt 0.000000 0.000000
vt 0.000000 1.000000
vt 1.000000 1.000000
vt 1.000000 0.000000
vt 0.000000 0.000000
vt 0.000000 1.000000
vt 1.000000 1.000000
vt 1.000000 0.000000
vt 0.000000 0.000000
vt 0.000000 1.000000
vt 1.000000 1.000000
vt 1.000000 0.000000
vt 0.000000 0.000000
vt 0.000000 1.000000
vt 1.000000 1.000000
vt 1.000000 0.000000
vt 0.000000 0.000000
vt 0.000000 1.000000
vt 1.000000 1.000000
vt 1.000000 0.000000
vt 0.000000 0.000000
vt 0.000000 1.000000
vt 1.000000 1.000000
vt 1.000000 0.000000
vt 0.000000 0.000000
vt 0.000000 1.000000
vt 1.000000 1.000000
vt 1.000000 0.000000
vt 0.000000 0.000000
vt 0.000000 1.000000
vt 1.000000 1.000000
vt 1.000000 0.000000
vt 0.000000 0.000000
vt 0.000000 1.000000
vt 1.000000 1.000000
vt 1.000000 0.000000
vt 0.000000 0.000000
vt 0.000000 1.000000
vt 1.000000 1.000000
vt 1.000000 0.000000
vt 0.000000 0.000000
vt 0.000000 1.000000
vt 1.000000 1.000000
vt 1.000000 0.000000
vt 0.000000 0.000000
vt 0.000000 1.000000
vt 1.000000 1.000000
vt 1.000000 0.000000
vt 0.000000 0.000000
vt 0.000000 1.000000
vt 1.000000 1.000000
vt 1.000000 0.000000
vt 0.000000 0.000000
vn 0.000000 0.000000 1.000000
vn 0.000000 0.000000 -1.000000
vn -1.000000 0.000000 -0.000000
vn 1.000000 0.000000 -0.000000
vn 0.000000 1.000000 -0.000000
vn 0.000000 -1.000000 -0.000000
vn 0.000000 0.000000 1.000000
vn 0.000000 0.000000 -1.000000
vn -1.000000 0.000000 -0.000000
vn 1.000000 0.000000 -0.000000
vn 0.000000 1.000000 -0.000000
vn 0.000000 -1.000000 -0.000000
vn 0.000000 0.000000 1.000000
vn 0.000000 0.000000 -1.000000
vn -1.000000 0.000000 -0.000000
vn 1.000000 0.000000 -0.000000
vn 0.000000 1.000000 -0.000000
vn 0.000000 -1.000000 -0.000000
vn 0.000000 0.000000 1.000000
vn 0.000000 0.000000 -1.000000
vn -1.000000 0.000000 -0.000000
vn 1.000000 0.000000 -0.000000
vn 0.000000 1.000000 -0.000000
vn 0.000000 -1.000000 -0.000000
vn 0.000000 0.000000 1.000000
vn 0.000000 0.000000 -1.000000
vn -1.000000 0.000000 -0.000000
vn 1.000000 0.000000 -0.000000
vn 0.000000 1.000000 -0.000000
vn 0.000000 -1.000000 -0.000000
vn 0.000000 0.000000 1.000000
vn 0.000000 0.000000 -1.000000
vn -1.000000 0.000000 -0.000000
vn 1.000000 0.000000 -0.000000
vn 0.000000 1.000000 -0.000000
vn 0.000000 -1.000000 -0.000000
vn 0.000000 0.345713 0.938340
vn 0.000000 0.808736 0.588172
vn 0.000000 0.981537 0.191274
vn -0.000000 0.981537 -0.191274
vn -0.000000 0.808736 -0.588172
vn -0.000000 0.345713 -0.938340
vn -1.000000 0.000000 -0.000000
vn 1.000000 0.000000 -0.000000
vn 0.000000 0.000000 1.000000
vn 0.000000 0.000000 -1.000000
vn -1.000000 0.000000 -0.000000
vn 1.000000 0.000000 -0.000000
vn 0.000000 1.000000 -0.000000
vn 0.000000 -1.000000 -0.000000
vn 0.000000 0.000000 1.000000
vn 0.000000 0.000000 -1.000000
vn -1.000000 0.000000 -0.000000
vn 1.000000 0.000000 -0.000000
vn 0.000000 1.000000 -0.000000
vn 0.000000 -1.000000 -0.000000
vn 0.000000 0.000000 1.000000
vn 0.000000 0.000000 -1.000000
vn -1.000000 0.000000 -0.000000
vn 1.000000 0.000000 -0.000000
vn 0.000000 1.000000 -0.000000
vn 0.000000 -1.000000 -0.000000
vn 0.000000 0.000000 1.000000
vn 0.000000 0.000000 -1.000000
vn -1.000000 0.000000 -0.000000
vn 1.000000 0.000000 -0.000000
vn 0.000000 1.000000 -0.000000
vn 0.000000 -1.000000 -0.000000
vn 0.000000 0.000000 1.000000
vn 0.000000 0.000000 -1.000000
vn -1.000000 0.000000 -0.000000
vn 1.000000 0.000000 -0.000000
vn 0.000000 1.000000 -0.000000
vn 0.000000 -1.000000 -0.000000
vn 0.000000 0.000000 1.000000
vn 0.000000 0.000000 -1.000000
vn -1.000000 0.000000 -0.000000
vn 1.000000 0.000000 -0.000000
vn 0.000000 1.000000 -0.000000
vn 0.000000 -1.000000 -0.000000
vn 0.000000 0.000000 1.000000
vn 0.000000 0.000000 -1.000000
vn -1.000000 0.000000 -0.000000
vn 1.000000 0.000000 -0.000000
vn 0.000000 1.000000 -0.000000
vn 0.000000 -1.000000 -0.000000

usemtl wood_body
f 1/1/1 2/2/1 3/3/1 4/4/1
f 5/5/2 6/6/2 7/7/2 8/8/2
f 9/9/3 10/10/3 11/11/3 12/12/3
f 13/13/4 14/14/4 15/15/4 16/16/4
f 17/17/5 18/18/5 19/19/5 20/20/5
f 21/21/6 22/22/6 23/23/6 24/24/6
f 145/145/37 146/146/37 147/147/37 148/148/37
f 149/149/38 150/150/38 151/151/38 152/152/38
f 153/153/39 154/154/39 155/155/39 156/156/39
f 157/157/40 158/158/40 159/159/40 160/160/40
f 161/161/41 162/162/41 163/163/41 164/164/41
f 165/165/42 166/166/42 167/167/42 168/168/42

usemtl iron_trim
f 25/25/7 26/26/7 27/27/7 28/28/7
f 29/29/8 30/30/8 31/31/8 32/32/8
f 33/33/9 34/34/9 35/35/9 36/36/9
f 37/37/10 38/38/10 39/39/10 40/40/10
f 41/41/11 42/42/11 43/43/11 44/44/11
f 45/45/12 46/46/12 47/47/12 48/48/12
f 49/49/13 50/50/13 51/51/13 52/52/13
f 53/53/14 54/54/14 55/55/14 56/56/14
f 57/57/15 58/58/15 59/59/15 60/60/15
f 61/61/16 62/62/16 63/63/16 64/64/16
f 65/65/17 66/66/17 67/67/17 68/68/17
f 69/69/18 70/70/18 71/71/18 72/72/18
f 73/73/19 74/74/19 75/75/19 76/76/19
f 77/77/20 78/78/20 79/79/20 80/80/20
f 81/81/21 82/82/21 83/83/21 84/84/21
f 85/85/22 86/86/22 87/87/22 88/88/22
f 89/89/23 90/90/23 91/91/23 92/92/23
f 93/93/24 94/94/24 95/95/24 96/96/24
f 97/97/25 98/98/25 99/99/25 100/100/25
f 101/101/26 102/102/26 103/103/26 104/104/26
f 105/105/27 106/106/27 107/107/27 108/108/27
f 109/109/28 110/110/28 111/111/28 112/112/28
f 113/113/29 114/114/29 115/115/29 116/116/29
f 117/117/30 118/118/30 119/119/30 120/120/30
f 121/121/31 122/122/31 123/123/31 124/124/31
f 125/125/32 126/126/32 127/127/32 128/128/32
f 129/129/33 130/130/33 131/131/33 132/132/33
f 133/133/34 134/134/34 135/135/34 136/136/34
f 137/137/35 138/138/35 139/139/35 140/140/35
f 141/141/36 142/142/36 143/143/36 144/144/36
f 169/169/43 170/170/43 171/171/43
f 169/169/43 171/171/43 172/172/43
f 169/169/43 172/172/43 173/173/43
f 169/169/43 173/173/43 174/174/43
f 169/169/43 174/174/43 175/175/43
f 176/176/44 177/177/44 178/178/44
f 176/176/44 178/178/44 179/179/44
f 176/176/44 179/179/44 180/180/44
f 176/176/44 180/180/44 181/181/44
f 176/176/44 181/181/44 182/182/44
f 183/183/45 184/184/45 185/185/45 186/186/45
f 187/187/46 188/188/46 189/189/46 190/190/46
f 191/191/47 192/192/47 193/193/47 194/194/47
f 195/195/48 196/196/48 197/197/48 198/198/48
f 199/199/49 200/200/49 201/201/49 202/202/49
f 203/203/50 204/204/50 205/205/50 206/206/50
f 207/207/51 208/208/51 209/209/51 210/210/51
f 211/211/52 212/212/52 213/213/52 214/214/52
f 215/215/53 216/216/53 217/217/53 218/218/53
f 219/219/54 220/220/54 221/221/54 222/222/54
f 223/223/55 224/224/55 225/225/55 226/226/55
f 227/227/56 228/228/56 229/229/56 230/230/56
f 231/231/57 232/232/57 233/233/57 234/234/57
f 235/235/58 236/236/58 237/237/58 238/238/58
f 239/239/59 240/240/59 241/241/59 242/242/59
f 243/243/60 244/244/60 245/245/60 246/246/60
f 247/247/61 248/248/61 249/249/61 250/250/61
f 251/251/62 252/252/62 253/253/62 254/254/62
f 303/303/75 304/304/75 305/305/75 306/306/75
f 307/307/76 308/308/76 309/309/76 310/310/76
f 311/311/77 312/312/77 313/313/77 314/314/77
f 315/315/78 316/316/78 317/317/78 318/318/78
f 319/319/79 320/320/79 321/321/79 322/322/79
f 323/323/80 324/324/80 325/325/80 326/326/80
f 327/327/81 328/328/81 329/329/81 330/330/81
f 331/331/82 332/332/82 333/333/82 334/334/82
f 335/335/83 336/336/83 337/337/83 338/338/83
f 339/339/84 340/340/84 341/341/84 342/342/84
f 343/343/85 344/344/85 345/345/85 346/346/85
f 347/347/86 348/348/86 349/349/86 350/350/86

usemtl gold_lock
f 255/255/63 256/256/63 257/257/63 258/258/63
f 259/259/64 260/260/64 261/261/64 262/262/64
f 263/263/65 264/264/65 265/265/65 266/266/65
f 267/267/66 268/268/66 269/269/66 270/270/66
f 271/271/67 272/272/67 273/273/67 274/274/67
f 275/275/68 276/276/68 277/277/68 278/278/68
f 279/279/69 280/280/69 281/281/69 282/282/69
f 283/283/70 284/284/70 285/285/70 286/286/70
f 287/287/71 288/288/71 289/289/71 290/290/71
f 291/291/72 292/292/72 293/293/72 294/294/72
f 295/295/73 296/296/73 297/297/73 298/298/73
f 299/299/74 300/300/74 301/301/74 302/302/74
