# Blender 5.0.1
# www.blender.org
mtllib black_hinge.mtl
g Hinge_Pin.001_Mesh
v 0.000000 -1.100000 -0.127427
v -0.047553 -1.050000 -0.164549
v 0.047553 -1.050000 -0.164549
v 0.000000 1.100000 -0.127427
v 0.047553 1.050000 -0.164549
v -0.047553 1.050000 -0.164549
v 0.074900 -1.100000 -0.103091
v 0.058249 -1.050000 -0.161074
v 0.135191 -1.050000 -0.105172
v 0.074900 1.100000 -0.103091
v 0.135191 1.050000 -0.105172
v 0.058249 1.050000 -0.161074
v 0.121190 -1.100000 -0.039377
v 0.141801 -1.050000 -0.096074
v 0.171190 -1.050000 -0.005623
v 0.121190 1.100000 -0.039377
v 0.171190 1.050000 -0.005623
v 0.141801 1.050000 -0.096074
v 0.121190 -1.100000 0.039377
v 0.171190 -1.050000 0.005623
v 0.141801 -1.050000 0.096074
v 0.121190 1.100000 0.039377
v 0.141801 1.050000 0.096074
v 0.171190 1.050000 0.005623
v 0.074900 -1.100000 0.103091
v 0.135191 -1.050000 0.105172
v 0.058249 -1.050000 0.161074
v 0.074900 1.100000 0.103091
v 0.058249 1.050000 0.161074
v 0.135191 1.050000 0.105172
v 0.000000 -1.100000 0.127427
v 0.047553 -1.050000 0.164549
v -0.047553 -1.050000 0.164549
v 0.000000 1.100000 0.127427
v -0.047553 1.050000 0.164549
v 0.047553 1.050000 0.164549
v -0.074900 -1.100000 0.103091
v -0.058249 -1.050000 0.161074
v -0.135191 -1.050000 0.105172
v -0.074900 1.100000 0.103091
v -0.135191 1.050000 0.105172
v -0.058249 1.050000 0.161074
v -0.121190 -1.100000 0.039377
v -0.141801 -1.050000 0.096074
v -0.171190 -1.050000 0.005623
v -0.121190 1.100000 0.039377
v -0.171190 1.050000 0.005623
v -0.141801 1.050000 0.096074
v -0.121190 -1.100000 -0.039377
v -0.171190 -1.050000 -0.005623
v -0.141801 -1.050000 -0.096074
v -0.121190 1.100000 -0.039377
v -0.141801 1.050000 -0.096074
v -0.171190 1.050000 -0.005623
v -0.074900 -1.100000 -0.103091
v -0.135191 -1.050000 -0.105172
v -0.058249 -1.050000 -0.161074
v -0.074900 1.100000 -0.103091
v -0.058249 1.050000 -0.161074
v -0.135191 1.050000 -0.105172
vn -0.0000 -0.5961 -0.8029
vn -0.0000 0.5961 -0.8029
vn 0.4719 -0.5961 -0.6496
vn 0.4719 0.5961 -0.6496
vn 0.7636 -0.5961 -0.2481
vn 0.7636 0.5961 -0.2481
vn 0.7636 -0.5961 0.2481
vn 0.7636 0.5961 0.2481
vn 0.4719 -0.5961 0.6496
vn 0.4719 0.5961 0.6496
vn -0.0000 -0.5961 0.8029
vn -0.0000 0.5961 0.8029
vn -0.4719 -0.5961 0.6496
vn -0.4719 0.5961 0.6496
vn -0.7636 -0.5961 0.2481
vn -0.7636 0.5961 0.2481
vn -0.7636 -0.5961 -0.2481
vn -0.7636 0.5961 -0.2481
vn -0.4719 -0.5961 -0.6496
vn -0.4719 0.5961 -0.6496
vn 0.2185 -0.7071 -0.6725
vn 0.2185 0.7071 -0.6725
vn -0.0000 -0.0000 -1.0000
vn 0.5878 -0.0000 -0.8090
vn 0.5721 -0.7071 -0.4156
vn 0.5721 0.7071 -0.4156
vn 0.9511 -0.0000 -0.3090
vn 0.7071 -0.7071 -0.0000
vn 0.7071 0.7071 -0.0000
vn 0.9511 -0.0000 0.3090
vn 0.5721 -0.7071 0.4156
vn 0.5721 0.7071 0.4156
vn 0.5878 -0.0000 0.8090
vn 0.2185 -0.7071 0.6725
vn 0.2185 0.7071 0.6725
vn -0.0000 -0.0000 1.0000
vn -0.2185 -0.7071 0.6725
vn -0.2185 0.7071 0.6725
vn -0.5878 -0.0000 0.8090
vn -0.5721 -0.7071 0.4156
vn -0.5721 0.7071 0.4156
vn -0.9511 -0.0000 0.3090
vn -0.7071 -0.7071 -0.0000
vn -0.7071 0.7071 -0.0000
vn -0.9511 -0.0000 -0.3090
vn -0.5721 -0.7071 -0.4156
vn -0.5721 0.7071 -0.4156
vn -0.5878 -0.0000 -0.8090
vn -0.2185 -0.7071 -0.6725
vn -0.2185 0.7071 -0.6725
vn -0.0000 -1.0000 -0.0000
vn 0.3090 -0.0000 -0.9511
vn -0.3090 -0.0000 -0.9511
vn -0.0000 1.0000 -0.0000
vn 0.8090 -0.0000 -0.5878
vn 1.0000 -0.0000 -0.0000
vn 0.8090 -0.0000 0.5878
vn 0.3090 -0.0000 0.9511
vn -0.3090 -0.0000 0.9511
vn -0.8090 -0.0000 0.5878
vn -1.0000 -0.0000 -0.0000
vn -0.8090 -0.0000 -0.5878
vt 0.750000 0.419903
vt 0.686596 0.469399
vt 0.813404 0.469399
vt 0.250000 0.419903
vt 0.313404 0.469399
vt 0.186596 0.469399
vt 0.849866 0.387454
vt 0.827665 0.464765
vt 0.930254 0.390230
vt 0.349866 0.387454
vt 0.430254 0.390230
vt 0.327665 0.464765
vt 0.911587 0.302503
vt 0.939068 0.378099
vt 0.978254 0.257497
vt 0.411587 0.302503
vt 0.478254 0.257497
vt 0.439068 0.378099
vt 0.911587 0.197497
vt 0.978254 0.242503
vt 0.939068 0.121901
vt 0.411587 0.197497
vt 0.439068 0.121901
vt 0.478254 0.242503
vt 0.849866 0.112546
vt 0.930254 0.109770
vt 0.827665 0.035235
vt 0.349866 0.112546
vt 0.327665 0.035235
vt 0.430254 0.109770
vt 0.750000 0.080097
vt 0.813404 0.030601
vt 0.686596 0.030601
vt 0.250000 0.080097
vt 0.186596 0.030601
vt 0.313404 0.030601
vt 0.650134 0.112546
vt 0.672335 0.035235
vt 0.569746 0.109770
vt 0.150134 0.112546
vt 0.069746 0.109770
vt 0.172335 0.035235
vt 0.588413 0.197497
vt 0.560932 0.121901
vt 0.521746 0.242503
vt 0.088413 0.197497
vt 0.021746 0.242503
vt 0.060932 0.121901
vt 0.588413 0.302503
vt 0.521746 0.257497
vt 0.560932 0.378099
vt 0.088413 0.302503
vt 0.060932 0.378099
vt 0.021746 0.257497
vt 0.650134 0.387454
vt 0.569746 0.390230
vt 0.672335 0.464765
vt 0.150134 0.387454
vt 0.172335 0.464765
vt 0.069746 0.390230
vt 0.044945 0.988636
vt -0.000000 0.511364
vt 0.044945 0.511364
vt 0.855055 0.511364
vt 0.944945 0.988636
vt 0.855055 0.988636
vt 0.755055 0.511364
vt 0.844945 0.988636
vt 0.755055 0.988636
vt 0.655055 0.511364
vt 0.744945 0.988636
vt 0.655055 0.988636
vt 0.555055 0.511364
vt 0.644945 0.988636
vt 0.555055 0.988636
vt 0.455054 0.511364
vt 0.544945 0.988636
vt 0.455054 0.988636
vt 0.355055 0.511364
vt 0.444945 0.988636
vt 0.355055 0.988636
vt 0.255055 0.511364
vt 0.344945 0.988636
vt 0.255055 0.988636
vt 0.155055 0.511364
vt 0.244945 0.988636
vt 0.155055 0.988636
vt 0.055055 0.511364
vt 0.144945 0.988636
vt 0.055055 0.988636
vt 0.955055 0.988636
vt 0.944945 0.511364
vt 0.955055 0.511364
vt 0.844945 0.511364
vt 0.744945 0.511364
vt 0.644945 0.511364
vt 0.544945 0.511364
vt 0.444945 0.511364
vt 0.344945 0.511364
vt 0.244945 0.511364
vt 0.144945 0.511364
vt -0.000000 0.988636
s 0
g Hinge_Pin.001_MAT_Iron
usemtl MAT_Iron
f 1/1/1 2/2/1 3/3/1
f 4/4/2 5/5/2 6/6/2
f 7/7/3 8/8/3 9/9/3
f 10/10/4 11/11/4 12/12/4
f 13/13/5 14/14/5 15/15/5
f 16/16/6 17/17/6 18/18/6
f 19/19/7 20/20/7 21/21/7
f 22/22/8 23/23/8 24/24/8
f 25/25/9 26/26/9 27/27/9
f 28/28/10 29/29/10 30/30/10
f 31/31/11 32/32/11 33/33/11
f 34/34/12 35/35/12 36/36/12
f 37/37/13 38/38/13 39/39/13
f 40/40/14 41/41/14 42/42/14
f 43/43/15 44/44/15 45/45/15
f 46/46/16 47/47/16 48/48/16
f 49/49/17 50/50/17 51/51/17
f 52/52/18 53/53/18 54/54/18
f 55/55/19 56/56/19 57/57/19
f 58/58/20 59/59/20 60/60/20
f 8/8/21 1/1/21 3/3/21
f 5/5/22 10/10/22 12/12/22
f 6/61/23 3/62/23 2/63/23
f 9/64/24 12/65/24 11/66/24
f 9/9/25 13/13/25 7/7/25
f 18/18/26 10/10/26 16/16/26
f 15/67/27 18/68/27 17/69/27
f 20/20/28 13/13/28 15/15/28
f 17/17/29 22/22/29 24/24/29
f 21/70/30 24/71/30 23/72/30
f 21/21/31 25/25/31 19/19/31
f 30/30/32 22/22/32 28/28/32
f 27/73/33 30/74/33 29/75/33
f 32/32/34 25/25/34 27/27/34
f 29/29/35 34/34/35 36/36/35
f 33/76/36 36/77/36 35/78/36
f 38/38/37 31/31/37 33/33/37
f 35/35/38 40/40/38 42/42/38
f 39/79/39 42/80/39 41/81/39
f 39/39/40 43/43/40 37/37/40
f 48/48/41 40/40/41 46/46/41
f 45/82/42 48/83/42 47/84/42
f 50/50/43 43/43/43 45/45/43
f 47/47/44 52/52/44 54/54/44
f 51/85/45 54/86/45 53/87/45
f 51/51/46 55/55/46 49/49/46
f 60/60/47 52/52/47 58/58/47
f 57/88/48 60/89/48 59/90/48
f 2/2/49 55/55/49 57/57/49
f 59/59/50 4/4/50 6/6/50
f 19/19/51 43/43/51 55/55/51
f 5/91/52 8/92/52 3/93/52
f 59/90/53 2/63/53 57/88/53
f 52/52/54 28/28/54 16/16/54
f 11/66/55 14/94/55 9/64/55
f 17/69/56 20/95/56 15/67/56
f 23/72/57 26/96/57 21/70/57
f 29/75/58 32/97/58 27/73/58
f 35/78/59 38/98/59 33/76/59
f 41/81/60 44/99/60 39/79/60
f 47/84/61 50/100/61 45/82/61
f 53/87/62 56/101/62 51/85/62
f 8/8/21 7/7/21 1/1/21
f 5/5/22 4/4/22 10/10/22
f 6/61/23 5/102/23 3/62/23
f 9/64/24 8/92/24 12/65/24
f 9/9/25 14/14/25 13/13/25
f 18/18/26 11/11/26 10/10/26
f 15/67/27 14/94/27 18/68/27
f 20/20/28 19/19/28 13/13/28
f 17/17/29 16/16/29 22/22/29
f 21/70/30 20/95/30 24/71/30
f 21/21/31 26/26/31 25/25/31
f 30/30/32 23/23/32 22/22/32
f 27/73/33 26/96/33 30/74/33
f 32/32/34 31/31/34 25/25/34
f 29/29/35 28/28/35 34/34/35
f 33/76/36 32/97/36 36/77/36
f 38/38/37 37/37/37 31/31/37
f 35/35/38 34/34/38 40/40/38
f 39/79/39 38/98/39 42/80/39
f 39/39/40 44/44/40 43/43/40
f 48/48/41 41/41/41 40/40/41
f 45/82/42 44/99/42 48/83/42
f 50/50/43 49/49/43 43/43/43
f 47/47/44 46/46/44 52/52/44
f 51/85/45 50/100/45 54/86/45
f 51/51/46 56/56/46 55/55/46
f 60/60/47 53/53/47 52/52/47
f 57/88/48 56/101/48 60/89/48
f 2/2/49 1/1/49 55/55/49
f 59/59/50 58/58/50 4/4/50
f 55/55/51 1/1/51 7/7/51
f 7/7/51 13/13/51 19/19/51
f 19/19/51 25/25/51 31/31/51
f 31/31/51 37/37/51 43/43/51
f 43/43/51 49/49/51 55/55/51
f 55/55/51 7/7/51 19/19/51
f 19/19/51 31/31/51 43/43/51
f 5/91/52 12/65/52 8/92/52
f 59/90/53 6/61/53 2/63/53
f 16/16/54 10/10/54 4/4/54
f 4/4/54 58/58/54 52/52/54
f 52/52/54 46/46/54 40/40/54
f 40/40/54 34/34/54 28/28/54
f 28/28/54 22/22/54 16/16/54
f 16/16/54 4/4/54 52/52/54
f 52/52/54 40/40/54 28/28/54
f 11/66/55 18/68/55 14/94/55
f 17/69/56 24/71/56 20/95/56
f 23/72/57 30/74/57 26/96/57
f 29/75/58 36/77/58 32/97/58
f 35/78/59 42/80/59 38/98/59
f 41/81/60 48/83/60 44/99/60
f 47/84/61 54/86/61 50/100/61
f 53/87/62 60/89/62 56/101/62
g Hinge_PinBottom.001_Mesh
v 0.000000 -1.340000 0.000000
v 0.202608 -1.240499 0.115658
v -0.077388 -1.240499 0.187141
v -0.250439 -1.240499 0.000000
v -0.077388 -1.240499 -0.187141
v 0.202608 -1.240499 -0.115658
v 0.077388 -1.079501 0.187141
v -0.202608 -1.079501 0.115658
v -0.202608 -1.079501 -0.115658
v 0.077388 -1.079501 -0.187141
v 0.250439 -1.079501 0.000000
v 0.000000 -0.980000 0.000000
vn 0.1294 -0.8524 0.5067
vn 0.4408 -0.8976 -0.0000
vn -0.3494 -0.8795 0.3231
vn -0.3494 -0.8795 -0.3231
vn 0.1294 -0.8524 -0.5067
vn 0.9586 -0.2848 -0.0000
vn 0.2407 -0.2314 0.9426
vn -0.7089 -0.2603 0.6555
vn -0.7089 -0.2603 -0.6555
vn 0.2407 -0.2314 -0.9426
vn 0.7089 0.2603 0.6555
vn -0.2407 0.2314 0.9426
vn -0.9586 0.2848 -0.0000
vn -0.2407 0.2314 -0.9426
vn 0.7089 0.2603 -0.6555
vn 0.3494 0.8795 0.3231
vn -0.1294 0.8524 0.5067
vn -0.4408 0.8976 -0.0000
vn -0.1294 0.8524 -0.5067
vn 0.3494 0.8795 -0.3231
vt 0.181819 0.000000
vt 0.272728 0.157461
vt 0.090910 0.157461
vt 0.363637 0.000000
vt 0.454546 0.157461
vt 0.909091 0.000000
vt 1.000000 0.157461
vt 0.818182 0.157461
vt 0.727273 0.000000
vt 0.636364 0.157461
vt 0.545455 0.000000
vt 0.363637 0.314921
vt 0.181819 0.314921
vt 0.909091 0.314921
vt 0.727273 0.314921
vt 0.545455 0.314921
vt 0.000000 0.314921
vt 0.272728 0.472382
vt 0.090910 0.472382
vt 0.818182 0.472382
vt 0.636364 0.472382
vt 0.454546 0.472382
s 0
g Hinge_PinBottom.001_MAT_Obsidian
usemtl MAT_Obsidian
f 61/103/63 62/104/63 63/105/63
f 62/104/64 61/106/64 66/107/64
f 61/108/65 63/109/65 64/110/65
f 61/111/66 64/110/66 65/112/66
f 61/113/67 65/112/67 66/107/67
f 62/104/68 66/107/68 71/114/68
f 63/105/69 62/104/69 67/115/69
f 64/110/70 63/109/70 68/116/70
f 65/112/71 64/110/71 69/117/71
f 66/107/72 65/112/72 70/118/72
f 62/104/73 71/114/73 67/115/73
f 63/105/74 67/115/74 68/119/74
f 64/110/75 68/116/75 69/117/75
f 65/112/76 69/117/76 70/118/76
f 66/107/77 70/118/77 71/114/77
f 67/115/78 71/114/78 72/120/78
f 68/119/79 67/115/79 72/121/79
f 69/117/80 68/116/80 72/122/80
f 70/118/81 69/117/81 72/123/81
f 71/114/82 70/118/82 72/124/82
g Hinge_PinTop.001_Mesh
v 0.000000 0.980000 0.000000
v 0.202608 1.079501 0.115658
v -0.077388 1.079501 0.187141
v -0.250439 1.079501 0.000000
v -0.077388 1.079501 -0.187141
v 0.202608 1.079501 -0.115658
v 0.077388 1.240499 0.187141
v -0.202608 1.240499 0.115658
v -0.202608 1.240499 -0.115658
v 0.077388 1.240499 -0.187141
v 0.250439 1.240499 0.000000
v 0.000000 1.340000 0.000000
vn 0.1294 -0.8524 0.5067
vn 0.4408 -0.8976 -0.0000
vn -0.3494 -0.8795 0.3231
vn -0.3494 -0.8795 -0.3231
vn 0.1294 -0.8524 -0.5067
vn 0.9586 -0.2848 -0.0000
vn 0.2407 -0.2314 0.9426
vn -0.7089 -0.2603 0.6555
vn -0.7089 -0.2603 -0.6555
vn 0.2407 -0.2314 -0.9426
vn 0.7089 0.2603 0.6555
vn -0.2407 0.2314 0.9426
vn -0.9586 0.2848 -0.0000
vn -0.2407 0.2314 -0.9426
vn 0.7089 0.2603 -0.6555
vn 0.3494 0.8795 0.3231
vn -0.1294 0.8524 0.5067
vn -0.4408 0.8976 -0.0000
vn -0.1294 0.8524 -0.5067
vn 0.3494 0.8795 -0.3231
vt 0.181819 0.000000
vt 0.272728 0.157461
vt 0.090910 0.157461
vt 0.363637 0.000000
vt 0.454546 0.157461
vt 0.909091 0.000000
vt 1.000000 0.157461
vt 0.818182 0.157461
vt 0.727273 0.000000
vt 0.636364 0.157461
vt 0.545455 0.000000
vt 0.363637 0.314921
vt 0.181819 0.314921
vt 0.909091 0.314921
vt 0.727273 0.314921
vt 0.545455 0.314921
vt 0.000000 0.314921
vt 0.272728 0.472382
vt 0.090910 0.472382
vt 0.818182 0.472382
vt 0.636364 0.472382
vt 0.454546 0.472382
s 0
g Hinge_PinTop.001_MAT_Obsidian
usemtl MAT_Obsidian
f 73/125/83 74/126/83 75/127/83
f 74/126/84 73/128/84 78/129/84
f 73/130/85 75/131/85 76/132/85
f 73/133/86 76/132/86 77/134/86
f 73/135/87 77/134/87 78/129/87
f 74/126/88 78/129/88 83/136/88
f 75/127/89 74/126/89 79/137/89
f 76/132/90 75/131/90 80/138/90
f 77/134/91 76/132/91 81/139/91
f 78/129/92 77/134/92 82/140/92
f 74/126/93 83/136/93 79/137/93
f 75/127/94 79/137/94 80/141/94
f 76/132/95 80/138/95 81/139/95
f 77/134/96 81/139/96 82/140/96
f 78/129/97 82/140/97 83/136/97
f 79/137/98 83/136/98 84/142/98
f 80/141/99 79/137/99 84/143/99
f 81/139/100 80/138/100 84/144/100
f 82/140/101 81/139/101 84/145/101
f 83/136/102 82/140/102 84/146/102
g Hinge_Plate-1.001_Mesh
v -1.086000 -0.920000 0.165600
v -1.086000 -0.846400 0.180000
v -1.130000 -0.846400 0.165600
v -1.086000 0.846400 0.180000
v -1.086000 0.920000 0.165600
v -1.130000 0.846400 0.165600
v -1.086000 -0.920000 -0.165600
v -1.130000 -0.846400 -0.165600
v -1.086000 -0.846400 -0.180000
v -1.086000 0.920000 -0.165600
v -1.086000 0.846400 -0.180000
v -1.130000 0.846400 -0.165600
v -0.074000 -0.920000 0.165600
v -0.030000 -0.846400 0.165600
v -0.074000 -0.846400 0.180000
v -0.074000 0.920000 0.165600
v -0.074000 0.846400 0.180000
v -0.030000 0.846400 0.165600
v -0.074000 -0.920000 -0.165600
v -0.074000 -0.846400 -0.180000
v -0.030000 -0.846400 -0.165600
v -0.074000 0.920000 -0.165600
v -0.030000 0.846400 -0.165600
v -0.074000 0.846400 -0.180000
vn -0.3058 -0.1828 0.9344
vn -0.3058 0.1828 0.9344
vn -0.3058 -0.1828 -0.9344
vn -0.3058 0.1828 -0.9344
vn 0.3058 -0.1828 0.9344
vn 0.3058 0.1828 0.9344
vn 0.3058 -0.1828 -0.9344
vn 0.3058 0.1828 -0.9344
vn -0.8583 -0.5131 -0.0000
vn -0.3110 -0.0000 0.9504
vn -0.8583 0.5131 -0.0000
vn -0.3110 -0.0000 -0.9504
vn -0.0000 -0.1920 -0.9814
vn -0.0000 0.1920 -0.9814
vn 0.3110 -0.0000 -0.9504
vn 0.8583 -0.5131 -0.0000
vn 0.8583 0.5131 -0.0000
vn 0.3110 -0.0000 0.9504
vn -0.0000 -0.1920 0.9814
vn -0.0000 0.1920 0.9814
vn -0.0000 -1.0000 -0.0000
vn -1.0000 -0.0000 -0.0000
vn -0.0000 -0.0000 1.0000
vn -0.0000 1.0000 -0.0000
vn -0.0000 -0.0000 -1.0000
vn 1.0000 -0.0000 -0.0000
vt 0.135000 0.740000
vt 0.135000 0.750000
vt 0.125000 0.740000
vt 0.615000 0.000000
vt 0.625000 0.010000
vt 0.615000 0.010000
vt 0.135000 0.510000
vt 0.125000 0.510000
vt 0.135000 0.500000
vt 0.625000 0.246667
vt 0.615000 0.257500
vt 0.615000 0.240000
vt 0.365000 0.740000
vt 0.382500 0.740000
vt 0.375000 0.755000
vt 0.630000 0.750000
vt 0.615000 0.760000
vt 0.615000 0.742500
vt 0.365000 0.510000
vt 0.375000 0.495000
vt 0.382500 0.510000
vt 0.630000 0.500000
vt 0.615000 0.507500
vt 0.615000 0.490000
vt 0.385000 0.010000
vt 0.385000 0.000000
vt 0.385000 0.260000
vt 0.625000 0.990000
vt 0.385000 0.240000
vt 0.385000 0.990000
vt 0.865000 0.510000
vt 0.615000 0.990000
vt 0.865000 0.740000
s 0
g Hinge_Plate-1.001_MAT_DarkIron
usemtl MAT_DarkIron
f 85/147/103 86/148/103 87/149/103
f 88/150/104 89/151/104 90/152/104
f 91/153/105 92/154/105 93/155/105
f 94/156/106 95/157/106 96/158/106
f 97/159/107 98/160/107 99/161/107
f 100/162/108 101/163/108 102/164/108
f 103/165/109 104/166/109 105/167/109
f 106/168/110 107/169/110 108/170/110
f 85/147/111 92/154/111 91/153/111
f 88/150/112 87/171/112 86/172/112
f 94/156/113 90/152/113 89/151/113
f 93/173/114 96/158/114 95/157/114
f 91/153/115 104/166/115 103/165/115
f 106/168/116 95/157/116 94/156/116
f 105/167/117 108/170/117 107/169/117
f 103/165/118 98/160/118 97/159/118
f 100/162/119 107/169/119 106/168/119
f 99/161/120 102/164/120 101/163/120
f 97/159/121 86/148/121 85/147/121
f 89/174/122 101/163/122 100/162/122
f 103/165/123 85/147/123 91/153/123
f 90/152/124 92/175/124 87/171/124
f 101/163/125 86/176/125 99/161/125
f 94/177/126 100/162/126 106/168/126
f 95/157/127 104/166/127 93/173/127
f 107/169/128 98/160/128 105/167/128
f 85/147/111 87/149/111 92/154/111
f 88/150/112 90/152/112 87/171/112
f 94/156/113 96/158/113 90/152/113
f 93/173/114 92/175/114 96/158/114
f 91/153/115 93/155/115 104/166/115
f 106/168/116 108/170/116 95/157/116
f 105/167/117 104/166/117 108/170/117
f 103/165/118 105/167/118 98/160/118
f 100/162/119 102/164/119 107/169/119
f 99/161/120 98/160/120 102/164/120
f 97/159/121 99/161/121 86/148/121
f 89/174/122 88/178/122 101/163/122
f 103/165/123 97/159/123 85/147/123
f 90/152/124 96/158/124 92/175/124
f 101/163/125 88/178/125 86/176/125
f 94/177/126 89/179/126 100/162/126
f 95/157/127 108/170/127 104/166/127
f 107/169/128 102/164/128 98/160/128
g Hinge_Plate1.001_Mesh
v 0.074000 -0.920000 0.165600
v 0.074000 -0.846400 0.180000
v 0.030000 -0.846400 0.165600
v 0.074000 0.846400 0.180000
v 0.074000 0.920000 0.165600
v 0.030000 0.846400 0.165600
v 0.074000 -0.920000 -0.165600
v 0.030000 -0.846400 -0.165600
v 0.074000 -0.846400 -0.180000
v 0.074000 0.920000 -0.165600
v 0.074000 0.846400 -0.180000
v 0.030000 0.846400 -0.165600
v 1.086000 -0.920000 0.165600
v 1.130000 -0.846400 0.165600
v 1.086000 -0.846400 0.180000
v 1.086000 0.920000 0.165600
v 1.086000 0.846400 0.180000
v 1.130000 0.846400 0.165600
v 1.086000 -0.920000 -0.165600
v 1.086000 -0.846400 -0.180000
v 1.130000 -0.846400 -0.165600
v 1.086000 0.920000 -0.165600
v 1.130000 0.846400 -0.165600
v 1.086000 0.846400 -0.180000
vn -0.3058 -0.1828 0.9344
vn -0.3058 0.1828 0.9344
vn -0.3058 -0.1828 -0.9344
vn -0.3058 0.1828 -0.9344
vn 0.3058 -0.1828 0.9344
vn 0.3058 0.1828 0.9344
vn 0.3058 -0.1828 -0.9344
vn 0.3058 0.1828 -0.9344
vn -0.8583 -0.5131 -0.0000
vn -0.3110 -0.0000 0.9504
vn -0.8583 0.5131 -0.0000
vn -0.3110 -0.0000 -0.9504
vn -0.0000 -0.1920 -0.9814
vn -0.0000 0.1920 -0.9814
vn 0.3110 -0.0000 -0.9504
vn 0.8583 -0.5131 -0.0000
vn 0.8583 0.5131 -0.0000
vn 0.3110 -0.0000 0.9504
vn -0.0000 -0.1920 0.9814
vn -0.0000 0.1920 0.9814
vn -0.0000 -1.0000 -0.0000
vn -1.0000 -0.0000 -0.0000
vn -0.0000 -0.0000 1.0000
vn -0.0000 1.0000 -0.0000
vn -0.0000 -0.0000 -1.0000
vn 1.0000 -0.0000 -0.0000
vt 0.135000 0.740000
vt 0.135000 0.750000
vt 0.125000 0.740000
vt 0.615000 0.000000
vt 0.625000 0.010000
vt 0.615000 0.010000
vt 0.135000 0.510000
vt 0.125000 0.510000
vt 0.135000 0.500000
vt 0.625000 0.246667
vt 0.615000 0.257500
vt 0.615000 0.240000
vt 0.365000 0.740000
vt 0.382500 0.740000
vt 0.375000 0.755000
vt 0.630000 0.750000
vt 0.615000 0.760000
vt 0.615000 0.742500
vt 0.365000 0.510000
vt 0.375000 0.495000
vt 0.382500 0.510000
vt 0.630000 0.500000
vt 0.615000 0.507500
vt 0.615000 0.490000
vt 0.385000 0.010000
vt 0.385000 0.000000
vt 0.385000 0.260000
vt 0.625000 0.990000
vt 0.385000 0.240000
vt 0.385000 0.990000
vt 0.865000 0.510000
vt 0.615000 0.990000
vt 0.865000 0.740000
s 0
g Hinge_Plate1.001_MAT_DarkIron
usemtl MAT_DarkIron
f 109/180/129 110/181/129 111/182/129
f 112/183/130 113/184/130 114/185/130
f 115/186/131 116/187/131 117/188/131
f 118/189/132 119/190/132 120/191/132
f 121/192/133 122/193/133 123/194/133
f 124/195/134 125/196/134 126/197/134
f 127/198/135 128/199/135 129/200/135
f 130/201/136 131/202/136 132/203/136
f 109/180/137 116/187/137 115/186/137
f 112/183/138 111/204/138 110/205/138
f 118/189/139 114/185/139 113/184/139
f 117/206/140 120/191/140 119/190/140
f 115/186/141 128/199/141 127/198/141
f 130/201/142 119/190/142 118/189/142
f 129/200/143 132/203/143 131/202/143
f 127/198/144 122/193/144 121/192/144
f 124/195/145 131/202/145 130/201/145
f 123/194/146 126/197/146 125/196/146
f 121/192/147 110/181/147 109/180/147
f 113/207/148 125/196/148 124/195/148
f 127/198/149 109/180/149 115/186/149
f 114/185/150 116/208/150 111/204/150
f 125/196/151 110/209/151 123/194/151
f 118/210/152 124/195/152 130/201/152
f 119/190/153 128/199/153 117/206/153
f 131/202/154 122/193/154 129/200/154
f 109/180/137 111/182/137 116/187/137
f 112/183/138 114/185/138 111/204/138
f 118/189/139 120/191/139 114/185/139
f 117/206/140 116/208/140 120/191/140
f 115/186/141 117/188/141 128/199/141
f 130/201/142 132/203/142 119/190/142
f 129/200/143 128/199/143 132/203/143
f 127/198/144 129/200/144 122/193/144
f 124/195/145 126/197/145 131/202/145
f 123/194/146 122/193/146 126/197/146
f 121/192/147 123/194/147 110/181/147
f 113/207/148 112/211/148 125/196/148
f 127/198/149 121/192/149 109/180/149
f 114/185/150 120/191/150 116/208/150
f 125/196/151 112/211/151 110/209/151
f 118/210/152 113/212/152 124/195/152
f 119/190/153 132/203/153 128/199/153
f 131/202/154 126/197/154 122/193/154
g Hinge_Rivet-1_-0.001_Mesh
v -0.580000 -0.680000 0.220000
v -0.507640 -0.624721 0.251543
v -0.607638 -0.624721 0.271038
v -0.669442 -0.624721 0.220000
v -0.607638 -0.624721 0.168962
v -0.507640 -0.624721 0.188457
v -0.552361 -0.535278 0.271038
v -0.652360 -0.535278 0.251543
v -0.652360 -0.535278 0.188457
v -0.552361 -0.535278 0.168962
v -0.490557 -0.535278 0.220000
v -0.580000 -0.480000 0.220000
vn 0.1487 -0.6297 0.7625
vn 0.6071 -0.7947 -0.0000
vn -0.4435 -0.7176 0.5370
vn -0.4435 -0.7176 -0.5370
vn 0.1487 -0.6297 -0.7625
vn 0.9822 -0.1876 -0.0000
vn 0.1900 -0.1174 0.9747
vn -0.6297 -0.1486 0.7625
vn -0.6297 -0.1486 -0.7625
vn 0.1900 -0.1174 -0.9747
vn 0.6297 0.1486 0.7625
vn -0.1900 0.1174 0.9747
vn -0.9822 0.1876 -0.0000
vn -0.1900 0.1174 -0.9747
vn 0.6297 0.1486 -0.7625
vn 0.4435 0.7176 0.5370
vn -0.1487 0.6297 0.7625
vn -0.6071 0.7947 -0.0000
vn -0.1487 0.6297 -0.7625
vn 0.4435 0.7176 -0.5370
vt 0.181819 0.000000
vt 0.272728 0.157461
vt 0.090910 0.157461
vt 0.363637 0.000000
vt 0.454546 0.157461
vt 0.909091 0.000000
vt 1.000000 0.157461
vt 0.818182 0.157461
vt 0.727273 0.000000
vt 0.636364 0.157461
vt 0.545455 0.000000
vt 0.363637 0.314921
vt 0.181819 0.314921
vt 0.909091 0.314921
vt 0.727273 0.314921
vt 0.545455 0.314921
vt 0.000000 0.314921
vt 0.272728 0.472382
vt 0.090910 0.472382
vt 0.818182 0.472382
vt 0.636364 0.472382
vt 0.454546 0.472382
s 0
g Hinge_Rivet-1_-0.001_MAT_OldGold
usemtl MAT_OldGold
f 133/213/155 134/214/155 135/215/155
f 134/214/156 133/216/156 138/217/156
f 133/218/157 135/219/157 136/220/157
f 133/221/158 136/220/158 137/222/158
f 133/223/159 137/222/159 138/217/159
f 134/214/160 138/217/160 143/224/160
f 135/215/161 134/214/161 139/225/161
f 136/220/162 135/219/162 140/226/162
f 137/222/163 136/220/163 141/227/163
f 138/217/164 137/222/164 142/228/164
f 134/214/165 143/224/165 139/225/165
f 135/215/166 139/225/166 140/229/166
f 136/220/167 140/226/167 141/227/167
f 137/222/168 141/227/168 142/228/168
f 138/217/169 142/228/169 143/224/169
f 139/225/170 143/224/170 144/230/170
f 140/229/171 139/225/171 144/231/171
f 141/227/172 140/226/172 144/232/172
f 142/228/173 141/227/173 144/233/173
f 143/224/174 142/228/174 144/234/174
g Hinge_Rivet-1_0.001_Mesh
v -0.580000 0.480000 0.220000
v -0.507640 0.535278 0.251543
v -0.607638 0.535278 0.271038
v -0.669442 0.535278 0.220000
v -0.607638 0.535278 0.168962
v -0.507640 0.535278 0.188457
v -0.552361 0.624721 0.271038
v -0.652360 0.624721 0.251543
v -0.652360 0.624721 0.188457
v -0.552361 0.624721 0.168962
v -0.490557 0.624721 0.220000
v -0.580000 0.680000 0.220000
vn 0.1487 -0.6297 0.7625
vn 0.6071 -0.7947 -0.0000
vn -0.4435 -0.7176 0.5370
vn -0.4435 -0.7176 -0.5370
vn 0.1487 -0.6297 -0.7625
vn 0.9822 -0.1876 -0.0000
vn 0.1900 -0.1174 0.9747
vn -0.6297 -0.1486 0.7625
vn -0.6297 -0.1486 -0.7625
vn 0.1900 -0.1174 -0.9747
vn 0.6297 0.1486 0.7625
vn -0.1900 0.1174 0.9747
vn -0.9822 0.1876 -0.0000
vn -0.1900 0.1174 -0.9747
vn 0.6297 0.1486 -0.7625
vn 0.4435 0.7176 0.5370
vn -0.1487 0.6297 0.7625
vn -0.6071 0.7947 -0.0000
vn -0.1487 0.6297 -0.7625
vn 0.4435 0.7176 -0.5370
vt 0.181819 0.000000
vt 0.272728 0.157461
vt 0.090910 0.157461
vt 0.363637 0.000000
vt 0.454546 0.157461
vt 0.909091 0.000000
vt 1.000000 0.157461
vt 0.818182 0.157461
vt 0.727273 0.000000
vt 0.636364 0.157461
vt 0.545455 0.000000
vt 0.363637 0.314921
vt 0.181819 0.314921
vt 0.909091 0.314921
vt 0.727273 0.314921
vt 0.545455 0.314921
vt 0.000000 0.314921
vt 0.272728 0.472382
vt 0.090910 0.472382
vt 0.818182 0.472382
vt 0.636364 0.472382
vt 0.454546 0.472382
s 0
g Hinge_Rivet-1_0.001_MAT_OldGold
usemtl MAT_OldGold
f 145/235/175 146/236/175 147/237/175
f 146/236/176 145/238/176 150/239/176
f 145/240/177 147/241/177 148/242/177
f 145/243/178 148/242/178 149/244/178
f 145/245/179 149/244/179 150/239/179
f 146/236/180 150/239/180 155/246/180
f 147/237/181 146/236/181 151/247/181
f 148/242/182 147/241/182 152/248/182
f 149/244/183 148/242/183 153/249/183
f 150/239/184 149/244/184 154/250/184
f 146/236/185 155/246/185 151/247/185
f 147/237/186 151/247/186 152/251/186
f 148/242/187 152/248/187 153/249/187
f 149/244/188 153/249/188 154/250/188
f 150/239/189 154/250/189 155/246/189
f 151/247/190 155/246/190 156/252/190
f 152/251/191 151/247/191 156/253/191
f 153/249/192 152/248/192 156/254/192
f 154/250/193 153/249/193 156/255/193
f 155/246/194 154/250/194 156/256/194
g Hinge_Rivet1_-0.001_Mesh
v 0.580000 -0.680000 0.220000
v 0.652360 -0.624721 0.251543
v 0.552361 -0.624721 0.271038
v 0.490557 -0.624721 0.220000
v 0.552361 -0.624721 0.168962
v 0.652360 -0.624721 0.188457
v 0.607638 -0.535278 0.271038
v 0.507640 -0.535278 0.251543
v 0.507640 -0.535278 0.188457
v 0.607638 -0.535278 0.168962
v 0.669442 -0.535278 0.220000
v 0.580000 -0.480000 0.220000
vn 0.1487 -0.6297 0.7625
vn 0.6071 -0.7947 -0.0000
vn -0.4435 -0.7176 0.5370
vn -0.4435 -0.7176 -0.5370
vn 0.1487 -0.6297 -0.7625
vn 0.9822 -0.1876 -0.0000
vn 0.1900 -0.1174 0.9747
vn -0.6297 -0.1486 0.7625
vn -0.6297 -0.1486 -0.7625
vn 0.1900 -0.1174 -0.9747
vn 0.6297 0.1486 0.7625
vn -0.1900 0.1174 0.9747
vn -0.9822 0.1876 -0.0000
vn -0.1900 0.1174 -0.9747
vn 0.6297 0.1486 -0.7625
vn 0.4435 0.7176 0.5370
vn -0.1487 0.6297 0.7625
vn -0.6071 0.7947 -0.0000
vn -0.1487 0.6297 -0.7625
vn 0.4435 0.7176 -0.5370
vt 0.181819 0.000000
vt 0.272728 0.157461
vt 0.090910 0.157461
vt 0.363637 0.000000
vt 0.454546 0.157461
vt 0.909091 0.000000
vt 1.000000 0.157461
vt 0.818182 0.157461
vt 0.727273 0.000000
vt 0.636364 0.157461
vt 0.545455 0.000000
vt 0.363637 0.314921
vt 0.181819 0.314921
vt 0.909091 0.314921
vt 0.727273 0.314921
vt 0.545455 0.314921
vt 0.000000 0.314921
vt 0.272728 0.472382
vt 0.090910 0.472382
vt 0.818182 0.472382
vt 0.636364 0.472382
vt 0.454546 0.472382
s 0
g Hinge_Rivet1_-0.001_MAT_OldGold
usemtl MAT_OldGold
f 157/257/195 158/258/195 159/259/195
f 158/258/196 157/260/196 162/261/196
f 157/262/197 159/263/197 160/264/197
f 157/265/198 160/264/198 161/266/198
f 157/267/199 161/266/199 162/261/199
f 158/258/200 162/261/200 167/268/200
f 159/259/201 158/258/201 163/269/201
f 160/264/202 159/263/202 164/270/202
f 161/266/203 160/264/203 165/271/203
f 162/261/204 161/266/204 166/272/204
f 158/258/205 167/268/205 163/269/205
f 159/259/206 163/269/206 164/273/206
f 160/264/207 164/270/207 165/271/207
f 161/266/208 165/271/208 166/272/208
f 162/261/209 166/272/209 167/268/209
f 163/269/210 167/268/210 168/274/210
f 164/273/211 163/269/211 168/275/211
f 165/271/212 164/270/212 168/276/212
f 166/272/213 165/271/213 168/277/213
f 167/268/214 166/272/214 168/278/214
g Hinge_Rivet1_0.001_Mesh
v 0.580000 0.480000 0.220000
v 0.652360 0.535278 0.251543
v 0.552361 0.535278 0.271038
v 0.490557 0.535278 0.220000
v 0.552361 0.535278 0.168962
v 0.652360 0.535278 0.188457
v 0.607638 0.624721 0.271038
v 0.507640 0.624721 0.251543
v 0.507640 0.624721 0.188457
v 0.607638 0.624721 0.168962
v 0.669442 0.624721 0.220000
v 0.580000 0.680000 0.220000
vn 0.1487 -0.6297 0.7625
vn 0.6071 -0.7947 -0.0000
vn -0.4435 -0.7176 0.5370
vn -0.4435 -0.7176 -0.5370
vn 0.1487 -0.6297 -0.7625
vn 0.9822 -0.1876 -0.0000
vn 0.1900 -0.1174 0.9747
vn -0.6297 -0.1486 0.7625
vn -0.6297 -0.1486 -0.7625
vn 0.1900 -0.1174 -0.9747
vn 0.6297 0.1486 0.7625
vn -0.1900 0.1174 0.9747
vn -0.9822 0.1876 -0.0000
vn -0.1900 0.1174 -0.9747
vn 0.6297 0.1486 -0.7625
vn 0.4435 0.7176 0.5370
vn -0.1487 0.6297 0.7625
vn -0.6071 0.7947 -0.0000
vn -0.1487 0.6297 -0.7625
vn 0.4435 0.7176 -0.5370
vt 0.181819 0.000000
vt 0.272728 0.157461
vt 0.090910 0.157461
vt 0.363637 0.000000
vt 0.454546 0.157461
vt 0.909091 0.000000
vt 1.000000 0.157461
vt 0.818182 0.157461
vt 0.727273 0.000000
vt 0.636364 0.157461
vt 0.545455 0.000000
vt 0.363637 0.314921
vt 0.181819 0.314921
vt 0.909091 0.314921
vt 0.727273 0.314921
vt 0.545455 0.314921
vt 0.000000 0.314921
vt 0.272728 0.472382
vt 0.090910 0.472382
vt 0.818182 0.472382
vt 0.636364 0.472382
vt 0.454546 0.472382
s 0
g Hinge_Rivet1_0.001_MAT_OldGold
usemtl MAT_OldGold
f 169/279/215 170/280/215 171/281/215
f 170/280/216 169/282/216 174/283/216
f 169/284/217 171/285/217 172/286/217
f 169/287/218 172/286/218 173/288/218
f 169/289/219 173/288/219 174/283/219
f 170/280/220 174/283/220 179/290/220
f 171/281/221 170/280/221 175/291/221
f 172/286/222 171/285/222 176/292/222
f 173/288/223 172/286/223 177/293/223
f 174/283/224 173/288/224 178/294/224
f 170/280/225 179/290/225 175/291/225
f 171/281/226 175/291/226 176/295/226
f 172/286/227 176/292/227 177/293/227
f 173/288/228 177/293/228 178/294/228
f 174/283/229 178/294/229 179/290/229
f 175/291/230 179/290/230 180/296/230
f 176/295/231 175/291/231 180/297/231
f 177/293/232 176/292/232 180/298/232
f 178/294/233 177/293/233 180/299/233
f 179/290/234 178/294/234 180/300/234
