# Second Rite deterministic item batch 53-62
# Blackroot
mtllib item_batch_53_62.mtl
o blackroot
s off
v 0.409655 -0.050954 -0.028955
v 0.251521 -0.050954 0.299413
v -0.103804 -0.050954 0.380514
v -0.388752 -0.050954 0.153276
v -0.388752 -0.050954 -0.211186
v -0.103804 -0.050954 -0.438426
v 0.251521 -0.050954 -0.357325
v -0.010345 0.274046 -0.028955
v -0.010345 -0.375954 -0.028955
v -0.236834 0.004331 -0.081474
v -0.176191 -0.114566 -0.202245
v -0.069702 -0.249851 -0.149728
v -0.023856 -0.266239 0.023563
v -0.084499 -0.147342 0.144335
v -0.190988 -0.012057 0.091817
v -0.922883 -0.629617 0.104997
v -0.904353 -0.665947 0.068095
v -0.871815 -0.707284 0.084142
v -0.857807 -0.712291 0.137092
v -0.876337 -0.675961 0.173994
v -0.908875 -0.634624 0.157948
v -0.130345 -0.130954 -0.028955
v -0.890345 -0.670954 0.121044
v -0.040435 -0.270397 -0.079090
v 0.036715 -0.172135 -0.194383
v 0.146805 -0.052692 -0.144248
v 0.179745 -0.031511 0.021180
v 0.102595 -0.129773 0.136472
v -0.007495 -0.249216 0.086337
v 0.737276 -0.806084 -0.103702
v 0.759967 -0.777184 -0.137610
v 0.792346 -0.742053 -0.122865
v 0.802034 -0.735824 -0.074209
v 0.779343 -0.764724 -0.040300
v 0.746964 -0.799855 -0.055045
v 0.069655 -0.150954 -0.028955
v 0.769655 -0.770954 -0.088955
v 0.082699 -0.158139 -0.074602
v 0.086687 -0.037453 -0.179573
v 0.043643 0.109732 -0.133927
v -0.003389 0.136231 0.016692
v -0.007377 0.015545 0.121663
v 0.035667 -0.131640 0.076015
v 0.921761 0.127650 0.198207
v 0.922883 0.161593 0.168684
v 0.910777 0.202989 0.181522
v 0.897549 0.210442 0.223883
v 0.896427 0.176499 0.253405
v 0.908533 0.135103 0.240568
v 0.039655 -0.010954 -0.028955
v 0.909655 0.169046 0.211044
v -0.004718 0.114366 -0.072192
v -0.045234 0.009616 -0.171620
v -0.130861 -0.105704 -0.128383
v -0.175972 -0.116274 0.014282
v -0.135456 -0.011524 0.113709
v -0.049829 0.103796 0.070473
v -0.737511 0.459798 -0.220486
v -0.748315 0.431865 -0.246999
v -0.771149 0.401113 -0.235469
v -0.783179 0.398294 -0.197426
v -0.772375 0.426227 -0.170911
v -0.749541 0.456979 -0.182442
v -0.090345 -0.000954 -0.028955
v -0.760345 0.429046 -0.208955
v 0.121333 0.045378 -0.070194
v 0.022268 0.073529 -0.165030
v -0.109410 0.097196 -0.123790
v -0.142023 0.092714 0.012284
v -0.042958 0.064563 0.107120
v 0.088720 0.040896 0.065880
v 0.172575 0.793129 0.020735
v 0.147808 0.800167 -0.002974
v 0.114889 0.806084 0.007336
v 0.106735 0.804963 0.041355
v 0.131502 0.797925 0.065064
v 0.164421 0.792008 0.054754
v -0.010345 0.069046 -0.028955
v 0.139655 0.799046 0.031045
v -0.370952 -0.026708 0.091045
v -0.411804 -0.084894 0.038901
v -0.381542 -0.165274 0.058818
v -0.321986 -0.156766 0.123272
v -0.315441 -0.071128 0.143188
v -0.713881 -0.126205 0.421045
v -0.727498 -0.145601 0.403663
v -0.717411 -0.172394 0.410303
v -0.697559 -0.169558 0.431786
v -0.695377 -0.141012 0.438426
v -0.360345 -0.100954 0.091045
v -0.710345 -0.150954 0.421045
v 0.299109 0.006864 -0.148955
v 0.245956 0.013758 -0.203417
v 0.197915 0.069418 -0.182614
v 0.221377 0.096925 -0.115296
v 0.283918 0.058265 -0.094494
v 0.556393 0.374769 -0.388956
v 0.538403 0.377102 -0.407389
v 0.522143 0.395941 -0.400347
v 0.530084 0.405251 -0.377563
v 0.551252 0.392166 -0.370522
v 0.249655 0.049046 -0.148955
v 0.539655 0.389046 -0.388956
usemtl dark_wood
f 8 1 2
f 9 2 1
f 8 2 3
f 9 3 2
f 8 3 4
f 9 4 3
f 8 4 5
f 9 5 4
f 8 5 6
f 9 6 5
f 8 6 7
f 9 7 6
f 8 7 1
f 9 1 7
f 22 11 10
f 23 16 17
f 10 11 17
f 10 17 16
f 22 12 11
f 23 17 18
f 11 12 18
f 11 18 17
f 22 13 12
f 23 18 19
f 12 13 19
f 12 19 18
f 22 14 13
f 23 19 20
f 13 14 20
f 13 20 19
f 22 15 14
f 23 20 21
f 14 15 21
f 14 21 20
f 22 10 15
f 23 21 16
f 15 10 16
f 15 16 21
f 36 25 24
f 37 30 31
f 24 25 31
f 24 31 30
f 36 26 25
f 37 31 32
f 25 26 32
f 25 32 31
f 36 27 26
f 37 32 33
f 26 27 33
f 26 33 32
f 36 28 27
f 37 33 34
f 27 28 34
f 27 34 33
f 36 29 28
f 37 34 35
f 28 29 35
f 28 35 34
f 36 24 29
f 37 35 30
f 29 24 30
f 29 30 35
f 50 39 38
f 51 44 45
f 38 39 45
f 38 45 44
f 50 40 39
f 51 45 46
f 39 40 46
f 39 46 45
f 50 41 40
f 51 46 47
f 40 41 47
f 40 47 46
f 50 42 41
f 51 47 48
f 41 42 48
f 41 48 47
f 50 43 42
f 51 48 49
f 42 43 49
f 42 49 48
f 50 38 43
f 51 49 44
f 43 38 44
f 43 44 49
f 64 53 52
f 65 58 59
f 52 53 59
f 52 59 58
f 64 54 53
f 65 59 60
f 53 54 60
f 53 60 59
f 64 55 54
f 65 60 61
f 54 55 61
f 54 61 60
f 64 56 55
f 65 61 62
f 55 56 62
f 55 62 61
f 64 57 56
f 65 62 63
f 56 57 63
f 56 63 62
f 64 52 57
f 65 63 58
f 57 52 58
f 57 58 63
f 78 67 66
f 79 72 73
f 66 67 73
f 66 73 72
f 78 68 67
f 79 73 74
f 67 68 74
f 67 74 73
f 78 69 68
f 79 74 75
f 68 69 75
f 68 75 74
f 78 70 69
f 79 75 76
f 69 70 76
f 69 76 75
f 78 71 70
f 79 76 77
f 70 71 77
f 70 77 76
f 78 66 71
f 79 77 72
f 71 66 72
f 71 72 77
usemtl wet_residue
f 90 81 80
f 91 85 86
f 80 81 86
f 80 86 85
f 90 82 81
f 91 86 87
f 81 82 87
f 81 87 86
f 90 83 82
f 91 87 88
f 82 83 88
f 82 88 87
f 90 84 83
f 91 88 89
f 83 84 89
f 83 89 88
f 90 80 84
f 91 89 85
f 84 80 85
f 84 85 89
f 102 93 92
f 103 97 98
f 92 93 98
f 92 98 97
f 102 94 93
f 103 98 99
f 93 94 99
f 93 99 98
f 102 95 94
f 103 99 100
f 94 95 100
f 94 100 99
f 102 96 95
f 103 100 101
f 95 96 101
f 95 101 100
f 102 92 96
f 103 101 97
f 96 92 97
f 96 97 101
