# Blender 5.1.2
# www.blender.org
mtllib bottle_family__molten.mtl
g ITEM_Bottle_Family.001_Mesh
v 0.460000 -0.427600 0.000000
v 0.395230 -0.427600 -0.287152
v 0.136699 -0.427600 -0.420715
v -0.136699 -0.427600 -0.420715
v -0.395230 -0.427600 -0.287152
v -0.460000 -0.427600 -0.000000
v -0.349065 -0.427600 0.253611
v -0.147597 -0.427600 0.454257
v 0.147597 -0.427600 0.454257
v 0.349065 -0.427600 0.253611
v 0.454810 -0.394000 0.000000
v 0.391032 -0.394000 -0.284101
v 0.135095 -0.394000 -0.415780
v -0.135095 -0.394000 -0.415780
v -0.391032 -0.394000 -0.284101
v -0.454810 -0.394000 -0.000000
v -0.344867 -0.394000 0.250560
v -0.145993 -0.394000 0.449321
v 0.145993 -0.394000 0.449321
v 0.344867 -0.394000 0.250560
v 0.424321 -0.196600 0.000000
v 0.366365 -0.196600 -0.266180
v 0.125673 -0.196600 -0.386782
v -0.125673 -0.196600 -0.386782
v -0.366365 -0.196600 -0.266180
v -0.424321 -0.196600 -0.000000
v -0.320200 -0.196600 0.232639
v -0.136571 -0.196600 0.420323
v 0.136571 -0.196600 0.420323
v 0.320200 -0.196600 0.232639
v 0.402913 -0.058000 0.000000
v 0.349046 -0.058000 -0.253597
v 0.119058 -0.058000 -0.366422
v -0.119058 -0.058000 -0.366422
v -0.349046 -0.058000 -0.253597
v -0.402913 -0.058000 -0.000000
v -0.302881 -0.058000 0.220056
v -0.129956 -0.058000 0.399963
v 0.129956 -0.058000 0.399963
v 0.302881 -0.058000 0.220056
v 0.392533 0.009200 0.000000
v 0.340649 0.009200 -0.247496
v 0.115850 0.009200 -0.356551
v -0.115850 0.009200 -0.356551
v -0.340649 0.009200 -0.247496
v -0.392533 0.009200 -0.000000
v -0.294484 0.009200 0.213955
v -0.126749 0.009200 0.390092
v 0.126749 0.009200 0.390092
v 0.294484 0.009200 0.213955
v 0.373072 0.135200 0.000000
v 0.324904 0.135200 -0.236057
v 0.109836 0.135200 -0.338042
v -0.109836 0.135200 -0.338042
v -0.324904 0.135200 -0.236057
v -0.373072 0.135200 -0.000000
v -0.278739 0.135200 0.202516
v -0.120735 0.135200 0.371583
v 0.120735 0.135200 0.371583
v 0.278739 0.135200 0.202516
v 0.365287 0.185600 0.000000
v 0.318606 0.185600 -0.231481
v 0.107431 0.185600 -0.330638
v -0.107431 0.185600 -0.330638
v -0.318606 0.185600 -0.231481
v -0.365287 0.185600 -0.000000
v -0.272441 0.185600 0.197940
v -0.118329 0.185600 0.364179
v 0.118329 0.185600 0.364179
v 0.272441 0.185600 0.197940
v 0.358800 0.227600 0.000000
v 0.313358 0.227600 -0.227668
v 0.105426 0.227600 -0.324469
v -0.105426 0.227600 -0.324469
v -0.313358 0.227600 -0.227668
v -0.358800 0.227600 -0.000000
v -0.267193 0.227600 0.194127
v -0.116324 0.227600 0.358010
v 0.116324 0.227600 0.358010
v 0.267193 0.227600 0.194127
vn 0.9648 0.1490 -0.2166
vn 0.4547 0.1367 -0.8801
vn -0.0000 0.1453 -0.9894
vn -0.4523 0.1507 -0.8791
vn -0.9658 0.1405 -0.2178
vn -0.9071 0.1401 0.3968
vn -0.6988 0.1508 0.6992
vn -0.0000 0.1453 0.9894
vn 0.6991 0.1365 0.7019
vn 0.9055 0.1492 0.3973
vn 0.9662 0.1492 -0.2104
vn 0.4532 0.1366 -0.8809
vn -0.4428 0.1510 -0.8838
vn -0.9661 0.1404 -0.2169
vn -0.9067 0.1400 0.3979
vn -0.7066 0.1511 0.6913
vn 0.7003 0.1364 0.7007
vn 0.9025 0.1494 0.4039
vn 0.9672 0.1494 -0.2054
vn 0.4438 0.1359 -0.8858
vn -0.4354 0.1511 -0.8875
vn -0.9675 0.1400 -0.2106
vn -0.9038 0.1396 0.4045
vn -0.7127 0.1512 0.6850
vn 0.7082 0.1356 0.6929
vn 0.9001 0.1496 0.4092
vn 0.9677 0.1495 -0.2029
vn 0.4364 0.1353 -0.8895
vn -0.4315 0.1512 -0.8894
vn -0.9686 0.1397 -0.2057
vn -0.9015 0.1392 0.4098
vn -0.7158 0.1513 0.6817
vn 0.7144 0.1350 0.6866
vn 0.8988 0.1497 0.4119
vn 0.9688 0.1496 -0.1977
vn 0.4325 0.1350 -0.8915
vn -0.4235 0.1514 -0.8931
vn -0.9691 0.1395 -0.2032
vn -0.9003 0.1391 0.4126
vn -0.7222 0.1515 0.6749
vn 0.7176 0.1346 0.6833
vn 0.8962 0.1499 0.4175
vn 0.9692 0.1497 -0.1955
vn 0.4246 0.1343 -0.8954
vn -0.4201 0.1515 -0.8947
vn -0.9703 0.1392 -0.1980
vn -0.8977 0.1387 0.4182
vn -0.7249 0.1516 0.6720
vn 0.7240 0.1340 0.6766
vn 0.8951 0.1500 0.4199
vn 0.9696 0.1498 -0.1935
vn 0.4212 0.1341 -0.8970
vn -0.4172 0.1515 -0.8961
vn -0.9707 0.1391 -0.1958
vn -0.8966 0.1385 0.4206
vn -0.7272 0.1516 0.6695
vn 0.7268 0.1337 0.6738
vn 0.8941 0.1500 0.4219
vn -0.0000 -1.0000 -0.0000
vn -0.0000 1.0000 -0.0000
vn 0.9658 0.1405 -0.2178
vn 0.4523 0.1507 -0.8791
vn -0.4547 0.1367 -0.8801
vn -0.9648 0.1490 -0.2166
vn -0.9055 0.1492 0.3973
vn -0.6991 0.1365 0.7019
vn 0.6988 0.1508 0.6992
vn 0.9071 0.1401 0.3968
vn 0.9661 0.1404 -0.2169
vn 0.4428 0.1510 -0.8838
vn -0.4532 0.1366 -0.8809
vn -0.9662 0.1492 -0.2104
vn -0.9025 0.1494 0.4039
vn -0.7003 0.1364 0.7007
vn 0.7066 0.1511 0.6913
vn 0.9067 0.1400 0.3979
vn 0.9675 0.1400 -0.2106
vn 0.4354 0.1511 -0.8875
vn -0.4438 0.1359 -0.8858
vn -0.9672 0.1494 -0.2054
vn -0.9001 0.1496 0.4092
vn -0.7082 0.1356 0.6929
vn 0.7127 0.1512 0.6850
vn 0.9038 0.1396 0.4045
vn 0.9686 0.1397 -0.2057
vn 0.4315 0.1512 -0.8894
vn -0.4364 0.1353 -0.8895
vn -0.9677 0.1495 -0.2029
vn -0.8988 0.1497 0.4119
vn -0.7144 0.1350 0.6866
vn 0.7158 0.1513 0.6817
vn 0.9015 0.1392 0.4098
vn 0.9691 0.1395 -0.2032
vn 0.4235 0.1514 -0.8931
vn -0.4325 0.1350 -0.8915
vn -0.9688 0.1496 -0.1977
vn -0.8962 0.1499 0.4175
vn -0.7176 0.1346 0.6833
vn 0.7222 0.1515 0.6749
vn 0.9003 0.1391 0.4126
vn 0.9703 0.1392 -0.1980
vn 0.4201 0.1515 -0.8947
vn -0.4246 0.1343 -0.8954
vn -0.9692 0.1497 -0.1955
vn -0.8951 0.1500 0.4199
vn -0.7240 0.1340 0.6766
vn 0.7249 0.1516 0.6720
vn 0.8977 0.1387 0.4182
vn 0.9707 0.1391 -0.1958
vn 0.4172 0.1515 -0.8961
vn -0.4212 0.1341 -0.8970
vn -0.9696 0.1498 -0.1935
vn -0.8941 0.1500 0.4219
vn -0.7268 0.1337 0.6738
vn 0.7272 0.1516 0.6695
vn 0.8966 0.1385 0.4206
s 0
g ITEM_Bottle_Family.001_MAT_GlassEmerald
usemtl MAT_GlassEmerald
f 1//1 12//1 11//1
f 3//2 12//2 2//2
f 3//3 14//3 13//3
f 4//4 15//4 14//4
f 6//5 15//5 5//5
f 7//6 16//6 6//6
f 7//7 18//7 17//7
f 9//8 18//8 8//8
f 10//9 19//9 9//9
f 10//10 11//10 20//10
f 11//11 22//11 21//11
f 13//12 22//12 12//12
f 14//3 23//3 13//3
f 14//13 25//13 24//13
f 16//14 25//14 15//14
f 17//15 26//15 16//15
f 17//16 28//16 27//16
f 19//8 28//8 18//8
f 20//17 29//17 19//17
f 20//18 21//18 30//18
f 21//19 32//19 31//19
f 23//20 32//20 22//20
f 24//3 33//3 23//3
f 24//21 35//21 34//21
f 26//22 35//22 25//22
f 27//23 36//23 26//23
f 27//24 38//24 37//24
f 28//8 39//8 38//8
f 30//25 39//25 29//25
f 30//26 31//26 40//26
f 31//27 42//27 41//27
f 33//28 42//28 32//28
f 34//3 43//3 33//3
f 34//29 45//29 44//29
f 36//30 45//30 35//30
f 37//31 46//31 36//31
f 37//32 48//32 47//32
f 39//8 48//8 38//8
f 40//33 49//33 39//33
f 40//34 41//34 50//34
f 41//35 52//35 51//35
f 43//36 52//36 42//36
f 44//3 53//3 43//3
f 44//37 55//37 54//37
f 46//38 55//38 45//38
f 47//39 56//39 46//39
f 47//40 58//40 57//40
f 49//8 58//8 48//8
f 50//41 59//41 49//41
f 50//42 51//42 60//42
f 7//59 3//59 1//59
f 1//61 2//61 12//61
f 3//62 13//62 12//62
f 3//3 4//3 14//3
f 4//63 5//63 15//63
f 6//64 16//64 15//64
f 7//65 17//65 16//65
f 7//66 8//66 18//66
f 9//8 19//8 18//8
f 10//67 20//67 19//67
f 10//68 1//68 11//68
f 11//69 12//69 22//69
f 13//70 23//70 22//70
f 14//3 24//3 23//3
f 14//71 15//71 25//71
f 16//72 26//72 25//72
f 17//73 27//73 26//73
f 17//74 18//74 28//74
f 19//8 29//8 28//8
f 20//75 30//75 29//75
f 20//76 11//76 21//76
f 21//77 22//77 32//77
f 23//78 33//78 32//78
f 24//3 34//3 33//3
f 24//79 25//79 35//79
f 26//80 36//80 35//80
f 27//81 37//81 36//81
f 27//82 28//82 38//82
f 28//8 29//8 39//8
f 30//83 40//83 39//83
f 30//84 21//84 31//84
f 31//85 32//85 42//85
f 33//86 43//86 42//86
f 34//3 44//3 43//3
f 34//87 35//87 45//87
f 36//88 46//88 45//88
f 37//89 47//89 46//89
f 37//90 38//90 48//90
f 39//8 49//8 48//8
f 40//91 50//91 49//91
f 40//92 31//92 41//92
f 41//93 42//93 52//93
f 43//94 53//94 52//94
f 44//3 54//3 53//3
f 44//95 45//95 55//95
f 46//96 56//96 55//96
f 47//97 57//97 56//97
f 47//98 48//98 58//98
f 49//8 59//8 58//8
f 50//99 60//99 59//99
f 50//100 41//100 51//100
f 1//59 10//59 9//59
f 9//59 8//59 7//59
f 7//59 6//59 5//59
f 5//59 4//59 3//59
f 3//59 2//59 1//59
f 1//59 9//59 7//59
f 7//59 5//59 3//59
g ITEM_Bottle_Family.001_MAT_Cork
usemtl MAT_Cork
f 51//43 62//43 61//43
f 53//44 62//44 52//44
f 54//3 63//3 53//3
f 54//45 65//45 64//45
f 56//46 65//46 55//46
f 57//47 66//47 56//47
f 57//48 68//48 67//48
f 59//8 68//8 58//8
f 60//49 69//49 59//49
f 60//50 61//50 70//50
f 61//51 72//51 71//51
f 63//52 72//52 62//52
f 64//3 73//3 63//3
f 64//53 75//53 74//53
f 66//54 75//54 65//54
f 67//55 76//55 66//55
f 67//56 78//56 77//56
f 69//8 78//8 68//8
f 70//57 79//57 69//57
f 70//58 71//58 80//58
f 74//60 78//60 80//60
f 51//101 52//101 62//101
f 53//102 63//102 62//102
f 54//3 64//3 63//3
f 54//103 55//103 65//103
f 56//104 66//104 65//104
f 57//105 67//105 66//105
f 57//106 58//106 68//106
f 59//8 69//8 68//8
f 60//107 70//107 69//107
f 60//108 51//108 61//108
f 61//109 62//109 72//109
f 63//110 73//110 72//110
f 64//3 74//3 73//3
f 64//111 65//111 75//111
f 66//112 76//112 75//112
f 67//113 77//113 76//113
f 67//114 68//114 78//114
f 69//8 79//8 78//8
f 70//115 80//115 79//115
f 70//116 61//116 71//116
f 80//60 71//60 72//60
f 72//60 73//60 74//60
f 74//60 75//60 76//60
f 76//60 77//60 78//60
f 78//60 79//60 80//60
f 80//60 72//60 74//60
f 74//60 76//60 78//60
