# Blender 5.0.1
# www.blender.org
mtllib bottle_family__angular.mtl
g BottleFamily_Body.001_Mesh
v 0.567020 -1.320611 0.032719
v 0.522116 -1.350000 -0.000000
v 0.567020 -1.320611 -0.032719
v 0.395980 -1.350000 -0.395980
v 0.395980 -1.350000 -0.395980
v 0.424079 -1.320611 -0.377808
v 0.395980 -1.350000 -0.395980
v 0.377808 -1.320611 -0.424079
v 0.395980 -1.350000 -0.395980
v -0.000000 -1.350000 -0.522116
v -0.032719 -1.320611 -0.567020
v 0.032719 -1.320611 -0.567020
v -0.395980 -1.350000 -0.395980
v -0.395980 -1.350000 -0.395980
v -0.377808 -1.320611 -0.424079
v -0.395980 -1.350000 -0.395980
v -0.424079 -1.320611 -0.377808
v -0.395980 -1.350000 -0.395980
v -0.522116 -1.350000 0.000000
v -0.567020 -1.320611 0.032719
v -0.567020 -1.320611 -0.032719
v -0.395980 -1.350000 0.395980
v -0.395980 -1.350000 0.395980
v -0.424079 -1.320611 0.377808
v -0.395980 -1.350000 0.395980
v -0.377808 -1.320611 0.424079
v -0.395980 -1.350000 0.395980
v 0.000000 -1.350000 0.522116
v 0.032719 -1.320611 0.567020
v -0.032719 -1.320611 0.567020
v 0.395980 -1.350000 0.395980
v 0.395980 -1.350000 0.395980
v 0.377808 -1.320611 0.424079
v 0.395980 -1.350000 0.395980
v 0.424079 -1.320611 0.377808
v 0.395980 -1.350000 0.395980
v 0.686454 -1.150000 -0.032702
v 0.686454 -1.150000 0.032702
v 0.494975 -1.150000 -0.494975
v 0.494975 -1.150000 -0.494975
v 0.508520 -1.150000 -0.462273
v 0.462273 -1.150000 -0.508520
v 0.494975 -1.150000 -0.494975
v 0.494975 -1.150000 -0.494975
v -0.032702 -1.150000 -0.686454
v 0.032702 -1.150000 -0.686454
v -0.494975 -1.150000 -0.494975
v -0.494975 -1.150000 -0.494975
v -0.462273 -1.150000 -0.508520
v -0.508520 -1.150000 -0.462273
v -0.494975 -1.150000 -0.494975
v -0.494975 -1.150000 -0.494975
v -0.686454 -1.150000 0.032702
v -0.686454 -1.150000 -0.032702
v -0.494975 -1.150000 0.494975
v -0.494975 -1.150000 0.494975
v -0.508520 -1.150000 0.462273
v -0.462273 -1.150000 0.508520
v -0.494975 -1.150000 0.494975
v -0.494975 -1.150000 0.494975
v 0.032702 -1.150000 0.686454
v -0.032702 -1.150000 0.686454
v 0.494975 -1.150000 0.494975
v 0.494975 -1.150000 0.494975
v 0.462273 -1.150000 0.508520
v 0.508520 -1.150000 0.462273
v 0.494975 -1.150000 0.494975
v 0.494975 -1.150000 0.494975
v 0.766462 -0.250000 -0.032683
v 0.766462 -0.250000 0.032683
v 0.551543 -0.250000 -0.551543
v 0.551543 -0.250000 -0.551543
v 0.565081 -0.250000 -0.518861
v 0.518861 -0.250000 -0.565081
v 0.551543 -0.250000 -0.551543
v 0.551543 -0.250000 -0.551543
v -0.032683 -0.250000 -0.766462
v 0.032683 -0.250000 -0.766462
v -0.551543 -0.250000 -0.551543
v -0.551543 -0.250000 -0.551543
v -0.518861 -0.250000 -0.565081
v -0.565081 -0.250000 -0.518861
v -0.551543 -0.250000 -0.551543
v -0.551543 -0.250000 -0.551543
v -0.766462 -0.250000 0.032683
v -0.766462 -0.250000 -0.032683
v -0.551543 -0.250000 0.551543
v -0.551543 -0.250000 0.551543
v -0.565081 -0.250000 0.518861
v -0.518861 -0.250000 0.565081
v -0.551543 -0.250000 0.551543
v -0.551543 -0.250000 0.551543
v 0.032683 -0.250000 0.766462
v -0.032683 -0.250000 0.766462
v 0.551543 -0.250000 0.551543
v 0.551543 -0.250000 0.551543
v 0.518861 -0.250000 0.565081
v 0.565081 -0.250000 0.518861
v 0.551543 -0.250000 0.551543
v 0.551543 -0.250000 0.551543
v 0.646460 0.550000 -0.032689
v 0.646460 0.550000 0.032689
v 0.466690 0.550000 -0.466690
v 0.466690 0.550000 -0.466690
v 0.480231 0.550000 -0.434002
v 0.434002 0.550000 -0.480231
v 0.466690 0.550000 -0.466690
v 0.466690 0.550000 -0.466690
v -0.032689 0.550000 -0.646460
v 0.032689 0.550000 -0.646460
v -0.466690 0.550000 -0.466690
v -0.466690 0.550000 -0.466690
v -0.434002 0.550000 -0.480231
v -0.480231 0.550000 -0.434002
v -0.466690 0.550000 -0.466690
v -0.466690 0.550000 -0.466690
v -0.646460 0.550000 0.032689
v -0.646460 0.550000 -0.032689
v -0.466690 0.550000 0.466690
v -0.466690 0.550000 0.466690
v -0.480231 0.550000 0.434002
v -0.434002 0.550000 0.480231
v -0.466690 0.550000 0.466690
v -0.466690 0.550000 0.466690
v 0.032689 0.550000 0.646460
v -0.032689 0.550000 0.646460
v 0.466690 0.550000 0.466690
v 0.466690 0.550000 0.466690
v 0.434002 0.550000 0.480231
v 0.480231 0.550000 0.434002
v 0.466690 0.550000 0.466690
v 0.466690 0.550000 0.466690
v 0.372863 0.880000 -0.032681
v 0.372863 0.880000 0.032681
v 0.273226 0.880000 -0.273226
v 0.273226 0.880000 -0.273226
v 0.286763 0.880000 -0.240545
v 0.240545 0.880000 -0.286763
v 0.273226 0.880000 -0.273226
v 0.273226 0.880000 -0.273226
v -0.032681 0.880000 -0.372863
v 0.032681 0.880000 -0.372863
v -0.273226 0.880000 -0.273226
v -0.273226 0.880000 -0.273226
v -0.240545 0.880000 -0.286763
v -0.286763 0.880000 -0.240545
v -0.273226 0.880000 -0.273226
v -0.273226 0.880000 -0.273226
v -0.372863 0.880000 0.032681
v -0.372863 0.880000 -0.032681
v -0.273226 0.880000 0.273226
v -0.273226 0.880000 0.273226
v -0.286763 0.880000 0.240545
v -0.240545 0.880000 0.286763
v -0.273226 0.880000 0.273226
v -0.273226 0.880000 0.273226
v 0.032681 0.880000 0.372863
v -0.032681 0.880000 0.372863
v 0.273226 0.880000 0.273226
v 0.273226 0.880000 0.273226
v 0.240545 0.880000 0.286763
v 0.286763 0.880000 0.240545
v 0.273226 0.880000 0.273226
v 0.273226 0.880000 0.273226
v 0.299275 1.100000 -0.032653
v 0.299275 1.100000 0.032653
v 0.221183 1.100000 -0.221183
v 0.221183 1.100000 -0.221183
v 0.234708 1.100000 -0.188530
v 0.188530 1.100000 -0.234708
v 0.221183 1.100000 -0.221183
v 0.221183 1.100000 -0.221183
v -0.032653 1.100000 -0.299275
v 0.032653 1.100000 -0.299275
v -0.221183 1.100000 -0.221183
v -0.221183 1.100000 -0.221183
v -0.188530 1.100000 -0.234708
v -0.234708 1.100000 -0.188530
v -0.221183 1.100000 -0.221183
v -0.221183 1.100000 -0.221183
v -0.299275 1.100000 0.032653
v -0.299275 1.100000 -0.032653
v -0.221183 1.100000 0.221183
v -0.221183 1.100000 0.221183
v -0.234708 1.100000 0.188530
v -0.188530 1.100000 0.234708
v -0.221183 1.100000 0.221183
v -0.221183 1.100000 0.221183
v 0.032653 1.100000 0.299275
v -0.032653 1.100000 0.299275
v 0.221183 1.100000 0.221183
v 0.221183 1.100000 0.221183
v 0.188530 1.100000 0.234708
v 0.234708 1.100000 0.188530
v 0.221183 1.100000 0.221183
v 0.221183 1.100000 0.221183
v 0.299280 1.385000 0.032641
v 0.299280 1.385000 -0.032641
v 0.274916 1.420000 0.000000
v 0.221183 1.420000 -0.221183
v 0.221183 1.420000 -0.221183
v 0.234703 1.385000 -0.188542
v 0.188542 1.385000 -0.234703
v 0.221183 1.420000 -0.221183
v 0.221183 1.420000 -0.221183
v -0.032641 1.385000 -0.299280
v 0.000000 1.420000 -0.274916
v 0.032641 1.385000 -0.299280
v -0.221183 1.420000 -0.221183
v -0.221183 1.420000 -0.221183
v -0.188542 1.385000 -0.234703
v -0.234703 1.385000 -0.188542
v -0.221183 1.420000 -0.221183
v -0.221183 1.420000 -0.221183
v -0.299280 1.385000 0.032641
v -0.274916 1.420000 -0.000000
v -0.299280 1.385000 -0.032641
v -0.221183 1.420000 0.221183
v -0.221183 1.420000 0.221183
v -0.234703 1.385000 0.188542
v -0.188542 1.385000 0.234703
v -0.221183 1.420000 0.221183
v -0.221183 1.420000 0.221183
v 0.032641 1.385000 0.299280
v -0.000000 1.420000 0.274916
v -0.032641 1.385000 0.299280
v 0.221183 1.420000 0.221183
v 0.221183 1.420000 0.221183
v 0.188542 1.385000 0.234703
v 0.234703 1.385000 0.188542
v 0.221183 1.420000 0.221183
v 0.221183 1.420000 0.221183
vn 0.5476 -0.8367 -0.0000
vn -0.0000 1.0000 -0.0000
vn -0.0000 -0.8367 -0.5476
vn -0.5476 -0.8367 -0.0000
vn -0.0000 -0.8367 0.5476
vn 0.8207 0.5713 -0.0000
vn -0.0000 0.5713 -0.8207
vn -0.8207 0.5713 -0.0000
vn -0.0000 0.5713 0.8207
vn 0.8192 -0.5735 -0.0000
vn 0.4416 -0.8784 -0.1829
vn 0.7758 -0.5430 -0.3213
vn 0.3213 -0.5430 -0.7758
vn 0.2459 -0.5861 -0.7720
vn -0.0000 -0.5735 -0.8192
vn -0.1829 -0.8784 -0.4416
vn -0.3213 -0.5430 -0.7758
vn -0.7758 -0.5430 -0.3213
vn -0.7720 -0.5861 -0.2459
vn -0.8192 -0.5735 -0.0000
vn -0.4416 -0.8784 0.1829
vn -0.7758 -0.5430 0.3213
vn -0.3213 -0.5430 0.7758
vn -0.2459 -0.5861 0.7720
vn -0.0000 -0.5735 0.8192
vn 0.1829 -0.8784 0.4416
vn 0.3213 -0.5430 0.7758
vn 0.7758 -0.5430 0.3213
vn 0.4416 -0.8784 0.1829
vn 0.9961 -0.0885 -0.0000
vn 0.9208 -0.0818 -0.3814
vn 0.3814 -0.0818 -0.9208
vn -0.0000 -0.0885 -0.9961
vn -0.3814 -0.0818 -0.9208
vn -0.9208 -0.0818 -0.3814
vn -0.9961 -0.0885 -0.0000
vn -0.9208 -0.0818 0.3814
vn -0.3814 -0.0818 0.9208
vn -0.0000 -0.0885 0.9961
vn 0.3814 -0.0818 0.9208
vn 0.9208 -0.0818 0.3814
vn 0.9889 0.1483 -0.0000
vn 0.9151 0.1373 -0.3791
vn 0.3791 0.1373 -0.9151
vn -0.0000 0.1483 -0.9889
vn -0.3791 0.1373 -0.9151
vn -0.9151 0.1373 -0.3791
vn -0.9889 0.1483 -0.0000
vn -0.9151 0.1373 0.3791
vn -0.3791 0.1373 0.9151
vn -0.0000 0.1483 0.9889
vn 0.3791 0.1373 0.9151
vn 0.9151 0.1373 0.3791
vn 0.7698 0.6383 -0.0000
vn 0.7334 0.6081 -0.3038
vn 0.3038 0.6081 -0.7334
vn -0.0000 0.6383 -0.7698
vn -0.3038 0.6081 -0.7334
vn -0.7334 0.6081 -0.3038
vn -0.7698 0.6383 -0.0000
vn -0.7334 0.6081 0.3038
vn -0.3038 0.6081 0.7334
vn -0.0000 0.6383 0.7698
vn 0.3038 0.6081 0.7334
vn 0.7334 0.6081 0.3038
vn 0.9484 0.3172 -0.0000
vn 0.8827 0.2953 -0.3656
vn 0.3656 0.2953 -0.8827
vn -0.0000 0.3172 -0.9484
vn -0.3656 0.2953 -0.8827
vn -0.8827 0.2953 -0.3656
vn -0.9484 0.3172 -0.0000
vn -0.8827 0.2953 0.3656
vn -0.3656 0.2953 0.8827
vn -0.0000 0.3172 0.9484
vn 0.3656 0.2953 0.8827
vn 0.8827 0.2953 0.3656
vn 1.0000 -0.0000 -0.0000
vn 0.9239 -0.0000 -0.3827
vn 0.6533 0.7071 -0.2706
vn 0.3827 -0.0000 -0.9239
vn -0.0000 -0.0000 -1.0000
vn 0.2333 0.1534 -0.9602
vn -0.3827 -0.0000 -0.9239
vn -0.2706 0.7071 -0.6533
vn -0.9239 -0.0000 -0.3827
vn -1.0000 -0.0000 -0.0000
vn -0.9602 0.1534 -0.2333
vn -0.9239 -0.0000 0.3827
vn -0.6533 0.7071 0.2706
vn -0.3827 -0.0000 0.9239
vn -0.0000 -0.0000 1.0000
vn -0.2333 0.1534 0.9602
vn 0.3827 -0.0000 0.9239
vn 0.2706 0.7071 0.6533
vn 0.9239 -0.0000 0.3827
vn 0.6533 0.7071 0.2706
vn -0.0000 -1.0000 -0.0000
vn 0.7720 -0.5861 -0.2459
vn 0.1829 -0.8784 -0.4416
vn -0.2459 -0.5861 -0.7720
vn -0.4416 -0.8784 -0.1829
vn -0.7720 -0.5861 0.2459
vn -0.1829 -0.8784 0.4416
vn 0.2459 -0.5861 0.7720
vn 0.7720 -0.5861 0.2459
vn 0.9602 0.1534 -0.2333
vn 0.2706 0.7071 -0.6533
vn -0.2333 0.1534 -0.9602
vn -0.6533 0.7071 -0.2706
vn -0.9602 0.1534 0.2333
vn -0.2706 0.7071 0.6533
vn 0.2333 0.1534 0.9602
vn 0.9602 0.1534 0.2333
s 0
g BottleFamily_Body.001_MAT_GlassGreen
usemtl MAT_GlassGreen
f 1//1 2//1 3//1
f 4//2 5//2 6//2
f 7//2 8//2 9//2
f 10//3 11//3 12//3
f 13//2 14//2 15//2
f 16//2 17//2 18//2
f 19//4 20//4 21//4
f 22//2 23//2 24//2
f 25//2 26//2 27//2
f 28//5 29//5 30//5
f 31//2 32//2 33//2
f 34//2 35//2 36//2
f 39//2 40//2 41//2
f 42//2 43//2 44//2
f 47//2 48//2 49//2
f 50//2 51//2 52//2
f 55//2 56//2 57//2
f 58//2 59//2 60//2
f 63//2 64//2 65//2
f 66//2 67//2 68//2
f 71//2 72//2 73//2
f 74//2 75//2 76//2
f 79//2 80//2 81//2
f 82//2 83//2 84//2
f 87//2 88//2 89//2
f 90//2 91//2 92//2
f 95//2 96//2 97//2
f 98//2 99//2 100//2
f 103//2 104//2 105//2
f 106//2 107//2 108//2
f 111//2 112//2 113//2
f 114//2 115//2 116//2
f 119//2 120//2 121//2
f 122//2 123//2 124//2
f 127//2 128//2 129//2
f 130//2 131//2 132//2
f 135//2 136//2 137//2
f 138//2 139//2 140//2
f 143//2 144//2 145//2
f 146//2 147//2 148//2
f 151//2 152//2 153//2
f 154//2 155//2 156//2
f 159//2 160//2 161//2
f 162//2 163//2 164//2
f 167//2 168//2 169//2
f 170//2 171//2 172//2
f 175//2 176//2 177//2
f 178//2 179//2 180//2
f 183//2 184//2 185//2
f 186//2 187//2 188//2
f 191//2 192//2 193//2
f 194//2 195//2 196//2
f 197//6 198//6 199//6
f 200//2 201//2 202//2
f 203//2 204//2 205//2
f 206//7 207//7 208//7
f 209//2 210//2 211//2
f 212//2 213//2 214//2
f 215//8 216//8 217//8
f 218//2 219//2 220//2
f 221//2 222//2 223//2
f 224//9 225//9 226//9
f 227//2 228//2 229//2
f 230//2 231//2 232//2
f 37//10 1//10 3//10
f 2//11 6//11 3//11
f 39//12 6//12 5//12
f 4//2 9//2 5//2
f 8//13 44//13 9//13
f 39//2 43//2 40//2
f 10//14 8//14 7//14
f 45//15 12//15 11//15
f 10//16 15//16 11//16
f 47//17 15//17 14//17
f 13//2 18//2 14//2
f 17//18 52//18 18//18
f 47//2 51//2 48//2
f 19//19 17//19 16//19
f 53//20 21//20 20//20
f 19//21 24//21 20//21
f 55//22 24//22 23//22
f 22//2 27//2 23//2
f 26//23 60//23 27//23
f 55//2 59//2 56//2
f 28//24 26//24 25//24
f 61//25 30//25 29//25
f 28//26 33//26 29//26
f 63//27 33//27 32//27
f 31//2 36//2 32//2
f 35//28 68//28 36//28
f 63//2 67//2 64//2
f 35//29 2//29 1//29
f 69//30 38//30 37//30
f 40//31 73//31 41//31
f 74//32 43//32 42//32
f 71//2 75//2 72//2
f 77//33 46//33 45//33
f 48//34 81//34 49//34
f 82//35 51//35 50//35
f 79//2 83//2 80//2
f 85//36 54//36 53//36
f 56//37 89//37 57//37
f 90//38 59//38 58//38
f 87//2 91//2 88//2
f 93//39 62//39 61//39
f 64//40 97//40 65//40
f 98//41 67//41 66//41
f 95//2 99//2 96//2
f 101//42 70//42 69//42
f 103//43 73//43 72//43
f 74//44 108//44 75//44
f 103//2 107//2 104//2
f 109//45 78//45 77//45
f 111//46 81//46 80//46
f 82//47 116//47 83//47
f 111//2 115//2 112//2
f 117//48 86//48 85//48
f 119//49 89//49 88//49
f 90//50 124//50 91//50
f 119//2 123//2 120//2
f 125//51 94//51 93//51
f 127//52 97//52 96//52
f 98//53 132//53 99//53
f 127//2 131//2 128//2
f 133//54 102//54 101//54
f 135//55 105//55 104//55
f 106//56 140//56 107//56
f 135//2 139//2 136//2
f 141//57 110//57 109//57
f 143//58 113//58 112//58
f 114//59 148//59 115//59
f 143//2 147//2 144//2
f 149//60 118//60 117//60
f 151//61 121//61 120//61
f 122//62 156//62 123//62
f 151//2 155//2 152//2
f 157//63 126//63 125//63
f 159//64 129//64 128//64
f 130//65 164//65 131//65
f 159//2 163//2 160//2
f 165//66 134//66 133//66
f 167//67 137//67 136//67
f 138//68 172//68 139//68
f 167//2 171//2 168//2
f 173//69 142//69 141//69
f 175//70 145//70 144//70
f 146//71 180//71 147//71
f 175//2 179//2 176//2
f 181//72 150//72 149//72
f 183//73 153//73 152//73
f 154//74 188//74 155//74
f 183//2 187//2 184//2
f 189//75 158//75 157//75
f 191//76 161//76 160//76
f 162//77 196//77 163//77
f 191//2 195//2 192//2
f 198//78 166//78 165//78
f 168//79 202//79 169//79
f 202//80 199//80 198//80
f 203//81 171//81 170//81
f 200//2 204//2 201//2
f 206//82 174//82 173//82
f 203//83 207//83 204//83
f 176//84 211//84 177//84
f 211//85 207//85 206//85
f 212//86 179//86 178//86
f 209//2 213//2 210//2
f 215//87 182//87 181//87
f 212//88 216//88 213//88
f 184//89 220//89 185//89
f 220//90 216//90 215//90
f 221//91 187//91 186//91
f 218//2 222//2 219//2
f 224//92 190//92 189//92
f 221//93 225//93 222//93
f 192//94 229//94 193//94
f 229//95 225//95 224//95
f 230//96 195//96 194//96
f 227//2 231//2 228//2
f 199//97 230//97 197//97
f 1//28 66//28 35//28
f 6//12 37//12 3//12
f 10//98 7//98 2//98
f 5//2 44//2 39//2
f 12//13 42//13 8//13
f 15//17 45//17 11//17
f 14//2 52//2 47//2
f 21//18 50//18 17//18
f 24//22 53//22 20//22
f 23//2 60//2 55//2
f 30//23 58//23 26//23
f 33//27 61//27 29//27
f 32//2 68//2 63//2
f 38//41 98//41 66//41
f 41//31 69//31 37//31
f 40//2 76//2 71//2
f 46//32 74//32 42//32
f 49//34 77//34 45//34
f 48//2 84//2 79//2
f 54//35 82//35 50//35
f 57//37 85//37 53//37
f 56//2 92//2 87//2
f 62//38 90//38 58//38
f 65//40 93//40 61//40
f 64//2 100//2 95//2
f 70//53 130//53 98//53
f 73//43 101//43 69//43
f 72//2 108//2 103//2
f 78//44 106//44 74//44
f 81//46 109//46 77//46
f 80//2 116//2 111//2
f 86//47 114//47 82//47
f 89//49 117//49 85//49
f 88//2 124//2 119//2
f 94//50 122//50 90//50
f 97//52 125//52 93//52
f 96//2 132//2 127//2
f 102//65 162//65 130//65
f 105//55 133//55 101//55
f 104//2 140//2 135//2
f 110//56 138//56 106//56
f 113//58 141//58 109//58
f 112//2 148//2 143//2
f 118//59 146//59 114//59
f 121//61 149//61 117//61
f 120//2 156//2 151//2
f 126//62 154//62 122//62
f 129//64 157//64 125//64
f 128//2 164//2 159//2
f 134//77 194//77 162//77
f 137//67 165//67 133//67
f 136//2 172//2 167//2
f 142//68 170//68 138//68
f 145//70 173//70 141//70
f 144//2 180//2 175//2
f 150//71 178//71 146//71
f 153//73 181//73 149//73
f 152//2 188//2 183//2
f 158//74 186//74 154//74
f 161//76 189//76 157//76
f 160//2 196//2 191//2
f 166//96 230//96 194//96
f 169//79 198//79 165//79
f 168//2 205//2 200//2
f 174//81 203//81 170//81
f 177//84 206//84 173//84
f 176//2 214//2 209//2
f 182//86 212//86 178//86
f 185//89 215//89 181//89
f 184//2 223//2 218//2
f 190//91 221//91 186//91
f 193//94 224//94 189//94
f 192//2 232//2 227//2
f 199//2 225//2 228//2
f 37//10 38//10 1//10
f 2//99 4//99 6//99
f 39//12 41//12 6//12
f 4//2 7//2 9//2
f 8//13 42//13 44//13
f 39//2 44//2 43//2
f 10//100 12//100 8//100
f 45//15 46//15 12//15
f 10//101 13//101 15//101
f 47//17 49//17 15//17
f 13//2 16//2 18//2
f 17//18 50//18 52//18
f 47//2 52//2 51//2
f 19//102 21//102 17//102
f 53//20 54//20 21//20
f 19//103 22//103 24//103
f 55//22 57//22 24//22
f 22//2 25//2 27//2
f 26//23 58//23 60//23
f 55//2 60//2 59//2
f 28//104 30//104 26//104
f 61//25 62//25 30//25
f 28//105 31//105 33//105
f 63//27 65//27 33//27
f 31//2 34//2 36//2
f 35//28 66//28 68//28
f 63//2 68//2 67//2
f 35//106 34//106 2//106
f 69//30 70//30 38//30
f 40//31 71//31 73//31
f 74//32 76//32 43//32
f 71//2 76//2 75//2
f 77//33 78//33 46//33
f 48//34 79//34 81//34
f 82//35 84//35 51//35
f 79//2 84//2 83//2
f 85//36 86//36 54//36
f 56//37 87//37 89//37
f 90//38 92//38 59//38
f 87//2 92//2 91//2
f 93//39 94//39 62//39
f 64//40 95//40 97//40
f 98//41 100//41 67//41
f 95//2 100//2 99//2
f 101//42 102//42 70//42
f 103//43 105//43 73//43
f 74//44 106//44 108//44
f 103//2 108//2 107//2
f 109//45 110//45 78//45
f 111//46 113//46 81//46
f 82//47 114//47 116//47
f 111//2 116//2 115//2
f 117//48 118//48 86//48
f 119//49 121//49 89//49
f 90//50 122//50 124//50
f 119//2 124//2 123//2
f 125//51 126//51 94//51
f 127//52 129//52 97//52
f 98//53 130//53 132//53
f 127//2 132//2 131//2
f 133//54 134//54 102//54
f 135//55 137//55 105//55
f 106//56 138//56 140//56
f 135//2 140//2 139//2
f 141//57 142//57 110//57
f 143//58 145//58 113//58
f 114//59 146//59 148//59
f 143//2 148//2 147//2
f 149//60 150//60 118//60
f 151//61 153//61 121//61
f 122//62 154//62 156//62
f 151//2 156//2 155//2
f 157//63 158//63 126//63
f 159//64 161//64 129//64
f 130//65 162//65 164//65
f 159//2 164//2 163//2
f 165//66 166//66 134//66
f 167//67 169//67 137//67
f 138//68 170//68 172//68
f 167//2 172//2 171//2
f 173//69 174//69 142//69
f 175//70 177//70 145//70
f 146//71 178//71 180//71
f 175//2 180//2 179//2
f 181//72 182//72 150//72
f 183//73 185//73 153//73
f 154//74 186//74 188//74
f 183//2 188//2 187//2
f 189//75 190//75 158//75
f 191//76 193//76 161//76
f 162//77 194//77 196//77
f 191//2 196//2 195//2
f 198//78 197//78 166//78
f 168//79 200//79 202//79
f 202//107 201//107 199//107
f 203//81 205//81 171//81
f 200//2 205//2 204//2
f 206//82 208//82 174//82
f 203//108 208//108 207//108
f 176//84 209//84 211//84
f 211//109 210//109 207//109
f 212//86 214//86 179//86
f 209//2 214//2 213//2
f 215//87 217//87 182//87
f 212//110 217//110 216//110
f 184//89 218//89 220//89
f 220//111 219//111 216//111
f 221//91 223//91 187//91
f 218//2 223//2 222//2
f 224//92 226//92 190//92
f 221//112 226//112 225//112
f 192//94 227//94 229//94
f 229//113 228//113 225//113
f 230//96 232//96 195//96
f 227//2 232//2 231//2
f 199//114 231//114 230//114
f 1//28 38//28 66//28
f 6//12 41//12 37//12
f 2//2 34//2 31//2
f 2//98 31//98 28//98
f 25//2 22//2 19//2
f 2//98 28//98 25//98
f 2//98 25//98 19//98
f 16//2 13//2 10//2
f 2//98 19//98 16//98
f 2//98 16//98 10//98
f 7//2 4//2 2//2
f 5//2 9//2 44//2
f 12//13 46//13 42//13
f 15//17 49//17 45//17
f 14//2 18//2 52//2
f 21//18 54//18 50//18
f 24//22 57//22 53//22
f 23//2 27//2 60//2
f 30//23 62//23 58//23
f 33//27 65//27 61//27
f 32//2 36//2 68//2
f 38//41 70//41 98//41
f 41//31 73//31 69//31
f 40//2 43//2 76//2
f 46//32 78//32 74//32
f 49//34 81//34 77//34
f 48//2 51//2 84//2
f 54//35 86//35 82//35
f 57//37 89//37 85//37
f 56//2 59//2 92//2
f 62//38 94//38 90//38
f 65//40 97//40 93//40
f 64//2 67//2 100//2
f 70//53 102//53 130//53
f 73//43 105//43 101//43
f 72//2 75//2 108//2
f 78//44 110//44 106//44
f 81//46 113//46 109//46
f 80//2 83//2 116//2
f 86//47 118//47 114//47
f 89//49 121//49 117//49
f 88//2 91//2 124//2
f 94//50 126//50 122//50
f 97//52 129//52 125//52
f 96//2 99//2 132//2
f 102//65 134//65 162//65
f 105//55 137//55 133//55
f 104//2 107//2 140//2
f 110//56 142//56 138//56
f 113//58 145//58 141//58
f 112//2 115//2 148//2
f 118//59 150//59 146//59
f 121//61 153//61 149//61
f 120//2 123//2 156//2
f 126//62 158//62 154//62
f 129//64 161//64 157//64
f 128//2 131//2 164//2
f 134//77 166//77 194//77
f 137//67 169//67 165//67
f 136//2 139//2 172//2
f 142//68 174//68 170//68
f 145//70 177//70 173//70
f 144//2 147//2 180//2
f 150//71 182//71 178//71
f 153//73 185//73 181//73
f 152//2 155//2 188//2
f 158//74 190//74 186//74
f 161//76 193//76 189//76
f 160//2 163//2 196//2
f 166//96 197//96 230//96
f 169//79 202//79 198//79
f 168//2 171//2 205//2
f 174//81 208//81 203//81
f 177//84 211//84 206//84
f 176//2 179//2 214//2
f 182//86 217//86 212//86
f 185//89 220//89 215//89
f 184//2 187//2 223//2
f 190//91 226//91 221//91
f 193//94 229//94 224//94
f 192//2 195//2 232//2
f 199//2 201//2 204//2
f 199//2 204//2 207//2
f 210//2 213//2 216//2
f 199//2 207//2 210//2
f 199//2 210//2 216//2
f 219//2 222//2 225//2
f 199//2 216//2 219//2
f 199//2 219//2 225//2
f 228//2 231//2 199//2
g BottleFamily_Collar.001_Mesh
v 0.425000 1.380000 0.000000
v 0.370000 1.435000 0.000000
v 0.315000 1.380000 0.000000
v 0.370000 1.325000 0.000000
v 0.368061 1.380000 -0.212500
v 0.320429 1.435000 -0.185000
v 0.272798 1.380000 -0.157500
v 0.320429 1.325000 -0.185000
v 0.212500 1.380000 -0.368061
v 0.185000 1.435000 -0.320429
v 0.157500 1.380000 -0.272798
v 0.185000 1.325000 -0.320429
v 0.000000 1.380000 -0.425000
v 0.000000 1.435000 -0.370000
v 0.000000 1.380000 -0.315000
v 0.000000 1.325000 -0.370000
v -0.212500 1.380000 -0.368061
v -0.185000 1.435000 -0.320429
v -0.157500 1.380000 -0.272798
v -0.185000 1.325000 -0.320429
v -0.368061 1.380000 -0.212500
v -0.320429 1.435000 -0.185000
v -0.272798 1.380000 -0.157500
v -0.320429 1.325000 -0.185000
v -0.425000 1.380000 -0.000000
v -0.370000 1.435000 -0.000000
v -0.315000 1.380000 -0.000000
v -0.370000 1.325000 -0.000000
v -0.368061 1.380000 0.212500
v -0.320429 1.435000 0.185000
v -0.272798 1.380000 0.157500
v -0.320429 1.325000 0.185000
v -0.212500 1.380000 0.368061
v -0.185000 1.435000 0.320429
v -0.157500 1.380000 0.272798
v -0.185000 1.325000 0.320429
v 0.000000 1.380000 0.425000
v 0.000000 1.435000 0.370000
v 0.000000 1.380000 0.315000
v 0.000000 1.325000 0.370000
v 0.212500 1.380000 0.368061
v 0.185000 1.435000 0.320429
v 0.157500 1.380000 0.272798
v 0.185000 1.325000 0.320429
v 0.368061 1.380000 0.212500
v 0.320429 1.435000 0.185000
v 0.272798 1.380000 0.157500
v 0.320429 1.325000 0.185000
vn 0.6947 0.6947 -0.1862
vn -0.6947 0.6947 0.1862
vn -0.6947 -0.6947 0.1862
vn 0.6947 -0.6947 -0.1862
vn 0.5086 0.6947 -0.5086
vn -0.5086 0.6947 0.5086
vn -0.5086 -0.6947 0.5086
vn 0.5086 -0.6947 -0.5086
vn 0.1862 0.6947 -0.6947
vn -0.1862 0.6947 0.6947
vn -0.1862 -0.6947 0.6947
vn 0.1862 -0.6947 -0.6947
vn -0.1862 0.6947 -0.6947
vn 0.1862 0.6947 0.6947
vn 0.1862 -0.6947 0.6947
vn -0.1862 -0.6947 -0.6947
vn -0.5086 0.6947 -0.5086
vn 0.5086 0.6947 0.5086
vn 0.5086 -0.6947 0.5086
vn -0.5086 -0.6947 -0.5086
vn -0.6947 0.6947 -0.1862
vn 0.6947 0.6947 0.1862
vn 0.6947 -0.6947 0.1862
vn -0.6947 -0.6947 -0.1862
vt 0.500000 0.500000
vt 0.583333 0.750000
vt 0.500000 0.750000
vt 0.500000 1.000000
vt 0.500000 0.000000
vt 0.583333 0.250000
vt 0.500000 0.250000
vt 0.583333 0.500000
vt 0.666667 0.750000
vt 0.583333 1.000000
vt 0.666667 0.000000
vt 0.583333 0.000000
vt 0.666667 0.250000
vt 0.750000 0.500000
vt 0.666667 0.500000
vt 0.750000 0.750000
vt 0.666667 1.000000
vt 0.750000 0.000000
vt 0.750000 0.250000
vt 0.833333 0.750000
vt 0.750000 1.000000
vt 0.833333 0.250000
vt 0.833333 0.500000
vt 0.916667 0.750000
vt 0.833333 1.000000
vt 0.916667 0.000000
vt 0.833333 0.000000
vt 0.916667 0.250000
vt 1.000000 0.500000
vt 0.916667 0.500000
vt 1.000000 0.750000
vt 0.916667 1.000000
vt 1.000000 0.000000
vt 1.000000 0.250000
vt 0.000000 0.500000
vt 0.083333 0.750000
vt 0.000000 0.750000
vt 0.000000 1.000000
vt 0.083333 0.000000
vt 0.000000 0.250000
vt 0.000000 0.000000
vt 0.083333 0.250000
vt 0.166667 0.500000
vt 0.083333 0.500000
vt 0.166667 0.750000
vt 0.083333 1.000000
vt 0.166667 0.000000
vt 0.250000 0.500000
vt 0.250000 1.000000
vt 0.166667 1.000000
vt 0.250000 0.000000
vt 0.166667 0.250000
vt 0.333333 0.500000
vt 0.250000 0.750000
vt 0.333333 0.750000
vt 0.333333 0.000000
vt 0.250000 0.250000
vt 0.416667 0.500000
vt 0.416667 0.750000
vt 0.333333 1.000000
vt 0.416667 0.000000
vt 0.333333 0.250000
vt 0.416667 0.250000
vt 0.416667 1.000000
vt 1.000000 1.000000
s 0
g BottleFamily_Collar.001_MAT_OldGold
usemtl MAT_OldGold
f 233/1/115 238/2/115 234/3/115
f 238/2/116 235/4/116 234/3/116
f 235/5/117 240/6/117 236/7/117
f 236/7/118 237/8/118 233/1/118
f 237/8/119 242/9/119 238/2/119
f 242/9/120 239/10/120 238/2/120
f 243/11/121 240/6/121 239/12/121
f 244/13/122 237/8/122 240/6/122
f 245/14/123 242/9/123 241/15/123
f 246/16/124 243/17/124 242/9/124
f 247/18/125 244/13/125 243/11/125
f 248/19/126 241/15/126 244/13/126
f 245/14/127 250/20/127 246/16/127
f 250/20/128 247/21/128 246/16/128
f 247/18/129 252/22/129 248/19/129
f 252/22/130 245/14/130 248/19/130
f 249/23/131 254/24/131 250/20/131
f 254/24/132 251/25/132 250/20/132
f 255/26/133 252/22/133 251/27/133
f 256/28/134 249/23/134 252/22/134
f 257/29/135 254/24/135 253/30/135
f 258/31/136 255/32/136 254/24/136
f 259/33/137 256/28/137 255/26/137
f 260/34/138 253/30/138 256/28/138
f 257/35/116 262/36/116 258/37/116
f 262/36/115 259/38/115 258/37/115
f 263/39/118 260/40/118 259/41/118
f 264/42/117 257/35/117 260/40/117
f 265/43/120 262/36/120 261/44/120
f 266/45/119 263/46/119 262/36/119
f 267/47/122 264/42/122 263/39/122
f 264/42/121 265/43/121 261/44/121
f 269/48/124 266/45/124 265/43/124
f 266/45/123 271/49/123 267/50/123
f 271/51/126 268/52/126 267/47/126
f 268/52/125 269/48/125 265/43/125
f 273/53/128 270/54/128 269/48/128
f 274/55/127 271/49/127 270/54/127
f 275/56/130 272/57/130 271/51/130
f 272/57/129 273/53/129 269/48/129
f 277/58/132 274/55/132 273/53/132
f 278/59/131 275/60/131 274/55/131
f 279/61/134 276/62/134 275/56/134
f 280/63/133 273/53/133 276/62/133
f 233/1/136 278/59/136 277/58/136
f 234/3/135 279/64/135 278/59/135
f 235/5/138 280/63/138 279/61/138
f 236/7/137 277/58/137 280/63/137
f 233/1/115 237/8/115 238/2/115
f 238/2/116 239/10/116 235/4/116
f 235/5/117 239/12/117 240/6/117
f 236/7/118 240/6/118 237/8/118
f 237/8/119 241/15/119 242/9/119
f 242/9/120 243/17/120 239/10/120
f 243/11/121 244/13/121 240/6/121
f 244/13/122 241/15/122 237/8/122
f 245/14/123 246/16/123 242/9/123
f 246/16/124 247/21/124 243/17/124
f 247/18/125 248/19/125 244/13/125
f 248/19/126 245/14/126 241/15/126
f 245/14/127 249/23/127 250/20/127
f 250/20/128 251/25/128 247/21/128
f 247/18/129 251/27/129 252/22/129
f 252/22/130 249/23/130 245/14/130
f 249/23/131 253/30/131 254/24/131
f 254/24/132 255/32/132 251/25/132
f 255/26/133 256/28/133 252/22/133
f 256/28/134 253/30/134 249/23/134
f 257/29/135 258/31/135 254/24/135
f 258/31/136 259/65/136 255/32/136
f 259/33/137 260/34/137 256/28/137
f 260/34/138 257/29/138 253/30/138
f 257/35/116 261/44/116 262/36/116
f 262/36/115 263/46/115 259/38/115
f 263/39/118 264/42/118 260/40/118
f 264/42/117 261/44/117 257/35/117
f 265/43/120 266/45/120 262/36/120
f 266/45/119 267/50/119 263/46/119
f 267/47/122 268/52/122 264/42/122
f 264/42/121 268/52/121 265/43/121
f 269/48/124 270/54/124 266/45/124
f 266/45/123 270/54/123 271/49/123
f 271/51/126 272/57/126 268/52/126
f 268/52/125 272/57/125 269/48/125
f 273/53/128 274/55/128 270/54/128
f 274/55/127 275/60/127 271/49/127
f 275/56/130 276/62/130 272/57/130
f 272/57/129 276/62/129 273/53/129
f 277/58/132 278/59/132 274/55/132
f 278/59/131 279/64/131 275/60/131
f 279/61/134 280/63/134 276/62/134
f 280/63/133 277/58/133 273/53/133
f 233/1/136 234/3/136 278/59/136
f 234/3/135 235/4/135 279/64/135
f 235/5/138 236/7/138 280/63/138
f 236/7/137 233/1/137 277/58/137
g BottleFamily_Cork.001_Mesh
v 0.000000 1.390000 -0.257942
v -0.038042 1.430000 -0.287639
v 0.038042 1.430000 -0.287639
v 0.000000 1.770000 -0.257942
v 0.038042 1.730000 -0.287639
v -0.038042 1.730000 -0.287639
v 0.151614 1.390000 -0.208679
v 0.138293 1.430000 -0.255066
v 0.199847 1.430000 -0.210344
v 0.151614 1.770000 -0.208679
v 0.199847 1.730000 -0.210344
v 0.138293 1.730000 -0.255066
v 0.245317 1.390000 -0.079708
v 0.261806 1.430000 -0.125066
v 0.285317 1.430000 -0.052705
v 0.245317 1.770000 -0.079708
v 0.285317 1.730000 -0.052705
v 0.261806 1.730000 -0.125066
v 0.245317 1.390000 0.079708
v 0.285317 1.430000 0.052705
v 0.261806 1.430000 0.125066
v 0.245317 1.770000 0.079708
v 0.261806 1.730000 0.125066
v 0.285317 1.730000 0.052705
v 0.151614 1.390000 0.208679
v 0.199847 1.430000 0.210344
v 0.138293 1.430000 0.255066
v 0.151614 1.770000 0.208679
v 0.138293 1.730000 0.255066
v 0.199847 1.730000 0.210344
v 0.000000 1.390000 0.257942
v 0.038042 1.430000 0.287639
v -0.038042 1.430000 0.287639
v 0.000000 1.770000 0.257942
v -0.038042 1.730000 0.287639
v 0.038042 1.730000 0.287639
v -0.151614 1.390000 0.208679
v -0.138293 1.430000 0.255066
v -0.199847 1.430000 0.210344
v -0.151614 1.770000 0.208679
v -0.199847 1.730000 0.210344
v -0.138293 1.730000 0.255066
v -0.245317 1.390000 0.079708
v -0.261806 1.430000 0.125066
v -0.285317 1.430000 0.052705
v -0.245317 1.770000 0.079708
v -0.285317 1.730000 0.052705
v -0.261806 1.730000 0.125066
v -0.245317 1.390000 -0.079708
v -0.285317 1.430000 -0.052705
v -0.261806 1.430000 -0.125066
v -0.245317 1.770000 -0.079708
v -0.261806 1.730000 -0.125066
v -0.285317 1.730000 -0.052705
v -0.151614 1.390000 -0.208679
v -0.199847 1.430000 -0.210344
v -0.138293 1.430000 -0.255066
v -0.151614 1.770000 -0.208679
v -0.138293 1.730000 -0.255066
v -0.199847 1.730000 -0.210344
vn -0.0000 -0.5961 -0.8029
vn -0.0000 0.5961 -0.8029
vn 0.4719 -0.5961 -0.6496
vn 0.4719 0.5961 -0.6496
vn 0.7636 -0.5961 -0.2481
vn 0.7636 0.5961 -0.2481
vn 0.7636 -0.5961 0.2481
vn 0.7636 0.5961 0.2481
vn 0.4719 -0.5961 0.6496
vn 0.4719 0.5961 0.6496
vn -0.0000 -0.5961 0.8029
vn -0.0000 0.5961 0.8029
vn -0.4719 -0.5961 0.6496
vn -0.4719 0.5961 0.6496
vn -0.7636 -0.5961 0.2481
vn -0.7636 0.5961 0.2481
vn -0.7636 -0.5961 -0.2481
vn -0.7636 0.5961 -0.2481
vn -0.4719 -0.5961 -0.6496
vn -0.4719 0.5961 -0.6496
vn 0.2185 -0.7071 -0.6725
vn 0.2185 0.7071 -0.6725
vn -0.0000 -0.0000 -1.0000
vn 0.5878 -0.0000 -0.8090
vn 0.5721 -0.7071 -0.4156
vn 0.5721 0.7071 -0.4156
vn 0.9511 -0.0000 -0.3090
vn 0.7071 -0.7071 -0.0000
vn 0.7071 0.7071 -0.0000
vn 0.9511 -0.0000 0.3090
vn 0.5721 -0.7071 0.4156
vn 0.5721 0.7071 0.4156
vn 0.5878 -0.0000 0.8090
vn 0.2185 -0.7071 0.6725
vn 0.2185 0.7071 0.6725
vn -0.0000 -0.0000 1.0000
vn -0.2185 -0.7071 0.6725
vn -0.2185 0.7071 0.6725
vn -0.5878 -0.0000 0.8090
vn -0.5721 -0.7071 0.4156
vn -0.5721 0.7071 0.4156
vn -0.9511 -0.0000 0.3090
vn -0.7071 -0.7071 -0.0000
vn -0.7071 0.7071 -0.0000
vn -0.9511 -0.0000 -0.3090
vn -0.5721 -0.7071 -0.4156
vn -0.5721 0.7071 -0.4156
vn -0.5878 -0.0000 -0.8090
vn -0.2185 -0.7071 -0.6725
vn -0.2185 0.7071 -0.6725
vn -0.0000 -1.0000 -0.0000
vn 0.3090 -0.0000 -0.9511
vn -0.3090 -0.0000 -0.9511
vn -0.0000 1.0000 -0.0000
vn 0.8090 -0.0000 -0.5878
vn 1.0000 -0.0000 -0.0000
vn 0.8090 -0.0000 0.5878
vn 0.3090 -0.0000 0.9511
vn -0.3090 -0.0000 0.9511
vn -0.8090 -0.0000 0.5878
vn -1.0000 -0.0000 -0.0000
vn -0.8090 -0.0000 -0.5878
vt 0.750000 0.456353
vt 0.719566 0.480111
vt 0.780434 0.480111
vt 0.250000 0.456353
vt 0.280434 0.480111
vt 0.219566 0.480111
vt 0.871291 0.416943
vt 0.860635 0.454053
vt 0.909878 0.418276
vt 0.371291 0.416943
vt 0.409878 0.418276
vt 0.360635 0.454053
vt 0.946254 0.313767
vt 0.959444 0.350053
vt 0.978254 0.292164
vt 0.446254 0.313767
vt 0.478254 0.292164
vt 0.459444 0.350053
vt 0.946254 0.186233
vt 0.978254 0.207836
vt 0.959444 0.149947
vt 0.446254 0.186233
vt 0.459444 0.149947
vt 0.478254 0.207836
vt 0.871291 0.083057
vt 0.909878 0.081724
vt 0.860635 0.045947
vt 0.371291 0.083057
vt 0.360635 0.045947
vt 0.409878 0.081724
vt 0.750000 0.043647
vt 0.780434 0.019889
vt 0.719566 0.019889
vt 0.250000 0.043647
vt 0.219566 0.019889
vt 0.280434 0.019889
vt 0.628709 0.083057
vt 0.639365 0.045947
vt 0.590122 0.081724
vt 0.128709 0.083057
vt 0.090122 0.081724
vt 0.139365 0.045947
vt 0.553746 0.186233
vt 0.540556 0.149947
vt 0.521746 0.207836
vt 0.053746 0.186233
vt 0.021746 0.207836
vt 0.040556 0.149947
vt 0.553746 0.313767
vt 0.521746 0.292164
vt 0.540556 0.350053
vt 0.053746 0.313767
vt 0.040556 0.350053
vt 0.021746 0.292164
vt 0.628709 0.416943
vt 0.590122 0.418276
vt 0.639365 0.454053
vt 0.128709 0.416943
vt 0.139365 0.454053
vt 0.090122 0.418276
vt 0.021574 0.947368
vt -0.000000 0.552632
vt 0.021574 0.552632
vt 0.878426 0.552632
vt 0.921574 0.947368
vt 0.878426 0.947369
vt 0.778426 0.552632
vt 0.821574 0.947368
vt 0.778426 0.947369
vt 0.678426 0.552632
vt 0.721574 0.947368
vt 0.678426 0.947368
vt 0.578426 0.552632
vt 0.621574 0.947369
vt 0.578426 0.947368
vt 0.478426 0.552632
vt 0.521574 0.947368
vt 0.478426 0.947368
vt 0.378426 0.552632
vt 0.421574 0.947368
vt 0.378426 0.947369
vt 0.278426 0.552632
vt 0.321574 0.947368
vt 0.278426 0.947369
vt 0.178426 0.552632
vt 0.221574 0.947368
vt 0.178426 0.947368
vt 0.078426 0.552632
vt 0.121574 0.947369
vt 0.078426 0.947368
vt 0.978426 0.947368
vt 0.921574 0.552632
vt 0.978426 0.552632
vt 0.821574 0.552632
vt 0.721574 0.552632
vt 0.621574 0.552632
vt 0.521574 0.552632
vt 0.421574 0.552632
vt 0.321574 0.552632
vt 0.221574 0.552632
vt 0.121574 0.552632
vt -0.000000 0.947368
s 0
g BottleFamily_Cork.001_MAT_Wood
usemtl MAT_Wood
f 281/66/139 282/67/139 283/68/139
f 284/69/140 285/70/140 286/71/140
f 287/72/141 288/73/141 289/74/141
f 290/75/142 291/76/142 292/77/142
f 293/78/143 294/79/143 295/80/143
f 296/81/144 297/82/144 298/83/144
f 299/84/145 300/85/145 301/86/145
f 302/87/146 303/88/146 304/89/146
f 305/90/147 306/91/147 307/92/147
f 308/93/148 309/94/148 310/95/148
f 311/96/149 312/97/149 313/98/149
f 314/99/150 315/100/150 316/101/150
f 317/102/151 318/103/151 319/104/151
f 320/105/152 321/106/152 322/107/152
f 323/108/153 324/109/153 325/110/153
f 326/111/154 327/112/154 328/113/154
f 329/114/155 330/115/155 331/116/155
f 332/117/156 333/118/156 334/119/156
f 335/120/157 336/121/157 337/122/157
f 338/123/158 339/124/158 340/125/158
f 288/73/159 281/66/159 283/68/159
f 292/77/160 284/69/160 290/75/160
f 286/126/161 283/127/161 282/128/161
f 289/129/162 292/130/162 291/131/162
f 294/79/163 287/72/163 289/74/163
f 298/83/164 290/75/164 296/81/164
f 295/132/165 298/133/165 297/134/165
f 300/85/166 293/78/166 295/80/166
f 297/82/167 302/87/167 304/89/167
f 301/135/168 304/136/168 303/137/168
f 301/86/169 305/90/169 299/84/169
f 303/88/170 308/93/170 310/95/170
f 307/138/171 310/139/171 309/140/171
f 307/92/172 311/96/172 305/90/172
f 309/94/173 314/99/173 316/101/173
f 313/141/174 316/142/174 315/143/174
f 318/103/175 311/96/175 313/98/175
f 322/107/176 314/99/176 320/105/176
f 319/144/177 322/145/177 321/146/177
f 324/109/178 317/102/178 319/104/178
f 328/113/179 320/105/179 326/111/179
f 325/147/180 328/148/180 327/149/180
f 330/115/181 323/108/181 325/110/181
f 327/112/182 332/117/182 334/119/182
f 331/150/183 334/151/183 333/152/183
f 331/116/184 335/120/184 329/114/184
f 333/118/185 338/123/185 340/125/185
f 337/153/186 340/154/186 339/155/186
f 337/122/187 281/66/187 335/120/187
f 339/124/188 284/69/188 286/71/188
f 299/84/189 323/108/189 335/120/189
f 285/156/190 288/157/190 283/158/190
f 339/155/191 282/128/191 337/153/191
f 332/117/192 308/93/192 296/81/192
f 291/131/193 294/159/193 289/129/193
f 297/134/194 300/160/194 295/132/194
f 303/137/195 306/161/195 301/135/195
f 309/140/196 312/162/196 307/138/196
f 315/143/197 318/163/197 313/141/197
f 321/146/198 324/164/198 319/144/198
f 327/149/199 330/165/199 325/147/199
f 333/152/200 336/166/200 331/150/200
f 288/73/159 287/72/159 281/66/159
f 292/77/160 285/70/160 284/69/160
f 286/126/161 285/167/161 283/127/161
f 289/129/162 288/157/162 292/130/162
f 294/79/163 293/78/163 287/72/163
f 298/83/164 291/76/164 290/75/164
f 295/132/165 294/159/165 298/133/165
f 300/85/166 299/84/166 293/78/166
f 297/82/167 296/81/167 302/87/167
f 301/135/168 300/160/168 304/136/168
f 301/86/169 306/91/169 305/90/169
f 303/88/170 302/87/170 308/93/170
f 307/138/171 306/161/171 310/139/171
f 307/92/172 312/97/172 311/96/172
f 309/94/173 308/93/173 314/99/173
f 313/141/174 312/162/174 316/142/174
f 318/103/175 317/102/175 311/96/175
f 322/107/176 315/100/176 314/99/176
f 319/144/177 318/163/177 322/145/177
f 324/109/178 323/108/178 317/102/178
f 328/113/179 321/106/179 320/105/179
f 325/147/180 324/164/180 328/148/180
f 330/115/181 329/114/181 323/108/181
f 327/112/182 326/111/182 332/117/182
f 331/150/183 330/165/183 334/151/183
f 331/116/184 336/121/184 335/120/184
f 333/118/185 332/117/185 338/123/185
f 337/153/186 336/166/186 340/154/186
f 337/122/187 282/67/187 281/66/187
f 339/124/188 338/123/188 284/69/188
f 335/120/189 281/66/189 287/72/189
f 287/72/189 293/78/189 299/84/189
f 299/84/189 305/90/189 311/96/189
f 311/96/189 317/102/189 323/108/189
f 323/108/189 329/114/189 335/120/189
f 335/120/189 287/72/189 299/84/189
f 299/84/189 311/96/189 323/108/189
f 285/156/190 292/130/190 288/157/190
f 339/155/191 286/126/191 282/128/191
f 296/81/192 290/75/192 284/69/192
f 284/69/192 338/123/192 332/117/192
f 332/117/192 326/111/192 320/105/192
f 320/105/192 314/99/192 308/93/192
f 308/93/192 302/87/192 296/81/192
f 296/81/192 284/69/192 332/117/192
f 332/117/192 320/105/192 308/93/192
f 291/131/193 298/133/193 294/159/193
f 297/134/194 304/136/194 300/160/194
f 303/137/195 310/139/195 306/161/195
f 309/140/196 316/142/196 312/162/196
f 315/143/197 322/145/197 318/163/197
f 321/146/198 328/148/198 324/164/198
f 327/149/199 334/151/199 330/165/199
f 333/152/200 340/154/200 336/166/200
g BottleFamily_Liquid.001_Mesh
v 0.000000 -1.075000 -0.579295
v 0.000000 -1.055000 -0.600000
v -0.000000 0.175000 -0.579295
v 0.000000 0.155000 -0.600000
v 0.289647 -1.075000 -0.501684
v 0.300000 -1.055000 -0.519615
v 0.289647 0.175000 -0.501684
v 0.300000 0.155000 -0.519615
v 0.501684 -1.075000 -0.289647
v 0.519615 -1.055000 -0.300000
v 0.501684 0.175000 -0.289647
v 0.519615 0.155000 -0.300000
v 0.579295 -1.075000 0.000000
v 0.600000 -1.055000 0.000000
v 0.579295 0.175000 -0.000000
v 0.600000 0.155000 0.000000
v 0.501684 -1.075000 0.289647
v 0.519615 -1.055000 0.300000
v 0.501684 0.175000 0.289647
v 0.519615 0.155000 0.300000
v 0.289647 -1.075000 0.501684
v 0.300000 -1.055000 0.519615
v 0.289647 0.175000 0.501684
v 0.300000 0.155000 0.519615
v -0.000000 -1.075000 0.579295
v 0.000000 -1.055000 0.600000
v 0.000000 0.175000 0.579295
v 0.000000 0.155000 0.600000
v -0.289647 -1.075000 0.501684
v -0.300000 -1.055000 0.519615
v -0.289647 0.175000 0.501684
v -0.300000 0.155000 0.519615
v -0.501684 -1.075000 0.289647
v -0.519615 -1.055000 0.300000
v -0.501684 0.175000 0.289647
v -0.519615 0.155000 0.300000
v -0.579295 -1.075000 -0.000000
v -0.600000 -1.055000 0.000000
v -0.579295 0.175000 0.000000
v -0.600000 0.155000 0.000000
v -0.501684 -1.075000 -0.289647
v -0.519615 -1.055000 -0.300000
v -0.501684 0.175000 -0.289647
v -0.519615 0.155000 -0.300000
v -0.289647 -1.075000 -0.501684
v -0.300000 -1.055000 -0.519615
v -0.289647 0.175000 -0.501684
v -0.300000 0.155000 -0.519615
vn 0.1830 -0.7071 -0.6830
vn 0.1830 0.7071 -0.6830
vn 0.5000 -0.7071 -0.5000
vn 0.5000 0.7071 -0.5000
vn 0.6830 -0.7071 -0.1830
vn 0.6830 0.7071 -0.1830
vn 0.6830 -0.7071 0.1830
vn 0.6830 0.7071 0.1830
vn 0.5000 -0.7071 0.5000
vn 0.5000 0.7071 0.5000
vn 0.1830 -0.7071 0.6830
vn 0.1830 0.7071 0.6830
vn -0.1830 -0.7071 0.6830
vn -0.1830 0.7071 0.6830
vn -0.5000 -0.7071 0.5000
vn -0.5000 0.7071 0.5000
vn -0.6830 -0.7071 0.1830
vn -0.6830 0.7071 0.1830
vn -0.6830 -0.7071 -0.1830
vn -0.6830 0.7071 -0.1830
vn -0.5000 -0.7071 -0.5000
vn -0.5000 0.7071 -0.5000
vn -0.1830 -0.7071 -0.6830
vn -0.1830 0.7071 -0.6830
vn -0.0000 -1.0000 -0.0000
vn 0.2588 -0.0000 -0.9659
vn -0.2588 -0.0000 -0.9659
vn -0.0000 1.0000 -0.0000
vn 0.7071 -0.0000 -0.7071
vn 0.9659 -0.0000 -0.2588
vn 0.9659 -0.0000 0.2588
vn 0.7071 -0.0000 0.7071
vn 0.2588 -0.0000 0.9659
vn -0.2588 -0.0000 0.9659
vn -0.7071 -0.0000 0.7071
vn -0.9659 -0.0000 0.2588
vn -0.9659 -0.0000 -0.2588
vn -0.7071 -0.0000 -0.7071
vt 0.870000 0.457846
vt 0.750000 0.481718
vt 0.750000 0.490000
vt 0.250000 0.490000
vt 0.365859 0.450674
vt 0.370000 0.457846
vt 0.950674 0.365859
vt 0.865859 0.450674
vt 0.457846 0.370000
vt 0.450673 0.365859
vt 0.990000 0.250000
vt 0.957846 0.370000
vt 0.481718 0.250000
vt 0.490000 0.250000
vt 0.957846 0.130000
vt 0.981718 0.250000
vt 0.450673 0.134141
vt 0.457846 0.130000
vt 0.865859 0.049327
vt 0.950673 0.134141
vt 0.370000 0.042154
vt 0.365859 0.049327
vt 0.750000 0.010000
vt 0.870000 0.042154
vt 0.250000 0.018282
vt 0.250000 0.010000
vt 0.630000 0.042154
vt 0.750000 0.018282
vt 0.134141 0.049327
vt 0.130000 0.042154
vt 0.549327 0.134141
vt 0.634141 0.049327
vt 0.042154 0.130000
vt 0.049327 0.134141
vt 0.510000 0.250000
vt 0.542154 0.130000
vt 0.018282 0.250000
vt 0.010000 0.250000
vt 0.542154 0.370000
vt 0.518282 0.250000
vt 0.049327 0.365859
vt 0.042154 0.370000
vt 0.634141 0.450673
vt 0.549327 0.365859
vt 0.130000 0.457846
vt 0.134141 0.450674
vt 0.630000 0.457846
vt 0.250000 0.481718
vt 1.000000 0.992000
vt 0.916667 0.508000
vt 1.000000 0.508000
vt 0.083333 0.992000
vt 0.000000 0.508000
vt 0.083333 0.508000
vt 0.916667 0.992000
vt 0.833333 0.508000
vt 0.833333 0.992000
vt 0.750000 0.508000
vt 0.750000 0.992000
vt 0.666667 0.508000
vt 0.666667 0.992000
vt 0.583333 0.508000
vt 0.583333 0.992000
vt 0.500000 0.508000
vt 0.500000 0.992000
vt 0.416667 0.508000
vt 0.416667 0.992000
vt 0.333333 0.508000
vt 0.333333 0.992000
vt 0.250000 0.508000
vt 0.250000 0.992000
vt 0.166667 0.508000
vt 0.166667 0.992000
vt 0.000000 0.992000
s 0
g BottleFamily_Liquid.001_MAT_LiquidRed
usemtl MAT_LiquidRed
f 346/168/201 341/169/201 342/170/201
f 344/171/202 347/172/202 348/173/202
f 346/168/203 349/174/203 345/175/203
f 352/176/204 347/172/204 351/177/204
f 354/178/205 349/174/205 350/179/205
f 352/176/206 355/180/206 356/181/206
f 358/182/207 353/183/207 354/178/207
f 356/181/208 359/184/208 360/185/208
f 358/182/209 361/186/209 357/187/209
f 364/188/210 359/184/210 363/189/210
f 366/190/211 361/186/211 362/191/211
f 364/188/212 367/192/212 368/193/212
f 370/194/213 365/195/213 366/190/213
f 368/193/214 371/196/214 372/197/214
f 370/194/215 373/198/215 369/199/215
f 376/200/216 371/196/216 375/201/216
f 378/202/217 373/198/217 374/203/217
f 376/200/218 379/204/218 380/205/218
f 382/206/219 377/207/219 378/202/219
f 380/205/220 383/208/220 384/209/220
f 382/206/221 385/210/221 381/211/221
f 388/212/222 383/208/222 387/213/222
f 342/170/223 385/210/223 386/214/223
f 388/212/224 343/215/224 344/171/224
f 353/183/225 369/199/225 385/210/225
f 344/216/226 346/217/226 342/218/226
f 388/219/227 342/220/227 386/221/227
f 383/208/228 367/192/228 351/177/228
f 348/222/229 350/223/229 346/217/229
f 352/224/230 354/225/230 350/223/230
f 356/226/231 358/227/231 354/225/231
f 360/228/232 362/229/232 358/227/232
f 364/230/233 366/231/233 362/229/233
f 368/232/234 370/233/234 366/231/234
f 372/234/235 374/235/235 370/233/235
f 376/236/236 378/237/236 374/235/236
f 380/238/237 382/239/237 378/237/237
f 384/240/238 386/221/238 382/239/238
f 346/168/201 345/175/201 341/169/201
f 344/171/202 343/215/202 347/172/202
f 346/168/203 350/179/203 349/174/203
f 352/176/204 348/173/204 347/172/204
f 354/178/205 353/183/205 349/174/205
f 352/176/206 351/177/206 355/180/206
f 358/182/207 357/187/207 353/183/207
f 356/181/208 355/180/208 359/184/208
f 358/182/209 362/191/209 361/186/209
f 364/188/210 360/185/210 359/184/210
f 366/190/211 365/195/211 361/186/211
f 364/188/212 363/189/212 367/192/212
f 370/194/213 369/199/213 365/195/213
f 368/193/214 367/192/214 371/196/214
f 370/194/215 374/203/215 373/198/215
f 376/200/216 372/197/216 371/196/216
f 378/202/217 377/207/217 373/198/217
f 376/200/218 375/201/218 379/204/218
f 382/206/219 381/211/219 377/207/219
f 380/205/220 379/204/220 383/208/220
f 382/206/221 386/214/221 385/210/221
f 388/212/222 384/209/222 383/208/222
f 342/170/223 341/169/223 385/210/223
f 388/212/224 387/213/224 343/215/224
f 385/210/225 341/169/225 345/175/225
f 345/175/225 349/174/225 353/183/225
f 353/183/225 357/187/225 361/186/225
f 361/186/225 365/195/225 369/199/225
f 369/199/225 373/198/225 377/207/225
f 377/207/225 381/211/225 385/210/225
f 385/210/225 345/175/225 353/183/225
f 353/183/225 361/186/225 369/199/225
f 369/199/225 377/207/225 385/210/225
f 344/216/226 348/222/226 346/217/226
f 388/219/227 344/241/227 342/220/227
f 351/177/228 347/172/228 343/215/228
f 343/215/228 387/213/228 383/208/228
f 383/208/228 379/204/228 375/201/228
f 375/201/228 371/196/228 367/192/228
f 367/192/228 363/189/228 359/184/228
f 359/184/228 355/180/228 351/177/228
f 351/177/228 343/215/228 383/208/228
f 383/208/228 375/201/228 367/192/228
f 367/192/228 359/184/228 351/177/228
f 348/222/229 352/224/229 350/223/229
f 352/224/230 356/226/230 354/225/230
f 356/226/231 360/228/231 358/227/231
f 360/228/232 364/230/232 362/229/232
f 364/230/233 368/232/233 366/231/233
f 368/232/234 372/234/234 370/233/234
f 372/234/235 376/236/235 374/235/235
f 376/236/236 380/238/236 378/237/236
f 380/238/237 384/240/237 382/239/237
f 384/240/238 388/219/238 386/221/238
g BottleFamily_Seal.001_Mesh
v 0.000000 -0.090000 0.760000
v 0.159192 0.059252 0.802058
v -0.060805 0.059252 0.828051
v -0.196773 0.059252 0.760000
v -0.060805 0.059252 0.691949
v 0.159192 0.059252 0.717942
v 0.060805 0.300748 0.828051
v -0.159192 0.300748 0.802058
v -0.159192 0.300748 0.717942
v 0.060805 0.300748 0.691949
v 0.196773 0.300748 0.760000
v 0.000000 0.450000 0.760000
vn 0.1088 -0.3754 0.9205
vn 0.6840 -0.7295 -0.0000
vn -0.3855 -0.5082 0.7702
vn -0.3855 -0.5082 -0.7702
vn 0.1088 -0.3754 -0.9205
vn 0.9881 -0.1538 -0.0000
vn 0.1171 -0.0590 0.9914
vn -0.4459 -0.0858 0.8910
vn -0.4459 -0.0858 -0.8910
vn 0.1171 -0.0590 -0.9914
vn 0.4459 0.0858 0.8910
vn -0.1171 0.0590 0.9914
vn -0.9881 0.1538 -0.0000
vn -0.1171 0.0590 -0.9914
vn 0.4459 0.0858 -0.8910
vn 0.3855 0.5082 0.7702
vn -0.1088 0.3754 0.9205
vn -0.6840 0.7295 -0.0000
vn -0.1088 0.3754 -0.9205
vn 0.3855 0.5082 -0.7702
vt 0.181819 0.000000
vt 0.272728 0.157461
vt 0.090910 0.157461
vt 0.363637 0.000000
vt 0.454546 0.157461
vt 0.909091 0.000000
vt 1.000000 0.157461
vt 0.818182 0.157461
vt 0.727273 0.000000
vt 0.636364 0.157461
vt 0.545455 0.000000
vt 0.363637 0.314921
vt 0.181819 0.314921
vt 0.909091 0.314921
vt 0.727273 0.314921
vt 0.545455 0.314921
vt 0.000000 0.314921
vt 0.272728 0.472382
vt 0.090910 0.472382
vt 0.818182 0.472382
vt 0.636364 0.472382
vt 0.454546 0.472382
s 0
g BottleFamily_Seal.001_MAT_Ruby
usemtl MAT_Ruby
f 389/242/239 390/243/239 391/244/239
f 390/243/240 389/245/240 394/246/240
f 389/247/241 391/248/241 392/249/241
f 389/250/242 392/249/242 393/251/242
f 389/252/243 393/251/243 394/246/243
f 390/243/244 394/246/244 399/253/244
f 391/244/245 390/243/245 395/254/245
f 392/249/246 391/248/246 396/255/246
f 393/251/247 392/249/247 397/256/247
f 394/246/248 393/251/248 398/257/248
f 390/243/249 399/253/249 395/254/249
f 391/244/250 395/254/250 396/258/250
f 392/249/251 396/255/251 397/256/251
f 393/251/252 397/256/252 398/257/252
f 394/246/253 398/257/253 399/253/253
f 395/254/254 399/253/254 400/259/254
f 396/258/255 395/254/255 400/260/255
f 397/256/256 396/255/256 400/261/256
f 398/257/257 397/256/257 400/262/257
f 399/253/258 398/257/258 400/263/258
