# Second Rite deterministic item batch 53-62
# Celestial Fossil
mtllib item_batch_53_62.mtl
o celestial_fossil
s off
v -0.740000 -0.480000 -0.287942
v -0.470000 -0.720000 -0.287942
v 0.130000 -0.760000 -0.287942
v 0.620000 -0.460000 -0.287942
v 0.740000 0.120000 -0.287942
v 0.450000 0.640000 -0.287942
v -0.100000 0.760000 -0.287942
v -0.630000 0.500000 -0.287942
v -0.740000 -0.480000 0.032057
v -0.470000 -0.720000 0.032057
v 0.130000 -0.760000 0.032057
v 0.620000 -0.460000 0.032057
v 0.740000 0.120000 0.032057
v 0.450000 0.640000 0.032057
v -0.100000 0.760000 0.032057
v -0.630000 0.500000 0.032057
v 0.550217 0.108253 0.052057
v 0.510135 0.078118 -0.013188
v 0.466207 0.013149 0.011733
v 0.479141 0.003131 0.092381
v 0.531062 0.061908 0.117302
v 0.340040 0.239424 0.102057
v 0.314273 0.220052 0.060114
v 0.286034 0.178286 0.076135
v 0.294349 0.171846 0.127979
v 0.327726 0.209632 0.144000
v 0.507352 0.052912 0.052057
v 0.312485 0.203848 0.102057
v 0.289301 0.346643 0.052057
v 0.278227 0.297041 -0.012663
v 0.291380 0.219662 0.012058
v 0.310584 0.221441 0.092056
v 0.309299 0.299920 0.116777
v 0.085091 0.302618 0.102057
v 0.077972 0.270731 0.060451
v 0.086428 0.220988 0.076343
v 0.098773 0.222131 0.127771
v 0.097947 0.272582 0.143663
v 0.295758 0.276942 0.052057
v 0.089242 0.257810 0.102057
v -0.004301 0.356305 0.052057
v 0.021838 0.311736 -0.011990
v 0.087009 0.267852 0.012474
v 0.101149 0.285299 0.091640
v 0.044716 0.339966 0.116104
v -0.095857 0.203625 0.102057
v -0.079053 0.174974 0.060884
v -0.037157 0.146763 0.076611
v -0.028068 0.157979 0.127503
v -0.064346 0.193122 0.143230
v 0.050082 0.312231 0.052057
v -0.060896 0.175293 0.102057
v -0.194326 0.188666 0.052057
v -0.142616 0.179275 -0.011264
v -0.068008 0.204182 0.012923
v -0.073608 0.228966 0.091191
v -0.151676 0.219377 0.115378
v -0.135996 0.043945 0.102057
v -0.102754 0.037908 0.061351
v -0.054792 0.053920 0.076899
v -0.058392 0.069852 0.127215
v -0.108579 0.063688 0.142763
v -0.126047 0.204093 0.052057
v -0.092103 0.053862 0.102057
v -0.187344 -0.006597 0.052057
v -0.147227 0.028401 -0.010692
v -0.122890 0.103267 0.013276
v -0.147965 0.114538 0.090838
v -0.187800 0.046638 0.114806
v -0.048432 -0.041628 0.102057
v -0.022643 -0.019129 0.061719
v -0.006997 0.028999 0.077126
v -0.023117 0.036245 0.126989
v -0.048725 -0.007405 0.142396
v -0.158645 0.057249 0.052057
v -0.029983 -0.000584 0.102057
v 0.130000 0.040000 0.132057
v 0.040000 0.040000 0.287942
v -0.140000 0.040000 0.287942
v -0.230000 0.040000 0.132057
v -0.140000 0.040000 -0.023828
v 0.040000 0.040000 -0.023828
v -0.050000 0.150000 0.132057
v -0.050000 -0.070000 0.132057
usemtl old_limestone
f 1 3 2
f 9 10 11
f 1 4 3
f 9 11 12
f 1 5 4
f 9 12 13
f 1 6 5
f 9 13 14
f 1 7 6
f 9 14 15
f 1 8 7
f 9 15 16
f 1 2 10
f 1 10 9
f 2 3 11
f 2 11 10
f 3 4 12
f 3 12 11
f 4 5 13
f 4 13 12
f 5 6 14
f 5 14 13
f 6 7 15
f 6 15 14
f 7 8 16
f 7 16 15
f 8 1 9
f 8 9 16
usemtl bone
f 27 18 17
f 28 22 23
f 17 18 23
f 17 23 22
f 27 19 18
f 28 23 24
f 18 19 24
f 18 24 23
f 27 20 19
f 28 24 25
f 19 20 25
f 19 25 24
f 27 21 20
f 28 25 26
f 20 21 26
f 20 26 25
f 27 17 21
f 28 26 22
f 21 17 22
f 21 22 26
f 39 30 29
f 40 34 35
f 29 30 35
f 29 35 34
f 39 31 30
f 40 35 36
f 30 31 36
f 30 36 35
f 39 32 31
f 40 36 37
f 31 32 37
f 31 37 36
f 39 33 32
f 40 37 38
f 32 33 38
f 32 38 37
f 39 29 33
f 40 38 34
f 33 29 34
f 33 34 38
f 51 42 41
f 52 46 47
f 41 42 47
f 41 47 46
f 51 43 42
f 52 47 48
f 42 43 48
f 42 48 47
f 51 44 43
f 52 48 49
f 43 44 49
f 43 49 48
f 51 45 44
f 52 49 50
f 44 45 50
f 44 50 49
f 51 41 45
f 52 50 46
f 45 41 46
f 45 46 50
f 63 54 53
f 64 58 59
f 53 54 59
f 53 59 58
f 63 55 54
f 64 59 60
f 54 55 60
f 54 60 59
f 63 56 55
f 64 60 61
f 55 56 61
f 55 61 60
f 63 57 56
f 64 61 62
f 56 57 62
f 56 62 61
f 63 53 57
f 64 62 58
f 57 53 58
f 57 58 62
f 75 66 65
f 76 70 71
f 65 66 71
f 65 71 70
f 75 67 66
f 76 71 72
f 66 67 72
f 66 72 71
f 75 68 67
f 76 72 73
f 67 68 73
f 67 73 72
f 75 69 68
f 76 73 74
f 68 69 74
f 68 74 73
f 75 65 69
f 76 74 70
f 69 65 70
f 69 70 74
usemtl crystal
f 83 77 78
f 84 78 77
f 83 78 79
f 84 79 78
f 83 79 80
f 84 80 79
f 83 80 81
f 84 81 80
f 83 81 82
f 84 82 81
f 83 82 77
f 84 77 82
