# Blender 5.0.1
# www.blender.org
mtllib chrysalis_sigil.mtl
g Chrysalis_Core.001_Mesh
v 0.040854 1.043159 0.050000
v -0.040855 1.043159 0.050000
v -0.000000 0.980062 0.120000
v 0.419145 0.516841 0.050000
v 0.419929 0.395813 0.120000
v 0.452918 0.390359 0.050000
v 0.347082 -0.650359 0.050000
v 0.319234 -0.608840 0.120000
v 0.297199 -0.775390 0.050000
v 0.042801 -1.104610 0.050000
v 0.000000 -1.022872 0.120000
v -0.042801 -1.104610 0.050000
v -0.297199 -0.775390 0.050000
v -0.319234 -0.608840 0.120000
v -0.347082 -0.650359 0.050000
v -0.419145 0.516841 0.050000
v -0.452918 0.390359 0.050000
v -0.419929 0.395813 0.120000
v 0.040855 1.043159 -0.050000
v 0.000000 0.980062 -0.120000
v -0.040854 1.043159 -0.050000
v 0.419145 0.516841 -0.050000
v 0.452918 0.390359 -0.050000
v 0.419929 0.395813 -0.120000
v 0.347082 -0.650359 -0.050000
v 0.297199 -0.775390 -0.050000
v 0.319234 -0.608840 -0.120000
v 0.042801 -1.104610 -0.050000
v -0.042801 -1.104610 -0.050000
v 0.000000 -1.022872 -0.120000
v -0.297199 -0.775390 -0.050000
v -0.347082 -0.650359 -0.050000
v -0.319234 -0.608840 -0.120000
v -0.419145 0.516841 -0.050000
v -0.419929 0.395813 -0.120000
v -0.452918 0.390359 -0.050000
vn -0.0000 0.7428 0.6695
vn 0.8859 0.2365 0.3991
vn 0.8002 -0.3193 0.5077
vn -0.0000 -0.6505 0.7595
vn -0.8002 -0.3193 0.5077
vn -0.8859 0.2365 0.3991
vn -0.0000 0.7428 -0.6695
vn 0.8859 0.2365 -0.3991
vn 0.8002 -0.3193 -0.5077
vn -0.0000 -0.6505 -0.7595
vn -0.8002 -0.3193 -0.5077
vn -0.8859 0.2365 -0.3991
vn 0.5742 0.4127 0.7071
vn 0.8982 -0.0900 0.4303
vn 0.5742 0.4127 -0.7071
vn 0.8982 -0.0900 -0.4303
vn 0.5061 -0.3902 0.7691
vn 0.5061 -0.3902 -0.7691
vn -0.5071 -0.3919 0.7676
vn -0.5071 -0.3919 -0.7676
vn -0.5742 0.4127 0.7071
vn -0.9053 -0.0921 0.4148
vn -0.5742 0.4127 -0.7071
vn -0.9053 -0.0921 -0.4148
vn -0.0000 1.0000 -0.0000
vn 0.9662 0.2580 -0.0000
vn 0.9288 -0.3706 -0.0000
vn -0.0000 -1.0000 -0.0000
vn -0.9288 -0.3706 -0.0000
vn -0.9662 0.2580 -0.0000
vn 0.8120 0.5836 -0.0000
vn -0.0000 -0.0000 1.0000
vn -0.8120 0.5836 -0.0000
vn 0.9949 -0.1012 -0.0000
vn 0.7913 -0.6114 -0.0000
vn -0.7913 -0.6114 -0.0000
vn -0.9949 -0.1012 -0.0000
vn -0.0000 -0.0000 -1.0000
vn 0.9053 -0.0921 0.4148
vn 0.9053 -0.0921 -0.4148
vn 0.5071 -0.3919 0.7676
vn 0.5071 -0.3919 -0.7676
vn -0.5061 -0.3902 0.7691
vn -0.5061 -0.3902 -0.7691
vn -0.8982 -0.0900 0.4303
vn -0.8982 -0.0900 -0.4303
s 0
g Chrysalis_Core.001_MAT_Pearl
usemtl MAT_Pearl
f 1//1 2//1 3//1
f 4//2 5//2 6//2
f 7//3 8//3 9//3
f 10//4 11//4 12//4
f 13//5 14//5 15//5
f 16//6 17//6 18//6
f 19//7 20//7 21//7
f 22//8 23//8 24//8
f 25//9 26//9 27//9
f 28//10 29//10 30//10
f 31//11 32//11 33//11
f 34//12 35//12 36//12
f 3//13 4//13 1//13
f 8//14 6//14 5//14
f 22//15 20//15 19//15
f 23//16 27//16 24//16
f 11//17 9//17 8//17
f 26//18 30//18 27//18
f 11//19 13//19 12//19
f 31//20 30//20 29//20
f 16//21 3//21 2//21
f 14//22 17//22 15//22
f 20//23 34//23 21//23
f 36//24 33//24 32//24
f 1//25 21//25 2//25
f 23//26 4//26 6//26
f 26//27 7//27 9//27
f 29//28 10//28 12//28
f 32//29 13//29 15//29
f 34//30 17//30 16//30
f 4//31 19//31 1//31
f 3//32 8//32 5//32
f 3//32 11//32 8//32
f 3//32 14//32 11//32
f 3//32 18//32 14//32
f 2//33 34//33 16//33
f 7//34 23//34 6//34
f 10//35 26//35 9//35
f 13//36 29//36 12//36
f 17//37 32//37 15//37
f 20//38 27//38 30//38
f 20//38 24//38 27//38
f 20//38 30//38 33//38
f 20//38 33//38 35//38
f 3//13 5//13 4//13
f 8//39 7//39 6//39
f 22//15 24//15 20//15
f 23//40 25//40 27//40
f 11//41 10//41 9//41
f 26//42 28//42 30//42
f 11//43 14//43 13//43
f 31//44 33//44 30//44
f 16//21 18//21 3//21
f 14//45 18//45 17//45
f 20//23 35//23 34//23
f 36//46 35//46 33//46
f 1//25 19//25 21//25
f 23//26 22//26 4//26
f 26//27 25//27 7//27
f 29//28 28//28 10//28
f 32//29 31//29 13//29
f 34//30 36//30 17//30
f 4//31 22//31 19//31
f 2//33 21//33 34//33
f 7//34 25//34 23//34
f 10//35 28//35 26//35
f 13//36 31//36 29//36
f 17//37 36//37 32//37
g Chrysalis_Frame.001_Mesh
v 1.010000 0.000000 0.000000
v 0.920000 0.000000 0.090000
v 0.830000 0.000000 0.000000
v 0.920000 -0.000000 -0.090000
v 0.949090 0.345440 -0.000000
v 0.864517 0.314658 0.090000
v 0.779945 0.283877 -0.000000
v 0.864517 0.314658 -0.090000
v 0.773705 0.649216 -0.000000
v 0.704761 0.591365 0.090000
v 0.635817 0.533514 -0.000000
v 0.704761 0.591365 -0.090000
v 0.505000 0.874686 -0.000000
v 0.460000 0.796743 0.090000
v 0.415000 0.718801 -0.000000
v 0.460000 0.796743 -0.090000
v 0.175385 0.994656 -0.000000
v 0.159756 0.906023 0.090000
v 0.144128 0.817390 -0.000000
v 0.159756 0.906023 -0.090000
v -0.175385 0.994656 -0.000000
v -0.159756 0.906023 0.090000
v -0.144128 0.817391 -0.000000
v -0.159756 0.906023 -0.090000
v -0.505000 0.874686 -0.000000
v -0.460000 0.796743 0.090000
v -0.415000 0.718801 -0.000000
v -0.460000 0.796743 -0.090000
v -0.773705 0.649216 -0.000000
v -0.704761 0.591365 0.090000
v -0.635817 0.533514 -0.000000
v -0.704761 0.591365 -0.090000
v -0.949089 0.345441 -0.000000
v -0.864517 0.314659 0.090000
v -0.779945 0.283877 -0.000000
v -0.864517 0.314659 -0.090000
v -1.010000 0.000000 -0.000000
v -0.920000 0.000000 0.090000
v -0.830000 0.000000 -0.000000
v -0.920000 0.000000 -0.090000
v -0.949090 -0.345440 0.000000
v -0.864517 -0.314658 0.090000
v -0.779945 -0.283877 0.000000
v -0.864517 -0.314658 -0.090000
v -0.773705 -0.649215 0.000000
v -0.704761 -0.591364 0.090000
v -0.635817 -0.533514 0.000000
v -0.704761 -0.591364 -0.090000
v -0.505000 -0.874686 0.000000
v -0.460000 -0.796743 0.090000
v -0.415000 -0.718801 0.000000
v -0.460000 -0.796743 -0.090000
v -0.175385 -0.994656 0.000000
v -0.159756 -0.906023 0.090000
v -0.144128 -0.817391 0.000000
v -0.159756 -0.906023 -0.090000
v 0.175385 -0.994656 0.000000
v 0.159756 -0.906023 0.090000
v 0.144128 -0.817390 0.000000
v 0.159756 -0.906023 -0.090000
v 0.505000 -0.874686 0.000000
v 0.460000 -0.796743 0.090000
v 0.415000 -0.718801 0.000000
v 0.460000 -0.796743 -0.090000
v 0.773705 -0.649216 0.000000
v 0.704761 -0.591365 0.090000
v 0.635817 -0.533514 0.000000
v 0.704761 -0.591365 -0.090000
v 0.949089 -0.345441 0.000000
v 0.864517 -0.314659 0.090000
v 0.779945 -0.283877 0.000000
v 0.864517 -0.314659 -0.090000
vn 0.7017 0.1237 0.7017
vn -0.7017 -0.1237 0.7017
vn -0.7017 -0.1237 -0.7017
vn 0.7017 0.1237 -0.7017
vn 0.6170 0.3562 0.7017
vn -0.6170 -0.3562 0.7017
vn -0.6170 -0.3562 -0.7017
vn 0.6170 0.3562 -0.7017
vn 0.4580 0.5458 0.7017
vn -0.4580 -0.5458 0.7017
vn -0.4580 -0.5458 -0.7017
vn 0.4580 0.5458 -0.7017
vn 0.2437 0.6695 0.7017
vn -0.2437 -0.6695 0.7017
vn -0.2437 -0.6695 -0.7017
vn 0.2437 0.6695 -0.7017
vn -0.0000 0.7125 0.7017
vn -0.0000 -0.7125 0.7017
vn -0.0000 -0.7125 -0.7017
vn -0.0000 0.7125 -0.7017
vn -0.2437 0.6695 0.7017
vn 0.2437 -0.6695 0.7017
vn 0.2437 -0.6695 -0.7017
vn -0.2437 0.6695 -0.7017
vn -0.4580 0.5458 0.7017
vn 0.4580 -0.5458 0.7017
vn 0.4580 -0.5458 -0.7017
vn -0.4580 0.5458 -0.7017
vn -0.6170 0.3562 0.7017
vn 0.6170 -0.3562 0.7017
vn 0.6170 -0.3562 -0.7017
vn -0.6170 0.3562 -0.7017
vn -0.7017 0.1237 0.7017
vn 0.7017 -0.1237 0.7017
vn 0.7017 -0.1237 -0.7017
vn -0.7017 0.1237 -0.7017
vt 0.555556 0.500000
vt 0.500000 0.750000
vt 0.500000 0.500000
vt 0.555556 0.750000
vt 0.500000 1.000000
vt 0.555556 0.000000
vt 0.500000 0.250000
vt 0.500000 0.000000
vt 0.555556 0.250000
vt 0.611111 0.500000
vt 0.611111 0.750000
vt 0.555556 1.000000
vt 0.611111 0.250000
vt 0.666667 0.500000
vt 0.666667 0.750000
vt 0.611111 1.000000
vt 0.666667 0.000000
vt 0.611111 0.000000
vt 0.666667 0.250000
vt 0.722222 0.500000
vt 0.722222 0.750000
vt 0.666667 1.000000
vt 0.722222 0.000000
vt 0.722222 0.250000
vt 0.777778 0.500000
vt 0.777778 1.000000
vt 0.722222 1.000000
vt 0.777778 0.000000
vt 0.777778 0.250000
vt 0.833333 0.500000
vt 0.777778 0.750000
vt 0.833333 0.750000
vt 0.833333 0.250000
vt 0.888889 0.500000
vt 0.888889 0.750000
vt 0.833333 1.000000
vt 0.888889 0.000000
vt 0.833333 0.000000
vt 0.888889 0.250000
vt 0.944444 0.750000
vt 0.888889 1.000000
vt 0.944444 0.250000
vt 1.000000 0.500000
vt 0.944444 0.500000
vt 1.000000 1.000000
vt 0.944444 1.000000
vt 0.944444 0.000000
vt 1.000000 0.250000
vt 0.055556 0.500000
vt 0.000000 0.750000
vt 0.000000 0.500000
vt 0.055556 0.750000
vt 0.000000 1.000000
vt 0.055556 0.000000
vt 0.000000 0.250000
vt 0.000000 0.000000
vt 0.055556 0.250000
vt 0.111111 0.500000
vt 0.111111 0.750000
vt 0.055556 1.000000
vt 0.111111 0.000000
vt 0.111111 0.250000
vt 0.166667 0.750000
vt 0.111111 1.000000
vt 0.166667 0.000000
vt 0.166667 0.250000
vt 0.166667 0.500000
vt 0.222222 0.750000
vt 0.222222 1.000000
vt 0.166667 1.000000
vt 0.222222 0.000000
vt 0.222222 0.250000
vt 0.277778 0.500000
vt 0.222222 0.500000
vt 0.277778 0.750000
vt 0.277778 0.250000
vt 0.333333 0.750000
vt 0.277778 1.000000
vt 0.333333 0.000000
vt 0.277778 0.000000
vt 0.333333 0.250000
vt 0.388889 0.500000
vt 0.333333 0.500000
vt 0.388889 0.750000
vt 0.333333 1.000000
vt 0.388889 0.250000
vt 0.444444 0.500000
vt 0.444444 0.750000
vt 0.388889 1.000000
vt 0.444444 0.000000
vt 0.388889 0.000000
vt 0.444444 1.000000
vt 0.444444 0.250000
vt 1.000000 0.750000
vt 1.000000 0.000000
s 0
g Chrysalis_Frame.001_MAT_BrightGold
usemtl MAT_BrightGold
f 41/1/47 38/2/47 37/3/47
f 42/4/48 39/5/48 38/2/48
f 43/6/49 40/7/49 39/8/49
f 44/9/50 37/3/50 40/7/50
f 45/10/51 42/4/51 41/1/51
f 46/11/52 43/12/52 42/4/52
f 43/6/53 48/13/53 44/9/53
f 48/13/54 41/1/54 44/9/54
f 49/14/55 46/11/55 45/10/55
f 50/15/56 47/16/56 46/11/56
f 51/17/57 48/13/57 47/18/57
f 52/19/58 45/10/58 48/13/58
f 53/20/59 50/15/59 49/14/59
f 54/21/60 51/22/60 50/15/60
f 55/23/61 52/19/61 51/17/61
f 56/24/62 49/14/62 52/19/62
f 57/25/63 54/21/63 53/20/63
f 54/21/64 59/26/64 55/27/64
f 59/28/65 56/24/65 55/23/65
f 60/29/66 53/20/66 56/24/66
f 61/30/67 58/31/67 57/25/67
f 62/32/68 59/26/68 58/31/68
f 59/28/69 64/33/69 60/29/69
f 64/33/70 57/25/70 60/29/70
f 65/34/71 62/32/71 61/30/71
f 66/35/72 63/36/72 62/32/72
f 67/37/73 64/33/73 63/38/73
f 68/39/74 61/30/74 64/33/74
f 65/34/75 70/40/75 66/35/75
f 70/40/76 67/41/76 66/35/76
f 67/37/77 72/42/77 68/39/77
f 72/42/78 65/34/78 68/39/78
f 73/43/79 70/40/79 69/44/79
f 70/40/80 75/45/80 71/46/80
f 71/47/81 76/48/81 72/42/81
f 76/48/82 69/44/82 72/42/82
f 77/49/48 74/50/48 73/51/48
f 78/52/47 75/53/47 74/50/47
f 79/54/50 76/55/50 75/56/50
f 80/57/49 73/51/49 76/55/49
f 81/58/52 78/52/52 77/49/52
f 82/59/51 79/60/51 78/52/51
f 83/61/54 80/57/54 79/54/54
f 84/62/53 77/49/53 80/57/53
f 81/58/56 86/63/56 82/59/56
f 86/63/55 83/64/55 82/59/55
f 87/65/58 84/62/58 83/61/58
f 88/66/57 81/58/57 84/62/57
f 85/67/60 90/68/60 86/63/60
f 86/63/59 91/69/59 87/70/59
f 91/71/62 88/66/62 87/65/62
f 92/72/61 85/67/61 88/66/61
f 93/73/64 90/68/64 89/74/64
f 94/75/63 91/69/63 90/68/63
f 91/71/66 96/76/66 92/72/66
f 92/72/65 93/73/65 89/74/65
f 93/73/68 98/77/68 94/75/68
f 98/77/67 95/78/67 94/75/67
f 99/79/70 96/76/70 95/80/70
f 100/81/69 93/73/69 96/76/69
f 101/82/72 98/77/72 97/83/72
f 102/84/71 99/85/71 98/77/71
f 99/79/74 104/86/74 100/81/74
f 100/81/73 101/82/73 97/83/73
f 105/87/76 102/84/76 101/82/76
f 106/88/75 103/89/75 102/84/75
f 107/90/78 104/86/78 103/91/78
f 104/86/77 105/87/77 101/82/77
f 37/3/80 106/88/80 105/87/80
f 38/2/79 107/92/79 106/88/79
f 107/90/82 40/7/82 108/93/82
f 40/7/81 105/87/81 108/93/81
f 41/1/47 42/4/47 38/2/47
f 42/4/48 43/12/48 39/5/48
f 43/6/49 44/9/49 40/7/49
f 44/9/50 41/1/50 37/3/50
f 45/10/51 46/11/51 42/4/51
f 46/11/52 47/16/52 43/12/52
f 43/6/53 47/18/53 48/13/53
f 48/13/54 45/10/54 41/1/54
f 49/14/55 50/15/55 46/11/55
f 50/15/56 51/22/56 47/16/56
f 51/17/57 52/19/57 48/13/57
f 52/19/58 49/14/58 45/10/58
f 53/20/59 54/21/59 50/15/59
f 54/21/60 55/27/60 51/22/60
f 55/23/61 56/24/61 52/19/61
f 56/24/62 53/20/62 49/14/62
f 57/25/63 58/31/63 54/21/63
f 54/21/64 58/31/64 59/26/64
f 59/28/65 60/29/65 56/24/65
f 60/29/66 57/25/66 53/20/66
f 61/30/67 62/32/67 58/31/67
f 62/32/68 63/36/68 59/26/68
f 59/28/69 63/38/69 64/33/69
f 64/33/70 61/30/70 57/25/70
f 65/34/71 66/35/71 62/32/71
f 66/35/72 67/41/72 63/36/72
f 67/37/73 68/39/73 64/33/73
f 68/39/74 65/34/74 61/30/74
f 65/34/75 69/44/75 70/40/75
f 70/40/76 71/46/76 67/41/76
f 67/37/77 71/47/77 72/42/77
f 72/42/78 69/44/78 65/34/78
f 73/43/79 74/94/79 70/40/79
f 70/40/80 74/94/80 75/45/80
f 71/47/81 75/95/81 76/48/81
f 76/48/82 73/43/82 69/44/82
f 77/49/48 78/52/48 74/50/48
f 78/52/47 79/60/47 75/53/47
f 79/54/50 80/57/50 76/55/50
f 80/57/49 77/49/49 73/51/49
f 81/58/52 82/59/52 78/52/52
f 82/59/51 83/64/51 79/60/51
f 83/61/54 84/62/54 80/57/54
f 84/62/53 81/58/53 77/49/53
f 81/58/56 85/67/56 86/63/56
f 86/63/55 87/70/55 83/64/55
f 87/65/58 88/66/58 84/62/58
f 88/66/57 85/67/57 81/58/57
f 85/67/60 89/74/60 90/68/60
f 86/63/59 90/68/59 91/69/59
f 91/71/62 92/72/62 88/66/62
f 92/72/61 89/74/61 85/67/61
f 93/73/64 94/75/64 90/68/64
f 94/75/63 95/78/63 91/69/63
f 91/71/66 95/80/66 96/76/66
f 92/72/65 96/76/65 93/73/65
f 93/73/68 97/83/68 98/77/68
f 98/77/67 99/85/67 95/78/67
f 99/79/70 100/81/70 96/76/70
f 100/81/69 97/83/69 93/73/69
f 101/82/72 102/84/72 98/77/72
f 102/84/71 103/89/71 99/85/71
f 99/79/74 103/91/74 104/86/74
f 100/81/73 104/86/73 101/82/73
f 105/87/76 106/88/76 102/84/76
f 106/88/75 107/92/75 103/89/75
f 107/90/78 108/93/78 104/86/78
f 104/86/77 108/93/77 105/87/77
f 37/3/80 38/2/80 106/88/80
f 38/2/79 39/5/79 107/92/79
f 107/90/82 39/8/82 40/7/82
f 40/7/81 37/3/81 105/87/81
g Chrysalis_Gem.001_Mesh
v 0.000000 -0.130000 0.200000
v 0.144720 0.008196 0.252572
v -0.055277 0.008196 0.285064
v -0.178885 0.008196 0.200000
v -0.055277 0.008196 0.114936
v 0.144720 0.008196 0.147428
v 0.055277 0.231804 0.285064
v -0.144720 0.231804 0.252572
v -0.144720 0.231804 0.147428
v 0.055277 0.231804 0.114936
v 0.178885 0.231804 0.200000
v 0.000000 0.370000 0.200000
vn 0.1409 -0.4775 0.8673
vn 0.6906 -0.7232 -0.0000
vn -0.4571 -0.5916 0.6641
vn -0.4571 -0.5916 -0.6641
vn 0.1409 -0.4775 -0.8673
vn 0.9885 -0.1510 -0.0000
vn 0.1599 -0.0790 0.9840
vn -0.5637 -0.1065 0.8191
vn -0.5637 -0.1065 -0.8191
vn 0.1599 -0.0790 -0.9840
vn 0.5637 0.1065 0.8191
vn -0.1599 0.0790 0.9840
vn -0.9885 0.1510 -0.0000
vn -0.1599 0.0790 -0.9840
vn 0.5637 0.1065 -0.8191
vn 0.4571 0.5916 0.6641
vn -0.1409 0.4775 0.8673
vn -0.6906 0.7232 -0.0000
vn -0.1409 0.4775 -0.8673
vn 0.4571 0.5916 -0.6641
vt 0.181819 0.000000
vt 0.272728 0.157461
vt 0.090910 0.157461
vt 0.363637 0.000000
vt 0.454546 0.157461
vt 0.909091 0.000000
vt 1.000000 0.157461
vt 0.818182 0.157461
vt 0.727273 0.000000
vt 0.636364 0.157461
vt 0.545455 0.000000
vt 0.363637 0.314921
vt 0.181819 0.314921
vt 0.909091 0.314921
vt 0.727273 0.314921
vt 0.545455 0.314921
vt 0.000000 0.314921
vt 0.272728 0.472382
vt 0.090910 0.472382
vt 0.818182 0.472382
vt 0.636364 0.472382
vt 0.454546 0.472382
s 0
g Chrysalis_Gem.001_MAT_Emerald
usemtl MAT_Emerald
f 109/96/83 110/97/83 111/98/83
f 110/97/84 109/99/84 114/100/84
f 109/101/85 111/102/85 112/103/85
f 109/104/86 112/103/86 113/105/86
f 109/106/87 113/105/87 114/100/87
f 110/97/88 114/100/88 119/107/88
f 111/98/89 110/97/89 115/108/89
f 112/103/90 111/102/90 116/109/90
f 113/105/91 112/103/91 117/110/91
f 114/100/92 113/105/92 118/111/92
f 110/97/93 119/107/93 115/108/93
f 111/98/94 115/108/94 116/112/94
f 112/103/95 116/109/95 117/110/95
f 113/105/96 117/110/96 118/111/96
f 114/100/97 118/111/97 119/107/97
f 115/108/98 119/107/98 120/113/98
f 116/112/99 115/108/99 120/114/99
f 117/110/100 116/109/100 120/115/100
f 118/111/101 117/110/101 120/116/101
f 119/107/102 118/111/102 120/117/102
g Chrysalis_Wing-1.001_Mesh
v -0.035219 0.538964 0.080000
v 0.000000 0.480000 0.080000
v -0.040000 0.496108 0.120000
v -0.744781 0.921036 0.080000
v -0.716632 0.860449 0.120000
v -0.769866 0.901305 0.080000
v -0.570134 0.138695 0.080000
v -0.524410 0.126692 0.120000
v -0.575876 0.063286 0.080000
v -0.864124 -0.603286 0.080000
v -0.825448 -0.568091 0.120000
v -0.842688 -0.625584 0.080000
v 0.000000 -0.260000 0.080000
v -0.037312 -0.314416 0.080000
v -0.040000 -0.264928 0.120000
v -0.035219 0.538964 0.020000
v -0.040000 0.496108 -0.020000
v 0.000000 0.480000 0.020000
v -0.744781 0.921036 0.020000
v -0.769866 0.901305 0.020000
v -0.716632 0.860448 -0.020000
v -0.570134 0.138695 0.020000
v -0.575876 0.063286 0.020000
v -0.524410 0.126692 -0.020000
v -0.864124 -0.603286 0.020000
v -0.842688 -0.625584 0.020000
v -0.825448 -0.568091 -0.020000
v 0.000000 -0.260000 0.020000
v -0.040000 -0.264928 -0.020000
v -0.037312 -0.314416 0.020000
vn -0.7192 -0.4295 -0.5462
vn 0.3239 -0.4118 -0.8517
vn 0.6502 -0.0495 -0.7581
vn 0.4381 0.4212 -0.7942
vn -0.6582 0.4513 -0.6026
vn -0.7192 -0.4295 0.5462
vn 0.3239 -0.4118 0.8517
vn 0.6502 -0.0495 0.7581
vn 0.4381 0.4212 0.7942
vn -0.6582 0.4513 0.6026
vn -0.3352 -0.6226 -0.7071
vn 0.6743 0.1766 -0.7170
vn -0.3352 -0.6226 0.7071
vn 0.6743 0.1766 0.7170
vn 0.8039 -0.3483 -0.4822
vn 0.8039 -0.3483 0.4822
vn -0.7071 -0.0000 -0.7071
vn -0.2324 0.6015 -0.7643
vn -0.7071 -0.0000 0.7071
vn -0.2324 0.6015 0.7643
vn -0.8585 -0.5128 -0.0000
vn 0.6182 -0.7860 -0.0000
vn 0.9971 -0.0759 -0.0000
vn 0.7209 0.6930 -0.0000
vn -0.8247 0.5655 -0.0000
vn -0.4741 -0.8805 -0.0000
vn -0.0000 -0.0000 -1.0000
vn -1.0000 -0.0000 -0.0000
vn 0.9674 0.2534 -0.0000
vn 0.9179 -0.3969 -0.0000
vn -0.3604 0.9328 -0.0000
vn -0.0000 -0.0000 1.0000
vn 0.6739 0.1765 -0.7174
vn 0.6739 0.1765 0.7174
vn 0.8082 -0.3495 -0.4739
vn 0.8082 -0.3495 0.4739
vn -0.2330 0.6036 -0.7625
vn -0.2330 0.6036 0.7625
s 0
g Chrysalis_Wing-1.001_MAT_OldGold
usemtl MAT_OldGold
f 121//103 122//103 123//103
f 124//104 125//104 126//104
f 127//105 128//105 129//105
f 130//106 131//106 132//106
f 133//107 134//107 135//107
f 136//108 137//108 138//108
f 139//109 140//109 141//109
f 142//110 143//110 144//110
f 145//111 146//111 147//111
f 148//112 149//112 150//112
f 125//113 121//113 123//113
f 125//114 127//114 126//114
f 136//115 141//115 137//115
f 142//116 141//116 140//116
f 131//117 129//117 128//117
f 143//118 147//118 144//118
f 122//119 135//119 123//119
f 131//120 134//120 132//120
f 149//121 138//121 137//121
f 150//122 147//122 146//122
f 136//123 122//123 121//123
f 140//124 124//124 126//124
f 143//125 127//125 129//125
f 146//126 130//126 132//126
f 148//127 134//127 133//127
f 124//128 136//128 121//128
f 123//129 128//129 125//129
f 123//129 131//129 128//129
f 123//129 135//129 131//129
f 122//130 148//130 133//130
f 127//131 140//131 126//131
f 130//132 143//132 129//132
f 134//133 146//133 132//133
f 137//134 144//134 147//134
f 137//134 141//134 144//134
f 137//134 147//134 149//134
f 125//113 124//113 121//113
f 125//135 128//135 127//135
f 136//115 139//115 141//115
f 142//136 144//136 141//136
f 131//137 130//137 129//137
f 143//138 145//138 147//138
f 122//119 133//119 135//119
f 131//139 135//139 134//139
f 149//121 148//121 138//121
f 150//140 149//140 147//140
f 136//123 138//123 122//123
f 140//124 139//124 124//124
f 143//125 142//125 127//125
f 146//126 145//126 130//126
f 148//127 150//127 134//127
f 124//128 139//128 136//128
f 122//130 138//130 148//130
f 127//131 142//131 140//131
f 130//132 145//132 143//132
f 134//133 150//133 146//133
g Chrysalis_Wing1.001_Mesh
v 0.035219 0.538964 0.080000
v 0.000000 0.480000 0.080000
v 0.040000 0.496108 0.120000
v 0.744781 0.921036 0.080000
v 0.716632 0.860449 0.120000
v 0.769866 0.901305 0.080000
v 0.570134 0.138695 0.080000
v 0.524410 0.126692 0.120000
v 0.575876 0.063286 0.080000
v 0.864124 -0.603286 0.080000
v 0.825448 -0.568091 0.120000
v 0.842688 -0.625584 0.080000
v 0.000000 -0.260000 0.080000
v 0.037312 -0.314416 0.080000
v 0.040000 -0.264928 0.120000
v 0.035219 0.538964 0.020000
v 0.040000 0.496108 -0.020000
v 0.000000 0.480000 0.020000
v 0.744781 0.921036 0.020000
v 0.769866 0.901305 0.020000
v 0.716632 0.860448 -0.020000
v 0.570134 0.138695 0.020000
v 0.575876 0.063286 0.020000
v 0.524410 0.126692 -0.020000
v 0.864124 -0.603286 0.020000
v 0.842688 -0.625584 0.020000
v 0.825448 -0.568091 -0.020000
v 0.000000 -0.260000 0.020000
v 0.040000 -0.264928 -0.020000
v 0.037312 -0.314416 0.020000
vn -0.7192 0.4295 0.5462
vn 0.3239 0.4118 0.8517
vn 0.6502 0.0495 0.7581
vn 0.4381 -0.4212 0.7942
vn -0.6582 -0.4513 0.6026
vn -0.7192 0.4295 -0.5462
vn 0.3239 0.4118 -0.8517
vn 0.6502 0.0495 -0.7581
vn 0.4381 -0.4212 -0.7942
vn -0.6582 -0.4513 -0.6026
vn -0.3352 0.6226 0.7071
vn 0.6743 -0.1766 0.7170
vn -0.3352 0.6226 -0.7071
vn 0.6743 -0.1766 -0.7170
vn 0.8039 0.3483 0.4822
vn 0.8039 0.3483 -0.4822
vn -0.7071 -0.0000 0.7071
vn -0.2324 -0.6015 0.7643
vn -0.7071 -0.0000 -0.7071
vn -0.2324 -0.6015 -0.7643
vn -0.8585 0.5128 -0.0000
vn 0.6182 0.7860 -0.0000
vn 0.9971 0.0759 -0.0000
vn 0.7209 -0.6930 -0.0000
vn -0.8247 -0.5655 -0.0000
vn -0.4741 0.8805 -0.0000
vn -0.0000 -0.0000 1.0000
vn -1.0000 -0.0000 -0.0000
vn 0.9674 -0.2534 -0.0000
vn 0.9179 0.3969 -0.0000
vn -0.3604 -0.9328 -0.0000
vn -0.0000 -0.0000 -1.0000
vn 0.6739 -0.1765 0.7174
vn 0.6739 -0.1765 -0.7174
vn 0.8082 0.3495 0.4739
vn 0.8082 0.3495 -0.4739
vn -0.2330 -0.6036 0.7625
vn -0.2330 -0.6036 -0.7625
s 0
g Chrysalis_Wing1.001_MAT_OldGold
usemtl MAT_OldGold
f 151//141 152//141 153//141
f 154//142 155//142 156//142
f 157//143 158//143 159//143
f 160//144 161//144 162//144
f 163//145 164//145 165//145
f 166//146 167//146 168//146
f 169//147 170//147 171//147
f 172//148 173//148 174//148
f 175//149 176//149 177//149
f 178//150 179//150 180//150
f 155//151 151//151 153//151
f 155//152 157//152 156//152
f 166//153 171//153 167//153
f 172//154 171//154 170//154
f 161//155 159//155 158//155
f 173//156 177//156 174//156
f 152//157 165//157 153//157
f 161//158 164//158 162//158
f 179//159 168//159 167//159
f 180//160 177//160 176//160
f 166//161 152//161 151//161
f 170//162 154//162 156//162
f 173//163 157//163 159//163
f 176//164 160//164 162//164
f 178//165 164//165 163//165
f 154//166 166//166 151//166
f 153//167 158//167 155//167
f 153//167 161//167 158//167
f 153//167 165//167 161//167
f 152//168 178//168 163//168
f 157//169 170//169 156//169
f 160//170 173//170 159//170
f 164//171 176//171 162//171
f 167//172 174//172 177//172
f 167//172 171//172 174//172
f 167//172 177//172 179//172
f 155//151 154//151 151//151
f 155//173 158//173 157//173
f 166//153 169//153 171//153
f 172//174 174//174 171//174
f 161//175 160//175 159//175
f 173//176 175//176 177//176
f 152//157 163//157 165//157
f 161//177 165//177 164//177
f 179//159 178//159 168//159
f 180//178 179//178 177//178
f 166//161 168//161 152//161
f 170//162 169//162 154//162
f 173//163 172//163 157//163
f 176//164 175//164 160//164
f 178//165 180//165 164//165
f 154//166 169//166 166//166
f 152//168 168//168 178//168
f 157//169 172//169 170//169
f 160//170 175//170 173//170
f 164//171 180//171 176//171
