# Second Rite deterministic item batch 53-62
# Greatsword
mtllib item_batch_53_62.mtl
o greatsword
s off
v -0.360000 -1.060000 -0.075000
v -0.480000 -0.740000 -0.075000
v -0.280800 1.770000 -0.075000
v 0.000000 2.290000 -0.075000
v 0.280800 1.770000 -0.075000
v 0.480000 -0.740000 -0.075000
v 0.360000 -1.060000 -0.075000
v -0.360000 -1.060000 0.075000
v -0.480000 -0.740000 0.075000
v -0.280800 1.770000 0.075000
v 0.000000 2.290000 0.075000
v 0.280800 1.770000 0.075000
v 0.480000 -0.740000 0.075000
v 0.360000 -1.060000 0.075000
v -0.710000 -1.240000 -0.150000
v 0.710000 -1.240000 -0.150000
v 0.710000 -1.080000 -0.150000
v -0.710000 -1.080000 -0.150000
v -0.710000 -1.240000 0.150000
v 0.710000 -1.240000 0.150000
v 0.710000 -1.080000 0.150000
v -0.710000 -1.080000 0.150000
v -0.110000 -1.220000 0.000000
v -0.055000 -1.220000 -0.095263
v 0.055000 -1.220000 -0.095263
v 0.110000 -1.220000 -0.000000
v 0.055000 -1.220000 0.095263
v -0.055000 -1.220000 0.095263
v -0.090000 -2.110000 0.000000
v -0.045000 -2.110000 -0.077942
v 0.045000 -2.110000 -0.077942
v 0.090000 -2.110000 -0.000000
v 0.045000 -2.110000 0.077942
v -0.045000 -2.110000 0.077942
v 0.000000 -1.220000 0.000000
v 0.000000 -2.110000 0.000000
v 0.160000 -2.190000 0.000000
v 0.000000 -2.190000 0.160000
v -0.160000 -2.190000 0.000000
v -0.000000 -2.190000 -0.160000
v 0.000000 -2.090000 0.000000
v 0.000000 -2.290000 0.000000
v -0.039600 -0.663800 0.070500
v 0.039600 -0.663800 0.070500
v 0.039600 1.373800 0.070500
v -0.039600 1.373800 0.070500
v -0.039600 -0.663800 0.094500
v 0.039600 -0.663800 0.094500
v 0.039600 1.373800 0.094500
v -0.039600 1.373800 0.094500
v -0.039600 -0.663800 -0.094500
v 0.039600 -0.663800 -0.094500
v 0.039600 1.373800 -0.094500
v -0.039600 1.373800 -0.094500
v -0.039600 -0.663800 -0.070500
v 0.039600 -0.663800 -0.070500
v 0.039600 1.373800 -0.070500
v -0.039600 1.373800 -0.070500
v -0.280000 -1.715000 -0.110000
v 0.280000 -1.715000 -0.110000
v 0.280000 -1.295000 -0.110000
v -0.280000 -1.295000 -0.110000
v -0.280000 -1.715000 0.110000
v 0.280000 -1.715000 0.110000
v 0.280000 -1.295000 0.110000
v -0.280000 -1.295000 0.110000
v -0.110000 -1.855000 -0.100000
v 0.110000 -1.855000 -0.100000
v 0.110000 -1.775000 -0.100000
v -0.110000 -1.775000 -0.100000
v -0.110000 -1.855000 0.100000
v 0.110000 -1.855000 0.100000
v 0.110000 -1.775000 0.100000
v -0.110000 -1.775000 0.100000
v -0.110000 -2.055000 -0.100000
v 0.110000 -2.055000 -0.100000
v 0.110000 -1.975000 -0.100000
v -0.110000 -1.975000 -0.100000
v -0.110000 -2.055000 0.100000
v 0.110000 -2.055000 0.100000
v 0.110000 -1.975000 0.100000
v -0.110000 -1.975000 0.100000
v -0.110000 -2.255000 -0.100000
v 0.110000 -2.255000 -0.100000
v 0.110000 -2.175000 -0.100000
v -0.110000 -2.175000 -0.100000
v -0.110000 -2.255000 0.100000
v 0.110000 -2.255000 0.100000
v 0.110000 -2.175000 0.100000
v -0.110000 -2.175000 0.100000
usemtl wrought_iron
f 1 3 2
f 8 9 10
f 1 4 3
f 8 10 11
f 1 5 4
f 8 11 12
f 1 6 5
f 8 12 13
f 1 7 6
f 8 13 14
f 1 2 9
f 1 9 8
f 2 3 10
f 2 10 9
f 3 4 11
f 3 11 10
f 4 5 12
f 4 12 11
f 5 6 13
f 5 13 12
f 6 7 14
f 6 14 13
f 7 1 8
f 7 8 14
f 15 18 17
f 15 17 16
f 19 20 21
f 19 21 22
f 15 16 20
f 15 20 19
f 18 22 21
f 18 21 17
f 15 19 22
f 15 22 18
f 16 17 21
f 16 21 20
usemtl dark_wood
f 35 24 23
f 36 29 30
f 23 24 30
f 23 30 29
f 35 25 24
f 36 30 31
f 24 25 31
f 24 31 30
f 35 26 25
f 36 31 32
f 25 26 32
f 25 32 31
f 35 27 26
f 36 32 33
f 26 27 33
f 26 33 32
f 35 28 27
f 36 33 34
f 27 28 34
f 27 34 33
f 35 23 28
f 36 34 29
f 28 23 29
f 28 29 34
usemtl wrought_iron
f 41 37 38
f 42 38 37
f 41 38 39
f 42 39 38
f 41 39 40
f 42 40 39
f 41 40 37
f 42 37 40
usemtl ritual_gold
f 43 46 45
f 43 45 44
f 47 48 49
f 47 49 50
f 43 44 48
f 43 48 47
f 46 50 49
f 46 49 45
f 43 47 50
f 43 50 46
f 44 45 49
f 44 49 48
f 51 54 53
f 51 53 52
f 55 56 57
f 55 57 58
f 51 52 56
f 51 56 55
f 54 58 57
f 54 57 53
f 51 55 58
f 51 58 54
f 52 53 57
f 52 57 56
usemtl wrought_iron
f 59 62 61
f 59 61 60
f 63 64 65
f 63 65 66
f 59 60 64
f 59 64 63
f 62 66 65
f 62 65 61
f 59 63 66
f 59 66 62
f 60 61 65
f 60 65 64
usemtl aged_cloth
f 67 70 69
f 67 69 68
f 71 72 73
f 71 73 74
f 67 68 72
f 67 72 71
f 70 74 73
f 70 73 69
f 67 71 74
f 67 74 70
f 68 69 73
f 68 73 72
f 75 78 77
f 75 77 76
f 79 80 81
f 79 81 82
f 75 76 80
f 75 80 79
f 78 82 81
f 78 81 77
f 75 79 82
f 75 82 78
f 76 77 81
f 76 81 80
f 83 86 85
f 83 85 84
f 87 88 89
f 87 89 90
f 83 84 88
f 83 88 87
f 86 90 89
f 86 89 85
f 83 87 90
f 83 90 86
f 84 85 89
f 84 89 88
