# Blender 5.0.1
# www.blender.org
mtllib meteorite_plate.mtl
g MeteorPlate_Core.001_Mesh
v -0.937236 0.831666 0.080000
v -0.836188 0.952796 0.080000
v -0.841139 0.854214 0.170000
v -1.017398 -0.049115 0.170000
v -1.080000 0.100000 0.080000
v -0.764161 -1.033304 0.080000
v -0.748409 -1.024702 0.170000
v -0.656593 -1.153813 0.080000
v -0.083407 -1.386186 0.080000
v -0.042290 -1.312435 0.170000
v 0.083407 -1.386186 0.080000
v 0.656593 -1.153813 0.080000
v 0.663789 -1.026343 0.170000
v 0.764161 -1.033304 0.080000
v 0.986908 0.138168 0.170000
v 1.080000 0.100000 0.080000
v 0.937236 0.831666 0.080000
v 0.832465 0.920000 0.170000
v 0.836188 0.952796 0.080000
v -0.083812 1.247204 0.080000
v 0.083812 1.247204 0.080000
v 0.076657 1.213351 0.170000
v -0.937236 0.831666 -0.080000
v -0.841139 0.854214 -0.170000
v -0.836188 0.952796 -0.080000
v -1.080000 0.100000 -0.080000
v -1.017398 -0.049114 -0.170000
v -0.764161 -1.033304 -0.080000
v -0.656593 -1.153813 -0.080000
v -0.748409 -1.024702 -0.170000
v -0.083407 -1.386186 -0.080000
v 0.083407 -1.386186 -0.080000
v -0.042290 -1.312435 -0.170000
v 0.656593 -1.153813 -0.080000
v 0.764161 -1.033304 -0.080000
v 0.663789 -1.026343 -0.170000
v 1.080000 0.100000 -0.080000
v 0.986908 0.138168 -0.170000
v 0.937236 0.831666 -0.080000
v 0.836188 0.952796 -0.080000
v 0.832465 0.920000 -0.170000
v -0.083812 1.247204 -0.080000
v 0.076657 1.213351 -0.170000
v 0.083812 1.247204 -0.080000
vn 0.6411 -0.5348 -0.5505
vn 0.7323 0.6537 -0.1907
vn -0.0000 0.7735 -0.6338
vn -0.5591 0.4990 -0.6621
vn -0.7422 -0.6192 -0.2563
vn -0.0000 -0.9360 -0.3521
vn 0.6411 -0.5348 0.5505
vn 0.7323 0.6537 0.1907
vn -0.0000 0.7735 0.6338
vn -0.5591 0.4990 0.6621
vn -0.7422 -0.6192 0.2563
vn -0.0000 -0.9360 0.3521
vn 0.6940 -0.1354 -0.7071
vn 0.9397 0.2619 -0.2197
vn 0.6940 -0.1354 0.7071
vn 0.9397 0.2619 0.2197
vn 0.2745 0.6736 -0.6863
vn 0.2745 0.6736 0.6863
vn -0.2307 0.5695 -0.7889
vn -0.2307 0.5695 0.7889
vn -0.6497 0.1803 -0.7385
vn -0.6497 0.1803 0.7385
vn -0.7173 -0.1400 -0.6826
vn -0.7173 -0.1400 0.6826
vn 0.2577 -0.6585 -0.7071
vn -0.3410 -0.8786 -0.3343
vn 0.2577 -0.6585 0.7071
vn -0.3410 -0.8786 0.3343
vn 0.7679 -0.6406 -0.0000
vn 0.7460 0.6659 -0.0000
vn -0.0000 1.0000 -0.0000
vn -0.7460 0.6659 -0.0000
vn -0.7679 -0.6406 -0.0000
vn -0.0000 -1.0000 -0.0000
vn 0.9815 -0.1915 -0.0000
vn -0.0000 -0.0000 -1.0000
vn 0.3644 -0.9312 -0.0000
vn 0.9633 0.2685 -0.0000
vn 0.3757 0.9267 -0.0000
vn -0.3757 0.9267 -0.0000
vn -0.9633 0.2685 -0.0000
vn -0.9815 -0.1915 -0.0000
vn -0.3644 -0.9312 -0.0000
vn -0.0000 -0.0000 1.0000
vn 0.9464 0.2609 -0.1906
vn 0.9464 0.2609 0.1906
vn 0.2750 0.6783 -0.6814
vn 0.2750 0.6783 0.6814
vn -0.2310 0.5698 -0.7886
vn -0.2310 0.5698 0.7886
vn -0.6447 0.1797 -0.7430
vn -0.6447 0.1797 0.7430
vn -0.7106 -0.1404 -0.6895
vn -0.7106 -0.1404 0.6895
vn -0.3407 -0.8707 -0.3546
vn -0.3407 -0.8707 0.3546
s 0
g MeteorPlate_Core.001_MAT_DarkIron
usemtl MAT_DarkIron
f 1//1 2//1 3//1
f 6//2 7//2 8//2
f 9//3 10//3 11//3
f 12//4 13//4 14//4
f 17//5 18//5 19//5
f 20//6 21//6 22//6
f 23//7 24//7 25//7
f 28//8 29//8 30//8
f 31//9 32//9 33//9
f 34//10 35//10 36//10
f 39//11 40//11 41//11
f 42//12 43//12 44//12
f 3//13 5//13 1//13
f 4//14 6//14 5//14
f 26//15 24//15 23//15
f 28//16 27//16 26//16
f 10//17 8//17 7//17
f 29//18 33//18 30//18
f 13//19 11//19 10//19
f 32//20 36//20 33//20
f 15//21 14//21 13//21
f 35//22 38//22 36//22
f 15//23 17//23 16//23
f 39//24 38//24 37//24
f 20//25 3//25 2//25
f 22//26 19//26 18//26
f 24//27 42//27 25//27
f 40//28 43//28 41//28
f 1//29 25//29 2//29
f 29//30 6//30 8//30
f 11//31 31//31 9//31
f 35//32 12//32 14//32
f 19//33 39//33 17//33
f 20//34 44//34 21//34
f 5//35 23//35 1//35
f 3//36 7//36 4//36
f 3//36 10//36 7//36
f 3//36 13//36 10//36
f 3//36 15//36 13//36
f 3//36 18//36 15//36
f 3//36 22//36 18//36
f 2//37 42//37 20//37
f 6//38 26//38 5//38
f 9//39 29//39 8//39
f 12//40 32//40 11//40
f 16//41 35//41 14//41
f 17//42 37//42 16//42
f 19//43 44//43 40//43
f 24//44 30//44 33//44
f 24//44 27//44 30//44
f 24//44 33//44 36//44
f 24//44 36//44 38//44
f 24//44 38//44 41//44
f 24//44 41//44 43//44
f 3//13 4//13 5//13
f 4//45 7//45 6//45
f 26//15 27//15 24//15
f 28//46 30//46 27//46
f 10//47 9//47 8//47
f 29//48 31//48 33//48
f 13//49 12//49 11//49
f 32//50 34//50 36//50
f 15//51 16//51 14//51
f 35//52 37//52 38//52
f 15//53 18//53 17//53
f 39//54 41//54 38//54
f 20//25 22//25 3//25
f 22//55 21//55 19//55
f 24//27 43//27 42//27
f 40//56 44//56 43//56
f 1//29 23//29 25//29
f 29//30 28//30 6//30
f 11//31 32//31 31//31
f 35//32 34//32 12//32
f 19//33 40//33 39//33
f 20//34 42//34 44//34
f 5//35 26//35 23//35
f 2//37 25//37 42//37
f 6//38 28//38 26//38
f 9//39 31//39 29//39
f 12//40 34//40 32//40
f 16//41 37//41 35//41
f 17//42 39//42 37//42
f 19//43 21//43 44//43
g MeteorPlate_CoreGem.001_Mesh
v 0.000000 -0.180000 0.300000
v 0.130248 -0.080499 0.352572
v -0.049749 -0.080499 0.385064
v -0.160996 -0.080499 0.300000
v -0.049749 -0.080499 0.214936
v 0.130248 -0.080499 0.247428
v 0.049749 0.080499 0.385064
v -0.130248 0.080499 0.352572
v -0.130248 0.080499 0.247428
v 0.049749 0.080499 0.214936
v 0.160996 0.080499 0.300000
v 0.000000 0.180000 0.300000
vn 0.1419 -0.6013 0.7863
vn 0.6071 -0.7947 -0.0000
vn -0.4332 -0.7010 0.5666
vn -0.4332 -0.7010 -0.5666
vn 0.1419 -0.6013 -0.7863
vn 0.9822 -0.1876 -0.0000
vn 0.1766 -0.1091 0.9782
vn -0.6013 -0.1419 0.7863
vn -0.6013 -0.1419 -0.7863
vn 0.1766 -0.1091 -0.9782
vn 0.6013 0.1419 0.7863
vn -0.1766 0.1091 0.9782
vn -0.9822 0.1876 -0.0000
vn -0.1766 0.1091 -0.9782
vn 0.6013 0.1419 -0.7863
vn 0.4332 0.7010 0.5666
vn -0.1419 0.6013 0.7863
vn -0.6071 0.7947 -0.0000
vn -0.1419 0.6013 -0.7863
vn 0.4332 0.7010 -0.5666
vt 0.181819 0.000000
vt 0.272728 0.157461
vt 0.090910 0.157461
vt 0.363637 0.000000
vt 0.454546 0.157461
vt 0.909091 0.000000
vt 1.000000 0.157461
vt 0.818182 0.157461
vt 0.727273 0.000000
vt 0.636364 0.157461
vt 0.545455 0.000000
vt 0.363637 0.314921
vt 0.181819 0.314921
vt 0.909091 0.314921
vt 0.727273 0.314921
vt 0.545455 0.314921
vt 0.000000 0.314921
vt 0.272728 0.472382
vt 0.090910 0.472382
vt 0.818182 0.472382
vt 0.636364 0.472382
vt 0.454546 0.472382
s 0
g MeteorPlate_CoreGem.001_MAT_Teal
usemtl MAT_Teal
f 45/1/57 46/2/57 47/3/57
f 46/2/58 45/4/58 50/5/58
f 45/6/59 47/7/59 48/8/59
f 45/9/60 48/8/60 49/10/60
f 45/11/61 49/10/61 50/5/61
f 46/2/62 50/5/62 55/12/62
f 47/3/63 46/2/63 51/13/63
f 48/8/64 47/7/64 52/14/64
f 49/10/65 48/8/65 53/15/65
f 50/5/66 49/10/66 54/16/66
f 46/2/67 55/12/67 51/13/67
f 47/3/68 51/13/68 52/17/68
f 48/8/69 52/14/69 53/15/69
f 49/10/70 53/15/70 54/16/70
f 50/5/71 54/16/71 55/12/71
f 51/13/72 55/12/72 56/18/72
f 52/17/73 51/13/73 56/19/73
f 53/15/74 52/14/74 56/20/74
f 54/16/75 53/15/75 56/21/75
f 55/12/76 54/16/76 56/22/76
g MeteorPlate_Rivet0.001_Mesh
v 0.860000 -0.010000 0.240000
v 0.910652 0.028695 0.266286
v 0.840653 0.028695 0.282532
v 0.797390 0.028695 0.240000
v 0.840653 0.028695 0.197468
v 0.910652 0.028695 0.213714
v 0.879347 0.091305 0.282532
v 0.809348 0.091305 0.266286
v 0.809348 0.091305 0.213714
v 0.879347 0.091305 0.197468
v 0.922610 0.091305 0.240000
v 0.860000 0.130000 0.240000
vn 0.1633 -0.6917 0.7035
vn 0.6071 -0.7947 -0.0000
vn -0.4636 -0.7501 0.4716
vn -0.4636 -0.7501 -0.4716
vn 0.1633 -0.6917 -0.7035
vn 0.9822 -0.1876 -0.0000
vn 0.2239 -0.1384 0.9647
vn -0.6917 -0.1633 0.7035
vn -0.6917 -0.1633 -0.7035
vn 0.2239 -0.1384 -0.9647
vn 0.6917 0.1633 0.7035
vn -0.2239 0.1384 0.9647
vn -0.9822 0.1876 -0.0000
vn -0.2239 0.1384 -0.9647
vn 0.6917 0.1633 -0.7035
vn 0.4636 0.7501 0.4716
vn -0.1633 0.6917 0.7035
vn -0.6071 0.7947 -0.0000
vn -0.1633 0.6917 -0.7035
vn 0.4636 0.7501 -0.4716
vt 0.181819 0.000000
vt 0.272728 0.157461
vt 0.090910 0.157461
vt 0.363637 0.000000
vt 0.454546 0.157461
vt 0.909091 0.000000
vt 1.000000 0.157461
vt 0.818182 0.157461
vt 0.727273 0.000000
vt 0.636364 0.157461
vt 0.545455 0.000000
vt 0.363637 0.314921
vt 0.181819 0.314921
vt 0.909091 0.314921
vt 0.727273 0.314921
vt 0.545455 0.314921
vt 0.000000 0.314921
vt 0.272728 0.472382
vt 0.090910 0.472382
vt 0.818182 0.472382
vt 0.636364 0.472382
vt 0.454546 0.472382
s 0
g MeteorPlate_Rivet0.001_MAT_OldGold
usemtl MAT_OldGold
f 57/23/77 58/24/77 59/25/77
f 58/24/78 57/26/78 62/27/78
f 57/28/79 59/29/79 60/30/79
f 57/31/80 60/30/80 61/32/80
f 57/33/81 61/32/81 62/27/81
f 58/24/82 62/27/82 67/34/82
f 59/25/83 58/24/83 63/35/83
f 60/30/84 59/29/84 64/36/84
f 61/32/85 60/30/85 65/37/85
f 62/27/86 61/32/86 66/38/86
f 58/24/87 67/34/87 63/35/87
f 59/25/88 63/35/88 64/39/88
f 60/30/89 64/36/89 65/37/89
f 61/32/90 65/37/90 66/38/90
f 62/27/91 66/38/91 67/34/91
f 63/35/92 67/34/92 68/40/92
f 64/39/93 63/35/93 68/41/93
f 65/37/94 64/36/94 68/42/94
f 66/38/95 65/37/95 68/43/95
f 67/34/96 66/38/96 68/44/96
g MeteorPlate_Rivet1.001_Mesh
v 0.695755 0.530762 0.240000
v 0.746407 0.569457 0.266286
v 0.676408 0.569457 0.282532
v 0.633145 0.569457 0.240000
v 0.676408 0.569457 0.197468
v 0.746407 0.569457 0.213714
v 0.715102 0.632068 0.282532
v 0.645103 0.632068 0.266286
v 0.645103 0.632068 0.213714
v 0.715102 0.632068 0.197468
v 0.758364 0.632068 0.240000
v 0.695755 0.670762 0.240000
vn 0.1633 -0.6917 0.7035
vn 0.6071 -0.7947 -0.0000
vn -0.4636 -0.7501 0.4716
vn -0.4636 -0.7501 -0.4716
vn 0.1633 -0.6917 -0.7035
vn 0.9822 -0.1876 -0.0000
vn 0.2239 -0.1384 0.9647
vn -0.6917 -0.1633 0.7035
vn -0.6917 -0.1633 -0.7035
vn 0.2239 -0.1384 -0.9647
vn 0.6917 0.1633 0.7035
vn -0.2239 0.1384 0.9647
vn -0.9822 0.1876 -0.0000
vn -0.2239 0.1384 -0.9647
vn 0.6917 0.1633 -0.7035
vn 0.4636 0.7501 0.4716
vn -0.1633 0.6917 0.7035
vn -0.6071 0.7947 -0.0000
vn -0.1633 0.6917 -0.7035
vn 0.4636 0.7501 -0.4716
vt 0.181819 0.000000
vt 0.272728 0.157461
vt 0.090910 0.157461
vt 0.363637 0.000000
vt 0.454546 0.157461
vt 0.909091 0.000000
vt 1.000000 0.157461
vt 0.818182 0.157461
vt 0.727273 0.000000
vt 0.636364 0.157461
vt 0.545455 0.000000
vt 0.363637 0.314921
vt 0.181819 0.314921
vt 0.909091 0.314921
vt 0.727273 0.314921
vt 0.545455 0.314921
vt 0.000000 0.314921
vt 0.272728 0.472382
vt 0.090910 0.472382
vt 0.818182 0.472382
vt 0.636364 0.472382
vt 0.454546 0.472382
s 0
g MeteorPlate_Rivet1.001_MAT_OldGold
usemtl MAT_OldGold
f 69/45/97 70/46/97 71/47/97
f 70/46/98 69/48/98 74/49/98
f 69/50/99 71/51/99 72/52/99
f 69/53/100 72/52/100 73/54/100
f 69/55/101 73/54/101 74/49/101
f 70/46/102 74/49/102 79/56/102
f 71/47/103 70/46/103 75/57/103
f 72/52/104 71/51/104 76/58/104
f 73/54/105 72/52/105 77/59/105
f 74/49/106 73/54/106 78/60/106
f 70/46/107 79/56/107 75/57/107
f 71/47/108 75/57/108 76/61/108
f 72/52/109 76/58/109 77/59/109
f 73/54/110 77/59/110 78/60/110
f 74/49/111 78/60/111 79/56/111
f 75/57/112 79/56/112 80/62/112
f 76/61/113 75/57/113 80/63/113
f 77/59/114 76/58/114 80/64/114
f 78/60/115 77/59/115 80/65/115
f 79/56/116 78/60/116 80/66/116
g MeteorPlate_Rivet2.001_Mesh
v 0.265755 0.864972 0.240000
v 0.316407 0.903667 0.266286
v 0.246408 0.903667 0.282532
v 0.203145 0.903667 0.240000
v 0.246408 0.903667 0.197468
v 0.316407 0.903667 0.213714
v 0.285102 0.966277 0.282532
v 0.215103 0.966277 0.266286
v 0.215103 0.966277 0.213714
v 0.285102 0.966277 0.197468
v 0.328364 0.966277 0.240000
v 0.265755 1.004972 0.240000
vn 0.1633 -0.6917 0.7035
vn 0.6071 -0.7947 -0.0000
vn -0.4636 -0.7501 0.4716
vn -0.4636 -0.7501 -0.4716
vn 0.1633 -0.6917 -0.7035
vn 0.9822 -0.1876 -0.0000
vn 0.2239 -0.1384 0.9647
vn -0.6917 -0.1633 0.7035
vn -0.6917 -0.1633 -0.7035
vn 0.2239 -0.1384 -0.9647
vn 0.6917 0.1633 0.7035
vn -0.2239 0.1384 0.9647
vn -0.9822 0.1876 -0.0000
vn -0.2239 0.1384 -0.9647
vn 0.6917 0.1633 -0.7035
vn 0.4636 0.7501 0.4716
vn -0.1633 0.6917 0.7035
vn -0.6071 0.7947 -0.0000
vn -0.1633 0.6917 -0.7035
vn 0.4636 0.7501 -0.4716
vt 0.181819 0.000000
vt 0.272728 0.157461
vt 0.090910 0.157461
vt 0.363637 0.000000
vt 0.454546 0.157461
vt 0.909091 0.000000
vt 1.000000 0.157461
vt 0.818182 0.157461
vt 0.727273 0.000000
vt 0.636364 0.157461
vt 0.545455 0.000000
vt 0.363637 0.314921
vt 0.181819 0.314921
vt 0.909091 0.314921
vt 0.727273 0.314921
vt 0.545455 0.314921
vt 0.000000 0.314921
vt 0.272728 0.472382
vt 0.090910 0.472382
vt 0.818182 0.472382
vt 0.636364 0.472382
vt 0.454546 0.472382
s 0
g MeteorPlate_Rivet2.001_MAT_OldGold
usemtl MAT_OldGold
f 81/67/117 82/68/117 83/69/117
f 82/68/118 81/70/118 86/71/118
f 81/72/119 83/73/119 84/74/119
f 81/75/120 84/74/120 85/76/120
f 81/77/121 85/76/121 86/71/121
f 82/68/122 86/71/122 91/78/122
f 83/69/123 82/68/123 87/79/123
f 84/74/124 83/73/124 88/80/124
f 85/76/125 84/74/125 89/81/125
f 86/71/126 85/76/126 90/82/126
f 82/68/127 91/78/127 87/79/127
f 83/69/128 87/79/128 88/83/128
f 84/74/129 88/80/129 89/81/129
f 85/76/130 89/81/130 90/82/130
f 86/71/131 90/82/131 91/78/131
f 87/79/132 91/78/132 92/84/132
f 88/83/133 87/79/133 92/85/133
f 89/81/134 88/80/134 92/86/134
f 90/82/135 89/81/135 92/87/135
f 91/78/136 90/82/136 92/88/136
g MeteorPlate_Rivet3.001_Mesh
v -0.265755 0.864972 0.240000
v -0.215103 0.903667 0.266286
v -0.285102 0.903667 0.282532
v -0.328364 0.903667 0.240000
v -0.285102 0.903667 0.197468
v -0.215103 0.903667 0.213714
v -0.246408 0.966277 0.282532
v -0.316407 0.966277 0.266286
v -0.316407 0.966277 0.213714
v -0.246408 0.966277 0.197468
v -0.203145 0.966277 0.240000
v -0.265755 1.004972 0.240000
vn 0.1633 -0.6917 0.7035
vn 0.6071 -0.7947 -0.0000
vn -0.4636 -0.7501 0.4716
vn -0.4636 -0.7501 -0.4716
vn 0.1633 -0.6917 -0.7035
vn 0.9822 -0.1876 -0.0000
vn 0.2239 -0.1384 0.9647
vn -0.6917 -0.1633 0.7035
vn -0.6917 -0.1633 -0.7035
vn 0.2239 -0.1384 -0.9647
vn 0.6917 0.1633 0.7035
vn -0.2239 0.1384 0.9647
vn -0.9822 0.1876 -0.0000
vn -0.2239 0.1384 -0.9647
vn 0.6917 0.1633 -0.7035
vn 0.4636 0.7501 0.4716
vn -0.1633 0.6917 0.7035
vn -0.6071 0.7947 -0.0000
vn -0.1633 0.6917 -0.7035
vn 0.4636 0.7501 -0.4716
vt 0.181819 0.000000
vt 0.272728 0.157461
vt 0.090910 0.157461
vt 0.363637 0.000000
vt 0.454546 0.157461
vt 0.909091 0.000000
vt 1.000000 0.157461
vt 0.818182 0.157461
vt 0.727273 0.000000
vt 0.636364 0.157461
vt 0.545455 0.000000
vt 0.363637 0.314921
vt 0.181819 0.314921
vt 0.909091 0.314921
vt 0.727273 0.314921
vt 0.545455 0.314921
vt 0.000000 0.314921
vt 0.272728 0.472382
vt 0.090910 0.472382
vt 0.818182 0.472382
vt 0.636364 0.472382
vt 0.454546 0.472382
s 0
g MeteorPlate_Rivet3.001_MAT_OldGold
usemtl MAT_OldGold
f 93/89/137 94/90/137 95/91/137
f 94/90/138 93/92/138 98/93/138
f 93/94/139 95/95/139 96/96/139
f 93/97/140 96/96/140 97/98/140
f 93/99/141 97/98/141 98/93/141
f 94/90/142 98/93/142 103/100/142
f 95/91/143 94/90/143 99/101/143
f 96/96/144 95/95/144 100/102/144
f 97/98/145 96/96/145 101/103/145
f 98/93/146 97/98/146 102/104/146
f 94/90/147 103/100/147 99/101/147
f 95/91/148 99/101/148 100/105/148
f 96/96/149 100/102/149 101/103/149
f 97/98/150 101/103/150 102/104/150
f 98/93/151 102/104/151 103/100/151
f 99/101/152 103/100/152 104/106/152
f 100/105/153 99/101/153 104/107/153
f 101/103/154 100/102/154 104/108/154
f 102/104/155 101/103/155 104/109/155
f 103/100/156 102/104/156 104/110/156
g MeteorPlate_Rivet4.001_Mesh
v -0.695755 0.530762 0.240000
v -0.645103 0.569457 0.266286
v -0.715102 0.569457 0.282532
v -0.758364 0.569457 0.240000
v -0.715102 0.569457 0.197468
v -0.645103 0.569457 0.213714
v -0.676408 0.632068 0.282532
v -0.746407 0.632068 0.266286
v -0.746407 0.632068 0.213714
v -0.676408 0.632068 0.197468
v -0.633145 0.632068 0.240000
v -0.695755 0.670762 0.240000
vn 0.1633 -0.6917 0.7035
vn 0.6071 -0.7947 -0.0000
vn -0.4636 -0.7501 0.4716
vn -0.4636 -0.7501 -0.4716
vn 0.1633 -0.6917 -0.7035
vn 0.9822 -0.1876 -0.0000
vn 0.2239 -0.1384 0.9647
vn -0.6917 -0.1633 0.7035
vn -0.6917 -0.1633 -0.7035
vn 0.2239 -0.1384 -0.9647
vn 0.6917 0.1633 0.7035
vn -0.2239 0.1384 0.9647
vn -0.9822 0.1876 -0.0000
vn -0.2239 0.1384 -0.9647
vn 0.6917 0.1633 -0.7035
vn 0.4636 0.7501 0.4716
vn -0.1633 0.6917 0.7035
vn -0.6071 0.7947 -0.0000
vn -0.1633 0.6917 -0.7035
vn 0.4636 0.7501 -0.4716
vt 0.181819 0.000000
vt 0.272728 0.157461
vt 0.090910 0.157461
vt 0.363637 0.000000
vt 0.454546 0.157461
vt 0.909091 0.000000
vt 1.000000 0.157461
vt 0.818182 0.157461
vt 0.727273 0.000000
vt 0.636364 0.157461
vt 0.545455 0.000000
vt 0.363637 0.314921
vt 0.181819 0.314921
vt 0.909091 0.314921
vt 0.727273 0.314921
vt 0.545455 0.314921
vt 0.000000 0.314921
vt 0.272728 0.472382
vt 0.090910 0.472382
vt 0.818182 0.472382
vt 0.636364 0.472382
vt 0.454546 0.472382
s 0
g MeteorPlate_Rivet4.001_MAT_OldGold
usemtl MAT_OldGold
f 105/111/157 106/112/157 107/113/157
f 106/112/158 105/114/158 110/115/158
f 105/116/159 107/117/159 108/118/159
f 105/119/160 108/118/160 109/120/160
f 105/121/161 109/120/161 110/115/161
f 106/112/162 110/115/162 115/122/162
f 107/113/163 106/112/163 111/123/163
f 108/118/164 107/117/164 112/124/164
f 109/120/165 108/118/165 113/125/165
f 110/115/166 109/120/166 114/126/166
f 106/112/167 115/122/167 111/123/167
f 107/113/168 111/123/168 112/127/168
f 108/118/169 112/124/169 113/125/169
f 109/120/170 113/125/170 114/126/170
f 110/115/171 114/126/171 115/122/171
f 111/123/172 115/122/172 116/128/172
f 112/127/173 111/123/173 116/129/173
f 113/125/174 112/124/174 116/130/174
f 114/126/175 113/125/175 116/131/175
f 115/122/176 114/126/176 116/132/176
g MeteorPlate_Rivet5.001_Mesh
v -0.860000 -0.010000 0.240000
v -0.809348 0.028695 0.266286
v -0.879347 0.028695 0.282532
v -0.922610 0.028695 0.240000
v -0.879347 0.028695 0.197468
v -0.809348 0.028695 0.213714
v -0.840653 0.091305 0.282532
v -0.910652 0.091305 0.266286
v -0.910652 0.091305 0.213714
v -0.840653 0.091305 0.197468
v -0.797390 0.091305 0.240000
v -0.860000 0.130000 0.240000
vn 0.1633 -0.6917 0.7035
vn 0.6071 -0.7947 -0.0000
vn -0.4636 -0.7501 0.4716
vn -0.4636 -0.7501 -0.4716
vn 0.1633 -0.6917 -0.7035
vn 0.9822 -0.1876 -0.0000
vn 0.2239 -0.1384 0.9647
vn -0.6917 -0.1633 0.7035
vn -0.6917 -0.1633 -0.7035
vn 0.2239 -0.1384 -0.9647
vn 0.6917 0.1633 0.7035
vn -0.2239 0.1384 0.9647
vn -0.9822 0.1876 -0.0000
vn -0.2239 0.1384 -0.9647
vn 0.6917 0.1633 -0.7035
vn 0.4636 0.7501 0.4716
vn -0.1633 0.6917 0.7035
vn -0.6071 0.7947 -0.0000
vn -0.1633 0.6917 -0.7035
vn 0.4636 0.7501 -0.4716
vt 0.181819 0.000000
vt 0.272728 0.157461
vt 0.090910 0.157461
vt 0.363637 0.000000
vt 0.454546 0.157461
vt 0.909091 0.000000
vt 1.000000 0.157461
vt 0.818182 0.157461
vt 0.727273 0.000000
vt 0.636364 0.157461
vt 0.545455 0.000000
vt 0.363637 0.314921
vt 0.181819 0.314921
vt 0.909091 0.314921
vt 0.727273 0.314921
vt 0.545455 0.314921
vt 0.000000 0.314921
vt 0.272728 0.472382
vt 0.090910 0.472382
vt 0.818182 0.472382
vt 0.636364 0.472382
vt 0.454546 0.472382
s 0
g MeteorPlate_Rivet5.001_MAT_OldGold
usemtl MAT_OldGold
f 117/133/177 118/134/177 119/135/177
f 118/134/178 117/136/178 122/137/178
f 117/138/179 119/139/179 120/140/179
f 117/141/180 120/140/180 121/142/180
f 117/143/181 121/142/181 122/137/181
f 118/134/182 122/137/182 127/144/182
f 119/135/183 118/134/183 123/145/183
f 120/140/184 119/139/184 124/146/184
f 121/142/185 120/140/185 125/147/185
f 122/137/186 121/142/186 126/148/186
f 118/134/187 127/144/187 123/145/187
f 119/135/188 123/145/188 124/149/188
f 120/140/189 124/146/189 125/147/189
f 121/142/190 125/147/190 126/148/190
f 122/137/191 126/148/191 127/144/191
f 123/145/192 127/144/192 128/150/192
f 124/149/193 123/145/193 128/151/193
f 125/147/194 124/146/194 128/152/194
f 126/148/195 125/147/195 128/153/195
f 127/144/196 126/148/196 128/154/196
g MeteorPlate_Rivet6.001_Mesh
v -0.695755 -0.550762 0.240000
v -0.645103 -0.512067 0.266286
v -0.715102 -0.512067 0.282532
v -0.758364 -0.512067 0.240000
v -0.715102 -0.512067 0.197468
v -0.645103 -0.512067 0.213714
v -0.676408 -0.449457 0.282532
v -0.746407 -0.449457 0.266286
v -0.746407 -0.449457 0.213714
v -0.676408 -0.449457 0.197468
v -0.633145 -0.449457 0.240000
v -0.695755 -0.410762 0.240000
vn 0.1633 -0.6917 0.7035
vn 0.6071 -0.7947 -0.0000
vn -0.4636 -0.7501 0.4716
vn -0.4636 -0.7501 -0.4716
vn 0.1633 -0.6917 -0.7035
vn 0.9822 -0.1876 -0.0000
vn 0.2239 -0.1384 0.9647
vn -0.6917 -0.1633 0.7035
vn -0.6917 -0.1633 -0.7035
vn 0.2239 -0.1384 -0.9647
vn 0.6917 0.1633 0.7035
vn -0.2239 0.1384 0.9647
vn -0.9822 0.1876 -0.0000
vn -0.2239 0.1384 -0.9647
vn 0.6917 0.1633 -0.7035
vn 0.4636 0.7501 0.4716
vn -0.1633 0.6917 0.7035
vn -0.6071 0.7947 -0.0000
vn -0.1633 0.6917 -0.7035
vn 0.4636 0.7501 -0.4716
vt 0.181819 0.000000
vt 0.272728 0.157461
vt 0.090910 0.157461
vt 0.363637 0.000000
vt 0.454546 0.157461
vt 0.909091 0.000000
vt 1.000000 0.157461
vt 0.818182 0.157461
vt 0.727273 0.000000
vt 0.636364 0.157461
vt 0.545455 0.000000
vt 0.363637 0.314921
vt 0.181819 0.314921
vt 0.909091 0.314921
vt 0.727273 0.314921
vt 0.545455 0.314921
vt 0.000000 0.314921
vt 0.272728 0.472382
vt 0.090910 0.472382
vt 0.818182 0.472382
vt 0.636364 0.472382
vt 0.454546 0.472382
s 0
g MeteorPlate_Rivet6.001_MAT_OldGold
usemtl MAT_OldGold
f 129/155/197 130/156/197 131/157/197
f 130/156/198 129/158/198 134/159/198
f 129/160/199 131/161/199 132/162/199
f 129/163/200 132/162/200 133/164/200
f 129/165/201 133/164/201 134/159/201
f 130/156/202 134/159/202 139/166/202
f 131/157/203 130/156/203 135/167/203
f 132/162/204 131/161/204 136/168/204
f 133/164/205 132/162/205 137/169/205
f 134/159/206 133/164/206 138/170/206
f 130/156/207 139/166/207 135/167/207
f 131/157/208 135/167/208 136/171/208
f 132/162/209 136/168/209 137/169/209
f 133/164/210 137/169/210 138/170/210
f 134/159/211 138/170/211 139/166/211
f 135/167/212 139/166/212 140/172/212
f 136/171/213 135/167/213 140/173/213
f 137/169/214 136/168/214 140/174/214
f 138/170/215 137/169/215 140/175/215
f 139/166/216 138/170/216 140/176/216
g MeteorPlate_Rivet7.001_Mesh
v -0.265755 -0.884972 0.240000
v -0.215103 -0.846277 0.266286
v -0.285102 -0.846277 0.282532
v -0.328364 -0.846277 0.240000
v -0.285102 -0.846277 0.197468
v -0.215103 -0.846277 0.213714
v -0.246408 -0.783667 0.282532
v -0.316407 -0.783667 0.266286
v -0.316407 -0.783667 0.213714
v -0.246408 -0.783667 0.197468
v -0.203145 -0.783667 0.240000
v -0.265755 -0.744972 0.240000
vn 0.1633 -0.6917 0.7035
vn 0.6071 -0.7947 -0.0000
vn -0.4636 -0.7501 0.4716
vn -0.4636 -0.7501 -0.4716
vn 0.1633 -0.6917 -0.7035
vn 0.9822 -0.1876 -0.0000
vn 0.2239 -0.1384 0.9647
vn -0.6917 -0.1633 0.7035
vn -0.6917 -0.1633 -0.7035
vn 0.2239 -0.1384 -0.9647
vn 0.6917 0.1633 0.7035
vn -0.2239 0.1384 0.9647
vn -0.9822 0.1876 -0.0000
vn -0.2239 0.1384 -0.9647
vn 0.6917 0.1633 -0.7035
vn 0.4636 0.7501 0.4716
vn -0.1633 0.6917 0.7035
vn -0.6071 0.7947 -0.0000
vn -0.1633 0.6917 -0.7035
vn 0.4636 0.7501 -0.4716
vt 0.181819 0.000000
vt 0.272728 0.157461
vt 0.090910 0.157461
vt 0.363637 0.000000
vt 0.454546 0.157461
vt 0.909091 0.000000
vt 1.000000 0.157461
vt 0.818182 0.157461
vt 0.727273 0.000000
vt 0.636364 0.157461
vt 0.545455 0.000000
vt 0.363637 0.314921
vt 0.181819 0.314921
vt 0.909091 0.314921
vt 0.727273 0.314921
vt 0.545455 0.314921
vt 0.000000 0.314921
vt 0.272728 0.472382
vt 0.090910 0.472382
vt 0.818182 0.472382
vt 0.636364 0.472382
vt 0.454546 0.472382
s 0
g MeteorPlate_Rivet7.001_MAT_OldGold
usemtl MAT_OldGold
f 141/177/217 142/178/217 143/179/217
f 142/178/218 141/180/218 146/181/218
f 141/182/219 143/183/219 144/184/219
f 141/185/220 144/184/220 145/186/220
f 141/187/221 145/186/221 146/181/221
f 142/178/222 146/181/222 151/188/222
f 143/179/223 142/178/223 147/189/223
f 144/184/224 143/183/224 148/190/224
f 145/186/225 144/184/225 149/191/225
f 146/181/226 145/186/226 150/192/226
f 142/178/227 151/188/227 147/189/227
f 143/179/228 147/189/228 148/193/228
f 144/184/229 148/190/229 149/191/229
f 145/186/230 149/191/230 150/192/230
f 146/181/231 150/192/231 151/188/231
f 147/189/232 151/188/232 152/194/232
f 148/193/233 147/189/233 152/195/233
f 149/191/234 148/190/234 152/196/234
f 150/192/235 149/191/235 152/197/235
f 151/188/236 150/192/236 152/198/236
g MeteorPlate_Rivet8.001_Mesh
v 0.265755 -0.884972 0.240000
v 0.316407 -0.846277 0.266286
v 0.246408 -0.846277 0.282532
v 0.203145 -0.846277 0.240000
v 0.246408 -0.846277 0.197468
v 0.316407 -0.846277 0.213714
v 0.285102 -0.783667 0.282532
v 0.215103 -0.783667 0.266286
v 0.215103 -0.783667 0.213714
v 0.285102 -0.783667 0.197468
v 0.328364 -0.783667 0.240000
v 0.265755 -0.744972 0.240000
vn 0.1633 -0.6917 0.7035
vn 0.6071 -0.7947 -0.0000
vn -0.4636 -0.7501 0.4716
vn -0.4636 -0.7501 -0.4716
vn 0.1633 -0.6917 -0.7035
vn 0.9822 -0.1876 -0.0000
vn 0.2239 -0.1384 0.9647
vn -0.6917 -0.1633 0.7035
vn -0.6917 -0.1633 -0.7035
vn 0.2239 -0.1384 -0.9647
vn 0.6917 0.1633 0.7035
vn -0.2239 0.1384 0.9647
vn -0.9822 0.1876 -0.0000
vn -0.2239 0.1384 -0.9647
vn 0.6917 0.1633 -0.7035
vn 0.4636 0.7501 0.4716
vn -0.1633 0.6917 0.7035
vn -0.6071 0.7947 -0.0000
vn -0.1633 0.6917 -0.7035
vn 0.4636 0.7501 -0.4716
vt 0.181819 0.000000
vt 0.272728 0.157461
vt 0.090910 0.157461
vt 0.363637 0.000000
vt 0.454546 0.157461
vt 0.909091 0.000000
vt 1.000000 0.157461
vt 0.818182 0.157461
vt 0.727273 0.000000
vt 0.636364 0.157461
vt 0.545455 0.000000
vt 0.363637 0.314921
vt 0.181819 0.314921
vt 0.909091 0.314921
vt 0.727273 0.314921
vt 0.545455 0.314921
vt 0.000000 0.314921
vt 0.272728 0.472382
vt 0.090910 0.472382
vt 0.818182 0.472382
vt 0.636364 0.472382
vt 0.454546 0.472382
s 0
g MeteorPlate_Rivet8.001_MAT_OldGold
usemtl MAT_OldGold
f 153/199/237 154/200/237 155/201/237
f 154/200/238 153/202/238 158/203/238
f 153/204/239 155/205/239 156/206/239
f 153/207/240 156/206/240 157/208/240
f 153/209/241 157/208/241 158/203/241
f 154/200/242 158/203/242 163/210/242
f 155/201/243 154/200/243 159/211/243
f 156/206/244 155/205/244 160/212/244
f 157/208/245 156/206/245 161/213/245
f 158/203/246 157/208/246 162/214/246
f 154/200/247 163/210/247 159/211/247
f 155/201/248 159/211/248 160/215/248
f 156/206/249 160/212/249 161/213/249
f 157/208/250 161/213/250 162/214/250
f 158/203/251 162/214/251 163/210/251
f 159/211/252 163/210/252 164/216/252
f 160/215/253 159/211/253 164/217/253
f 161/213/254 160/212/254 164/218/254
f 162/214/255 161/213/255 164/219/255
f 163/210/256 162/214/256 164/220/256
g MeteorPlate_Rivet9.001_Mesh
v 0.695755 -0.550762 0.240000
v 0.746407 -0.512067 0.266286
v 0.676408 -0.512067 0.282532
v 0.633145 -0.512067 0.240000
v 0.676408 -0.512067 0.197468
v 0.746407 -0.512067 0.213714
v 0.715102 -0.449457 0.282532
v 0.645103 -0.449457 0.266286
v 0.645103 -0.449457 0.213714
v 0.715102 -0.449457 0.197468
v 0.758364 -0.449457 0.240000
v 0.695755 -0.410762 0.240000
vn 0.1633 -0.6917 0.7035
vn 0.6071 -0.7947 -0.0000
vn -0.4636 -0.7501 0.4716
vn -0.4636 -0.7501 -0.4716
vn 0.1633 -0.6917 -0.7035
vn 0.9822 -0.1876 -0.0000
vn 0.2239 -0.1384 0.9647
vn -0.6917 -0.1633 0.7035
vn -0.6917 -0.1633 -0.7035
vn 0.2239 -0.1384 -0.9647
vn 0.6917 0.1633 0.7035
vn -0.2239 0.1384 0.9647
vn -0.9822 0.1876 -0.0000
vn -0.2239 0.1384 -0.9647
vn 0.6917 0.1633 -0.7035
vn 0.4636 0.7501 0.4716
vn -0.1633 0.6917 0.7035
vn -0.6071 0.7947 -0.0000
vn -0.1633 0.6917 -0.7035
vn 0.4636 0.7501 -0.4716
vt 0.181819 0.000000
vt 0.272728 0.157461
vt 0.090910 0.157461
vt 0.363637 0.000000
vt 0.454546 0.157461
vt 0.909091 0.000000
vt 1.000000 0.157461
vt 0.818182 0.157461
vt 0.727273 0.000000
vt 0.636364 0.157461
vt 0.545455 0.000000
vt 0.363637 0.314921
vt 0.181819 0.314921
vt 0.909091 0.314921
vt 0.727273 0.314921
vt 0.545455 0.314921
vt 0.000000 0.314921
vt 0.272728 0.472382
vt 0.090910 0.472382
vt 0.818182 0.472382
vt 0.636364 0.472382
vt 0.454546 0.472382
s 0
g MeteorPlate_Rivet9.001_MAT_OldGold
usemtl MAT_OldGold
f 165/221/257 166/222/257 167/223/257
f 166/222/258 165/224/258 170/225/258
f 165/226/259 167/227/259 168/228/259
f 165/229/260 168/228/260 169/230/260
f 165/231/261 169/230/261 170/225/261
f 166/222/262 170/225/262 175/232/262
f 167/223/263 166/222/263 171/233/263
f 168/228/264 167/227/264 172/234/264
f 169/230/265 168/228/265 173/235/265
f 170/225/266 169/230/266 174/236/266
f 166/222/267 175/232/267 171/233/267
f 167/223/268 171/233/268 172/237/268
f 168/228/269 172/234/269 173/235/269
f 169/230/270 173/235/270 174/236/270
f 170/225/271 174/236/271 175/232/271
f 171/233/272 175/232/272 176/238/272
f 172/237/273 171/233/273 176/239/273
f 173/235/274 172/234/274 176/240/274
f 174/236/275 173/235/275 176/241/275
f 175/232/276 174/236/276 176/242/276
g MeteorPlate_Star.001_Mesh
v 0.013084 0.682201 0.280000
v -0.013084 0.682201 0.280000
v -0.080548 0.609589 0.320000
v -0.000000 0.670000 0.320000
v 0.080548 0.609589 0.320000
v 0.166916 0.237799 0.280000
v 0.208843 0.238959 0.320000
v 0.219973 0.198520 0.280000
v 0.651267 0.181550 0.320000
v 0.686951 0.157467 0.280000
v 0.680027 0.181480 0.280000
v 0.593728 0.224704 0.320000
v 0.313049 -0.097467 0.280000
v 0.233834 -0.103064 0.320000
v 0.290637 -0.158560 0.280000
v 0.429363 -0.661440 0.280000
v 0.367997 -0.589406 0.320000
v 0.409042 -0.674670 0.280000
v 0.030958 -0.365330 0.280000
v 0.000000 -0.288318 0.320000
v -0.030958 -0.365330 0.280000
v -0.409042 -0.674670 0.280000
v -0.367997 -0.589406 0.320000
v -0.429363 -0.661440 0.280000
v -0.290637 -0.158560 0.280000
v -0.233834 -0.103064 0.320000
v -0.313049 -0.097467 0.280000
v -0.593728 0.224704 0.320000
v -0.680027 0.181480 0.280000
v -0.686951 0.157467 0.280000
v -0.651267 0.181550 0.320000
v -0.166916 0.237799 0.280000
v -0.219973 0.198520 0.280000
v -0.208843 0.238959 0.320000
v 0.000000 0.670000 -0.080000
v -0.080548 0.609589 -0.080000
v -0.013084 0.682201 -0.040000
v 0.013084 0.682201 -0.040000
v 0.080548 0.609589 -0.080000
v 0.166916 0.237799 -0.040000
v 0.219973 0.198520 -0.040000
v 0.208843 0.238959 -0.080000
v 0.651267 0.181550 -0.080000
v 0.593728 0.224704 -0.080000
v 0.680027 0.181480 -0.040000
v 0.686951 0.157467 -0.040000
v 0.313049 -0.097467 -0.040000
v 0.290637 -0.158560 -0.040000
v 0.233834 -0.103064 -0.080000
v 0.429363 -0.661440 -0.040000
v 0.409042 -0.674670 -0.040000
v 0.367997 -0.589406 -0.080000
v 0.030958 -0.365330 -0.040000
v -0.030958 -0.365330 -0.040000
v 0.000000 -0.288318 -0.080000
v -0.409042 -0.674670 -0.040000
v -0.429363 -0.661440 -0.040000
v -0.367997 -0.589406 -0.080000
v -0.290637 -0.158560 -0.040000
v -0.313049 -0.097467 -0.040000
v -0.233834 -0.103064 -0.080000
v -0.593728 0.224704 -0.080000
v -0.651267 0.181550 -0.080000
v -0.686951 0.157467 -0.040000
v -0.680027 0.181480 -0.040000
v -0.166916 0.237799 -0.040000
v -0.208843 0.238959 -0.080000
v -0.219973 0.198520 -0.040000
vn 0.5993 0.7991 0.0477
vn 0.4996 0.6748 -0.5432
vn 0.5512 0.7349 0.3950
vn 0.4538 -0.1665 0.8754
vn 0.2139 -0.3286 0.9199
vn -0.0000 -0.4609 0.8874
vn -0.2139 -0.3286 0.9199
vn -0.4538 -0.1665 0.8754
vn -0.5512 0.7349 0.3950
vn -0.4996 0.6748 -0.5432
vn 0.5993 0.7991 -0.0477
vn 0.4996 0.6748 0.5432
vn 0.7907 0.2280 -0.5681
vn 0.4538 -0.1665 -0.8754
vn 0.2139 -0.3286 -0.9199
vn -0.0000 -0.4609 -0.8874
vn -0.2139 -0.3286 -0.9199
vn -0.4538 -0.1665 -0.8754
vn -0.5512 0.7349 -0.3950
vn -0.4996 0.6748 0.5432
vn 0.6682 0.2313 -0.7071
vn -0.0000 0.2841 -0.9588
vn 0.0262 0.7066 -0.7071
vn -0.0000 1.0000 -0.0000
vn 0.6682 0.2313 0.7071
vn 0.0262 0.7066 0.7071
vn 0.3983 -0.5842 0.7071
vn 0.3983 -0.5842 -0.7071
vn 0.6816 0.1880 0.7071
vn 0.6816 0.1880 -0.7071
vn -0.4478 -0.5473 0.7071
vn -0.4478 -0.5473 -0.7071
vn 0.4478 -0.5473 0.7071
vn 0.4478 -0.5473 -0.7071
vn -0.6816 0.1880 0.7071
vn -0.6816 0.1880 -0.7071
vn -0.3983 -0.5842 0.7071
vn -0.0000 0.2841 0.9588
vn -0.3983 -0.5842 -0.7071
vn -0.6682 0.2313 -0.7071
vn -0.0262 0.7066 -0.7071
vn -0.6682 0.2313 0.7071
vn -0.0262 0.7066 0.7071
vn 0.5950 0.8037 -0.0000
vn 0.9609 0.2770 -0.0000
vn 0.9388 -0.3444 -0.0000
vn 0.5456 -0.8380 -0.0000
vn -0.0000 -1.0000 -0.0000
vn -0.5456 -0.8380 -0.0000
vn -0.9388 -0.3444 -0.0000
vn -0.9609 0.2770 -0.0000
vn -0.5950 0.8037 -0.0000
vn 0.9450 0.3271 -0.0000
vn -0.0000 -0.0000 -1.0000
vn -0.0000 -0.0000 1.0000
vn -0.9450 0.3271 -0.0000
vn 0.0370 0.9993 -0.0000
vn 0.5633 -0.8262 -0.0000
vn 0.9640 0.2659 -0.0000
vn -0.6332 -0.7740 -0.0000
vn 0.6332 -0.7740 -0.0000
vn -0.9640 0.2659 -0.0000
vn -0.5633 -0.8262 -0.0000
vn -0.0370 0.9993 -0.0000
vn -0.0000 0.4825 0.8759
vn -0.5491 0.7322 0.4030
vn 0.7907 0.2280 0.5681
vn -0.7907 0.2280 0.5681
vn -0.5491 0.7322 -0.4030
vn -0.0000 0.4825 -0.8759
vn 0.5512 0.7349 -0.3950
vn -0.7907 0.2280 -0.5681
vn -0.0000 0.8321 0.5547
vn -0.0000 0.8321 -0.5547
s 0
g MeteorPlate_Star.001_MAT_SilverSteel
usemtl MAT_SilverSteel
f 178//277 180//277 181//277
f 182//278 183//278 184//278
f 185//279 187//279 188//279
f 189//280 190//280 191//280
f 192//281 193//281 194//281
f 195//282 196//282 197//282
f 198//283 199//283 200//283
f 201//284 202//284 203//284
f 205//285 207//285 204//285
f 208//286 209//286 210//286
f 211//287 213//287 215//287
f 216//288 217//288 218//288
f 219//289 221//289 222//289
f 223//290 224//290 225//290
f 226//291 227//291 228//291
f 229//292 230//292 231//292
f 232//293 233//293 234//293
f 235//294 236//294 237//294
f 239//295 241//295 238//295
f 242//296 243//296 244//296
f 181//297 182//297 177//297
f 185//298 181//298 180//298
f 188//299 184//299 183//299
f 215//300 219//300 211//300
f 216//301 215//301 214//301
f 217//302 220//302 218//302
f 185//303 189//303 186//303
f 223//304 219//304 222//304
f 193//305 191//305 190//305
f 224//306 228//306 225//306
f 193//307 195//307 194//307
f 229//308 228//308 227//308
f 199//309 197//309 196//309
f 230//310 234//310 231//310
f 199//311 201//311 200//311
f 235//312 234//312 233//312
f 179//300 207//300 180//300
f 207//313 203//313 202//313
f 239//314 212//314 211//314
f 236//315 239//315 237//315
f 208//316 179//316 178//316
f 204//317 209//317 205//317
f 212//318 242//318 213//318
f 244//319 238//319 241//319
f 214//300 178//300 177//300
f 217//320 182//320 184//320
f 222//321 187//321 186//321
f 224//322 189//322 191//322
f 227//323 192//323 194//323
f 197//324 229//324 195//324
f 233//325 198//325 200//325
f 236//326 201//326 203//326
f 241//327 206//327 205//327
f 242//328 209//328 208//328
f 182//329 214//329 177//329
f 181//330 188//330 183//330
f 180//331 190//331 185//331
f 180//331 193//331 190//331
f 180//331 196//331 193//331
f 180//331 199//331 196//331
f 180//331 202//331 199//331
f 180//331 207//331 202//331
f 179//330 210//330 204//330
f 178//332 242//332 208//332
f 187//333 217//333 184//333
f 189//334 222//334 186//334
f 192//335 224//335 191//335
f 195//336 227//336 194//336
f 198//337 230//337 197//337
f 201//338 233//338 200//338
f 206//339 236//339 203//339
f 209//340 241//340 205//340
f 211//330 219//330 225//330
f 215//331 218//331 220//331
f 211//330 225//330 228//330
f 211//330 228//330 231//330
f 211//330 231//330 234//330
f 211//330 234//330 237//330
f 211//330 237//330 239//330
f 212//331 238//331 243//331
f 181//341 177//341 178//341
f 178//342 179//342 180//342
f 185//343 186//343 187//343
f 205//344 206//344 207//344
f 211//345 212//345 213//345
f 213//346 214//346 215//346
f 219//347 220//347 221//347
f 239//348 240//348 241//348
f 181//297 183//297 182//297
f 185//331 188//331 181//331
f 188//299 187//299 184//299
f 215//349 220//349 219//349
f 216//301 218//301 215//301
f 217//302 221//302 220//302
f 185//303 190//303 189//303
f 223//304 225//304 219//304
f 193//305 192//305 191//305
f 224//306 226//306 228//306
f 193//307 196//307 195//307
f 229//308 231//308 228//308
f 199//309 198//309 197//309
f 230//310 232//310 234//310
f 199//311 202//311 201//311
f 235//312 237//312 234//312
f 179//350 204//350 207//350
f 207//313 206//313 203//313
f 239//330 238//330 212//330
f 236//315 240//315 239//315
f 208//316 210//316 179//316
f 204//317 210//317 209//317
f 212//318 243//318 242//318
f 244//319 243//319 238//319
f 214//300 213//300 178//300
f 217//320 216//320 182//320
f 222//321 221//321 187//321
f 224//322 223//322 189//322
f 227//323 226//323 192//323
f 197//324 230//324 229//324
f 233//325 232//325 198//325
f 236//326 235//326 201//326
f 241//327 240//327 206//327
f 242//328 244//328 209//328
f 182//329 216//329 214//329
f 178//332 213//332 242//332
f 187//333 221//333 217//333
f 189//334 223//334 222//334
f 192//335 226//335 224//335
f 195//336 229//336 227//336
f 198//337 232//337 230//337
f 201//338 235//338 233//338
f 206//339 240//339 236//339
f 209//340 244//340 241//340
