# Second Rite deterministic item batch 53-62
# Molten Manacle
mtllib item_batch_53_62.mtl
o molten_manacle
s off
v -0.631490 -0.360939 -0.030000
v -0.588182 -0.312468 -0.142583
v -0.501566 -0.215526 -0.142583
v -0.458258 -0.167055 -0.030000
v -0.501566 -0.215526 0.082583
v -0.588182 -0.312468 0.082583
v -0.402722 -0.565339 -0.030000
v -0.359414 -0.516869 -0.142583
v -0.272798 -0.419927 -0.142583
v -0.229490 -0.371456 -0.030000
v -0.272798 -0.419927 0.082583
v -0.359414 -0.516869 0.082583
v -0.544874 -0.263997 -0.030000
v -0.316106 -0.468398 -0.030000
v -0.345642 -0.594998 -0.030000
v -0.330874 -0.531698 -0.142583
v -0.301338 -0.405098 -0.142583
v -0.286570 -0.341797 -0.030000
v -0.301338 -0.405098 0.082583
v -0.330874 -0.531698 0.082583
v -0.046884 -0.664699 -0.030000
v -0.032116 -0.601399 -0.142583
v -0.002580 -0.474799 -0.142583
v 0.012188 -0.411499 -0.030000
v -0.002580 -0.474799 0.082583
v -0.032116 -0.601399 0.082583
v -0.316106 -0.468398 -0.030000
v -0.017348 -0.538099 -0.030000
v 0.017427 -0.663361 -0.030000
v 0.000039 -0.600730 -0.142583
v -0.034736 -0.475468 -0.142583
v -0.052123 -0.412836 -0.030000
v -0.034736 -0.475468 0.082583
v 0.000039 -0.600730 0.082583
v 0.313028 -0.581298 -0.030000
v 0.295640 -0.518667 -0.142583
v 0.260866 -0.393404 -0.142583
v 0.243478 -0.330773 -0.030000
v 0.260866 -0.393404 0.082583
v 0.295640 -0.518667 0.082583
v -0.017348 -0.538099 -0.030000
v 0.278253 -0.456035 -0.030000
v 0.368825 -0.549292 -0.030000
v 0.323539 -0.502664 -0.142583
v 0.232967 -0.409407 -0.142583
v 0.187681 -0.362779 -0.030000
v 0.232967 -0.409407 0.082583
v 0.323539 -0.502664 0.082583
v 0.588896 -0.335555 -0.030000
v 0.543610 -0.288927 -0.142583
v 0.453038 -0.195671 -0.142583
v 0.407752 -0.149043 -0.030000
v 0.453038 -0.195671 0.082583
v 0.543610 -0.288927 0.082583
v 0.278253 -0.456035 -0.030000
v 0.498324 -0.242299 -0.030000
v 0.623439 -0.277600 -0.030000
v 0.560882 -0.259950 -0.142583
v 0.435767 -0.224649 -0.142583
v 0.373209 -0.206998 -0.030000
v 0.435767 -0.224649 0.082583
v 0.560882 -0.259950 0.082583
v 0.714874 0.046466 -0.030000
v 0.652317 0.064116 -0.142583
v 0.527201 0.099418 -0.142583
v 0.464644 0.117068 -0.030000
v 0.527201 0.099418 0.082583
v 0.652317 0.064116 0.082583
v 0.498324 -0.242299 -0.030000
v 0.589759 0.081767 -0.030000
v 0.714874 0.117068 -0.030000
v 0.652317 0.099418 -0.142583
v 0.527201 0.064116 -0.142583
v 0.464644 0.046466 -0.030000
v 0.527201 0.064116 0.082583
v 0.652317 0.099418 0.082583
v 0.623439 0.441134 -0.030000
v 0.560882 0.423484 -0.142583
v 0.435767 0.388183 -0.142583
v 0.373209 0.370532 -0.030000
v 0.435767 0.388183 0.082583
v 0.560882 0.423484 0.082583
v 0.589759 0.081767 -0.030000
v 0.498324 0.405833 -0.030000
v 0.588896 0.499089 -0.030000
v 0.543610 0.452461 -0.142583
v 0.453038 0.359205 -0.142583
v 0.407752 0.312577 -0.030000
v 0.453038 0.359205 0.082583
v 0.543610 0.452461 0.082583
v 0.368825 0.712826 -0.030000
v 0.323539 0.666198 -0.142583
v 0.232967 0.572941 -0.142583
v 0.187681 0.526313 -0.030000
v 0.232967 0.572941 0.082583
v 0.323539 0.666198 0.082583
v 0.498324 0.405833 -0.030000
v 0.278253 0.619569 -0.030000
v 0.313028 0.744832 -0.030000
v 0.295640 0.682201 -0.142583
v 0.260866 0.556938 -0.142583
v 0.243478 0.494307 -0.030000
v 0.260866 0.556938 0.082583
v 0.295640 0.682201 0.082583
v 0.017427 0.826895 -0.030000
v 0.000039 0.764264 -0.142583
v -0.034736 0.639002 -0.142583
v -0.052123 0.576370 -0.030000
v -0.034736 0.639002 0.082583
v 0.000039 0.764264 0.082583
v 0.278253 0.619569 -0.030000
v -0.017348 0.701633 -0.030000
v -0.046884 0.828233 -0.030000
v -0.032116 0.764933 -0.142583
v -0.002580 0.638333 -0.142583
v 0.012188 0.575033 -0.030000
v -0.002580 0.638333 0.082583
v -0.032116 0.764933 0.082583
v -0.345642 0.758532 -0.030000
v -0.330874 0.695232 -0.142583
v -0.301338 0.568632 -0.142583
v -0.286570 0.505331 -0.030000
v -0.301338 0.568632 0.082583
v -0.330874 0.695232 0.082583
v -0.017348 0.701633 -0.030000
v -0.316106 0.631932 -0.030000
v -0.374874 -0.263997 -0.030000
v -0.459874 -0.263997 0.117224
v -0.629874 -0.263997 0.117224
v -0.714874 -0.263997 -0.030000
v -0.629874 -0.263997 -0.177224
v -0.459874 -0.263997 -0.177224
v -0.544874 -0.163997 -0.030000
v -0.544874 -0.363997 -0.030000
v -0.146106 0.631932 -0.030000
v -0.231106 0.631932 0.117224
v -0.401106 0.631932 0.117224
v -0.486106 0.631932 -0.030000
v -0.401106 0.631932 -0.177224
v -0.231106 0.631932 -0.177224
v -0.316106 0.731932 -0.030000
v -0.316106 0.531932 -0.030000
v -0.260241 -0.773233 -0.190000
v 0.199759 -0.773233 -0.190000
v 0.199759 -0.523233 -0.190000
v -0.260241 -0.523233 -0.190000
v -0.260241 -0.773233 0.130000
v 0.199759 -0.773233 0.130000
v 0.199759 -0.523233 0.130000
v -0.260241 -0.523233 0.130000
v -0.140241 -0.828233 0.110000
v 0.079759 -0.828233 0.110000
v 0.079759 -0.748233 0.110000
v -0.140241 -0.748233 0.110000
v -0.140241 -0.828233 0.190000
v 0.079759 -0.828233 0.190000
v 0.079759 -0.748233 0.190000
v -0.140241 -0.748233 0.190000
usemtl wrought_iron
f 13 2 1
f 14 7 8
f 1 2 8
f 1 8 7
f 13 3 2
f 14 8 9
f 2 3 9
f 2 9 8
f 13 4 3
f 14 9 10
f 3 4 10
f 3 10 9
f 13 5 4
f 14 10 11
f 4 5 11
f 4 11 10
f 13 6 5
f 14 11 12
f 5 6 12
f 5 12 11
f 13 1 6
f 14 12 7
f 6 1 7
f 6 7 12
f 27 16 15
f 28 21 22
f 15 16 22
f 15 22 21
f 27 17 16
f 28 22 23
f 16 17 23
f 16 23 22
f 27 18 17
f 28 23 24
f 17 18 24
f 17 24 23
f 27 19 18
f 28 24 25
f 18 19 25
f 18 25 24
f 27 20 19
f 28 25 26
f 19 20 26
f 19 26 25
f 27 15 20
f 28 26 21
f 20 15 21
f 20 21 26
f 41 30 29
f 42 35 36
f 29 30 36
f 29 36 35
f 41 31 30
f 42 36 37
f 30 31 37
f 30 37 36
f 41 32 31
f 42 37 38
f 31 32 38
f 31 38 37
f 41 33 32
f 42 38 39
f 32 33 39
f 32 39 38
f 41 34 33
f 42 39 40
f 33 34 40
f 33 40 39
f 41 29 34
f 42 40 35
f 34 29 35
f 34 35 40
f 55 44 43
f 56 49 50
f 43 44 50
f 43 50 49
f 55 45 44
f 56 50 51
f 44 45 51
f 44 51 50
f 55 46 45
f 56 51 52
f 45 46 52
f 45 52 51
f 55 47 46
f 56 52 53
f 46 47 53
f 46 53 52
f 55 48 47
f 56 53 54
f 47 48 54
f 47 54 53
f 55 43 48
f 56 54 49
f 48 43 49
f 48 49 54
f 69 58 57
f 70 63 64
f 57 58 64
f 57 64 63
f 69 59 58
f 70 64 65
f 58 59 65
f 58 65 64
f 69 60 59
f 70 65 66
f 59 60 66
f 59 66 65
f 69 61 60
f 70 66 67
f 60 61 67
f 60 67 66
f 69 62 61
f 70 67 68
f 61 62 68
f 61 68 67
f 69 57 62
f 70 68 63
f 62 57 63
f 62 63 68
f 83 72 71
f 84 77 78
f 71 72 78
f 71 78 77
f 83 73 72
f 84 78 79
f 72 73 79
f 72 79 78
f 83 74 73
f 84 79 80
f 73 74 80
f 73 80 79
f 83 75 74
f 84 80 81
f 74 75 81
f 74 81 80
f 83 76 75
f 84 81 82
f 75 76 82
f 75 82 81
f 83 71 76
f 84 82 77
f 76 71 77
f 76 77 82
f 97 86 85
f 98 91 92
f 85 86 92
f 85 92 91
f 97 87 86
f 98 92 93
f 86 87 93
f 86 93 92
f 97 88 87
f 98 93 94
f 87 88 94
f 87 94 93
f 97 89 88
f 98 94 95
f 88 89 95
f 88 95 94
f 97 90 89
f 98 95 96
f 89 90 96
f 89 96 95
f 97 85 90
f 98 96 91
f 90 85 91
f 90 91 96
f 111 100 99
f 112 105 106
f 99 100 106
f 99 106 105
f 111 101 100
f 112 106 107
f 100 101 107
f 100 107 106
f 111 102 101
f 112 107 108
f 101 102 108
f 101 108 107
f 111 103 102
f 112 108 109
f 102 103 109
f 102 109 108
f 111 104 103
f 112 109 110
f 103 104 110
f 103 110 109
f 111 99 104
f 112 110 105
f 104 99 105
f 104 105 110
f 125 114 113
f 126 119 120
f 113 114 120
f 113 120 119
f 125 115 114
f 126 120 121
f 114 115 121
f 114 121 120
f 125 116 115
f 126 121 122
f 115 116 122
f 115 122 121
f 125 117 116
f 126 122 123
f 116 117 123
f 116 123 122
f 125 118 117
f 126 123 124
f 117 118 124
f 117 124 123
f 125 113 118
f 126 124 119
f 118 113 119
f 118 119 124
usemtl wax
f 133 127 128
f 134 128 127
f 133 128 129
f 134 129 128
f 133 129 130
f 134 130 129
f 133 130 131
f 134 131 130
f 133 131 132
f 134 132 131
f 133 132 127
f 134 127 132
f 141 135 136
f 142 136 135
f 141 136 137
f 142 137 136
f 141 137 138
f 142 138 137
f 141 138 139
f 142 139 138
f 141 139 140
f 142 140 139
f 141 140 135
f 142 135 140
usemtl wrought_iron
f 143 146 145
f 143 145 144
f 147 148 149
f 147 149 150
f 143 144 148
f 143 148 147
f 146 150 149
f 146 149 145
f 143 147 150
f 143 150 146
f 144 145 149
f 144 149 148
usemtl ritual_gold
f 151 154 153
f 151 153 152
f 155 156 157
f 155 157 158
f 151 152 156
f 151 156 155
f 154 158 157
f 154 157 153
f 151 155 158
f 151 158 154
f 152 153 157
f 152 157 156
