# Blender 5.0.1
# www.blender.org
mtllib philosophers_stone.mtl
g Philosopher_Core.001_Mesh
v 0.000000 -0.840000 0.000000
v 0.520997 -0.375664 0.325950
v -0.198999 -0.375665 0.527403
v -0.643987 -0.375661 0.000000
v -0.198999 -0.375665 -0.527403
v 0.520997 -0.375664 -0.325950
v 0.198999 0.375665 0.527403
v -0.520997 0.375664 0.325950
v -0.520997 0.375664 -0.325950
v 0.198999 0.375665 -0.527403
v 0.643987 0.375661 0.000000
v 0.000000 0.840000 0.000000
v -0.116968 -0.714550 0.309997
v 0.306232 -0.714549 0.191587
v 0.189266 -0.441620 0.501587
v 0.612467 -0.441618 0.000000
v 0.306232 -0.714549 -0.191587
v -0.378525 -0.714547 0.000000
v -0.495496 -0.441618 0.309998
v -0.116968 -0.714550 -0.309997
v -0.495496 -0.441618 -0.309998
v 0.189266 -0.441620 -0.501587
v 0.684762 0.000000 0.191588
v 0.684762 0.000000 -0.191588
v 0.000000 0.000000 0.620000
v 0.423206 0.000000 0.501590
v -0.684762 0.000000 0.191588
v -0.423206 0.000000 0.501590
v -0.423206 0.000000 -0.501590
v -0.684762 0.000000 -0.191588
v 0.423206 0.000000 -0.501590
v 0.000000 0.000000 -0.620000
v 0.495496 0.441618 0.309998
v -0.189266 0.441620 0.501587
v -0.612467 0.441618 0.000000
v -0.189266 0.441620 -0.501587
v 0.495496 0.441618 -0.309998
v 0.116968 0.714550 0.309997
v 0.378525 0.714547 0.000000
v -0.306232 0.714549 0.191587
v -0.306232 0.714549 -0.191587
v 0.116968 0.714550 -0.309997
vn 0.1146 -0.9051 0.4095
vn 0.7345 -0.5949 0.3265
vn -0.3041 -0.9175 0.2565
vn -0.3041 -0.9175 -0.2565
vn 0.1146 -0.9051 -0.4095
vn 0.9068 -0.2837 0.3119
vn 0.0219 -0.2502 0.9680
vn -0.8872 -0.2824 0.3649
vn -0.5320 -0.2622 -0.8051
vn 0.4917 -0.2605 -0.8309
vn 0.7603 -0.1020 0.6415
vn -0.2682 -0.0942 0.9587
vn -0.9942 -0.1079 -0.0000
vn -0.2682 -0.0942 -0.9587
vn 0.7603 -0.1020 -0.6415
vn 0.4046 0.5612 0.7221
vn -0.4707 0.5665 0.6764
vn -0.7345 0.5949 -0.3265
vn 0.0371 0.5459 -0.8370
vn 0.7645 0.5988 -0.2388
vn 0.3041 0.9175 -0.2565
vn 0.5245 0.7274 -0.4425
vn 0.4046 0.5612 -0.7221
vn -0.1146 0.9051 -0.4095
vn -0.1926 0.6993 -0.6884
vn -0.4707 0.5665 -0.6764
vn -0.3791 0.9254 -0.0000
vn -0.6653 0.7465 -0.0000
vn -0.7345 0.5949 0.3265
vn -0.1146 0.9051 0.4095
vn -0.1926 0.6993 0.6884
vn 0.0371 0.5459 0.8370
vn 0.3041 0.9175 0.2565
vn 0.5245 0.7274 0.4425
vn 0.7645 0.5988 0.2388
vn 0.8872 0.2824 -0.3649
vn 0.7553 0.1528 -0.6373
vn 0.5320 0.2622 -0.8051
vn -0.0219 0.2502 -0.9680
vn -0.2667 0.1413 -0.9534
vn -0.4917 0.2605 -0.8309
vn -0.9068 0.2837 -0.3119
vn -0.9869 0.1616 -0.0000
vn -0.9068 0.2837 0.3119
vn -0.4917 0.2605 0.8309
vn -0.2667 0.1413 0.9534
vn -0.0219 0.2502 0.9680
vn 0.5320 0.2622 0.8051
vn 0.7553 0.1528 0.6373
vn 0.8872 0.2824 0.3649
vn 0.2682 0.0942 -0.9587
vn 0.2667 -0.1413 -0.9534
vn 0.0219 -0.2502 -0.9680
vn -0.7603 0.1020 -0.6415
vn -0.7553 -0.1528 -0.6373
vn -0.8872 -0.2824 -0.3649
vn -0.7603 0.1020 0.6415
vn -0.7553 -0.1528 0.6373
vn -0.5320 -0.2622 0.8051
vn 0.2682 0.0942 0.9587
vn 0.2667 -0.1413 0.9534
vn 0.4917 -0.2605 0.8309
vn 0.9942 0.1079 -0.0000
vn 0.9869 -0.1616 -0.0000
vn 0.9068 -0.2837 -0.3119
vn 0.4707 -0.5665 -0.6764
vn 0.1926 -0.6993 -0.6884
vn -0.0371 -0.5459 -0.8370
vn -0.4046 -0.5612 -0.7221
vn -0.5245 -0.7274 -0.4425
vn -0.7645 -0.5988 -0.2388
vn -0.7645 -0.5988 0.2388
vn -0.5245 -0.7274 0.4425
vn -0.4046 -0.5612 0.7221
vn 0.7345 -0.5949 -0.3265
vn 0.6653 -0.7465 -0.0000
vn 0.3791 -0.9254 -0.0000
vn -0.0371 -0.5459 0.8370
vn 0.1926 -0.6993 0.6884
vn 0.4707 -0.5665 0.6764
vt 0.181819 0.000000
vt 0.227273 0.078731
vt 0.136365 0.078731
vt 0.272728 0.157461
vt 0.318182 0.078731
vt 0.363637 0.157461
vt 0.909091 0.000000
vt 0.954545 0.078731
vt 0.863636 0.078731
vt 0.727273 0.000000
vt 0.772727 0.078731
vt 0.681818 0.078731
vt 0.545455 0.000000
vt 0.590909 0.078731
vt 0.500000 0.078731
vt 0.318182 0.236191
vt 0.090910 0.157461
vt 0.181819 0.157461
vt 0.136365 0.236191
vt 0.818182 0.157461
vt 0.909091 0.157461
vt 0.863636 0.236191
vt 0.636364 0.157461
vt 0.727273 0.157461
vt 0.681818 0.236191
vt 0.454546 0.157461
vt 0.545455 0.157461
vt 0.500000 0.236191
vt 0.227273 0.236191
vt 0.045455 0.236191
vt 0.772727 0.236191
vt 0.590909 0.236191
vt 0.409092 0.236191
vt 0.181819 0.314921
vt 0.272728 0.314921
vt 0.227273 0.393651
vt 0.000000 0.314921
vt 0.090910 0.314921
vt 0.045455 0.393651
vt 0.727273 0.314921
vt 0.818182 0.314921
vt 0.772727 0.393651
vt 0.545455 0.314921
vt 0.636364 0.314921
vt 0.590909 0.393651
vt 0.363637 0.314921
vt 0.454546 0.314921
vt 0.409092 0.393651
vt 0.500000 0.393651
vt 0.454546 0.472382
vt 0.681818 0.393651
vt 0.636364 0.472382
vt 0.863636 0.393651
vt 0.818182 0.472382
vt 0.909091 0.314921
vt 0.136365 0.393651
vt 0.090910 0.472382
vt 0.318182 0.393651
vt 0.272728 0.472382
vt 0.954545 0.236191
vt 1.000000 0.157461
vt 0.409092 0.078731
vt 0.363637 0.000000
s 0
g Philosopher_Core.001_MAT_Ruby
usemtl MAT_Ruby
f 1/1/1 14/2/1 13/3/1
f 2/4/2 14/5/2 16/6/2
f 1/7/3 13/8/3 18/9/3
f 1/10/4 18/11/4 20/12/4
f 1/13/5 20/14/5 17/15/5
f 2/4/6 16/6/6 23/16/6
f 3/17/7 15/18/7 25/19/7
f 4/20/8 19/21/8 27/22/8
f 5/23/9 21/24/9 29/25/9
f 6/26/10 22/27/10 31/28/10
f 2/4/11 23/16/11 26/29/11
f 3/17/12 25/19/12 28/30/12
f 4/20/13 27/22/13 30/31/13
f 5/23/14 29/25/14 32/32/14
f 6/26/15 31/28/15 24/33/15
f 7/34/16 33/35/16 38/36/16
f 8/37/17 34/38/17 40/39/17
f 9/40/18 35/41/18 41/42/18
f 10/43/19 36/44/19 42/45/19
f 11/46/20 37/47/20 39/48/20
f 39/48/21 42/49/21 12/50/21
f 39/48/22 37/47/22 42/49/22
f 37/47/23 10/43/23 42/49/23
f 42/45/24 41/51/24 12/52/24
f 42/45/25 36/44/25 41/51/25
f 36/44/26 9/40/26 41/51/26
f 41/42/27 40/53/27 12/54/27
f 41/42/28 35/41/28 40/53/28
f 35/41/29 8/55/29 40/53/29
f 40/39/30 38/56/30 12/57/30
f 40/39/31 34/38/31 38/56/31
f 34/38/32 7/34/32 38/56/32
f 38/36/33 39/58/33 12/59/33
f 38/36/34 33/35/34 39/58/34
f 33/35/35 11/46/35 39/58/35
f 24/33/36 37/47/36 11/46/36
f 24/33/37 31/28/37 37/47/37
f 31/28/38 10/43/38 37/47/38
f 32/32/39 36/44/39 10/43/39
f 32/32/40 29/25/40 36/44/40
f 29/25/41 9/40/41 36/44/41
f 30/31/42 35/41/42 9/40/42
f 30/31/43 27/22/43 35/41/43
f 27/22/44 8/55/44 35/41/44
f 28/30/45 34/38/45 8/37/45
f 28/30/46 25/19/46 34/38/46
f 25/19/47 7/34/47 34/38/47
f 26/29/48 33/35/48 7/34/48
f 26/29/49 23/16/49 33/35/49
f 23/16/50 11/46/50 33/35/50
f 31/28/51 32/32/51 10/43/51
f 31/28/52 22/27/52 32/32/52
f 22/27/53 5/23/53 32/32/53
f 29/25/54 30/31/54 9/40/54
f 29/25/55 21/24/55 30/31/55
f 21/24/56 4/20/56 30/31/56
f 27/22/57 28/60/57 8/55/57
f 27/22/58 19/21/58 28/60/58
f 19/21/59 3/61/59 28/60/59
f 25/19/60 26/29/60 7/34/60
f 25/19/61 15/18/61 26/29/61
f 15/18/62 2/4/62 26/29/62
f 23/16/63 24/33/63 11/46/63
f 23/16/64 16/6/64 24/33/64
f 16/6/65 6/26/65 24/33/65
f 17/15/66 22/27/66 6/26/66
f 17/15/67 20/14/67 22/27/67
f 20/14/68 5/23/68 22/27/68
f 20/12/69 21/24/69 5/23/69
f 20/12/70 18/11/70 21/24/70
f 18/11/71 4/20/71 21/24/71
f 18/9/72 19/21/72 4/20/72
f 18/9/73 13/8/73 19/21/73
f 13/8/74 3/61/74 19/21/74
f 16/6/75 17/62/75 6/26/75
f 16/6/76 14/5/76 17/62/76
f 14/5/77 1/63/77 17/62/77
f 13/3/78 15/18/78 3/17/78
f 13/3/79 14/2/79 15/18/79
f 14/2/80 2/4/80 15/18/80
g Philosopher_Node0.001_Mesh
v 0.980000 -0.120000 0.000000
v 1.066832 -0.053666 0.052572
v 0.946833 -0.053666 0.085064
v 0.872669 -0.053666 0.000000
v 0.946833 -0.053666 -0.085064
v 1.066832 -0.053666 -0.052572
v 1.013166 0.053666 0.085064
v 0.893168 0.053666 0.052572
v 0.893168 0.053666 -0.052572
v 1.013166 0.053666 -0.085064
v 1.087331 0.053666 0.000000
v 0.980000 0.120000 0.000000
vn 0.1752 -0.7421 0.6470
vn 0.6071 -0.7947 -0.0000
vn -0.4779 -0.7733 0.4167
vn -0.4779 -0.7733 -0.4167
vn 0.1752 -0.7421 -0.6470
vn 0.9822 -0.1876 -0.0000
vn 0.2580 -0.1595 0.9529
vn -0.7421 -0.1752 0.6470
vn -0.7421 -0.1752 -0.6470
vn 0.2580 -0.1595 -0.9529
vn 0.7421 0.1752 0.6470
vn -0.2580 0.1595 0.9529
vn -0.9822 0.1876 -0.0000
vn -0.2580 0.1595 -0.9529
vn 0.7421 0.1752 -0.6470
vn 0.4779 0.7733 0.4167
vn -0.1752 0.7421 0.6470
vn -0.6071 0.7947 -0.0000
vn -0.1752 0.7421 -0.6470
vn 0.4779 0.7733 -0.4167
vt 0.181819 0.000000
vt 0.272728 0.157461
vt 0.090910 0.157461
vt 0.363637 0.000000
vt 0.454546 0.157461
vt 0.909091 0.000000
vt 1.000000 0.157461
vt 0.818182 0.157461
vt 0.727273 0.000000
vt 0.636364 0.157461
vt 0.545455 0.000000
vt 0.363637 0.314921
vt 0.181819 0.314921
vt 0.909091 0.314921
vt 0.727273 0.314921
vt 0.545455 0.314921
vt 0.000000 0.314921
vt 0.272728 0.472382
vt 0.090910 0.472382
vt 0.818182 0.472382
vt 0.636364 0.472382
vt 0.454546 0.472382
s 0
g Philosopher_Node0.001_MAT_Pearl
usemtl MAT_Pearl
f 43/64/81 44/65/81 45/66/81
f 44/65/82 43/67/82 48/68/82
f 43/69/83 45/70/83 46/71/83
f 43/72/84 46/71/84 47/73/84
f 43/74/85 47/73/85 48/68/85
f 44/65/86 48/68/86 53/75/86
f 45/66/87 44/65/87 49/76/87
f 46/71/88 45/70/88 50/77/88
f 47/73/89 46/71/89 51/78/89
f 48/68/90 47/73/90 52/79/90
f 44/65/91 53/75/91 49/76/91
f 45/66/92 49/76/92 50/80/92
f 46/71/93 50/77/93 51/78/93
f 47/73/94 51/78/94 52/79/94
f 48/68/95 52/79/95 53/75/95
f 49/76/96 53/75/96 54/81/96
f 50/80/97 49/76/97 54/82/97
f 51/78/98 50/77/98 54/83/98
f 52/79/99 51/78/99 54/84/99
f 53/75/100 52/79/100 54/85/100
g Philosopher_Node1.001_Mesh
v 0.000000 0.860000 0.000000
v 0.086832 0.926334 0.052572
v -0.033166 0.926334 0.085064
v -0.107331 0.926334 0.000000
v -0.033166 0.926334 -0.085064
v 0.086832 0.926334 -0.052572
v 0.033166 1.033666 0.085064
v -0.086832 1.033666 0.052572
v -0.086832 1.033666 -0.052572
v 0.033166 1.033666 -0.085064
v 0.107331 1.033666 0.000000
v 0.000000 1.100000 0.000000
vn 0.1752 -0.7421 0.6470
vn 0.6071 -0.7947 -0.0000
vn -0.4779 -0.7733 0.4167
vn -0.4779 -0.7733 -0.4167
vn 0.1752 -0.7421 -0.6470
vn 0.9822 -0.1876 -0.0000
vn 0.2580 -0.1595 0.9529
vn -0.7421 -0.1752 0.6470
vn -0.7421 -0.1752 -0.6470
vn 0.2580 -0.1595 -0.9529
vn 0.7421 0.1752 0.6470
vn -0.2580 0.1595 0.9529
vn -0.9822 0.1876 -0.0000
vn -0.2580 0.1595 -0.9529
vn 0.7421 0.1752 -0.6470
vn 0.4779 0.7733 0.4167
vn -0.1752 0.7421 0.6470
vn -0.6071 0.7947 -0.0000
vn -0.1752 0.7421 -0.6470
vn 0.4779 0.7733 -0.4167
vt 0.181819 0.000000
vt 0.272728 0.157461
vt 0.090910 0.157461
vt 0.363637 0.000000
vt 0.454546 0.157461
vt 0.909091 0.000000
vt 1.000000 0.157461
vt 0.818182 0.157461
vt 0.727273 0.000000
vt 0.636364 0.157461
vt 0.545455 0.000000
vt 0.363637 0.314921
vt 0.181819 0.314921
vt 0.909091 0.314921
vt 0.727273 0.314921
vt 0.545455 0.314921
vt 0.000000 0.314921
vt 0.272728 0.472382
vt 0.090910 0.472382
vt 0.818182 0.472382
vt 0.636364 0.472382
vt 0.454546 0.472382
s 0
g Philosopher_Node1.001_MAT_Pearl
usemtl MAT_Pearl
f 55/86/101 56/87/101 57/88/101
f 56/87/102 55/89/102 60/90/102
f 55/91/103 57/92/103 58/93/103
f 55/94/104 58/93/104 59/95/104
f 55/96/105 59/95/105 60/90/105
f 56/87/106 60/90/106 65/97/106
f 57/88/107 56/87/107 61/98/107
f 58/93/108 57/92/108 62/99/108
f 59/95/109 58/93/109 63/100/109
f 60/90/110 59/95/110 64/101/110
f 56/87/111 65/97/111 61/98/111
f 57/88/112 61/98/112 62/102/112
f 58/93/113 62/99/113 63/100/113
f 59/95/114 63/100/114 64/101/114
f 60/90/115 64/101/115 65/97/115
f 61/98/116 65/97/116 66/103/116
f 62/102/117 61/98/117 66/104/117
f 63/100/118 62/99/118 66/105/118
f 64/101/119 63/100/119 66/106/119
f 65/97/120 64/101/120 66/107/120
g Philosopher_Node2.001_Mesh
v -0.980000 -0.120000 0.000000
v -0.893168 -0.053666 0.052572
v -1.013166 -0.053666 0.085064
v -1.087331 -0.053666 0.000000
v -1.013166 -0.053666 -0.085064
v -0.893168 -0.053666 -0.052572
v -0.946833 0.053666 0.085064
v -1.066832 0.053666 0.052572
v -1.066832 0.053666 -0.052572
v -0.946833 0.053666 -0.085064
v -0.872669 0.053666 0.000000
v -0.980000 0.120000 0.000000
vn 0.1752 -0.7421 0.6470
vn 0.6071 -0.7947 -0.0000
vn -0.4779 -0.7733 0.4167
vn -0.4779 -0.7733 -0.4167
vn 0.1752 -0.7421 -0.6470
vn 0.9822 -0.1876 -0.0000
vn 0.2580 -0.1595 0.9529
vn -0.7421 -0.1752 0.6470
vn -0.7421 -0.1752 -0.6470
vn 0.2580 -0.1595 -0.9529
vn 0.7421 0.1752 0.6470
vn -0.2580 0.1595 0.9529
vn -0.9822 0.1876 -0.0000
vn -0.2580 0.1595 -0.9529
vn 0.7421 0.1752 -0.6470
vn 0.4779 0.7733 0.4167
vn -0.1752 0.7421 0.6470
vn -0.6071 0.7947 -0.0000
vn -0.1752 0.7421 -0.6470
vn 0.4779 0.7733 -0.4167
vt 0.181819 0.000000
vt 0.272728 0.157461
vt 0.090910 0.157461
vt 0.363637 0.000000
vt 0.454546 0.157461
vt 0.909091 0.000000
vt 1.000000 0.157461
vt 0.818182 0.157461
vt 0.727273 0.000000
vt 0.636364 0.157461
vt 0.545455 0.000000
vt 0.363637 0.314921
vt 0.181819 0.314921
vt 0.909091 0.314921
vt 0.727273 0.314921
vt 0.545455 0.314921
vt 0.000000 0.314921
vt 0.272728 0.472382
vt 0.090910 0.472382
vt 0.818182 0.472382
vt 0.636364 0.472382
vt 0.454546 0.472382
s 0
g Philosopher_Node2.001_MAT_Pearl
usemtl MAT_Pearl
f 67/108/121 68/109/121 69/110/121
f 68/109/122 67/111/122 72/112/122
f 67/113/123 69/114/123 70/115/123
f 67/116/124 70/115/124 71/117/124
f 67/118/125 71/117/125 72/112/125
f 68/109/126 72/112/126 77/119/126
f 69/110/127 68/109/127 73/120/127
f 70/115/128 69/114/128 74/121/128
f 71/117/129 70/115/129 75/122/129
f 72/112/130 71/117/130 76/123/130
f 68/109/131 77/119/131 73/120/131
f 69/110/132 73/120/132 74/124/132
f 70/115/133 74/121/133 75/122/133
f 71/117/134 75/122/134 76/123/134
f 72/112/135 76/123/135 77/119/135
f 73/120/136 77/119/136 78/125/136
f 74/124/137 73/120/137 78/126/137
f 75/122/138 74/121/138 78/127/138
f 76/123/139 75/122/139 78/128/139
f 77/119/140 76/123/140 78/129/140
g Philosopher_Node3.001_Mesh
v 0.000000 -1.100000 0.000000
v 0.086832 -1.033666 0.052572
v -0.033166 -1.033666 0.085064
v -0.107331 -1.033666 0.000000
v -0.033166 -1.033666 -0.085064
v 0.086832 -1.033666 -0.052572
v 0.033166 -0.926334 0.085064
v -0.086832 -0.926334 0.052572
v -0.086832 -0.926334 -0.052572
v 0.033166 -0.926334 -0.085064
v 0.107331 -0.926334 0.000000
v 0.000000 -0.860000 0.000000
vn 0.1752 -0.7421 0.6470
vn 0.6071 -0.7947 -0.0000
vn -0.4779 -0.7733 0.4167
vn -0.4779 -0.7733 -0.4167
vn 0.1752 -0.7421 -0.6470
vn 0.9822 -0.1876 -0.0000
vn 0.2580 -0.1595 0.9529
vn -0.7421 -0.1752 0.6470
vn -0.7421 -0.1752 -0.6470
vn 0.2580 -0.1595 -0.9529
vn 0.7421 0.1752 0.6470
vn -0.2580 0.1595 0.9529
vn -0.9822 0.1876 -0.0000
vn -0.2580 0.1595 -0.9529
vn 0.7421 0.1752 -0.6470
vn 0.4779 0.7733 0.4167
vn -0.1752 0.7421 0.6470
vn -0.6071 0.7947 -0.0000
vn -0.1752 0.7421 -0.6470
vn 0.4779 0.7733 -0.4167
vt 0.181819 0.000000
vt 0.272728 0.157461
vt 0.090910 0.157461
vt 0.363637 0.000000
vt 0.454546 0.157461
vt 0.909091 0.000000
vt 1.000000 0.157461
vt 0.818182 0.157461
vt 0.727273 0.000000
vt 0.636364 0.157461
vt 0.545455 0.000000
vt 0.363637 0.314921
vt 0.181819 0.314921
vt 0.909091 0.314921
vt 0.727273 0.314921
vt 0.545455 0.314921
vt 0.000000 0.314921
vt 0.272728 0.472382
vt 0.090910 0.472382
vt 0.818182 0.472382
vt 0.636364 0.472382
vt 0.454546 0.472382
s 0
g Philosopher_Node3.001_MAT_Pearl
usemtl MAT_Pearl
f 79/130/141 80/131/141 81/132/141
f 80/131/142 79/133/142 84/134/142
f 79/135/143 81/136/143 82/137/143
f 79/138/144 82/137/144 83/139/144
f 79/140/145 83/139/145 84/134/145
f 80/131/146 84/134/146 89/141/146
f 81/132/147 80/131/147 85/142/147
f 82/137/148 81/136/148 86/143/148
f 83/139/149 82/137/149 87/144/149
f 84/134/150 83/139/150 88/145/150
f 80/131/151 89/141/151 85/142/151
f 81/132/152 85/142/152 86/146/152
f 82/137/153 86/143/153 87/144/153
f 83/139/154 87/144/154 88/145/154
f 84/134/155 88/145/155 89/141/155
f 85/142/156 89/141/156 90/147/156
f 86/146/157 85/142/157 90/148/157
f 87/144/158 86/143/158 90/149/158
f 88/145/159 87/144/159 90/150/159
f 89/141/160 88/145/160 90/151/160
g Philosopher_RingX.001_Mesh
v 1.050000 0.000000 0.000000
v 0.980000 0.000000 0.070000
v 0.910000 0.000000 0.000000
v 0.980000 -0.000000 -0.070000
v 0.986677 0.359121 -0.000000
v 0.920899 0.335180 0.070000
v 0.855120 0.311238 -0.000000
v 0.920899 0.335180 -0.070000
v 0.804347 0.674927 -0.000000
v 0.750723 0.629932 0.070000
v 0.697100 0.584937 -0.000000
v 0.750723 0.629932 -0.070000
v 0.525000 0.909327 -0.000000
v 0.490000 0.848705 0.070000
v 0.455000 0.788083 -0.000000
v 0.490000 0.848705 -0.070000
v 0.182331 1.034048 -0.000000
v 0.170175 0.965112 0.070000
v 0.158020 0.896175 -0.000000
v 0.170175 0.965112 -0.070000
v -0.182330 1.034048 -0.000000
v -0.170175 0.965112 0.070000
v -0.158020 0.896175 -0.000000
v -0.170175 0.965112 -0.070000
v -0.525000 0.909327 -0.000000
v -0.490000 0.848705 0.070000
v -0.455000 0.788083 -0.000000
v -0.490000 0.848705 -0.070000
v -0.804347 0.674927 -0.000000
v -0.750723 0.629932 0.070000
v -0.697100 0.584937 -0.000000
v -0.750723 0.629932 -0.070000
v -0.986677 0.359122 -0.000000
v -0.920899 0.335180 0.070000
v -0.855120 0.311239 -0.000000
v -0.920899 0.335180 -0.070000
v -1.050000 0.000000 -0.000000
v -0.980000 0.000000 0.070000
v -0.910000 0.000000 -0.000000
v -0.980000 0.000000 -0.070000
v -0.986677 -0.359121 0.000000
v -0.920899 -0.335180 0.070000
v -0.855120 -0.311238 0.000000
v -0.920899 -0.335180 -0.070000
v -0.804347 -0.674927 0.000000
v -0.750724 -0.629932 0.070000
v -0.697101 -0.584937 0.000000
v -0.750724 -0.629932 -0.070000
v -0.525000 -0.909327 0.000000
v -0.490000 -0.848705 0.070000
v -0.455000 -0.788083 0.000000
v -0.490000 -0.848705 -0.070000
v -0.182330 -1.034048 0.000000
v -0.170175 -0.965112 0.070000
v -0.158020 -0.896175 0.000000
v -0.170175 -0.965112 -0.070000
v 0.182331 -1.034048 0.000000
v 0.170175 -0.965112 0.070000
v 0.158020 -0.896175 0.000000
v 0.170175 -0.965112 -0.070000
v 0.525000 -0.909327 0.000000
v 0.490000 -0.848705 0.070000
v 0.455000 -0.788083 0.000000
v 0.490000 -0.848705 -0.070000
v 0.804347 -0.674927 0.000000
v 0.750723 -0.629932 0.070000
v 0.697100 -0.584937 0.000000
v 0.750723 -0.629932 -0.070000
v 0.986677 -0.359121 0.000000
v 0.920899 -0.335180 0.070000
v 0.855120 -0.311238 0.000000
v 0.920899 -0.335180 -0.070000
vn 0.7017 0.1237 0.7017
vn -0.7017 -0.1237 0.7017
vn -0.7017 -0.1237 -0.7017
vn 0.7017 0.1237 -0.7017
vn 0.6170 0.3562 0.7017
vn -0.6170 -0.3562 0.7017
vn -0.6170 -0.3562 -0.7017
vn 0.6170 0.3562 -0.7017
vn 0.4580 0.5458 0.7017
vn -0.4580 -0.5458 0.7017
vn -0.4580 -0.5458 -0.7017
vn 0.4580 0.5458 -0.7017
vn 0.2437 0.6695 0.7017
vn -0.2437 -0.6695 0.7017
vn -0.2437 -0.6695 -0.7017
vn 0.2437 0.6695 -0.7017
vn -0.0000 0.7125 0.7017
vn -0.0000 -0.7125 0.7017
vn -0.0000 -0.7125 -0.7017
vn -0.0000 0.7125 -0.7017
vn -0.2437 0.6695 0.7017
vn 0.2437 -0.6695 0.7017
vn 0.2437 -0.6695 -0.7017
vn -0.2437 0.6695 -0.7017
vn -0.4580 0.5458 0.7017
vn 0.4580 -0.5458 0.7017
vn 0.4580 -0.5458 -0.7017
vn -0.4580 0.5458 -0.7017
vn -0.6170 0.3562 0.7017
vn 0.6170 -0.3562 0.7017
vn 0.6170 -0.3562 -0.7017
vn -0.6170 0.3562 -0.7017
vn -0.7017 0.1237 0.7017
vn 0.7017 -0.1237 0.7017
vn 0.7017 -0.1237 -0.7017
vn -0.7017 0.1237 -0.7017
vt 0.555556 0.500000
vt 0.500000 0.750000
vt 0.500000 0.500000
vt 0.555556 1.000000
vt 0.500000 1.000000
vt 0.555556 0.000000
vt 0.500000 0.250000
vt 0.500000 0.000000
vt 0.555556 0.250000
vt 0.611111 0.750000
vt 0.555556 0.750000
vt 0.611111 0.000000
vt 0.611111 0.250000
vt 0.611111 0.500000
vt 0.666667 0.750000
vt 0.611111 1.000000
vt 0.666667 0.250000
vt 0.722222 0.500000
vt 0.666667 0.500000
vt 0.722222 1.000000
vt 0.666667 1.000000
vt 0.666667 0.000000
vt 0.722222 0.250000
vt 0.777778 0.750000
vt 0.722222 0.750000
vt 0.777778 0.000000
vt 0.722222 0.000000
vt 0.777778 0.250000
vt 0.833333 0.500000
vt 0.777778 0.500000
vt 0.833333 1.000000
vt 0.777778 1.000000
vt 0.833333 0.000000
vt 0.833333 0.250000
vt 0.888889 0.500000
vt 0.833333 0.750000
vt 0.888889 0.750000
vt 0.888889 0.000000
vt 0.944444 0.500000
vt 0.944444 1.000000
vt 0.888889 1.000000
vt 0.944444 0.000000
vt 0.888889 0.250000
vt 1.000000 0.750000
vt 0.944444 0.750000
vt 1.000000 0.250000
vt 0.944444 0.250000
vt 0.055556 0.500000
vt 0.000000 0.750000
vt 0.000000 0.500000
vt 0.055556 1.000000
vt 0.000000 1.000000
vt 0.055556 0.000000
vt 0.000000 0.250000
vt 0.000000 0.000000
vt 0.055556 0.250000
vt 0.111111 0.500000
vt 0.055556 0.750000
vt 0.111111 0.750000
vt 0.111111 0.000000
vt 0.111111 0.250000
vt 0.166667 0.500000
vt 0.166667 1.000000
vt 0.111111 1.000000
vt 0.166667 0.000000
vt 0.166667 0.250000
vt 0.222222 0.500000
vt 0.166667 0.750000
vt 0.222222 0.750000
vt 0.222222 0.250000
vt 0.277778 0.500000
vt 0.277778 0.750000
vt 0.222222 1.000000
vt 0.222222 0.000000
vt 0.277778 0.250000
vt 0.333333 0.500000
vt 0.333333 1.000000
vt 0.277778 1.000000
vt 0.333333 0.000000
vt 0.277778 0.000000
vt 0.388889 0.500000
vt 0.333333 0.750000
vt 0.388889 1.000000
vt 0.388889 0.000000
vt 0.333333 0.250000
vt 0.444444 0.500000
vt 0.388889 0.750000
vt 0.444444 1.000000
vt 0.444444 0.000000
vt 0.388889 0.250000
vt 0.444444 0.250000
vt 0.444444 0.750000
vt 1.000000 0.500000
vt 1.000000 1.000000
vt 1.000000 0.000000
s 0
g Philosopher_RingX.001_MAT_BrightGold
usemtl MAT_BrightGold
f 95/152/161 92/153/161 91/154/161
f 92/153/162 97/155/162 93/156/162
f 97/157/163 94/158/163 93/159/163
f 98/160/164 91/154/164 94/158/164
f 95/152/165 100/161/165 96/162/165
f 100/161/166 97/155/166 96/162/166
f 101/163/167 98/160/167 97/157/167
f 102/164/168 95/152/168 98/160/168
f 99/165/169 104/166/169 100/161/169
f 104/166/170 101/167/170 100/161/170
f 101/163/171 106/168/171 102/164/171
f 106/168/172 99/165/172 102/164/172
f 107/169/173 104/166/173 103/170/173
f 104/166/174 109/171/174 105/172/174
f 105/173/175 110/174/175 106/168/175
f 110/174/176 103/170/176 106/168/176
f 107/169/177 112/175/177 108/176/177
f 112/175/178 109/171/178 108/176/178
f 113/177/179 110/174/179 109/178/179
f 114/179/180 107/169/180 110/174/180
f 115/180/181 112/175/181 111/181/181
f 112/175/182 117/182/182 113/183/182
f 117/184/183 114/179/183 113/177/183
f 118/185/184 111/181/184 114/179/184
f 119/186/185 116/187/185 115/180/185
f 120/188/186 117/182/186 116/187/186
f 121/189/187 118/185/187 117/184/187
f 118/185/188 119/186/188 115/180/188
f 123/190/189 120/188/189 119/186/189
f 120/188/190 125/191/190 121/192/190
f 125/193/191 122/194/191 121/189/191
f 122/194/192 123/190/192 119/186/192
f 123/190/193 128/195/193 124/196/193
f 128/195/194 125/191/194 124/196/194
f 125/193/195 130/197/195 126/198/195
f 130/197/196 123/190/196 126/198/196
f 131/199/162 128/200/162 127/201/162
f 128/200/161 133/202/161 129/203/161
f 133/204/164 130/205/164 129/206/164
f 134/207/163 127/201/163 130/205/163
f 135/208/166 132/209/166 131/199/166
f 136/210/165 133/202/165 132/209/165
f 137/211/168 134/207/168 133/204/168
f 138/212/167 131/199/167 134/207/167
f 139/213/170 136/210/170 135/208/170
f 136/210/169 141/214/169 137/215/169
f 141/216/172 138/212/172 137/211/172
f 142/217/171 135/208/171 138/212/171
f 143/218/174 140/219/174 139/213/174
f 144/220/173 141/214/173 140/219/173
f 141/216/176 146/221/176 142/217/176
f 146/221/175 139/213/175 142/217/175
f 147/222/178 144/220/178 143/218/178
f 148/223/177 145/224/177 144/220/177
f 145/225/180 150/226/180 146/221/180
f 146/221/179 147/222/179 143/218/179
f 151/227/182 148/223/182 147/222/182
f 148/223/181 153/228/181 149/229/181
f 153/230/184 150/226/184 149/231/184
f 150/226/183 151/227/183 147/222/183
f 155/232/186 152/233/186 151/227/186
f 152/233/185 157/234/185 153/228/185
f 157/235/188 154/236/188 153/230/188
f 154/236/187 155/232/187 151/227/187
f 159/237/190 156/238/190 155/232/190
f 156/238/189 161/239/189 157/234/189
f 161/240/192 158/241/192 157/235/192
f 162/242/191 155/232/191 158/241/191
f 91/154/194 160/243/194 159/237/194
f 92/153/193 161/239/193 160/243/193
f 93/159/196 162/242/196 161/240/196
f 94/158/195 159/237/195 162/242/195
f 95/152/161 96/162/161 92/153/161
f 92/153/162 96/162/162 97/155/162
f 97/157/163 98/160/163 94/158/163
f 98/160/164 95/152/164 91/154/164
f 95/152/165 99/165/165 100/161/165
f 100/161/166 101/167/166 97/155/166
f 101/163/167 102/164/167 98/160/167
f 102/164/168 99/165/168 95/152/168
f 99/165/169 103/170/169 104/166/169
f 104/166/170 105/172/170 101/167/170
f 101/163/171 105/173/171 106/168/171
f 106/168/172 103/170/172 99/165/172
f 107/169/173 108/176/173 104/166/173
f 104/166/174 108/176/174 109/171/174
f 105/173/175 109/178/175 110/174/175
f 110/174/176 107/169/176 103/170/176
f 107/169/177 111/181/177 112/175/177
f 112/175/178 113/183/178 109/171/178
f 113/177/179 114/179/179 110/174/179
f 114/179/180 111/181/180 107/169/180
f 115/180/181 116/187/181 112/175/181
f 112/175/182 116/187/182 117/182/182
f 117/184/183 118/185/183 114/179/183
f 118/185/184 115/180/184 111/181/184
f 119/186/185 120/188/185 116/187/185
f 120/188/186 121/192/186 117/182/186
f 121/189/187 122/194/187 118/185/187
f 118/185/188 122/194/188 119/186/188
f 123/190/189 124/196/189 120/188/189
f 120/188/190 124/196/190 125/191/190
f 125/193/191 126/198/191 122/194/191
f 122/194/192 126/198/192 123/190/192
f 123/190/193 127/244/193 128/195/193
f 128/195/194 129/245/194 125/191/194
f 125/193/195 129/246/195 130/197/195
f 130/197/196 127/244/196 123/190/196
f 131/199/162 132/209/162 128/200/162
f 128/200/161 132/209/161 133/202/161
f 133/204/164 134/207/164 130/205/164
f 134/207/163 131/199/163 127/201/163
f 135/208/166 136/210/166 132/209/166
f 136/210/165 137/215/165 133/202/165
f 137/211/168 138/212/168 134/207/168
f 138/212/167 135/208/167 131/199/167
f 139/213/170 140/219/170 136/210/170
f 136/210/169 140/219/169 141/214/169
f 141/216/172 142/217/172 138/212/172
f 142/217/171 139/213/171 135/208/171
f 143/218/174 144/220/174 140/219/174
f 144/220/173 145/224/173 141/214/173
f 141/216/176 145/225/176 146/221/176
f 146/221/175 143/218/175 139/213/175
f 147/222/178 148/223/178 144/220/178
f 148/223/177 149/229/177 145/224/177
f 145/225/180 149/231/180 150/226/180
f 146/221/179 150/226/179 147/222/179
f 151/227/182 152/233/182 148/223/182
f 148/223/181 152/233/181 153/228/181
f 153/230/184 154/236/184 150/226/184
f 150/226/183 154/236/183 151/227/183
f 155/232/186 156/238/186 152/233/186
f 152/233/185 156/238/185 157/234/185
f 157/235/188 158/241/188 154/236/188
f 154/236/187 158/241/187 155/232/187
f 159/237/190 160/243/190 156/238/190
f 156/238/189 160/243/189 161/239/189
f 161/240/192 162/242/192 158/241/192
f 162/242/191 159/237/191 155/232/191
f 91/154/194 92/153/194 160/243/194
f 92/153/193 93/156/193 161/239/193
f 93/159/196 94/158/196 162/242/196
f 94/158/195 91/154/195 159/237/195
g Philosopher_RingY.001_Mesh
v 0.000000 -1.050000 0.000000
v 0.070000 -0.980000 0.000000
v 0.000000 -0.910000 0.000000
v -0.070000 -0.980000 0.000000
v 0.000000 -0.986677 -0.359121
v 0.070000 -0.920899 -0.335180
v 0.000000 -0.855120 -0.311238
v -0.070000 -0.920899 -0.335180
v 0.000000 -0.804347 -0.674927
v 0.070000 -0.750723 -0.629932
v 0.000000 -0.697100 -0.584937
v -0.070000 -0.750723 -0.629932
v 0.000000 -0.525000 -0.909327
v 0.070000 -0.490000 -0.848705
v 0.000000 -0.455000 -0.788083
v -0.070000 -0.490000 -0.848705
v 0.000000 -0.182331 -1.034048
v 0.070000 -0.170175 -0.965112
v 0.000000 -0.158020 -0.896175
v -0.070000 -0.170175 -0.965112
v -0.000000 0.182330 -1.034048
v 0.070000 0.170175 -0.965112
v -0.000000 0.158020 -0.896175
v -0.070000 0.170175 -0.965112
v -0.000000 0.525000 -0.909327
v 0.070000 0.490000 -0.848705
v -0.000000 0.455000 -0.788083
v -0.070000 0.490000 -0.848705
v -0.000000 0.804347 -0.674927
v 0.070000 0.750723 -0.629932
v -0.000000 0.697100 -0.584937
v -0.070000 0.750723 -0.629932
v -0.000000 0.986677 -0.359122
v 0.070000 0.920899 -0.335180
v -0.000000 0.855120 -0.311239
v -0.070000 0.920899 -0.335180
v -0.000000 1.050000 -0.000000
v 0.070000 0.980000 -0.000000
v -0.000000 0.910000 -0.000000
v -0.070000 0.980000 -0.000000
v -0.000000 0.986677 0.359121
v 0.070000 0.920899 0.335180
v -0.000000 0.855120 0.311238
v -0.070000 0.920899 0.335180
v -0.000000 0.804347 0.674927
v 0.070000 0.750724 0.629932
v -0.000000 0.697101 0.584937
v -0.070000 0.750724 0.629932
v -0.000000 0.525000 0.909327
v 0.070000 0.490000 0.848705
v -0.000000 0.455000 0.788083
v -0.070000 0.490000 0.848705
v -0.000000 0.182330 1.034048
v 0.070000 0.170175 0.965112
v -0.000000 0.158020 0.896175
v -0.070000 0.170175 0.965112
v 0.000000 -0.182331 1.034048
v 0.070000 -0.170175 0.965112
v 0.000000 -0.158020 0.896175
v -0.070000 -0.170175 0.965112
v 0.000000 -0.525000 0.909327
v 0.070000 -0.490000 0.848705
v 0.000000 -0.455000 0.788083
v -0.070000 -0.490000 0.848705
v 0.000000 -0.804347 0.674927
v 0.070000 -0.750723 0.629932
v 0.000000 -0.697100 0.584937
v -0.070000 -0.750723 0.629932
v 0.000000 -0.986677 0.359121
v 0.070000 -0.920899 0.335180
v 0.000000 -0.855120 0.311238
v -0.070000 -0.920899 0.335180
vn 0.7017 -0.7017 -0.1237
vn 0.7017 0.7017 0.1237
vn -0.7017 0.7017 0.1237
vn -0.7017 -0.7017 -0.1237
vn 0.7017 -0.6170 -0.3562
vn 0.7017 0.6170 0.3562
vn -0.7017 0.6170 0.3562
vn -0.7017 -0.6170 -0.3562
vn 0.7017 -0.4580 -0.5458
vn 0.7017 0.4580 0.5458
vn -0.7017 0.4580 0.5458
vn -0.7017 -0.4580 -0.5458
vn 0.7017 -0.2437 -0.6695
vn 0.7017 0.2437 0.6695
vn -0.7017 0.2437 0.6695
vn -0.7017 -0.2437 -0.6695
vn 0.7017 -0.0000 -0.7125
vn 0.7017 -0.0000 0.7125
vn -0.7017 -0.0000 0.7125
vn -0.7017 -0.0000 -0.7125
vn 0.7017 0.2437 -0.6695
vn 0.7017 -0.2437 0.6695
vn -0.7017 -0.2437 0.6695
vn -0.7017 0.2437 -0.6695
vn 0.7017 0.4580 -0.5458
vn 0.7017 -0.4580 0.5458
vn -0.7017 -0.4580 0.5458
vn -0.7017 0.4580 -0.5458
vn 0.7017 0.6170 -0.3562
vn 0.7017 -0.6170 0.3562
vn -0.7017 -0.6170 0.3562
vn -0.7017 0.6170 -0.3562
vn 0.7017 0.7017 -0.1237
vn 0.7017 -0.7017 0.1237
vn -0.7017 -0.7017 0.1237
vn -0.7017 0.7017 -0.1237
vt 0.555556 0.500000
vt 0.500000 0.750000
vt 0.500000 0.500000
vt 0.555556 1.000000
vt 0.500000 1.000000
vt 0.555556 0.000000
vt 0.500000 0.250000
vt 0.500000 0.000000
vt 0.555556 0.250000
vt 0.611111 0.750000
vt 0.555556 0.750000
vt 0.611111 0.000000
vt 0.611111 0.250000
vt 0.611111 0.500000
vt 0.666667 0.750000
vt 0.611111 1.000000
vt 0.666667 0.250000
vt 0.722222 0.500000
vt 0.666667 0.500000
vt 0.722222 1.000000
vt 0.666667 1.000000
vt 0.666667 0.000000
vt 0.722222 0.250000
vt 0.777778 0.750000
vt 0.722222 0.750000
vt 0.777778 0.000000
vt 0.722222 0.000000
vt 0.777778 0.250000
vt 0.833333 0.500000
vt 0.777778 0.500000
vt 0.833333 1.000000
vt 0.777778 1.000000
vt 0.833333 0.000000
vt 0.833333 0.250000
vt 0.888889 0.500000
vt 0.833333 0.750000
vt 0.888889 0.750000
vt 0.888889 0.000000
vt 0.944444 0.500000
vt 0.944444 1.000000
vt 0.888889 1.000000
vt 0.944444 0.000000
vt 0.888889 0.250000
vt 1.000000 0.750000
vt 0.944444 0.750000
vt 1.000000 0.250000
vt 0.944444 0.250000
vt 0.055556 0.500000
vt 0.000000 0.750000
vt 0.000000 0.500000
vt 0.055556 1.000000
vt 0.000000 1.000000
vt 0.055556 0.000000
vt 0.000000 0.250000
vt 0.000000 0.000000
vt 0.055556 0.250000
vt 0.111111 0.500000
vt 0.055556 0.750000
vt 0.111111 0.750000
vt 0.111111 0.000000
vt 0.111111 0.250000
vt 0.166667 0.500000
vt 0.166667 1.000000
vt 0.111111 1.000000
vt 0.166667 0.000000
vt 0.166667 0.250000
vt 0.222222 0.500000
vt 0.166667 0.750000
vt 0.222222 0.750000
vt 0.222222 0.250000
vt 0.277778 0.500000
vt 0.277778 0.750000
vt 0.222222 1.000000
vt 0.222222 0.000000
vt 0.277778 0.250000
vt 0.333333 0.500000
vt 0.333333 1.000000
vt 0.277778 1.000000
vt 0.333333 0.000000
vt 0.277778 0.000000
vt 0.388889 0.500000
vt 0.333333 0.750000
vt 0.388889 1.000000
vt 0.388889 0.000000
vt 0.333333 0.250000
vt 0.444444 0.500000
vt 0.388889 0.750000
vt 0.444444 1.000000
vt 0.444444 0.000000
vt 0.388889 0.250000
vt 0.444444 0.250000
vt 0.444444 0.750000
vt 1.000000 0.500000
vt 1.000000 1.000000
vt 1.000000 0.000000
s 0
g Philosopher_RingY.001_MAT_BrightGold
usemtl MAT_BrightGold
f 167/247/197 164/248/197 163/249/197
f 164/248/198 169/250/198 165/251/198
f 169/252/199 166/253/199 165/254/199
f 170/255/200 163/249/200 166/253/200
f 167/247/201 172/256/201 168/257/201
f 172/256/202 169/250/202 168/257/202
f 173/258/203 170/255/203 169/252/203
f 174/259/204 167/247/204 170/255/204
f 171/260/205 176/261/205 172/256/205
f 176/261/206 173/262/206 172/256/206
f 173/258/207 178/263/207 174/259/207
f 178/263/208 171/260/208 174/259/208
f 179/264/209 176/261/209 175/265/209
f 176/261/210 181/266/210 177/267/210
f 177/268/211 182/269/211 178/263/211
f 182/269/212 175/265/212 178/263/212
f 179/264/213 184/270/213 180/271/213
f 184/270/214 181/266/214 180/271/214
f 185/272/215 182/269/215 181/273/215
f 186/274/216 179/264/216 182/269/216
f 187/275/217 184/270/217 183/276/217
f 184/270/218 189/277/218 185/278/218
f 189/279/219 186/274/219 185/272/219
f 190/280/220 183/276/220 186/274/220
f 191/281/221 188/282/221 187/275/221
f 192/283/222 189/277/222 188/282/222
f 193/284/223 190/280/223 189/279/223
f 190/280/224 191/281/224 187/275/224
f 195/285/225 192/283/225 191/281/225
f 192/283/226 197/286/226 193/287/226
f 197/288/227 194/289/227 193/284/227
f 194/289/228 195/285/228 191/281/228
f 195/285/229 200/290/229 196/291/229
f 200/290/230 197/286/230 196/291/230
f 197/288/231 202/292/231 198/293/231
f 202/292/232 195/285/232 198/293/232
f 203/294/198 200/295/198 199/296/198
f 200/295/197 205/297/197 201/298/197
f 205/299/200 202/300/200 201/301/200
f 206/302/199 199/296/199 202/300/199
f 207/303/202 204/304/202 203/294/202
f 208/305/201 205/297/201 204/304/201
f 209/306/204 206/302/204 205/299/204
f 210/307/203 203/294/203 206/302/203
f 211/308/206 208/305/206 207/303/206
f 208/305/205 213/309/205 209/310/205
f 213/311/208 210/307/208 209/306/208
f 214/312/207 207/303/207 210/307/207
f 215/313/210 212/314/210 211/308/210
f 216/315/209 213/309/209 212/314/209
f 213/311/212 218/316/212 214/312/212
f 218/316/211 211/308/211 214/312/211
f 219/317/214 216/315/214 215/313/214
f 220/318/213 217/319/213 216/315/213
f 217/320/216 222/321/216 218/316/216
f 218/316/215 219/317/215 215/313/215
f 223/322/218 220/318/218 219/317/218
f 220/318/217 225/323/217 221/324/217
f 225/325/220 222/321/220 221/326/220
f 222/321/219 223/322/219 219/317/219
f 227/327/222 224/328/222 223/322/222
f 224/328/221 229/329/221 225/323/221
f 229/330/224 226/331/224 225/325/224
f 226/331/223 227/327/223 223/322/223
f 231/332/226 228/333/226 227/327/226
f 228/333/225 233/334/225 229/329/225
f 233/335/228 230/336/228 229/330/228
f 234/337/227 227/327/227 230/336/227
f 163/249/230 232/338/230 231/332/230
f 164/248/229 233/334/229 232/338/229
f 165/254/232 234/337/232 233/335/232
f 166/253/231 231/332/231 234/337/231
f 167/247/197 168/257/197 164/248/197
f 164/248/198 168/257/198 169/250/198
f 169/252/199 170/255/199 166/253/199
f 170/255/200 167/247/200 163/249/200
f 167/247/201 171/260/201 172/256/201
f 172/256/202 173/262/202 169/250/202
f 173/258/203 174/259/203 170/255/203
f 174/259/204 171/260/204 167/247/204
f 171/260/205 175/265/205 176/261/205
f 176/261/206 177/267/206 173/262/206
f 173/258/207 177/268/207 178/263/207
f 178/263/208 175/265/208 171/260/208
f 179/264/209 180/271/209 176/261/209
f 176/261/210 180/271/210 181/266/210
f 177/268/211 181/273/211 182/269/211
f 182/269/212 179/264/212 175/265/212
f 179/264/213 183/276/213 184/270/213
f 184/270/214 185/278/214 181/266/214
f 185/272/215 186/274/215 182/269/215
f 186/274/216 183/276/216 179/264/216
f 187/275/217 188/282/217 184/270/217
f 184/270/218 188/282/218 189/277/218
f 189/279/219 190/280/219 186/274/219
f 190/280/220 187/275/220 183/276/220
f 191/281/221 192/283/221 188/282/221
f 192/283/222 193/287/222 189/277/222
f 193/284/223 194/289/223 190/280/223
f 190/280/224 194/289/224 191/281/224
f 195/285/225 196/291/225 192/283/225
f 192/283/226 196/291/226 197/286/226
f 197/288/227 198/293/227 194/289/227
f 194/289/228 198/293/228 195/285/228
f 195/285/229 199/339/229 200/290/229
f 200/290/230 201/340/230 197/286/230
f 197/288/231 201/341/231 202/292/231
f 202/292/232 199/339/232 195/285/232
f 203/294/198 204/304/198 200/295/198
f 200/295/197 204/304/197 205/297/197
f 205/299/200 206/302/200 202/300/200
f 206/302/199 203/294/199 199/296/199
f 207/303/202 208/305/202 204/304/202
f 208/305/201 209/310/201 205/297/201
f 209/306/204 210/307/204 206/302/204
f 210/307/203 207/303/203 203/294/203
f 211/308/206 212/314/206 208/305/206
f 208/305/205 212/314/205 213/309/205
f 213/311/208 214/312/208 210/307/208
f 214/312/207 211/308/207 207/303/207
f 215/313/210 216/315/210 212/314/210
f 216/315/209 217/319/209 213/309/209
f 213/311/212 217/320/212 218/316/212
f 218/316/211 215/313/211 211/308/211
f 219/317/214 220/318/214 216/315/214
f 220/318/213 221/324/213 217/319/213
f 217/320/216 221/326/216 222/321/216
f 218/316/215 222/321/215 219/317/215
f 223/322/218 224/328/218 220/318/218
f 220/318/217 224/328/217 225/323/217
f 225/325/220 226/331/220 222/321/220
f 222/321/219 226/331/219 223/322/219
f 227/327/222 228/333/222 224/328/222
f 224/328/221 228/333/221 229/329/221
f 229/330/224 230/336/224 226/331/224
f 226/331/223 230/336/223 227/327/223
f 231/332/226 232/338/226 228/333/226
f 228/333/225 232/338/225 233/334/225
f 233/335/228 234/337/228 230/336/228
f 234/337/227 231/332/227 227/327/227
f 163/249/230 164/248/230 232/338/230
f 164/248/229 165/251/229 233/334/229
f 165/254/232 166/253/232 234/337/232
f 166/253/231 163/249/231 231/332/231
g Philosopher_RingZ.001_Mesh
v 1.050000 0.000000 0.000000
v 0.980000 0.070000 0.000000
v 0.910000 0.000000 0.000000
v 0.980000 -0.070000 0.000000
v 0.986677 0.000000 -0.359121
v 0.920899 0.070000 -0.335180
v 0.855120 0.000000 -0.311238
v 0.920899 -0.070000 -0.335180
v 0.804347 0.000000 -0.674927
v 0.750723 0.070000 -0.629932
v 0.697100 0.000000 -0.584937
v 0.750723 -0.070000 -0.629932
v 0.525000 0.000000 -0.909327
v 0.490000 0.070000 -0.848705
v 0.455000 0.000000 -0.788083
v 0.490000 -0.070000 -0.848705
v 0.182331 0.000000 -1.034048
v 0.170175 0.070000 -0.965112
v 0.158020 0.000000 -0.896175
v 0.170175 -0.070000 -0.965112
v -0.182330 0.000000 -1.034048
v -0.170175 0.070000 -0.965112
v -0.158020 0.000000 -0.896175
v -0.170175 -0.070000 -0.965112
v -0.525000 0.000000 -0.909327
v -0.490000 0.070000 -0.848705
v -0.455000 0.000000 -0.788083
v -0.490000 -0.070000 -0.848705
v -0.804347 0.000000 -0.674927
v -0.750723 0.070000 -0.629932
v -0.697100 0.000000 -0.584937
v -0.750723 -0.070000 -0.629932
v -0.986677 0.000000 -0.359122
v -0.920899 0.070000 -0.335180
v -0.855120 0.000000 -0.311239
v -0.920899 -0.070000 -0.335180
v -1.050000 0.000000 -0.000000
v -0.980000 0.070000 -0.000000
v -0.910000 0.000000 -0.000000
v -0.980000 -0.070000 -0.000000
v -0.986677 0.000000 0.359121
v -0.920899 0.070000 0.335180
v -0.855120 0.000000 0.311238
v -0.920899 -0.070000 0.335180
v -0.804347 0.000000 0.674927
v -0.750724 0.070000 0.629932
v -0.697101 0.000000 0.584937
v -0.750724 -0.070000 0.629932
v -0.525000 0.000000 0.909327
v -0.490000 0.070000 0.848705
v -0.455000 0.000000 0.788083
v -0.490000 -0.070000 0.848705
v -0.182330 0.000000 1.034048
v -0.170175 0.070000 0.965112
v -0.158020 0.000000 0.896175
v -0.170175 -0.070000 0.965112
v 0.182331 0.000000 1.034048
v 0.170175 0.070000 0.965112
v 0.158020 0.000000 0.896175
v 0.170175 -0.070000 0.965112
v 0.525000 0.000000 0.909327
v 0.490000 0.070000 0.848705
v 0.455000 0.000000 0.788083
v 0.490000 -0.070000 0.848705
v 0.804347 0.000000 0.674927
v 0.750723 0.070000 0.629932
v 0.697100 0.000000 0.584937
v 0.750723 -0.070000 0.629932
v 0.986677 0.000000 0.359121
v 0.920899 0.070000 0.335180
v 0.855120 0.000000 0.311238
v 0.920899 -0.070000 0.335180
vn 0.7017 0.7017 -0.1237
vn -0.7017 0.7017 0.1237
vn -0.7017 -0.7017 0.1237
vn 0.7017 -0.7017 -0.1237
vn 0.6170 0.7017 -0.3562
vn -0.6170 0.7017 0.3562
vn -0.6170 -0.7017 0.3562
vn 0.6170 -0.7017 -0.3562
vn 0.4580 0.7017 -0.5458
vn -0.4580 0.7017 0.5458
vn -0.4580 -0.7017 0.5458
vn 0.4580 -0.7017 -0.5458
vn 0.2437 0.7017 -0.6695
vn -0.2437 0.7017 0.6695
vn -0.2437 -0.7017 0.6695
vn 0.2437 -0.7017 -0.6695
vn -0.0000 0.7017 -0.7125
vn -0.0000 0.7017 0.7125
vn -0.0000 -0.7017 0.7125
vn -0.0000 -0.7017 -0.7125
vn -0.2437 0.7017 -0.6695
vn 0.2437 0.7017 0.6695
vn 0.2437 -0.7017 0.6695
vn -0.2437 -0.7017 -0.6695
vn -0.4580 0.7017 -0.5458
vn 0.4580 0.7017 0.5458
vn 0.4580 -0.7017 0.5458
vn -0.4580 -0.7017 -0.5458
vn -0.6170 0.7017 -0.3562
vn 0.6170 0.7017 0.3562
vn 0.6170 -0.7017 0.3562
vn -0.6170 -0.7017 -0.3562
vn -0.7017 0.7017 -0.1237
vn 0.7017 0.7017 0.1237
vn 0.7017 -0.7017 0.1237
vn -0.7017 -0.7017 -0.1237
vt 0.555556 0.500000
vt 0.500000 0.750000
vt 0.500000 0.500000
vt 0.555556 1.000000
vt 0.500000 1.000000
vt 0.555556 0.000000
vt 0.500000 0.250000
vt 0.500000 0.000000
vt 0.555556 0.250000
vt 0.611111 0.750000
vt 0.555556 0.750000
vt 0.611111 0.000000
vt 0.611111 0.250000
vt 0.611111 0.500000
vt 0.666667 0.750000
vt 0.611111 1.000000
vt 0.666667 0.250000
vt 0.722222 0.500000
vt 0.666667 0.500000
vt 0.722222 1.000000
vt 0.666667 1.000000
vt 0.666667 0.000000
vt 0.722222 0.250000
vt 0.777778 0.750000
vt 0.722222 0.750000
vt 0.777778 0.000000
vt 0.722222 0.000000
vt 0.777778 0.250000
vt 0.833333 0.500000
vt 0.777778 0.500000
vt 0.833333 1.000000
vt 0.777778 1.000000
vt 0.833333 0.000000
vt 0.833333 0.250000
vt 0.888889 0.500000
vt 0.833333 0.750000
vt 0.888889 0.750000
vt 0.888889 0.000000
vt 0.944444 0.500000
vt 0.944444 1.000000
vt 0.888889 1.000000
vt 0.944444 0.000000
vt 0.888889 0.250000
vt 1.000000 0.750000
vt 0.944444 0.750000
vt 1.000000 0.250000
vt 0.944444 0.250000
vt 0.055556 0.500000
vt 0.000000 0.750000
vt 0.000000 0.500000
vt 0.055556 1.000000
vt 0.000000 1.000000
vt 0.055556 0.000000
vt 0.000000 0.250000
vt 0.000000 0.000000
vt 0.055556 0.250000
vt 0.111111 0.500000
vt 0.055556 0.750000
vt 0.111111 0.750000
vt 0.111111 0.000000
vt 0.111111 0.250000
vt 0.166667 0.500000
vt 0.166667 1.000000
vt 0.111111 1.000000
vt 0.166667 0.000000
vt 0.166667 0.250000
vt 0.222222 0.500000
vt 0.166667 0.750000
vt 0.222222 0.750000
vt 0.222222 0.250000
vt 0.277778 0.500000
vt 0.277778 0.750000
vt 0.222222 1.000000
vt 0.222222 0.000000
vt 0.277778 0.250000
vt 0.333333 0.500000
vt 0.333333 1.000000
vt 0.277778 1.000000
vt 0.333333 0.000000
vt 0.277778 0.000000
vt 0.388889 0.500000
vt 0.333333 0.750000
vt 0.388889 1.000000
vt 0.388889 0.000000
vt 0.333333 0.250000
vt 0.444444 0.500000
vt 0.388889 0.750000
vt 0.444444 1.000000
vt 0.444444 0.000000
vt 0.388889 0.250000
vt 0.444444 0.250000
vt 0.444444 0.750000
vt 1.000000 0.500000
vt 1.000000 1.000000
vt 1.000000 0.000000
s 0
g Philosopher_RingZ.001_MAT_OldGold
usemtl MAT_OldGold
f 239/342/233 236/343/233 235/344/233
f 236/343/234 241/345/234 237/346/234
f 241/347/235 238/348/235 237/349/235
f 242/350/236 235/344/236 238/348/236
f 239/342/237 244/351/237 240/352/237
f 244/351/238 241/345/238 240/352/238
f 245/353/239 242/350/239 241/347/239
f 246/354/240 239/342/240 242/350/240
f 243/355/241 248/356/241 244/351/241
f 248/356/242 245/357/242 244/351/242
f 245/353/243 250/358/243 246/354/243
f 250/358/244 243/355/244 246/354/244
f 251/359/245 248/356/245 247/360/245
f 248/356/246 253/361/246 249/362/246
f 249/363/247 254/364/247 250/358/247
f 254/364/248 247/360/248 250/358/248
f 251/359/249 256/365/249 252/366/249
f 256/365/250 253/361/250 252/366/250
f 257/367/251 254/364/251 253/368/251
f 258/369/252 251/359/252 254/364/252
f 259/370/253 256/365/253 255/371/253
f 256/365/254 261/372/254 257/373/254
f 261/374/255 258/369/255 257/367/255
f 262/375/256 255/371/256 258/369/256
f 263/376/257 260/377/257 259/370/257
f 264/378/258 261/372/258 260/377/258
f 265/379/259 262/375/259 261/374/259
f 262/375/260 263/376/260 259/370/260
f 267/380/261 264/378/261 263/376/261
f 264/378/262 269/381/262 265/382/262
f 269/383/263 266/384/263 265/379/263
f 266/384/264 267/380/264 263/376/264
f 267/380/265 272/385/265 268/386/265
f 272/385/266 269/381/266 268/386/266
f 269/383/267 274/387/267 270/388/267
f 274/387/268 267/380/268 270/388/268
f 275/389/234 272/390/234 271/391/234
f 272/390/233 277/392/233 273/393/233
f 277/394/236 274/395/236 273/396/236
f 278/397/235 271/391/235 274/395/235
f 279/398/238 276/399/238 275/389/238
f 280/400/237 277/392/237 276/399/237
f 281/401/240 278/397/240 277/394/240
f 282/402/239 275/389/239 278/397/239
f 283/403/242 280/400/242 279/398/242
f 280/400/241 285/404/241 281/405/241
f 285/406/244 282/402/244 281/401/244
f 286/407/243 279/398/243 282/402/243
f 287/408/246 284/409/246 283/403/246
f 288/410/245 285/404/245 284/409/245
f 285/406/248 290/411/248 286/407/248
f 290/411/247 283/403/247 286/407/247
f 291/412/250 288/410/250 287/408/250
f 292/413/249 289/414/249 288/410/249
f 289/415/252 294/416/252 290/411/252
f 290/411/251 291/412/251 287/408/251
f 295/417/254 292/413/254 291/412/254
f 292/413/253 297/418/253 293/419/253
f 297/420/256 294/416/256 293/421/256
f 294/416/255 295/417/255 291/412/255
f 299/422/258 296/423/258 295/417/258
f 296/423/257 301/424/257 297/418/257
f 301/425/260 298/426/260 297/420/260
f 298/426/259 299/422/259 295/417/259
f 303/427/262 300/428/262 299/422/262
f 300/428/261 305/429/261 301/424/261
f 305/430/264 302/431/264 301/425/264
f 306/432/263 299/422/263 302/431/263
f 235/344/266 304/433/266 303/427/266
f 236/343/265 305/429/265 304/433/265
f 237/349/268 306/432/268 305/430/268
f 238/348/267 303/427/267 306/432/267
f 239/342/233 240/352/233 236/343/233
f 236/343/234 240/352/234 241/345/234
f 241/347/235 242/350/235 238/348/235
f 242/350/236 239/342/236 235/344/236
f 239/342/237 243/355/237 244/351/237
f 244/351/238 245/357/238 241/345/238
f 245/353/239 246/354/239 242/350/239
f 246/354/240 243/355/240 239/342/240
f 243/355/241 247/360/241 248/356/241
f 248/356/242 249/362/242 245/357/242
f 245/353/243 249/363/243 250/358/243
f 250/358/244 247/360/244 243/355/244
f 251/359/245 252/366/245 248/356/245
f 248/356/246 252/366/246 253/361/246
f 249/363/247 253/368/247 254/364/247
f 254/364/248 251/359/248 247/360/248
f 251/359/249 255/371/249 256/365/249
f 256/365/250 257/373/250 253/361/250
f 257/367/251 258/369/251 254/364/251
f 258/369/252 255/371/252 251/359/252
f 259/370/253 260/377/253 256/365/253
f 256/365/254 260/377/254 261/372/254
f 261/374/255 262/375/255 258/369/255
f 262/375/256 259/370/256 255/371/256
f 263/376/257 264/378/257 260/377/257
f 264/378/258 265/382/258 261/372/258
f 265/379/259 266/384/259 262/375/259
f 262/375/260 266/384/260 263/376/260
f 267/380/261 268/386/261 264/378/261
f 264/378/262 268/386/262 269/381/262
f 269/383/263 270/388/263 266/384/263
f 266/384/264 270/388/264 267/380/264
f 267/380/265 271/434/265 272/385/265
f 272/385/266 273/435/266 269/381/266
f 269/383/267 273/436/267 274/387/267
f 274/387/268 271/434/268 267/380/268
f 275/389/234 276/399/234 272/390/234
f 272/390/233 276/399/233 277/392/233
f 277/394/236 278/397/236 274/395/236
f 278/397/235 275/389/235 271/391/235
f 279/398/238 280/400/238 276/399/238
f 280/400/237 281/405/237 277/392/237
f 281/401/240 282/402/240 278/397/240
f 282/402/239 279/398/239 275/389/239
f 283/403/242 284/409/242 280/400/242
f 280/400/241 284/409/241 285/404/241
f 285/406/244 286/407/244 282/402/244
f 286/407/243 283/403/243 279/398/243
f 287/408/246 288/410/246 284/409/246
f 288/410/245 289/414/245 285/404/245
f 285/406/248 289/415/248 290/411/248
f 290/411/247 287/408/247 283/403/247
f 291/412/250 292/413/250 288/410/250
f 292/413/249 293/419/249 289/414/249
f 289/415/252 293/421/252 294/416/252
f 290/411/251 294/416/251 291/412/251
f 295/417/254 296/423/254 292/413/254
f 292/413/253 296/423/253 297/418/253
f 297/420/256 298/426/256 294/416/256
f 294/416/255 298/426/255 295/417/255
f 299/422/258 300/428/258 296/423/258
f 296/423/257 300/428/257 301/424/257
f 301/425/260 302/431/260 298/426/260
f 298/426/259 302/431/259 299/422/259
f 303/427/262 304/433/262 300/428/262
f 300/428/261 304/433/261 305/429/261
f 305/430/264 306/432/264 302/431/264
f 306/432/263 303/427/263 299/422/263
f 235/344/266 236/343/266 304/433/266
f 236/343/265 237/346/265 305/429/265
f 237/349/268 238/348/268 306/432/268
f 238/348/267 235/344/267 303/427/267
