# Blender 5.0.1
# www.blender.org
mtllib qilin_bell.mtl
g QilinBell_Body.001_Mesh
v -0.000000 -0.715000 -0.663060
v 0.000000 -0.662115 -0.704364
v 0.000000 0.435000 -0.323060
v 0.000000 0.382114 -0.395636
v 0.331530 -0.715000 -0.574227
v 0.352182 -0.662115 -0.609997
v 0.161530 0.435000 -0.279778
v 0.197818 0.382114 -0.342631
v 0.574227 -0.715000 -0.331530
v 0.609997 -0.662115 -0.352182
v 0.279778 0.435000 -0.161530
v 0.342631 0.382114 -0.197818
v 0.663060 -0.715000 -0.000000
v 0.704364 -0.662115 0.000000
v 0.323060 0.435000 0.000000
v 0.395636 0.382114 0.000000
v 0.574227 -0.715000 0.331530
v 0.609997 -0.662115 0.352182
v 0.279778 0.435000 0.161530
v 0.342631 0.382114 0.197818
v 0.331530 -0.715000 0.574227
v 0.352182 -0.662115 0.609997
v 0.161530 0.435000 0.279778
v 0.197818 0.382114 0.342631
v 0.000000 -0.715000 0.663060
v 0.000000 -0.662115 0.704364
v 0.000000 0.435000 0.323060
v 0.000000 0.382114 0.395636
v -0.331530 -0.715000 0.574227
v -0.352182 -0.662115 0.609997
v -0.161530 0.435000 0.279778
v -0.197818 0.382114 0.342631
v -0.574227 -0.715000 0.331530
v -0.609997 -0.662115 0.352182
v -0.279778 0.435000 0.161530
v -0.342631 0.382114 0.197818
v -0.663060 -0.715000 0.000000
v -0.704364 -0.662115 0.000000
v -0.323060 0.435000 0.000000
v -0.395636 0.382114 0.000000
v -0.574227 -0.715000 -0.331530
v -0.609997 -0.662115 -0.352182
v -0.279778 0.435000 -0.161530
v -0.342631 0.382114 -0.197818
v -0.331530 -0.715000 -0.574227
v -0.352182 -0.662115 -0.609997
v -0.161530 0.435000 -0.279778
v -0.197818 0.382114 -0.342631
vn 0.2066 -0.6022 -0.7711
vn 0.1559 0.7983 -0.5817
vn 0.5645 -0.6022 -0.5645
vn 0.4259 0.7983 -0.4259
vn 0.7711 -0.6022 -0.2066
vn 0.5817 0.7983 -0.1559
vn 0.7711 -0.6022 0.2066
vn 0.5817 0.7983 0.1559
vn 0.5645 -0.6022 0.5645
vn 0.4259 0.7983 0.4259
vn 0.2066 -0.6022 0.7711
vn 0.1559 0.7983 0.5817
vn -0.2066 -0.6022 0.7711
vn -0.1559 0.7983 0.5817
vn -0.5645 -0.6022 0.5645
vn -0.4259 0.7983 0.4259
vn -0.7711 -0.6022 0.2066
vn -0.5817 0.7983 0.1559
vn -0.7711 -0.6022 -0.2066
vn -0.5817 0.7983 -0.1559
vn -0.5645 -0.6022 -0.5645
vn -0.4259 0.7983 -0.4259
vn -0.2066 -0.6022 -0.7711
vn -0.1559 0.7983 -0.5817
vn -0.0000 -1.0000 -0.0000
vn 0.2489 0.2746 -0.9288
vn -0.2489 0.2746 -0.9288
vn -0.0000 1.0000 -0.0000
vn 0.6799 0.2746 -0.6799
vn 0.9288 0.2746 -0.2489
vn 0.9288 0.2746 0.2489
vn 0.6799 0.2746 0.6799
vn 0.2489 0.2746 0.9288
vn -0.2489 0.2746 0.9288
vn -0.6799 0.2746 0.6799
vn -0.9288 0.2746 0.2489
vn -0.9288 0.2746 -0.2489
vn -0.6799 0.2746 -0.6799
vt 0.869825 0.457544
vt 0.750000 0.471020
vt 0.750000 0.489651
vt 0.250000 0.490000
vt 0.352019 0.426702
vt 0.370000 0.457846
vt 0.957544 0.369825
vt 0.860510 0.441409
vt 0.426702 0.352019
vt 0.457846 0.370000
vt 0.989651 0.250000
vt 0.941409 0.360510
vt 0.454038 0.250000
vt 0.490000 0.250000
vt 0.957544 0.130175
vt 0.971020 0.250000
vt 0.426702 0.147981
vt 0.457846 0.130000
vt 0.869825 0.042456
vt 0.941409 0.139490
vt 0.352019 0.073298
vt 0.370000 0.042154
vt 0.750000 0.010349
vt 0.860510 0.058591
vt 0.250000 0.045962
vt 0.250000 0.010000
vt 0.630175 0.042456
vt 0.750000 0.028980
vt 0.147981 0.073298
vt 0.130000 0.042154
vt 0.542456 0.130175
vt 0.639490 0.058591
vt 0.073298 0.147981
vt 0.042154 0.130000
vt 0.510349 0.250000
vt 0.558591 0.139490
vt 0.045962 0.250000
vt 0.010000 0.250000
vt 0.542456 0.369825
vt 0.528980 0.250000
vt 0.073298 0.352019
vt 0.042154 0.370000
vt 0.630175 0.457544
vt 0.558591 0.360510
vt 0.147981 0.426702
vt 0.130000 0.457846
vt 0.639490 0.441409
vt 0.250000 0.454038
vt 1.000000 0.977006
vt 0.916667 0.522994
vt 1.000000 0.522994
vt 0.083333 0.522994
vt 0.000000 0.977006
vt 0.000000 0.522994
vt 0.916667 0.977006
vt 0.833333 0.522994
vt 0.750000 0.977006
vt 0.750000 0.522994
vt 0.666667 0.522994
vt 0.666667 0.977006
vt 0.583333 0.522994
vt 0.500000 0.977006
vt 0.500000 0.522994
vt 0.416667 0.522994
vt 0.416667 0.977006
vt 0.333333 0.522994
vt 0.250000 0.977006
vt 0.250000 0.522994
vt 0.166667 0.522994
vt 0.166667 0.977006
vt 0.083333 0.977006
vt 0.833333 0.977006
vt 0.583333 0.977006
vt 0.333333 0.977006
s 0
g QilinBell_Body.001_MAT_BrightGold
usemtl MAT_BrightGold
f 6/1/1 1/2/1 2/3/1
f 4/4/2 7/5/2 8/6/2
f 10/7/3 5/8/3 6/1/3
f 8/6/4 11/9/4 12/10/4
f 14/11/5 9/12/5 10/7/5
f 12/10/6 15/13/6 16/14/6
f 18/15/7 13/16/7 14/11/7
f 16/14/8 19/17/8 20/18/8
f 22/19/9 17/20/9 18/15/9
f 20/18/10 23/21/10 24/22/10
f 26/23/11 21/24/11 22/19/11
f 24/22/12 27/25/12 28/26/12
f 30/27/13 25/28/13 26/23/13
f 28/26/14 31/29/14 32/30/14
f 34/31/15 29/32/15 30/27/15
f 32/30/16 35/33/16 36/34/16
f 38/35/17 33/36/17 34/31/17
f 36/34/18 39/37/18 40/38/18
f 42/39/19 37/40/19 38/35/19
f 40/38/20 43/41/20 44/42/20
f 46/43/21 41/44/21 42/39/21
f 44/42/22 47/45/22 48/46/22
f 2/3/23 45/47/23 46/43/23
f 48/46/24 3/48/24 4/4/24
f 13/16/25 29/32/25 45/47/25
f 4/49/26 6/50/26 2/51/26
f 46/52/27 4/53/27 2/54/27
f 43/41/28 27/25/28 11/9/28
f 8/55/29 10/56/29 6/50/29
f 10/56/30 16/57/30 14/58/30
f 16/57/31 18/59/31 14/58/31
f 20/60/32 22/61/32 18/59/32
f 22/61/33 28/62/33 26/63/33
f 28/62/34 30/64/34 26/63/34
f 32/65/35 34/66/35 30/64/35
f 34/66/36 40/67/36 38/68/36
f 40/67/37 42/69/37 38/68/37
f 44/70/38 46/52/38 42/69/38
f 6/1/1 5/8/1 1/2/1
f 4/4/2 3/48/2 7/5/2
f 10/7/3 9/12/3 5/8/3
f 8/6/4 7/5/4 11/9/4
f 14/11/5 13/16/5 9/12/5
f 12/10/6 11/9/6 15/13/6
f 18/15/7 17/20/7 13/16/7
f 16/14/8 15/13/8 19/17/8
f 22/19/9 21/24/9 17/20/9
f 20/18/10 19/17/10 23/21/10
f 26/23/11 25/28/11 21/24/11
f 24/22/12 23/21/12 27/25/12
f 30/27/13 29/32/13 25/28/13
f 28/26/14 27/25/14 31/29/14
f 34/31/15 33/36/15 29/32/15
f 32/30/16 31/29/16 35/33/16
f 38/35/17 37/40/17 33/36/17
f 36/34/18 35/33/18 39/37/18
f 42/39/19 41/44/19 37/40/19
f 40/38/20 39/37/20 43/41/20
f 46/43/21 45/47/21 41/44/21
f 44/42/22 43/41/22 47/45/22
f 2/3/23 1/2/23 45/47/23
f 48/46/24 47/45/24 3/48/24
f 45/47/25 1/2/25 5/8/25
f 5/8/25 9/12/25 13/16/25
f 13/16/25 17/20/25 21/24/25
f 21/24/25 25/28/25 29/32/25
f 29/32/25 33/36/25 37/40/25
f 37/40/25 41/44/25 45/47/25
f 45/47/25 5/8/25 13/16/25
f 13/16/25 21/24/25 29/32/25
f 29/32/25 37/40/25 45/47/25
f 4/49/26 8/55/26 6/50/26
f 46/52/27 48/71/27 4/53/27
f 11/9/28 7/5/28 3/48/28
f 3/48/28 47/45/28 43/41/28
f 43/41/28 39/37/28 35/33/28
f 35/33/28 31/29/28 27/25/28
f 27/25/28 23/21/28 19/17/28
f 19/17/28 15/13/28 11/9/28
f 11/9/28 3/48/28 43/41/28
f 43/41/28 35/33/28 27/25/28
f 27/25/28 19/17/28 11/9/28
f 8/55/29 12/72/29 10/56/29
f 10/56/30 12/72/30 16/57/30
f 16/57/31 20/60/31 18/59/31
f 20/60/32 24/73/32 22/61/32
f 22/61/33 24/73/33 28/62/33
f 28/62/34 32/65/34 30/64/34
f 32/65/35 36/74/35 34/66/35
f 34/66/36 36/74/36 40/67/36
f 40/67/37 44/70/37 42/69/37
f 44/70/38 48/71/38 46/52/38
g QilinBell_Clapper.001_Mesh
v 0.000000 -1.190000 -0.047802
v -0.018019 -1.170000 -0.061322
v 0.018019 -1.170000 -0.061322
v -0.000000 -0.450000 -0.047802
v 0.018019 -0.470000 -0.061322
v -0.018019 -0.470000 -0.061322
v 0.037373 -1.190000 -0.029804
v 0.036709 -1.170000 -0.052322
v 0.059179 -1.170000 -0.024146
v 0.037373 -0.450000 -0.029804
v 0.059179 -0.470000 -0.024146
v 0.036709 -0.470000 -0.052322
v 0.046603 -1.190000 0.010637
v 0.063795 -1.170000 -0.003922
v 0.055775 -1.170000 0.031213
v 0.046603 -0.450000 0.010637
v 0.055775 -0.470000 0.031213
v 0.063795 -0.470000 -0.003922
v 0.020740 -1.190000 0.043068
v 0.042842 -1.170000 0.047431
v 0.010372 -1.170000 0.063068
v 0.020740 -0.450000 0.043068
v 0.010372 -0.470000 0.063068
v 0.042842 -0.470000 0.047431
v -0.020740 -1.190000 0.043068
v -0.010372 -1.170000 0.063068
v -0.042842 -1.170000 0.047431
v -0.020740 -0.450000 0.043068
v -0.042842 -0.470000 0.047431
v -0.010372 -0.470000 0.063068
v -0.046603 -1.190000 0.010637
v -0.055775 -1.170000 0.031213
v -0.063795 -1.170000 -0.003922
v -0.046603 -0.450000 0.010637
v -0.063795 -0.470000 -0.003922
v -0.055775 -0.470000 0.031213
v -0.037373 -1.190000 -0.029804
v -0.059179 -1.170000 -0.024146
v -0.036709 -1.170000 -0.052322
v -0.037373 -0.450000 -0.029804
v -0.036709 -0.470000 -0.052322
v -0.059179 -0.470000 -0.024146
vn -0.0000 -0.5601 -0.8285
vn -0.0000 0.5601 -0.8285
vn 0.6477 -0.5601 -0.5165
vn 0.6477 0.5601 -0.5165
vn 0.8077 -0.5601 0.1843
vn 0.8077 0.5601 0.1843
vn 0.3595 -0.5601 0.7464
vn 0.3595 0.5601 0.7464
vn -0.3595 -0.5601 0.7464
vn -0.3595 0.5601 0.7464
vn -0.8077 -0.5601 0.1843
vn -0.8077 0.5601 0.1843
vn -0.6477 -0.5601 -0.5165
vn -0.6477 0.5601 -0.5165
vn 0.3068 -0.7071 -0.6371
vn 0.3068 0.7071 -0.6371
vn -0.0000 -0.0000 -1.0000
vn 0.7818 -0.0000 -0.6235
vn 0.6894 -0.7071 -0.1573
vn 0.6894 0.7071 -0.1573
vn 0.9749 -0.0000 0.2225
vn 0.5528 -0.7071 0.4409
vn 0.5528 0.7071 0.4409
vn 0.4339 -0.0000 0.9010
vn -0.0000 -0.7071 0.7071
vn -0.0000 0.7071 0.7071
vn -0.4339 -0.0000 0.9010
vn -0.5528 -0.7071 0.4409
vn -0.5528 0.7071 0.4409
vn -0.9749 -0.0000 0.2225
vn -0.6894 -0.7071 -0.1573
vn -0.6894 0.7071 -0.1573
vn -0.7818 -0.0000 -0.6235
vn -0.3068 -0.7071 -0.6371
vn -0.3068 0.7071 -0.6371
vn -0.0000 -1.0000 -0.0000
vn 0.4339 -0.0000 -0.9010
vn -0.4339 -0.0000 -0.9010
vn -0.0000 1.0000 -0.0000
vn 0.9749 -0.0000 -0.2225
vn 0.7818 -0.0000 0.6235
vn -0.0000 -0.0000 1.0000
vn -0.7818 -0.0000 0.6235
vn -0.9749 -0.0000 -0.2225
vt 0.750000 0.413891
vt 0.688219 0.460248
vt 0.811781 0.460248
vt 0.250000 0.413891
vt 0.311781 0.460248
vt 0.188219 0.460248
vt 0.878135 0.352185
vt 0.875859 0.429390
vt 0.952898 0.332785
vt 0.378135 0.352185
vt 0.452898 0.332785
vt 0.375859 0.429390
vt 0.909782 0.213531
vt 0.968724 0.263447
vt 0.941229 0.142984
vt 0.409782 0.213531
vt 0.441229 0.142984
vt 0.468724 0.263447
vt 0.821110 0.102339
vt 0.896886 0.087379
vt 0.785561 0.033768
vt 0.321110 0.102339
vt 0.285561 0.033768
vt 0.396886 0.087379
vt 0.678890 0.102339
vt 0.714439 0.033768
vt 0.603114 0.087379
vt 0.178890 0.102339
vt 0.103114 0.087379
vt 0.214439 0.033768
vt 0.590218 0.213531
vt 0.558771 0.142984
vt 0.531276 0.263447
vt 0.090218 0.213531
vt 0.031276 0.263447
vt 0.058771 0.142984
vt 0.621864 0.352185
vt 0.547102 0.332785
vt 0.624141 0.429390
vt 0.121864 0.352185
vt 0.124141 0.429390
vt 0.047102 0.332785
vt 0.047036 0.986486
vt 0.000000 0.513514
vt 0.047036 0.513514
vt 0.810107 0.513514
vt 0.904179 0.986486
vt 0.810107 0.986486
vt 0.667250 0.513514
vt 0.761322 0.986486
vt 0.667250 0.986486
vt 0.524393 0.513514
vt 0.618465 0.986486
vt 0.524393 0.986486
vt 0.381535 0.513514
vt 0.475607 0.986486
vt 0.381535 0.986486
vt 0.238678 0.513514
vt 0.332750 0.986486
vt 0.238678 0.986486
vt 0.095821 0.513514
vt 0.189893 0.986486
vt 0.095821 0.986487
vt 0.952964 0.986486
vt 0.904179 0.513514
vt 0.952964 0.513514
vt 0.761322 0.513514
vt 0.618465 0.513514
vt 0.475608 0.513514
vt 0.332750 0.513514
vt 0.189893 0.513514
vt 0.000000 0.986486
s 0
g QilinBell_Clapper.001_MAT_DarkIron
usemtl MAT_DarkIron
f 49/75/39 50/76/39 51/77/39
f 52/78/40 53/79/40 54/80/40
f 55/81/41 56/82/41 57/83/41
f 58/84/42 59/85/42 60/86/42
f 61/87/43 62/88/43 63/89/43
f 64/90/44 65/91/44 66/92/44
f 67/93/45 68/94/45 69/95/45
f 70/96/46 71/97/46 72/98/46
f 73/99/47 74/100/47 75/101/47
f 76/102/48 77/103/48 78/104/48
f 79/105/49 80/106/49 81/107/49
f 82/108/50 83/109/50 84/110/50
f 85/111/51 86/112/51 87/113/51
f 88/114/52 89/115/52 90/116/52
f 56/82/53 49/75/53 51/77/53
f 53/79/54 58/84/54 60/86/54
f 54/117/55 51/118/55 50/119/55
f 57/120/56 60/121/56 59/122/56
f 57/83/57 61/87/57 55/81/57
f 59/85/58 64/90/58 66/92/58
f 63/123/59 66/124/59 65/125/59
f 68/94/60 61/87/60 63/89/60
f 65/91/61 70/96/61 72/98/61
f 69/126/62 72/127/62 71/128/62
f 74/100/63 67/93/63 69/95/63
f 71/97/64 76/102/64 78/104/64
f 75/129/65 78/130/65 77/131/65
f 80/106/66 73/99/66 75/101/66
f 77/103/67 82/108/67 84/110/67
f 81/132/68 84/133/68 83/134/68
f 86/112/69 79/105/69 81/107/69
f 90/116/70 82/108/70 88/114/70
f 87/135/71 90/136/71 89/137/71
f 50/76/72 85/111/72 87/113/72
f 89/115/73 52/78/73 54/80/73
f 55/81/74 67/93/74 79/105/74
f 53/138/75 56/139/75 51/140/75
f 89/137/76 50/119/76 87/135/76
f 52/78/77 82/108/77 70/96/77
f 59/122/78 62/141/78 57/120/78
f 65/125/79 68/142/79 63/123/79
f 71/128/80 74/143/80 69/126/80
f 77/131/81 80/144/81 75/129/81
f 83/134/82 86/145/82 81/132/82
f 56/82/53 55/81/53 49/75/53
f 53/79/54 52/78/54 58/84/54
f 54/117/55 53/146/55 51/118/55
f 57/120/56 56/139/56 60/121/56
f 57/83/57 62/88/57 61/87/57
f 59/85/58 58/84/58 64/90/58
f 63/123/59 62/141/59 66/124/59
f 68/94/60 67/93/60 61/87/60
f 65/91/61 64/90/61 70/96/61
f 69/126/62 68/142/62 72/127/62
f 74/100/63 73/99/63 67/93/63
f 71/97/64 70/96/64 76/102/64
f 75/129/65 74/143/65 78/130/65
f 80/106/66 79/105/66 73/99/66
f 77/103/67 76/102/67 82/108/67
f 81/132/68 80/144/68 84/133/68
f 86/112/69 85/111/69 79/105/69
f 90/116/70 83/109/70 82/108/70
f 87/135/71 86/145/71 90/136/71
f 50/76/72 49/75/72 85/111/72
f 89/115/73 88/114/73 52/78/73
f 85/111/74 49/75/74 55/81/74
f 55/81/74 61/87/74 67/93/74
f 67/93/74 73/99/74 79/105/74
f 79/105/74 85/111/74 55/81/74
f 53/138/75 60/121/75 56/139/75
f 89/137/76 54/117/76 50/119/76
f 64/90/77 58/84/77 52/78/77
f 52/78/77 88/114/77 82/108/77
f 82/108/77 76/102/77 70/96/77
f 70/96/77 64/90/77 52/78/77
f 59/122/78 66/124/78 62/141/78
f 65/125/79 72/127/79 68/142/79
f 71/128/80 78/130/80 74/143/80
f 77/131/81 84/133/81 80/144/81
f 83/134/82 90/136/82 86/145/82
g QilinBell_ClapperBall.001_Mesh
v 0.000000 -1.400000 0.000000
v 0.130248 -1.300499 0.084115
v -0.049749 -1.300499 0.136102
v -0.160996 -1.300499 0.000000
v -0.049749 -1.300499 -0.136102
v 0.130248 -1.300499 -0.084115
v 0.049749 -1.139502 0.136102
v -0.130248 -1.139502 0.084115
v -0.130248 -1.139502 -0.084115
v 0.049749 -1.139502 -0.136102
v 0.160996 -1.139502 0.000000
v 0.000000 -1.040000 0.000000
vn 0.1798 -0.7616 0.6225
vn 0.6071 -0.7947 -0.0000
vn -0.4830 -0.7815 0.3948
vn -0.4830 -0.7815 -0.3948
vn 0.1798 -0.7616 -0.6225
vn 0.9822 -0.1876 -0.0000
vn 0.2735 -0.1690 0.9469
vn -0.7616 -0.1798 0.6226
vn -0.7616 -0.1798 -0.6226
vn 0.2735 -0.1690 -0.9469
vn 0.7616 0.1798 0.6226
vn -0.2735 0.1690 0.9469
vn -0.9822 0.1876 -0.0000
vn -0.2735 0.1690 -0.9469
vn 0.7616 0.1798 -0.6226
vn 0.4830 0.7815 0.3948
vn -0.1798 0.7616 0.6225
vn -0.6071 0.7947 -0.0000
vn -0.1798 0.7616 -0.6225
vn 0.4830 0.7815 -0.3948
vt 0.181819 0.000000
vt 0.272728 0.157461
vt 0.090910 0.157461
vt 0.363637 0.000000
vt 0.454546 0.157461
vt 0.909091 0.000000
vt 1.000000 0.157461
vt 0.818182 0.157461
vt 0.727273 0.000000
vt 0.636364 0.157461
vt 0.545455 0.000000
vt 0.363637 0.314921
vt 0.181819 0.314921
vt 0.909091 0.314921
vt 0.727273 0.314921
vt 0.545455 0.314921
vt 0.000000 0.314921
vt 0.272728 0.472382
vt 0.090910 0.472382
vt 0.818182 0.472382
vt 0.636364 0.472382
vt 0.454546 0.472382
s 0
g QilinBell_ClapperBall.001_MAT_DarkIron
usemtl MAT_DarkIron
f 91/147/83 92/148/83 93/149/83
f 92/148/84 91/150/84 96/151/84
f 91/152/85 93/153/85 94/154/85
f 91/155/86 94/154/86 95/156/86
f 91/157/87 95/156/87 96/151/87
f 92/148/88 96/151/88 101/158/88
f 93/149/89 92/148/89 97/159/89
f 94/154/90 93/153/90 98/160/90
f 95/156/91 94/154/91 99/161/91
f 96/151/92 95/156/92 100/162/92
f 92/148/93 101/158/93 97/159/93
f 93/149/94 97/159/94 98/163/94
f 94/154/95 98/160/95 99/161/95
f 95/156/96 99/161/96 100/162/96
f 96/151/97 100/162/97 101/158/97
f 97/159/98 101/158/98 102/164/98
f 98/163/99 97/159/99 102/165/99
f 99/161/100 98/160/100 102/166/100
f 100/162/101 99/161/101 102/167/101
f 101/158/102 100/162/102 102/168/102
g QilinBell_Handle.001_Mesh
v 0.435000 0.720000 0.000000
v 0.360000 0.720000 0.075000
v 0.285000 0.720000 0.000000
v 0.360000 0.720000 -0.075000
v 0.391921 0.908740 -0.000000
v 0.324349 0.876198 0.075000
v 0.256776 0.843657 -0.000000
v 0.324349 0.876198 -0.075000
v 0.271218 1.060097 -0.000000
v 0.224456 1.001460 0.075000
v 0.177695 0.942822 -0.000000
v 0.224456 1.001460 -0.075000
v 0.096797 1.144094 -0.000000
v 0.080108 1.070974 0.075000
v 0.063419 0.997855 -0.000000
v 0.080108 1.070974 -0.075000
v -0.096797 1.144094 -0.000000
v -0.080108 1.070974 0.075000
v -0.063418 0.997855 -0.000000
v -0.080108 1.070974 -0.075000
v -0.271218 1.060097 -0.000000
v -0.224456 1.001460 0.075000
v -0.177695 0.942822 -0.000000
v -0.224456 1.001460 -0.075000
v -0.391921 0.908740 -0.000000
v -0.324349 0.876198 0.075000
v -0.256776 0.843657 -0.000000
v -0.324349 0.876198 -0.075000
v -0.435000 0.720000 -0.000000
v -0.360000 0.720000 0.075000
v -0.285000 0.720000 -0.000000
v -0.360000 0.720000 -0.075000
v -0.391922 0.531261 0.000000
v -0.324349 0.563802 0.075000
v -0.256776 0.596344 0.000000
v -0.324349 0.563802 -0.075000
v -0.271218 0.379904 0.000000
v -0.224456 0.438541 0.075000
v -0.177695 0.497178 0.000000
v -0.224456 0.438541 -0.075000
v -0.096797 0.295907 0.000000
v -0.080108 0.369026 0.075000
v -0.063418 0.442146 0.000000
v -0.080108 0.369026 -0.075000
v 0.096797 0.295907 0.000000
v 0.080108 0.369026 0.075000
v 0.063419 0.442146 0.000000
v 0.080108 0.369026 -0.075000
v 0.271218 0.379903 0.000000
v 0.224456 0.438541 0.075000
v 0.177694 0.497178 0.000000
v 0.224456 0.438541 -0.075000
v 0.391921 0.531261 0.000000
v 0.324349 0.563802 0.075000
v 0.256776 0.596343 0.000000
v 0.324349 0.563802 -0.075000
vn 0.6981 0.1593 0.6981
vn -0.6981 -0.1593 0.6981
vn -0.6981 -0.1593 -0.6981
vn 0.6981 0.1593 -0.6981
vn 0.5598 0.4464 0.6981
vn -0.5598 -0.4464 0.6981
vn -0.5598 -0.4464 -0.6981
vn 0.5598 0.4464 -0.6981
vn 0.3107 0.6451 0.6981
vn -0.3107 -0.6451 0.6981
vn -0.3107 -0.6451 -0.6981
vn 0.3107 0.6451 -0.6981
vn -0.0000 0.7160 0.6981
vn -0.0000 -0.7160 0.6981
vn -0.0000 -0.7160 -0.6981
vn -0.0000 0.7160 -0.6981
vn -0.3107 0.6451 0.6981
vn 0.3107 -0.6451 0.6981
vn 0.3107 -0.6451 -0.6981
vn -0.3107 0.6451 -0.6981
vn -0.5598 0.4464 0.6981
vn 0.5598 -0.4464 0.6981
vn 0.5598 -0.4464 -0.6981
vn -0.5598 0.4464 -0.6981
vn -0.6981 0.1593 0.6981
vn 0.6981 -0.1593 0.6981
vn 0.6981 -0.1593 -0.6981
vn -0.6981 0.1593 -0.6981
vt 0.571429 0.500000
vt 0.500000 0.750000
vt 0.500000 0.500000
vt 0.571429 0.750000
vt 0.500000 1.000000
vt 0.500000 0.000000
vt 0.571429 0.250000
vt 0.500000 0.250000
vt 0.642857 0.500000
vt 0.642857 1.000000
vt 0.571429 1.000000
vt 0.571429 0.000000
vt 0.642857 0.250000
vt 0.714286 0.500000
vt 0.642857 0.750000
vt 0.714286 0.750000
vt 0.714286 0.000000
vt 0.642857 0.000000
vt 0.714286 0.250000
vt 0.785714 0.500000
vt 0.785714 0.750000
vt 0.714286 1.000000
vt 0.785714 0.000000
vt 0.785714 0.250000
vt 0.857143 0.750000
vt 0.785714 1.000000
vt 0.857143 0.000000
vt 0.857143 0.250000
vt 0.928571 0.500000
vt 0.857143 0.500000
vt 0.928571 0.750000
vt 0.857143 1.000000
vt 0.928571 0.000000
vt 0.928571 0.250000
vt 1.000000 0.500000
vt 1.000000 0.750000
vt 0.928571 1.000000
vt 1.000000 0.250000
vt 0.071429 0.500000
vt -0.000000 0.750000
vt -0.000000 0.500000
vt 0.071429 0.750000
vt -0.000000 1.000000
vt 0.071429 0.000000
vt -0.000000 0.250000
vt -0.000000 0.000000
vt 0.071429 0.250000
vt 0.142857 0.750000
vt 0.071429 1.000000
vt 0.142857 0.000000
vt 0.142857 0.250000
vt 0.214286 0.500000
vt 0.142857 0.500000
vt 0.214286 0.750000
vt 0.142857 1.000000
vt 0.214286 0.000000
vt 0.285714 0.500000
vt 0.285714 0.750000
vt 0.214286 1.000000
vt 0.285714 0.000000
vt 0.214286 0.250000
vt 0.285714 0.250000
vt 0.357143 0.500000
vt 0.357143 0.750000
vt 0.285714 1.000000
vt 0.357143 0.000000
vt 0.357143 0.250000
vt 0.428571 0.500000
vt 0.428571 0.750000
vt 0.357143 1.000000
vt 0.428571 0.000000
vt 0.428571 0.250000
vt 0.428571 1.000000
vt 1.000000 1.000000
vt 1.000000 0.000000
s 0
g QilinBell_Handle.001_MAT_OldGold
usemtl MAT_OldGold
f 107/169/103 104/170/103 103/171/103
f 108/172/104 105/173/104 104/170/104
f 105/174/105 110/175/105 106/176/105
f 110/175/106 103/171/106 106/176/106
f 111/177/107 108/172/107 107/169/107
f 108/172/108 113/178/108 109/179/108
f 109/180/109 114/181/109 110/175/109
f 114/181/110 107/169/110 110/175/110
f 115/182/111 112/183/111 111/177/111
f 116/184/112 113/178/112 112/183/112
f 117/185/113 114/181/113 113/186/113
f 118/187/114 111/177/114 114/181/114
f 119/188/115 116/184/115 115/182/115
f 120/189/116 117/190/116 116/184/116
f 121/191/117 118/187/117 117/185/117
f 122/192/118 115/182/118 118/187/118
f 119/188/119 124/193/119 120/189/119
f 124/193/120 121/194/120 120/189/120
f 125/195/121 122/192/121 121/191/121
f 126/196/122 119/188/122 122/192/122
f 127/197/123 124/193/123 123/198/123
f 128/199/124 125/200/124 124/193/124
f 129/201/125 126/196/125 125/195/125
f 130/202/126 123/198/126 126/196/126
f 131/203/127 128/199/127 127/197/127
f 132/204/128 129/205/128 128/199/128
f 129/201/129 134/206/129 130/202/129
f 130/202/130 131/203/130 127/197/130
f 135/207/104 132/208/104 131/209/104
f 136/210/103 133/211/103 132/208/103
f 137/212/106 134/213/106 133/214/106
f 138/215/105 131/209/105 134/213/105
f 135/207/108 140/216/108 136/210/108
f 140/216/107 137/217/107 136/210/107
f 141/218/110 138/215/110 137/212/110
f 142/219/109 135/207/109 138/215/109
f 143/220/112 140/216/112 139/221/112
f 144/222/111 141/223/111 140/216/111
f 145/224/114 142/219/114 141/218/114
f 142/219/113 143/220/113 139/221/113
f 147/225/116 144/222/116 143/220/116
f 148/226/115 145/227/115 144/222/115
f 149/228/118 146/229/118 145/224/118
f 150/230/117 143/220/117 146/229/117
f 151/231/120 148/226/120 147/225/120
f 152/232/119 149/233/119 148/226/119
f 153/234/122 150/230/122 149/228/122
f 154/235/121 147/225/121 150/230/121
f 155/236/124 152/232/124 151/231/124
f 156/237/123 153/238/123 152/232/123
f 157/239/126 154/235/126 153/234/126
f 158/240/125 151/231/125 154/235/125
f 155/236/128 104/170/128 156/237/128
f 104/170/127 157/241/127 156/237/127
f 105/174/130 158/240/130 157/239/130
f 106/176/129 155/236/129 158/240/129
f 107/169/103 108/172/103 104/170/103
f 108/172/104 109/179/104 105/173/104
f 105/174/105 109/180/105 110/175/105
f 110/175/106 107/169/106 103/171/106
f 111/177/107 112/183/107 108/172/107
f 108/172/108 112/183/108 113/178/108
f 109/180/109 113/186/109 114/181/109
f 114/181/110 111/177/110 107/169/110
f 115/182/111 116/184/111 112/183/111
f 116/184/112 117/190/112 113/178/112
f 117/185/113 118/187/113 114/181/113
f 118/187/114 115/182/114 111/177/114
f 119/188/115 120/189/115 116/184/115
f 120/189/116 121/194/116 117/190/116
f 121/191/117 122/192/117 118/187/117
f 122/192/118 119/188/118 115/182/118
f 119/188/119 123/198/119 124/193/119
f 124/193/120 125/200/120 121/194/120
f 125/195/121 126/196/121 122/192/121
f 126/196/122 123/198/122 119/188/122
f 127/197/123 128/199/123 124/193/123
f 128/199/124 129/205/124 125/200/124
f 129/201/125 130/202/125 126/196/125
f 130/202/126 127/197/126 123/198/126
f 131/203/127 132/204/127 128/199/127
f 132/204/128 133/242/128 129/205/128
f 129/201/129 133/243/129 134/206/129
f 130/202/130 134/206/130 131/203/130
f 135/207/104 136/210/104 132/208/104
f 136/210/103 137/217/103 133/211/103
f 137/212/106 138/215/106 134/213/106
f 138/215/105 135/207/105 131/209/105
f 135/207/108 139/221/108 140/216/108
f 140/216/107 141/223/107 137/217/107
f 141/218/110 142/219/110 138/215/110
f 142/219/109 139/221/109 135/207/109
f 143/220/112 144/222/112 140/216/112
f 144/222/111 145/227/111 141/223/111
f 145/224/114 146/229/114 142/219/114
f 142/219/113 146/229/113 143/220/113
f 147/225/116 148/226/116 144/222/116
f 148/226/115 149/233/115 145/227/115
f 149/228/118 150/230/118 146/229/118
f 150/230/117 147/225/117 143/220/117
f 151/231/120 152/232/120 148/226/120
f 152/232/119 153/238/119 149/233/119
f 153/234/122 154/235/122 150/230/122
f 154/235/121 151/231/121 147/225/121
f 155/236/124 156/237/124 152/232/124
f 156/237/123 157/241/123 153/238/123
f 157/239/126 158/240/126 154/235/126
f 158/240/125 155/236/125 151/231/125
f 155/236/128 103/171/128 104/170/128
f 104/170/127 105/173/127 157/241/127
f 105/174/130 106/176/130 158/240/130
f 106/176/129 103/171/129 155/236/129
g QilinBell_Horn-1.001_Mesh
v -0.446833 0.133417 0.040000
v -0.448846 0.111759 0.040000
v -0.502398 0.127658 0.070000
v -1.073167 0.446584 0.040000
v -1.025538 0.389228 0.070000
v -1.085238 0.433883 0.040000
v -0.811154 0.008242 0.040000
v -0.854762 0.026117 0.040000
v -0.825514 0.035340 0.070000
v -0.448846 0.111759 -0.040000
v -0.446833 0.133417 -0.040000
v -0.502398 0.127658 -0.070000
v -1.073167 0.446584 -0.040000
v -1.085238 0.433883 -0.040000
v -1.025538 0.389228 -0.070000
v -0.811154 0.008242 -0.040000
v -0.825514 0.035340 -0.070000
v -0.854762 0.026117 -0.040000
vn -0.4782 0.0444 -0.8771
vn 0.2722 -0.2587 -0.9268
vn 0.3174 0.7743 -0.5475
vn -0.4782 0.0444 0.8771
vn 0.2722 -0.2587 0.9268
vn 0.3174 0.7743 0.5475
vn -0.3162 -0.6325 -0.7071
vn -0.1943 0.6799 -0.7071
vn 0.6156 0.3479 -0.7071
vn -0.1943 0.6799 0.7071
vn -0.3162 -0.6325 0.7071
vn 0.6156 0.3479 0.7071
vn -0.9957 0.0925 -0.0000
vn 0.7248 -0.6889 -0.0000
vn 0.3793 0.9253 -0.0000
vn -0.4472 -0.8944 -0.0000
vn -0.0000 -0.0000 -1.0000
vn -0.2747 0.9615 -0.0000
vn 0.8706 0.4921 -0.0000
vn -0.0000 -0.0000 1.0000
s 0
g QilinBell_Horn-1.001_MAT_Teal
usemtl MAT_Teal
f 159//131 160//131 161//131
f 162//132 163//132 164//132
f 165//133 166//133 167//133
f 168//134 169//134 170//134
f 171//135 172//135 173//135
f 174//136 175//136 176//136
f 163//137 159//137 161//137
f 165//138 161//138 160//138
f 163//139 166//139 164//139
f 170//140 174//140 168//140
f 169//141 173//141 170//141
f 176//142 173//142 172//142
f 169//143 160//143 159//143
f 172//144 162//144 164//144
f 174//145 166//145 165//145
f 162//146 169//146 159//146
f 161//147 167//147 163//147
f 160//148 174//148 165//148
f 164//149 176//149 172//149
f 170//150 173//150 175//150
f 163//137 162//137 159//137
f 165//138 167//138 161//138
f 163//139 167//139 166//139
f 170//140 175//140 174//140
f 169//141 171//141 173//141
f 176//142 175//142 173//142
f 169//143 168//143 160//143
f 172//144 171//144 162//144
f 174//145 176//145 166//145
f 162//146 171//146 169//146
f 160//148 168//148 174//148
f 164//149 166//149 176//149
g QilinBell_Horn1.001_Mesh
v 0.446833 0.133417 0.040000
v 0.448846 0.111759 0.040000
v 0.502398 0.127658 0.070000
v 1.073167 0.446584 0.040000
v 1.025538 0.389228 0.070000
v 1.085238 0.433883 0.040000
v 0.811154 0.008242 0.040000
v 0.854762 0.026117 0.040000
v 0.825514 0.035340 0.070000
v 0.448846 0.111759 -0.040000
v 0.446833 0.133417 -0.040000
v 0.502398 0.127658 -0.070000
v 1.073167 0.446584 -0.040000
v 1.085238 0.433883 -0.040000
v 1.025538 0.389228 -0.070000
v 0.811154 0.008242 -0.040000
v 0.825514 0.035340 -0.070000
v 0.854762 0.026117 -0.040000
vn -0.4782 -0.0444 0.8771
vn 0.2722 0.2587 0.9268
vn 0.3174 -0.7743 0.5475
vn -0.4782 -0.0444 -0.8771
vn 0.2722 0.2587 -0.9268
vn 0.3174 -0.7743 -0.5475
vn -0.3162 0.6325 0.7071
vn -0.1943 -0.6799 0.7071
vn 0.6156 -0.3479 0.7071
vn -0.1943 -0.6799 -0.7071
vn -0.3162 0.6325 -0.7071
vn 0.6156 -0.3479 -0.7071
vn -0.9957 -0.0925 -0.0000
vn 0.7248 0.6889 -0.0000
vn 0.3793 -0.9253 -0.0000
vn -0.4472 0.8944 -0.0000
vn -0.0000 -0.0000 1.0000
vn -0.2747 -0.9615 -0.0000
vn 0.8706 -0.4921 -0.0000
vn -0.0000 -0.0000 -1.0000
s 0
g QilinBell_Horn1.001_MAT_Teal
usemtl MAT_Teal
f 177//151 178//151 179//151
f 180//152 181//152 182//152
f 183//153 184//153 185//153
f 186//154 187//154 188//154
f 189//155 190//155 191//155
f 192//156 193//156 194//156
f 181//157 177//157 179//157
f 183//158 179//158 178//158
f 181//159 184//159 182//159
f 188//160 192//160 186//160
f 187//161 191//161 188//161
f 194//162 191//162 190//162
f 187//163 178//163 177//163
f 190//164 180//164 182//164
f 192//165 184//165 183//165
f 180//166 187//166 177//166
f 179//167 185//167 181//167
f 178//168 192//168 183//168
f 182//169 194//169 190//169
f 188//170 191//170 193//170
f 181//157 180//157 177//157
f 183//158 185//158 179//158
f 181//159 185//159 184//159
f 188//160 193//160 192//160
f 187//161 189//161 191//161
f 194//162 193//162 191//162
f 187//163 186//163 178//163
f 190//164 189//164 180//164
f 192//165 194//165 184//165
f 180//166 189//166 187//166
f 178//168 186//168 192//168
f 182//169 184//169 194//169
g QilinBell_Rim.001_Mesh
v 0.800000 -0.720000 0.000000
v 0.720000 -0.640000 0.000000
v 0.640000 -0.720000 0.000000
v 0.720000 -0.800000 0.000000
v 0.720775 -0.720000 -0.347107
v 0.648698 -0.640000 -0.312396
v 0.576620 -0.720000 -0.277686
v 0.648698 -0.800000 -0.312396
v 0.498792 -0.720000 -0.625465
v 0.448913 -0.640000 -0.562919
v 0.399033 -0.720000 -0.500372
v 0.448913 -0.800000 -0.562919
v 0.178017 -0.720000 -0.779942
v 0.160215 -0.640000 -0.701948
v 0.142414 -0.720000 -0.623954
v 0.160215 -0.800000 -0.701948
v -0.178017 -0.720000 -0.779942
v -0.160215 -0.640000 -0.701948
v -0.142413 -0.720000 -0.623954
v -0.160215 -0.800000 -0.701948
v -0.498792 -0.720000 -0.625465
v -0.448913 -0.640000 -0.562919
v -0.399034 -0.720000 -0.500372
v -0.448913 -0.800000 -0.562919
v -0.720775 -0.720000 -0.347107
v -0.648698 -0.640000 -0.312396
v -0.576620 -0.720000 -0.277686
v -0.648698 -0.800000 -0.312396
v -0.800000 -0.720000 -0.000000
v -0.720000 -0.640000 -0.000000
v -0.640000 -0.720000 -0.000000
v -0.720000 -0.800000 -0.000000
v -0.720775 -0.720000 0.347107
v -0.648698 -0.640000 0.312396
v -0.576620 -0.720000 0.277685
v -0.648698 -0.800000 0.312396
v -0.498792 -0.720000 0.625465
v -0.448913 -0.640000 0.562919
v -0.399034 -0.720000 0.500372
v -0.448913 -0.800000 0.562919
v -0.178017 -0.720000 0.779942
v -0.160215 -0.640000 0.701948
v -0.142413 -0.720000 0.623954
v -0.160215 -0.800000 0.701948
v 0.178017 -0.720000 0.779942
v 0.160215 -0.640000 0.701948
v 0.142414 -0.720000 0.623954
v 0.160215 -0.800000 0.701948
v 0.498791 -0.720000 0.625466
v 0.448912 -0.640000 0.562919
v 0.399033 -0.720000 0.500372
v 0.448912 -0.800000 0.562919
v 0.720775 -0.720000 0.347107
v 0.648697 -0.640000 0.312397
v 0.576620 -0.720000 0.277686
v 0.648697 -0.800000 0.312397
vn 0.6981 0.6981 -0.1593
vn -0.6981 0.6981 0.1593
vn -0.6981 -0.6981 0.1593
vn 0.6981 -0.6981 -0.1593
vn 0.5598 0.6981 -0.4464
vn -0.5598 0.6981 0.4464
vn -0.5598 -0.6981 0.4464
vn 0.5598 -0.6981 -0.4464
vn 0.3107 0.6981 -0.6451
vn -0.3107 0.6981 0.6451
vn -0.3107 -0.6981 0.6451
vn 0.3107 -0.6981 -0.6451
vn -0.0000 0.6981 -0.7160
vn -0.0000 0.6981 0.7160
vn -0.0000 -0.6981 0.7160
vn -0.0000 -0.6981 -0.7160
vn -0.3107 0.6981 -0.6451
vn 0.3107 0.6981 0.6451
vn 0.3107 -0.6981 0.6451
vn -0.3107 -0.6981 -0.6451
vn -0.5598 0.6981 -0.4464
vn 0.5598 0.6981 0.4464
vn 0.5598 -0.6981 0.4464
vn -0.5598 -0.6981 -0.4464
vn -0.6981 0.6981 -0.1593
vn 0.6981 0.6981 0.1593
vn 0.6981 -0.6981 0.1593
vn -0.6981 -0.6981 -0.1593
vt 0.571429 0.500000
vt 0.500000 0.750000
vt 0.500000 0.500000
vt 0.571429 0.750000
vt 0.500000 1.000000
vt 0.571429 0.000000
vt 0.500000 0.250000
vt 0.500000 0.000000
vt 0.642857 0.500000
vt 0.642857 1.000000
vt 0.571429 1.000000
vt 0.642857 0.250000
vt 0.571429 0.250000
vt 0.714286 0.500000
vt 0.642857 0.750000
vt 0.714286 0.750000
vt 0.714286 0.000000
vt 0.642857 0.000000
vt 0.714286 0.250000
vt 0.785714 0.750000
vt 0.714286 1.000000
vt 0.785714 0.000000
vt 0.785714 0.500000
vt 0.857143 0.500000
vt 0.857143 0.750000
vt 0.785714 1.000000
vt 0.857143 0.250000
vt 0.785714 0.250000
vt 0.928571 0.500000
vt 0.928571 0.750000
vt 0.857143 1.000000
vt 0.857143 0.000000
vt 0.928571 0.250000
vt 1.000000 0.500000
vt 1.000000 1.000000
vt 0.928571 1.000000
vt 1.000000 0.000000
vt 0.928571 0.000000
vt 0.071429 0.500000
vt -0.000000 0.750000
vt -0.000000 0.500000
vt 0.071429 0.750000
vt -0.000000 1.000000
vt 0.071429 0.000000
vt -0.000000 0.250000
vt -0.000000 0.000000
vt 0.071429 0.250000
vt 0.142857 0.500000
vt 0.142857 0.750000
vt 0.071429 1.000000
vt 0.142857 0.250000
vt 0.214286 0.500000
vt 0.214286 1.000000
vt 0.142857 1.000000
vt 0.214286 0.000000
vt 0.142857 0.000000
vt 0.214286 0.250000
vt 0.285714 0.750000
vt 0.214286 0.750000
vt 0.285714 1.000000
vt 0.285714 0.000000
vt 0.285714 0.500000
vt 0.357143 0.500000
vt 0.357143 0.750000
vt 0.357143 0.000000
vt 0.285714 0.250000
vt 0.357143 0.250000
vt 0.428571 0.500000
vt 0.428571 0.750000
vt 0.357143 1.000000
vt 0.428571 0.000000
vt 0.428571 0.250000
vt 0.428571 1.000000
vt 1.000000 0.750000
vt 1.000000 0.250000
s 0
g QilinBell_Rim.001_MAT_OldGold
usemtl MAT_OldGold
f 199/244/171 196/245/171 195/246/171
f 200/247/172 197/248/172 196/245/172
f 201/249/173 198/250/173 197/251/173
f 198/250/174 199/244/174 195/246/174
f 203/252/175 200/247/175 199/244/175
f 200/247/176 205/253/176 201/254/176
f 201/249/177 206/255/177 202/256/177
f 206/255/178 199/244/178 202/256/178
f 207/257/179 204/258/179 203/252/179
f 208/259/180 205/253/180 204/258/180
f 209/260/181 206/255/181 205/261/181
f 210/262/182 203/252/182 206/255/182
f 207/257/183 212/263/183 208/259/183
f 212/263/184 209/264/184 208/259/184
f 213/265/185 210/262/185 209/260/185
f 210/262/186 211/266/186 207/257/186
f 215/267/187 212/263/187 211/266/187
f 216/268/188 213/269/188 212/263/188
f 213/265/189 218/270/189 214/271/189
f 218/270/190 211/266/190 214/271/190
f 219/272/191 216/268/191 215/267/191
f 220/273/192 217/274/192 216/268/192
f 217/275/193 222/276/193 218/270/193
f 218/270/194 219/272/194 215/267/194
f 223/277/195 220/273/195 219/272/195
f 220/273/196 225/278/196 221/279/196
f 225/280/197 222/276/197 221/281/197
f 222/276/198 223/277/198 219/272/198
f 227/282/172 224/283/172 223/284/172
f 228/285/171 225/286/171 224/283/171
f 229/287/174 226/288/174 225/289/174
f 230/290/173 223/284/173 226/288/173
f 231/291/176 228/285/176 227/282/176
f 232/292/175 229/293/175 228/285/175
f 229/287/178 234/294/178 230/290/178
f 230/290/177 231/291/177 227/282/177
f 235/295/180 232/292/180 231/291/180
f 232/292/179 237/296/179 233/297/179
f 237/298/182 234/294/182 233/299/182
f 238/300/181 231/291/181 234/294/181
f 235/295/184 240/301/184 236/302/184
f 236/302/183 241/303/183 237/296/183
f 241/304/186 238/300/186 237/298/186
f 238/300/185 239/305/185 235/295/185
f 243/306/188 240/301/188 239/305/188
f 244/307/187 241/303/187 240/301/187
f 245/308/190 242/309/190 241/304/190
f 246/310/189 239/305/189 242/309/189
f 247/311/192 244/307/192 243/306/192
f 248/312/191 245/313/191 244/307/191
f 249/314/194 246/310/194 245/308/194
f 250/315/193 243/306/193 246/310/193
f 247/311/196 196/245/196 248/312/196
f 196/245/195 249/316/195 248/312/195
f 197/251/198 250/315/198 249/314/198
f 198/250/197 247/311/197 250/315/197
f 199/244/171 200/247/171 196/245/171
f 200/247/172 201/254/172 197/248/172
f 201/249/173 202/256/173 198/250/173
f 198/250/174 202/256/174 199/244/174
f 203/252/175 204/258/175 200/247/175
f 200/247/176 204/258/176 205/253/176
f 201/249/177 205/261/177 206/255/177
f 206/255/178 203/252/178 199/244/178
f 207/257/179 208/259/179 204/258/179
f 208/259/180 209/264/180 205/253/180
f 209/260/181 210/262/181 206/255/181
f 210/262/182 207/257/182 203/252/182
f 207/257/183 211/266/183 212/263/183
f 212/263/184 213/269/184 209/264/184
f 213/265/185 214/271/185 210/262/185
f 210/262/186 214/271/186 211/266/186
f 215/267/187 216/268/187 212/263/187
f 216/268/188 217/274/188 213/269/188
f 213/265/189 217/275/189 218/270/189
f 218/270/190 215/267/190 211/266/190
f 219/272/191 220/273/191 216/268/191
f 220/273/192 221/279/192 217/274/192
f 217/275/193 221/281/193 222/276/193
f 218/270/194 222/276/194 219/272/194
f 223/277/195 224/317/195 220/273/195
f 220/273/196 224/317/196 225/278/196
f 225/280/197 226/318/197 222/276/197
f 222/276/198 226/318/198 223/277/198
f 227/282/172 228/285/172 224/283/172
f 228/285/171 229/293/171 225/286/171
f 229/287/174 230/290/174 226/288/174
f 230/290/173 227/282/173 223/284/173
f 231/291/176 232/292/176 228/285/176
f 232/292/175 233/297/175 229/293/175
f 229/287/178 233/299/178 234/294/178
f 230/290/177 234/294/177 231/291/177
f 235/295/180 236/302/180 232/292/180
f 232/292/179 236/302/179 237/296/179
f 237/298/182 238/300/182 234/294/182
f 238/300/181 235/295/181 231/291/181
f 235/295/184 239/305/184 240/301/184
f 236/302/183 240/301/183 241/303/183
f 241/304/186 242/309/186 238/300/186
f 238/300/185 242/309/185 239/305/185
f 243/306/188 244/307/188 240/301/188
f 244/307/187 245/313/187 241/303/187
f 245/308/190 246/310/190 242/309/190
f 246/310/189 243/306/189 239/305/189
f 247/311/192 248/312/192 244/307/192
f 248/312/191 249/316/191 245/313/191
f 249/314/194 250/315/194 246/310/194
f 250/315/193 247/311/193 243/306/193
f 247/311/196 195/246/196 196/245/196
f 196/245/195 197/248/195 249/316/195
f 197/251/198 198/250/198 250/315/198
f 198/250/197 195/246/197 247/311/197
