# Blender 5.0.1
# www.blender.org
mtllib water_scepter.mtl
g WaterScepter_Crescent.001_Mesh
v 0.930000 1.650000 0.000000
v 0.853992 1.650000 0.104616
v 0.731008 1.650000 0.064656
v 0.731008 1.650000 -0.064656
v 0.853992 1.650000 -0.104616
v 0.873914 1.968079 -0.000000
v 0.802490 1.942082 0.104616
v 0.686923 1.900020 0.064656
v 0.686923 1.900020 -0.064656
v 0.802490 1.942082 -0.104616
v 0.712421 2.247793 -0.000000
v 0.654196 2.198936 0.104616
v 0.559985 2.119883 0.064656
v 0.559985 2.119883 -0.064656
v 0.654196 2.198936 -0.104616
v 0.465000 2.455404 -0.000000
v 0.426996 2.389579 0.104616
v 0.365504 2.283072 0.064656
v 0.365504 2.283072 -0.064656
v 0.426996 2.389579 -0.104616
v 0.161493 2.565871 -0.000000
v 0.148294 2.491018 0.104616
v 0.126938 2.369903 0.064656
v 0.126938 2.369903 -0.064656
v 0.148294 2.491018 -0.104616
v -0.161493 2.565871 -0.000000
v -0.148294 2.491018 0.104616
v -0.126938 2.369903 0.064656
v -0.126938 2.369903 -0.064656
v -0.148294 2.491018 -0.104616
v -0.465000 2.455404 -0.000000
v -0.426996 2.389579 0.104616
v -0.365504 2.283072 0.064656
v -0.365504 2.283072 -0.064656
v -0.426996 2.389579 -0.104616
v -0.712421 2.247793 -0.000000
v -0.654196 2.198936 0.104616
v -0.559985 2.119883 0.064656
v -0.559985 2.119883 -0.064656
v -0.654196 2.198936 -0.104616
v -0.873914 1.968079 -0.000000
v -0.802490 1.942083 0.104616
v -0.686923 1.900020 0.064656
v -0.686923 1.900020 -0.064656
v -0.802490 1.942083 -0.104616
v -0.930000 1.650000 -0.000000
v -0.853992 1.650000 0.104616
v -0.731008 1.650000 0.064656
v -0.731008 1.650000 -0.064656
v -0.853992 1.650000 -0.104616
v -0.873914 1.331921 0.000000
v -0.802490 1.357918 0.104616
v -0.686923 1.399981 0.064656
v -0.686923 1.399981 -0.064656
v -0.802490 1.357918 -0.104616
v -0.712421 1.052208 0.000000
v -0.654196 1.101065 0.104616
v -0.559985 1.180117 0.064656
v -0.559985 1.180117 -0.064656
v -0.654196 1.101065 -0.104616
v -0.465000 0.844596 0.000000
v -0.426996 0.910421 0.104616
v -0.365504 1.016928 0.064656
v -0.365504 1.016928 -0.064656
v -0.426996 0.910421 -0.104616
v -0.161493 0.734129 0.000000
v -0.148294 0.808982 0.104616
v -0.126938 0.930098 0.064656
v -0.126938 0.930098 -0.064656
v -0.148294 0.808982 -0.104616
v 0.161493 0.734129 0.000000
v 0.148294 0.808982 0.104616
v 0.126938 0.930098 0.064656
v 0.126938 0.930098 -0.064656
v 0.148294 0.808982 -0.104616
v 0.465000 0.844596 0.000000
v 0.426996 0.910421 0.104616
v 0.365504 1.016928 0.064656
v 0.365504 1.016928 -0.064656
v 0.426996 0.910421 -0.104616
v 0.712421 1.052207 0.000000
v 0.654196 1.101065 0.104616
v 0.559985 1.180117 0.064656
v 0.559985 1.180117 -0.064656
v 0.654196 1.101065 -0.104616
v 0.873914 1.331921 0.000000
v 0.802490 1.357918 0.104616
v 0.686923 1.399981 0.064656
v 0.686923 1.399981 -0.064656
v 0.802490 1.357918 -0.104616
vn 0.8009 0.1412 0.5819
vn -0.3086 -0.0544 0.9496
vn -0.9848 -0.1736 -0.0000
vn -0.3086 -0.0544 -0.9496
vn 0.8009 0.1412 -0.5819
vn 0.7043 0.4066 0.5819
vn -0.2713 -0.1567 0.9496
vn -0.8660 -0.5000 -0.0000
vn -0.2713 -0.1567 -0.9496
vn 0.7043 0.4066 -0.5819
vn 0.5228 0.6230 0.5819
vn -0.2014 -0.2400 0.9496
vn -0.6428 -0.7660 -0.0000
vn -0.2014 -0.2400 -0.9496
vn 0.5228 0.6230 -0.5819
vn 0.2782 0.7642 0.5819
vn -0.1072 -0.2944 0.9496
vn -0.3420 -0.9397 -0.0000
vn -0.1072 -0.2944 -0.9496
vn 0.2782 0.7642 -0.5819
vn -0.0000 0.8133 0.5819
vn -0.0000 -0.3133 0.9496
vn -0.0000 -1.0000 -0.0000
vn -0.0000 -0.3133 -0.9496
vn -0.0000 0.8133 -0.5819
vn -0.2782 0.7642 0.5819
vn 0.1072 -0.2944 0.9496
vn 0.3420 -0.9397 -0.0000
vn 0.1072 -0.2944 -0.9496
vn -0.2782 0.7642 -0.5819
vn -0.5228 0.6230 0.5819
vn 0.2014 -0.2400 0.9496
vn 0.6428 -0.7660 -0.0000
vn 0.2014 -0.2400 -0.9496
vn -0.5228 0.6230 -0.5819
vn -0.7043 0.4066 0.5819
vn 0.2713 -0.1567 0.9496
vn 0.8660 -0.5000 -0.0000
vn 0.2713 -0.1567 -0.9496
vn -0.7043 0.4066 -0.5819
vn -0.8009 0.1412 0.5819
vn 0.3086 -0.0544 0.9496
vn 0.9848 -0.1736 -0.0000
vn 0.3086 -0.0544 -0.9496
vn -0.8009 0.1412 -0.5819
vn -0.8009 -0.1412 0.5819
vn 0.3086 0.0544 0.9496
vn 0.9848 0.1736 -0.0000
vn 0.3086 0.0544 -0.9496
vn -0.8009 -0.1412 -0.5819
vn -0.7043 -0.4066 0.5819
vn 0.2713 0.1567 0.9496
vn 0.8660 0.5000 -0.0000
vn 0.2713 0.1567 -0.9496
vn -0.7043 -0.4066 -0.5819
vn -0.5228 -0.6230 0.5819
vn 0.2014 0.2400 0.9496
vn 0.6428 0.7660 -0.0000
vn 0.2014 0.2400 -0.9496
vn -0.5228 -0.6230 -0.5819
vn -0.2782 -0.7642 0.5819
vn 0.1072 0.2944 0.9496
vn 0.3420 0.9397 -0.0000
vn 0.1072 0.2944 -0.9496
vn -0.2782 -0.7642 -0.5819
vn -0.0000 -0.8133 0.5819
vn -0.0000 0.3133 0.9496
vn -0.0000 1.0000 -0.0000
vn -0.0000 0.3133 -0.9496
vn -0.0000 -0.8133 -0.5819
vn 0.2782 -0.7642 0.5819
vn -0.1072 0.2944 0.9496
vn -0.3420 0.9397 -0.0000
vn -0.1072 0.2944 -0.9496
vn 0.2782 -0.7642 -0.5819
vn 0.5228 -0.6230 0.5819
vn -0.2014 0.2400 0.9496
vn -0.6428 0.7660 -0.0000
vn -0.2014 0.2400 -0.9496
vn 0.5228 -0.6230 -0.5819
vn 0.7043 -0.4066 0.5819
vn -0.2713 0.1567 0.9496
vn -0.8660 0.5000 -0.0000
vn -0.2713 0.1567 -0.9496
vn 0.7043 -0.4066 -0.5819
vn 0.8009 -0.1412 0.5819
vn -0.3086 0.0544 0.9496
vn -0.9848 0.1736 -0.0000
vn -0.3086 0.0544 -0.9496
vn 0.8009 -0.1412 -0.5819
vt 0.555556 0.600000
vt 0.500000 0.800000
vt 0.500000 0.600000
vt 0.555556 0.800000
vt 0.500000 1.000000
vt 0.555556 0.000000
vt 0.500000 0.200000
vt 0.500000 0.000000
vt 0.555556 0.200000
vt 0.500000 0.400000
vt 0.611111 0.800000
vt 0.611111 1.000000
vt 0.555556 1.000000
vt 0.611111 0.000000
vt 0.611111 0.200000
vt 0.555556 0.400000
vt 0.611111 0.400000
vt 0.666667 0.600000
vt 0.611111 0.600000
vt 0.666667 0.800000
vt 0.666667 0.000000
vt 0.666667 0.200000
vt 0.666667 0.400000
vt 0.722222 0.600000
vt 0.722222 0.800000
vt 0.666667 1.000000
vt 0.722222 0.000000
vt 0.722222 0.400000
vt 0.777778 0.600000
vt 0.777778 0.800000
vt 0.722222 1.000000
vt 0.777778 0.000000
vt 0.722222 0.200000
vt 0.777778 0.200000
vt 0.777778 0.400000
vt 0.833333 0.600000
vt 0.833333 0.800000
vt 0.777778 1.000000
vt 0.833333 0.000000
vt 0.833333 0.200000
vt 0.888889 0.800000
vt 0.833333 1.000000
vt 0.888889 0.000000
vt 0.888889 0.200000
vt 0.833333 0.400000
vt 0.888889 0.400000
vt 0.944444 0.600000
vt 0.888889 0.600000
vt 0.944444 0.800000
vt 0.888889 1.000000
vt 0.944444 0.000000
vt 0.944444 0.400000
vt 1.000000 0.600000
vt 1.000000 0.800000
vt 0.944444 1.000000
vt 1.000000 0.000000
vt 0.944444 0.200000
vt 1.000000 0.200000
vt 1.000000 0.400000
vt 0.055556 0.600000
vt 0.000000 0.800000
vt 0.000000 0.600000
vt 0.055556 0.800000
vt 0.000000 1.000000
vt 0.055556 0.000000
vt 0.000000 0.200000
vt 0.000000 0.000000
vt 0.055556 0.200000
vt 0.000000 0.400000
vt 0.055556 0.400000
vt 0.111111 0.800000
vt 0.055556 1.000000
vt 0.111111 0.000000
vt 0.111111 0.400000
vt 0.166667 0.600000
vt 0.111111 0.600000
vt 0.166667 0.800000
vt 0.111111 1.000000
vt 0.166667 0.000000
vt 0.111111 0.200000
vt 0.166667 0.200000
vt 0.166667 0.400000
vt 0.222222 0.600000
vt 0.222222 0.800000
vt 0.166667 1.000000
vt 0.222222 0.000000
vt 0.222222 0.200000
vt 0.222222 0.400000
vt 0.277778 0.600000
vt 0.277778 0.800000
vt 0.222222 1.000000
vt 0.277778 0.000000
vt 0.277778 0.200000
vt 0.277778 0.400000
vt 0.333333 0.800000
vt 0.277778 1.000000
vt 0.333333 0.000000
vt 0.333333 0.200000
vt 0.333333 0.400000
vt 0.388889 0.600000
vt 0.333333 0.600000
vt 0.388889 1.000000
vt 0.333333 1.000000
vt 0.388889 0.000000
vt 0.388889 0.200000
vt 0.388889 0.400000
vt 0.444444 0.600000
vt 0.388889 0.800000
vt 0.444444 0.800000
vt 0.444444 0.000000
vt 0.444444 0.400000
vt 0.444444 1.000000
vt 0.444444 0.200000
vt 1.000000 1.000000
s 0
g WaterScepter_Crescent.001_MAT_OldGold
usemtl MAT_OldGold
f 6/1/1 2/2/1 1/3/1
f 7/4/2 3/5/2 2/2/2
f 8/6/3 4/7/3 3/8/3
f 9/9/4 5/10/4 4/7/4
f 5/10/5 6/1/5 1/3/5
f 6/1/6 12/11/6 7/4/6
f 7/4/7 13/12/7 8/13/7
f 13/14/8 9/9/8 8/6/8
f 14/15/9 10/16/9 9/9/9
f 15/17/10 6/1/10 10/16/10
f 16/18/11 12/11/11 11/19/11
f 17/20/12 13/12/12 12/11/12
f 18/21/13 14/15/13 13/14/13
f 19/22/14 15/17/14 14/15/14
f 20/23/15 11/19/15 15/17/15
f 21/24/16 17/20/16 16/18/16
f 22/25/17 18/26/17 17/20/17
f 23/27/18 19/22/18 18/21/18
f 19/22/19 25/28/19 20/23/19
f 25/28/20 16/18/20 20/23/20
f 26/29/21 22/25/21 21/24/21
f 27/30/22 23/31/22 22/25/22
f 28/32/23 24/33/23 23/27/23
f 29/34/24 25/28/24 24/33/24
f 30/35/25 21/24/25 25/28/25
f 31/36/26 27/30/26 26/29/26
f 32/37/27 28/38/27 27/30/27
f 33/39/28 29/34/28 28/32/28
f 34/40/29 30/35/29 29/34/29
f 30/35/30 31/36/30 26/29/30
f 31/36/31 37/41/31 32/37/31
f 37/41/32 33/42/32 32/37/32
f 38/43/33 34/40/33 33/39/33
f 39/44/34 35/45/34 34/40/34
f 40/46/35 31/36/35 35/45/35
f 41/47/36 37/41/36 36/48/36
f 42/49/37 38/50/37 37/41/37
f 43/51/38 39/44/38 38/43/38
f 39/44/39 45/52/39 40/46/39
f 45/52/40 36/48/40 40/46/40
f 46/53/41 42/49/41 41/47/41
f 47/54/42 43/55/42 42/49/42
f 48/56/43 44/57/43 43/51/43
f 49/58/44 45/52/44 44/57/44
f 50/59/45 41/47/45 45/52/45
f 51/60/46 47/61/46 46/62/46
f 52/63/47 48/64/47 47/61/47
f 53/65/48 49/66/48 48/67/48
f 54/68/49 50/69/49 49/66/49
f 55/70/50 46/62/50 50/69/50
f 51/60/51 57/71/51 52/63/51
f 57/71/52 53/72/52 52/63/52
f 58/73/53 54/68/53 53/65/53
f 54/68/54 60/74/54 55/70/54
f 60/74/55 51/60/55 55/70/55
f 61/75/56 57/71/56 56/76/56
f 62/77/57 58/78/57 57/71/57
f 63/79/58 59/80/58 58/73/58
f 64/81/59 60/74/59 59/80/59
f 65/82/60 56/76/60 60/74/60
f 66/83/61 62/77/61 61/75/61
f 67/84/62 63/85/62 62/77/62
f 68/86/63 64/81/63 63/79/63
f 69/87/64 65/82/64 64/81/64
f 70/88/65 61/75/65 65/82/65
f 71/89/66 67/84/66 66/83/66
f 72/90/67 68/91/67 67/84/67
f 73/92/68 69/87/68 68/86/68
f 74/93/69 70/88/69 69/87/69
f 75/94/70 66/83/70 70/88/70
f 71/89/71 77/95/71 72/90/71
f 77/95/72 73/96/72 72/90/72
f 78/97/73 74/93/73 73/92/73
f 79/98/74 75/94/74 74/93/74
f 80/99/75 71/89/75 75/94/75
f 81/100/76 77/95/76 76/101/76
f 77/95/77 83/102/77 78/103/77
f 83/104/78 79/98/78 78/97/78
f 84/105/79 80/99/79 79/98/79
f 85/106/80 76/101/80 80/99/80
f 86/107/81 82/108/81 81/100/81
f 87/109/82 83/102/82 82/108/82
f 88/110/83 84/105/83 83/104/83
f 84/105/84 90/111/84 85/106/84
f 90/111/85 81/100/85 85/106/85
f 1/3/86 87/109/86 86/107/86
f 2/2/87 88/112/87 87/109/87
f 3/8/88 89/113/88 88/110/88
f 89/113/89 5/10/89 90/111/89
f 5/10/90 86/107/90 90/111/90
f 6/1/1 7/4/1 2/2/1
f 7/4/2 8/13/2 3/5/2
f 8/6/3 9/9/3 4/7/3
f 9/9/4 10/16/4 5/10/4
f 5/10/5 10/16/5 6/1/5
f 6/1/6 11/19/6 12/11/6
f 7/4/7 12/11/7 13/12/7
f 13/14/8 14/15/8 9/9/8
f 14/15/9 15/17/9 10/16/9
f 15/17/10 11/19/10 6/1/10
f 16/18/11 17/20/11 12/11/11
f 17/20/12 18/26/12 13/12/12
f 18/21/13 19/22/13 14/15/13
f 19/22/14 20/23/14 15/17/14
f 20/23/15 16/18/15 11/19/15
f 21/24/16 22/25/16 17/20/16
f 22/25/17 23/31/17 18/26/17
f 23/27/18 24/33/18 19/22/18
f 19/22/19 24/33/19 25/28/19
f 25/28/20 21/24/20 16/18/20
f 26/29/21 27/30/21 22/25/21
f 27/30/22 28/38/22 23/31/22
f 28/32/23 29/34/23 24/33/23
f 29/34/24 30/35/24 25/28/24
f 30/35/25 26/29/25 21/24/25
f 31/36/26 32/37/26 27/30/26
f 32/37/27 33/42/27 28/38/27
f 33/39/28 34/40/28 29/34/28
f 34/40/29 35/45/29 30/35/29
f 30/35/30 35/45/30 31/36/30
f 31/36/31 36/48/31 37/41/31
f 37/41/32 38/50/32 33/42/32
f 38/43/33 39/44/33 34/40/33
f 39/44/34 40/46/34 35/45/34
f 40/46/35 36/48/35 31/36/35
f 41/47/36 42/49/36 37/41/36
f 42/49/37 43/55/37 38/50/37
f 43/51/38 44/57/38 39/44/38
f 39/44/39 44/57/39 45/52/39
f 45/52/40 41/47/40 36/48/40
f 46/53/41 47/54/41 42/49/41
f 47/54/42 48/114/42 43/55/42
f 48/56/43 49/58/43 44/57/43
f 49/58/44 50/59/44 45/52/44
f 50/59/45 46/53/45 41/47/45
f 51/60/46 52/63/46 47/61/46
f 52/63/47 53/72/47 48/64/47
f 53/65/48 54/68/48 49/66/48
f 54/68/49 55/70/49 50/69/49
f 55/70/50 51/60/50 46/62/50
f 51/60/51 56/76/51 57/71/51
f 57/71/52 58/78/52 53/72/52
f 58/73/53 59/80/53 54/68/53
f 54/68/54 59/80/54 60/74/54
f 60/74/55 56/76/55 51/60/55
f 61/75/56 62/77/56 57/71/56
f 62/77/57 63/85/57 58/78/57
f 63/79/58 64/81/58 59/80/58
f 64/81/59 65/82/59 60/74/59
f 65/82/60 61/75/60 56/76/60
f 66/83/61 67/84/61 62/77/61
f 67/84/62 68/91/62 63/85/62
f 68/86/63 69/87/63 64/81/63
f 69/87/64 70/88/64 65/82/64
f 70/88/65 66/83/65 61/75/65
f 71/89/66 72/90/66 67/84/66
f 72/90/67 73/96/67 68/91/67
f 73/92/68 74/93/68 69/87/68
f 74/93/69 75/94/69 70/88/69
f 75/94/70 71/89/70 66/83/70
f 71/89/71 76/101/71 77/95/71
f 77/95/72 78/103/72 73/96/72
f 78/97/73 79/98/73 74/93/73
f 79/98/74 80/99/74 75/94/74
f 80/99/75 76/101/75 71/89/75
f 81/100/76 82/108/76 77/95/76
f 77/95/77 82/108/77 83/102/77
f 83/104/78 84/105/78 79/98/78
f 84/105/79 85/106/79 80/99/79
f 85/106/80 81/100/80 76/101/80
f 86/107/81 87/109/81 82/108/81
f 87/109/82 88/112/82 83/102/82
f 88/110/83 89/113/83 84/105/83
f 84/105/84 89/113/84 90/111/84
f 90/111/85 86/107/85 81/100/85
f 1/3/86 2/2/86 87/109/86
f 2/2/87 3/5/87 88/112/87
f 3/8/88 4/7/88 89/113/88
f 89/113/89 4/7/89 5/10/89
f 5/10/90 1/3/90 86/107/90
g WaterScepter_FinL.001_Mesh
v -0.456646 1.586033 0.060000
v -0.452549 1.546750 0.060000
v -0.500585 1.561595 0.100000
v -1.183353 1.903967 0.060000
v -1.123445 1.834097 0.100000
v -1.199812 1.885468 0.060000
v -0.807450 1.293249 0.060000
v -0.860188 1.304532 0.060000
v -0.827587 1.328022 0.100000
v -0.452549 1.546750 -0.020000
v -0.456646 1.586033 -0.020000
v -0.500585 1.561595 -0.060000
v -1.183353 1.903967 -0.020000
v -1.199812 1.885468 -0.020000
v -1.123445 1.834097 -0.060000
v -0.807450 1.293249 -0.020000
v -0.827587 1.328022 -0.060000
v -0.860188 1.304532 -0.020000
vn -0.6507 -0.0679 -0.7563
vn 0.3001 -0.2670 -0.9158
vn 0.1678 0.7843 -0.5973
vn -0.6507 -0.0679 0.7563
vn 0.3001 -0.2670 0.9158
vn 0.1678 0.7843 0.5973
vn -0.2834 -0.6478 -0.7071
vn -0.4110 0.5754 -0.7071
vn 0.6104 0.3569 -0.7071
vn -0.4110 0.5754 0.7071
vn -0.2834 -0.6478 0.7071
vn 0.6104 0.3569 0.7071
vn -0.9946 -0.1037 -0.0000
vn 0.7471 -0.6647 -0.0000
vn 0.2092 0.9779 -0.0000
vn -0.4008 -0.9162 -0.0000
vn -0.0000 -0.0000 -1.0000
vn -0.5812 0.8137 -0.0000
vn 0.8633 0.5047 -0.0000
vn -0.0000 -0.0000 1.0000
s 0
g WaterScepter_FinL.001_MAT_Teal
usemtl MAT_Teal
f 91//91 92//91 93//91
f 94//92 95//92 96//92
f 97//93 98//93 99//93
f 100//94 101//94 102//94
f 103//95 104//95 105//95
f 106//96 107//96 108//96
f 95//97 91//97 93//97
f 97//98 93//98 92//98
f 95//99 98//99 96//99
f 102//100 106//100 100//100
f 101//101 105//101 102//101
f 108//102 105//102 104//102
f 101//103 92//103 91//103
f 104//104 94//104 96//104
f 106//105 98//105 97//105
f 94//106 101//106 91//106
f 93//107 99//107 95//107
f 92//108 106//108 97//108
f 98//109 104//109 96//109
f 102//110 105//110 107//110
f 95//97 94//97 91//97
f 97//98 99//98 93//98
f 95//99 99//99 98//99
f 102//100 107//100 106//100
f 101//101 103//101 105//101
f 108//102 107//102 105//102
f 101//103 100//103 92//103
f 104//104 103//104 94//104
f 106//105 108//105 98//105
f 94//106 103//106 101//106
f 92//108 100//108 106//108
f 98//109 108//109 104//109
g WaterScepter_FinR.001_Mesh
v 0.456646 1.586033 0.060000
v 0.452549 1.546750 0.060000
v 0.500585 1.561595 0.100000
v 1.183353 1.903967 0.060000
v 1.123445 1.834097 0.100000
v 1.199812 1.885468 0.060000
v 0.807450 1.293249 0.060000
v 0.860188 1.304532 0.060000
v 0.827587 1.328022 0.100000
v 0.452549 1.546750 -0.020000
v 0.456646 1.586033 -0.020000
v 0.500585 1.561595 -0.060000
v 1.183353 1.903967 -0.020000
v 1.199812 1.885468 -0.020000
v 1.123445 1.834097 -0.060000
v 0.807450 1.293249 -0.020000
v 0.827587 1.328022 -0.060000
v 0.860188 1.304532 -0.020000
vn -0.6507 0.0679 0.7563
vn 0.3001 0.2670 0.9158
vn 0.1678 -0.7843 0.5973
vn -0.6507 0.0679 -0.7563
vn 0.3001 0.2670 -0.9158
vn 0.1678 -0.7843 -0.5973
vn -0.2834 0.6478 0.7071
vn -0.4110 -0.5754 0.7071
vn 0.6104 -0.3569 0.7071
vn -0.4110 -0.5754 -0.7071
vn -0.2834 0.6478 -0.7071
vn 0.6104 -0.3569 -0.7071
vn -0.9946 0.1037 -0.0000
vn 0.7471 0.6647 -0.0000
vn 0.2092 -0.9779 -0.0000
vn -0.4008 0.9162 -0.0000
vn -0.0000 -0.0000 1.0000
vn -0.5812 -0.8137 -0.0000
vn 0.8633 -0.5047 -0.0000
vn -0.0000 -0.0000 -1.0000
s 0
g WaterScepter_FinR.001_MAT_Teal
usemtl MAT_Teal
f 109//111 110//111 111//111
f 112//112 113//112 114//112
f 115//113 116//113 117//113
f 118//114 119//114 120//114
f 121//115 122//115 123//115
f 124//116 125//116 126//116
f 113//117 109//117 111//117
f 115//118 111//118 110//118
f 113//119 116//119 114//119
f 120//120 124//120 118//120
f 119//121 123//121 120//121
f 126//122 123//122 122//122
f 119//123 110//123 109//123
f 122//124 112//124 114//124
f 124//125 116//125 115//125
f 112//126 119//126 109//126
f 111//127 117//127 113//127
f 110//128 124//128 115//128
f 116//129 122//129 114//129
f 120//130 123//130 125//130
f 113//117 112//117 109//117
f 115//118 117//118 111//118
f 113//119 117//119 116//119
f 120//120 125//120 124//120
f 119//121 121//121 123//121
f 126//122 125//122 123//122
f 119//123 118//123 110//123
f 122//124 121//124 112//124
f 124//125 126//125 116//125
f 112//126 121//126 119//126
f 110//128 118//128 124//128
f 116//129 126//129 122//129
g WaterScepter_Orb.001_Mesh
v 0.000000 1.170000 0.000000
v 0.347331 1.435335 0.220805
v -0.132666 1.435335 0.357273
v -0.429325 1.435337 0.000000
v -0.132666 1.435335 -0.357273
v 0.347331 1.435335 -0.220805
v 0.132666 1.864666 0.357273
v -0.347331 1.864666 0.220805
v -0.347331 1.864666 -0.220805
v 0.132666 1.864666 -0.357273
v 0.429325 1.864664 0.000000
v 0.000000 2.130000 0.000000
v -0.077979 1.241686 0.209998
v 0.204155 1.241686 0.129785
v 0.126177 1.397646 0.339785
v 0.408311 1.397647 0.000000
v 0.204155 1.241686 -0.129785
v -0.252350 1.241687 0.000000
v -0.330331 1.397647 0.209999
v -0.077979 1.241686 -0.209998
v -0.330331 1.397647 -0.209999
v 0.126177 1.397646 -0.339785
v 0.456508 1.650000 0.129785
v 0.456508 1.650000 -0.129785
v 0.000000 1.650000 0.420000
v 0.282137 1.650000 0.339787
v -0.456508 1.650000 0.129785
v -0.282137 1.650000 0.339787
v -0.282137 1.650000 -0.339787
v -0.456508 1.650000 -0.129785
v 0.282137 1.650000 -0.339787
v 0.000000 1.650000 -0.420000
v 0.330331 1.902354 0.209999
v -0.126177 1.902354 0.339785
v -0.408311 1.902353 0.000000
v -0.126177 1.902354 -0.339785
v 0.330331 1.902354 -0.209999
v 0.077979 2.058314 0.209998
v 0.252350 2.058313 0.000000
v -0.204155 2.058314 0.129785
v -0.204155 2.058314 -0.129785
v 0.077979 2.058314 -0.209998
vn 0.1009 -0.9295 0.3548
vn 0.6926 -0.6545 0.3030
vn -0.2665 -0.9381 0.2213
vn -0.2665 -0.9381 -0.2213
vn 0.1009 -0.9295 -0.3548
vn 0.8952 -0.3268 0.3030
vn 0.0219 -0.2929 0.9559
vn -0.8765 -0.3255 0.3548
vn -0.5308 -0.3052 -0.7906
vn 0.4910 -0.3035 -0.8166
vn 0.7638 -0.1196 0.6342
vn -0.2718 -0.1114 0.9559
vn -0.9921 -0.1256 -0.0000
vn -0.2718 -0.1114 -0.9559
vn 0.7638 -0.1196 -0.6342
vn 0.3863 0.6250 0.6784
vn -0.4485 0.6297 0.6342
vn -0.6926 0.6545 -0.3030
vn 0.0356 0.6113 -0.7906
vn 0.7199 0.6579 -0.2213
vn 0.2665 0.9381 -0.2213
vn 0.4818 0.7796 -0.4001
vn 0.3863 0.6250 -0.6784
vn -0.1009 0.9295 -0.3548
vn -0.1787 0.7570 -0.6285
vn -0.4485 0.6297 -0.6342
vn -0.3313 0.9435 -0.0000
vn -0.6071 0.7947 -0.0000
vn -0.6926 0.6545 0.3030
vn -0.1009 0.9295 0.3548
vn -0.1787 0.7570 0.6285
vn 0.0356 0.6113 0.7906
vn 0.2665 0.9381 0.2213
vn 0.4818 0.7796 0.4001
vn 0.7199 0.6579 0.2213
vn 0.8765 0.3255 -0.3548
vn 0.7570 0.1787 -0.6285
vn 0.5308 0.3052 -0.7906
vn -0.0219 0.2929 -0.9559
vn -0.2696 0.1667 -0.9484
vn -0.4910 0.3035 -0.8166
vn -0.8952 0.3268 -0.3030
vn -0.9822 0.1876 -0.0000
vn -0.8952 0.3268 0.3030
vn -0.4910 0.3035 0.8166
vn -0.2696 0.1667 0.9484
vn -0.0219 0.2929 0.9559
vn 0.5308 0.3052 0.7906
vn 0.7570 0.1787 0.6285
vn 0.8765 0.3255 0.3548
vn 0.2718 0.1114 -0.9559
vn 0.2696 -0.1667 -0.9484
vn 0.0219 -0.2929 -0.9559
vn -0.7638 0.1196 -0.6342
vn -0.7570 -0.1787 -0.6285
vn -0.8765 -0.3255 -0.3548
vn -0.7638 0.1196 0.6342
vn -0.7570 -0.1787 0.6285
vn -0.5308 -0.3052 0.7906
vn 0.2718 0.1114 0.9559
vn 0.2696 -0.1667 0.9484
vn 0.4910 -0.3035 0.8166
vn 0.9921 0.1256 -0.0000
vn 0.9822 -0.1876 -0.0000
vn 0.8952 -0.3268 -0.3030
vn 0.4485 -0.6297 -0.6342
vn 0.1787 -0.7570 -0.6285
vn -0.0356 -0.6113 -0.7906
vn -0.3863 -0.6250 -0.6784
vn -0.4818 -0.7796 -0.4001
vn -0.7199 -0.6579 -0.2213
vn -0.7199 -0.6579 0.2213
vn -0.4818 -0.7796 0.4001
vn -0.3863 -0.6250 0.6784
vn 0.6926 -0.6545 -0.3030
vn 0.6071 -0.7947 -0.0000
vn 0.3313 -0.9435 -0.0000
vn -0.0356 -0.6113 0.7906
vn 0.1787 -0.7570 0.6285
vn 0.4485 -0.6297 0.6342
vt 0.181819 0.000000
vt 0.227273 0.078731
vt 0.136365 0.078731
vt 0.272728 0.157461
vt 0.318182 0.078731
vt 0.363637 0.157461
vt 0.909091 0.000000
vt 0.954545 0.078731
vt 0.863636 0.078731
vt 0.727273 0.000000
vt 0.772727 0.078731
vt 0.681818 0.078731
vt 0.545455 0.000000
vt 0.590909 0.078731
vt 0.500000 0.078731
vt 0.318182 0.236191
vt 0.090910 0.157461
vt 0.181819 0.157461
vt 0.136365 0.236191
vt 0.818182 0.157461
vt 0.909091 0.157461
vt 0.863636 0.236191
vt 0.636364 0.157461
vt 0.727273 0.157461
vt 0.681818 0.236191
vt 0.454546 0.157461
vt 0.545455 0.157461
vt 0.500000 0.236191
vt 0.227273 0.236191
vt 0.045455 0.236191
vt 0.772727 0.236191
vt 0.590909 0.236191
vt 0.409092 0.236191
vt 0.181819 0.314921
vt 0.272728 0.314921
vt 0.227273 0.393651
vt 0.000000 0.314921
vt 0.090910 0.314921
vt 0.045455 0.393651
vt 0.727273 0.314921
vt 0.818182 0.314921
vt 0.772727 0.393651
vt 0.545455 0.314921
vt 0.636364 0.314921
vt 0.590909 0.393651
vt 0.363637 0.314921
vt 0.454546 0.314921
vt 0.409092 0.393651
vt 0.500000 0.393651
vt 0.454546 0.472382
vt 0.681818 0.393651
vt 0.636364 0.472382
vt 0.863636 0.393651
vt 0.818182 0.472382
vt 0.909091 0.314921
vt 0.136365 0.393651
vt 0.090910 0.472382
vt 0.318182 0.393651
vt 0.272728 0.472382
vt 0.954545 0.236191
vt 1.000000 0.157461
vt 0.409092 0.078731
vt 0.363637 0.000000
s 0
g WaterScepter_Orb.001_MAT_Sapphire
usemtl MAT_Sapphire
f 127/115/131 140/116/131 139/117/131
f 128/118/132 140/119/132 142/120/132
f 127/121/133 139/122/133 144/123/133
f 127/124/134 144/125/134 146/126/134
f 127/127/135 146/128/135 143/129/135
f 128/118/136 142/120/136 149/130/136
f 129/131/137 141/132/137 151/133/137
f 130/134/138 145/135/138 153/136/138
f 131/137/139 147/138/139 155/139/139
f 132/140/140 148/141/140 157/142/140
f 128/118/141 149/130/141 152/143/141
f 129/131/142 151/133/142 154/144/142
f 130/134/143 153/136/143 156/145/143
f 131/137/144 155/139/144 158/146/144
f 132/140/145 157/142/145 150/147/145
f 133/148/146 159/149/146 164/150/146
f 134/151/147 160/152/147 166/153/147
f 135/154/148 161/155/148 167/156/148
f 136/157/149 162/158/149 168/159/149
f 137/160/150 163/161/150 165/162/150
f 165/162/151 168/163/151 138/164/151
f 165/162/152 163/161/152 168/163/152
f 163/161/153 136/157/153 168/163/153
f 168/159/154 167/165/154 138/166/154
f 168/159/155 162/158/155 167/165/155
f 162/158/156 135/154/156 167/165/156
f 167/156/157 166/167/157 138/168/157
f 167/156/158 161/155/158 166/167/158
f 161/155/159 134/169/159 166/167/159
f 166/153/160 164/170/160 138/171/160
f 166/153/161 160/152/161 164/170/161
f 160/152/162 133/148/162 164/170/162
f 164/150/163 165/172/163 138/173/163
f 164/150/164 159/149/164 165/172/164
f 159/149/165 137/160/165 165/172/165
f 150/147/166 163/161/166 137/160/166
f 150/147/167 157/142/167 163/161/167
f 157/142/168 136/157/168 163/161/168
f 158/146/169 162/158/169 136/157/169
f 158/146/170 155/139/170 162/158/170
f 155/139/171 135/154/171 162/158/171
f 156/145/172 161/155/172 135/154/172
f 156/145/173 153/136/173 161/155/173
f 153/136/174 134/169/174 161/155/174
f 154/144/175 160/152/175 134/151/175
f 154/144/176 151/133/176 160/152/176
f 151/133/177 133/148/177 160/152/177
f 152/143/178 159/149/178 133/148/178
f 152/143/179 149/130/179 159/149/179
f 149/130/180 137/160/180 159/149/180
f 157/142/181 158/146/181 136/157/181
f 157/142/182 148/141/182 158/146/182
f 148/141/183 131/137/183 158/146/183
f 155/139/184 156/145/184 135/154/184
f 155/139/185 147/138/185 156/145/185
f 147/138/186 130/134/186 156/145/186
f 153/136/187 154/174/187 134/169/187
f 153/136/188 145/135/188 154/174/188
f 145/135/189 129/175/189 154/174/189
f 151/133/190 152/143/190 133/148/190
f 151/133/191 141/132/191 152/143/191
f 141/132/192 128/118/192 152/143/192
f 149/130/193 150/147/193 137/160/193
f 149/130/194 142/120/194 150/147/194
f 142/120/195 132/140/195 150/147/195
f 143/129/196 148/141/196 132/140/196
f 143/129/197 146/128/197 148/141/197
f 146/128/198 131/137/198 148/141/198
f 146/126/199 147/138/199 131/137/199
f 146/126/200 144/125/200 147/138/200
f 144/125/201 130/134/201 147/138/201
f 144/123/202 145/135/202 130/134/202
f 144/123/203 139/122/203 145/135/203
f 139/122/204 129/175/204 145/135/204
f 142/120/205 143/176/205 132/140/205
f 142/120/206 140/119/206 143/176/206
f 140/119/207 127/177/207 143/176/207
f 139/117/208 141/132/208 129/131/208
f 139/117/209 140/116/209 141/132/209
f 140/116/210 128/118/210 141/132/210
g WaterScepter_Pommel.001_Mesh
v 0.000000 -2.280000 0.000000
v 0.188136 -2.114165 0.115658
v -0.071860 -2.114165 0.187141
v -0.232550 -2.114165 0.000000
v -0.071860 -2.114165 -0.187141
v 0.188136 -2.114165 -0.115658
v 0.071860 -1.845836 0.187141
v -0.188136 -1.845836 0.115658
v -0.188136 -1.845836 -0.115658
v 0.071860 -1.845836 -0.187141
v 0.232550 -1.845836 0.000000
v 0.000000 -1.680000 0.000000
vn 0.1900 -0.6974 0.6910
vn 0.6612 -0.7502 -0.0000
vn -0.5196 -0.7287 0.4462
vn -0.5196 -0.7287 -0.4462
vn 0.1900 -0.6974 -0.6910
vn 0.9866 -0.1633 -0.0000
vn 0.2625 -0.1406 0.9546
vn -0.7497 -0.1534 0.6437
vn -0.7497 -0.1534 -0.6437
vn 0.2625 -0.1406 -0.9546
vn 0.7497 0.1534 0.6437
vn -0.2625 0.1406 0.9546
vn -0.9866 0.1633 -0.0000
vn -0.2625 0.1406 -0.9546
vn 0.7497 0.1534 -0.6437
vn 0.5196 0.7287 0.4462
vn -0.1900 0.6974 0.6910
vn -0.6612 0.7502 -0.0000
vn -0.1900 0.6974 -0.6910
vn 0.5196 0.7287 -0.4462
vt 0.181819 0.000000
vt 0.272728 0.157461
vt 0.090910 0.157461
vt 0.363637 0.000000
vt 0.454546 0.157461
vt 0.909091 0.000000
vt 1.000000 0.157461
vt 0.818182 0.157461
vt 0.727273 0.000000
vt 0.636364 0.157461
vt 0.545455 0.000000
vt 0.363637 0.314921
vt 0.181819 0.314921
vt 0.909091 0.314921
vt 0.727273 0.314921
vt 0.545455 0.314921
vt 0.000000 0.314921
vt 0.272728 0.472382
vt 0.090910 0.472382
vt 0.818182 0.472382
vt 0.636364 0.472382
vt 0.454546 0.472382
s 0
g WaterScepter_Pommel.001_MAT_Sapphire
usemtl MAT_Sapphire
f 169/178/211 170/179/211 171/180/211
f 170/179/212 169/181/212 174/182/212
f 169/183/213 171/184/213 172/185/213
f 169/186/214 172/185/214 173/187/214
f 169/188/215 173/187/215 174/182/215
f 170/179/216 174/182/216 179/189/216
f 171/180/217 170/179/217 175/190/217
f 172/185/218 171/184/218 176/191/218
f 173/187/219 172/185/219 177/192/219
f 174/182/220 173/187/220 178/193/220
f 170/179/221 179/189/221 175/190/221
f 171/180/222 175/190/222 176/194/222
f 172/185/223 176/191/223 177/192/223
f 173/187/224 177/192/224 178/193/224
f 174/182/225 178/193/225 179/189/225
f 175/190/226 179/189/226 180/195/226
f 176/194/227 175/190/227 180/196/227
f 177/192/228 176/191/228 180/197/228
f 178/193/229 177/192/229 180/198/229
f 179/189/230 178/193/230 180/199/230
g WaterScepter_Shaft.001_Mesh
v -0.000000 -1.900000 -0.112116
v -0.032336 -1.865000 -0.136606
v 0.032336 -1.865000 -0.136606
v 0.000000 1.500000 -0.112116
v 0.032336 1.465000 -0.136606
v -0.032336 1.465000 -0.136606
v 0.079278 -1.900000 -0.079278
v 0.073730 -1.865000 -0.119460
v 0.119460 -1.865000 -0.073730
v 0.079278 1.500000 -0.079278
v 0.119460 1.465000 -0.073730
v 0.073730 1.465000 -0.119460
v 0.112116 -1.900000 -0.000000
v 0.136606 -1.865000 -0.032336
v 0.136606 -1.865000 0.032336
v 0.112116 1.500000 0.000000
v 0.136606 1.465000 0.032336
v 0.136606 1.465000 -0.032336
v 0.079278 -1.900000 0.079278
v 0.119460 -1.865000 0.073730
v 0.073730 -1.865000 0.119460
v 0.079278 1.500000 0.079278
v 0.073730 1.465000 0.119460
v 0.119460 1.465000 0.073730
v 0.000000 -1.900000 0.112116
v 0.032336 -1.865000 0.136606
v -0.032336 -1.865000 0.136606
v -0.000000 1.500000 0.112116
v -0.032336 1.465000 0.136606
v 0.032336 1.465000 0.136606
v -0.079278 -1.900000 0.079278
v -0.073730 -1.865000 0.119460
v -0.119460 -1.865000 0.073730
v -0.079278 1.500000 0.079278
v -0.119460 1.465000 0.073730
v -0.073730 1.465000 0.119460
v -0.112116 -1.900000 0.000000
v -0.136606 -1.865000 0.032336
v -0.136606 -1.865000 -0.032336
v -0.112116 1.500000 -0.000000
v -0.136606 1.465000 -0.032336
v -0.136606 1.465000 0.032336
v -0.079278 -1.900000 -0.079278
v -0.119460 -1.865000 -0.073730
v -0.073730 -1.865000 -0.119460
v -0.079278 1.500000 -0.079278
v -0.073730 1.465000 -0.119460
v -0.119460 1.465000 -0.073730
vn -0.0000 -0.5733 -0.8193
vn -0.0000 0.5733 -0.8193
vn 0.5794 -0.5733 -0.5794
vn 0.5794 0.5733 -0.5794
vn 0.8193 -0.5733 -0.0000
vn 0.8193 0.5733 -0.0000
vn 0.5794 -0.5733 0.5794
vn 0.5794 0.5733 0.5794
vn -0.0000 -0.5733 0.8193
vn -0.0000 0.5733 0.8193
vn -0.5794 -0.5733 0.5794
vn -0.5794 0.5733 0.5794
vn -0.8193 -0.5733 -0.0000
vn -0.8193 0.5733 -0.0000
vn -0.5794 -0.5733 -0.5794
vn -0.5794 0.5733 -0.5794
vn 0.2706 -0.7071 -0.6533
vn 0.2706 0.7071 -0.6533
vn -0.0000 -0.0000 -1.0000
vn 0.7071 -0.0000 -0.7071
vn 0.6533 -0.7071 -0.2706
vn 0.6533 0.7071 -0.2706
vn 1.0000 -0.0000 -0.0000
vn 0.6533 -0.7071 0.2706
vn 0.6533 0.7071 0.2706
vn 0.7071 -0.0000 0.7071
vn 0.2706 -0.7071 0.6533
vn 0.2706 0.7071 0.6533
vn -0.0000 -0.0000 1.0000
vn -0.2706 -0.7071 0.6533
vn -0.2706 0.7071 0.6533
vn -0.7071 -0.0000 0.7071
vn -0.6533 -0.7071 0.2706
vn -0.6533 0.7071 0.2706
vn -1.0000 -0.0000 -0.0000
vn -0.6533 -0.7071 -0.2706
vn -0.6533 0.7071 -0.2706
vn -0.7071 -0.0000 -0.7071
vn -0.2706 -0.7071 -0.6533
vn -0.2706 0.7071 -0.6533
vn -0.0000 -1.0000 -0.0000
vn 0.3827 -0.0000 -0.9239
vn -0.3827 -0.0000 -0.9239
vn -0.0000 1.0000 -0.0000
vn 0.9239 -0.0000 -0.3827
vn 0.9239 -0.0000 0.3827
vn 0.3827 -0.0000 0.9239
vn -0.3827 -0.0000 0.9239
vn -0.9239 -0.0000 0.3827
vn -0.9239 -0.0000 -0.3827
vt 0.750000 0.429386
vt 0.698263 0.468570
vt 0.801737 0.468570
vt 0.250000 0.429386
vt 0.301737 0.468570
vt 0.198263 0.468570
vt 0.876845 0.376845
vt 0.867968 0.441136
vt 0.941136 0.367968
vt 0.376845 0.376845
vt 0.441136 0.367968
vt 0.367968 0.441136
vt 0.929386 0.250000
vt 0.968570 0.301737
vt 0.968570 0.198263
vt 0.429386 0.250000
vt 0.468570 0.198263
vt 0.468570 0.301737
vt 0.876845 0.123155
vt 0.941136 0.132032
vt 0.867968 0.058864
vt 0.376845 0.123155
vt 0.367968 0.058864
vt 0.441136 0.132032
vt 0.750000 0.070614
vt 0.801737 0.031430
vt 0.698263 0.031430
vt 0.250000 0.070614
vt 0.198263 0.031430
vt 0.301737 0.031430
vt 0.623155 0.123155
vt 0.632032 0.058864
vt 0.558864 0.132032
vt 0.123155 0.123155
vt 0.058864 0.132032
vt 0.132032 0.058864
vt 0.570614 0.250000
vt 0.531430 0.198263
vt 0.531430 0.301737
vt 0.070614 0.250000
vt 0.031430 0.301737
vt 0.031430 0.198263
vt 0.623155 0.376845
vt 0.558864 0.367968
vt 0.632032 0.441136
vt 0.123155 0.376845
vt 0.132032 0.441136
vt 0.058864 0.367968
vt 0.038108 0.994853
vt 0.000000 0.505147
vt 0.038108 0.505147
vt 0.836892 0.505147
vt 0.913108 0.994853
vt 0.836892 0.994853
vt 0.711892 0.505147
vt 0.788108 0.994853
vt 0.711892 0.994853
vt 0.586892 0.505147
vt 0.663108 0.994853
vt 0.586892 0.994853
vt 0.461892 0.505147
vt 0.538108 0.994853
vt 0.461892 0.994853
vt 0.336892 0.505147
vt 0.413108 0.994853
vt 0.336892 0.994853
vt 0.211892 0.505147
vt 0.288108 0.994853
vt 0.211892 0.994853
vt 0.086892 0.505147
vt 0.163108 0.994853
vt 0.086892 0.994853
vt 0.961892 0.994853
vt 0.913108 0.505147
vt 0.961892 0.505147
vt 0.788108 0.505147
vt 0.663108 0.505147
vt 0.538108 0.505147
vt 0.413108 0.505147
vt 0.288108 0.505147
vt 0.163108 0.505147
vt 0.000000 0.994853
s 0
g WaterScepter_Shaft.001_MAT_SilverSteel
usemtl MAT_SilverSteel
f 181/200/231 182/201/231 183/202/231
f 184/203/232 185/204/232 186/205/232
f 187/206/233 188/207/233 189/208/233
f 190/209/234 191/210/234 192/211/234
f 193/212/235 194/213/235 195/214/235
f 196/215/236 197/216/236 198/217/236
f 199/218/237 200/219/237 201/220/237
f 202/221/238 203/222/238 204/223/238
f 205/224/239 206/225/239 207/226/239
f 208/227/240 209/228/240 210/229/240
f 211/230/241 212/231/241 213/232/241
f 214/233/242 215/234/242 216/235/242
f 217/236/243 218/237/243 219/238/243
f 220/239/244 221/240/244 222/241/244
f 223/242/245 224/243/245 225/244/245
f 226/245/246 227/246/246 228/247/246
f 188/207/247 181/200/247 183/202/247
f 185/204/248 190/209/248 192/211/248
f 186/248/249 183/249/249 182/250/249
f 189/251/250 192/252/250 191/253/250
f 194/213/251 187/206/251 189/208/251
f 191/210/252 196/215/252 198/217/252
f 195/254/253 198/255/253 197/256/253
f 200/219/254 193/212/254 195/214/254
f 197/216/255 202/221/255 204/223/255
f 201/257/256 204/258/256 203/259/256
f 206/225/257 199/218/257 201/220/257
f 203/222/258 208/227/258 210/229/258
f 207/260/259 210/261/259 209/262/259
f 212/231/260 205/224/260 207/226/260
f 209/228/261 214/233/261 216/235/261
f 213/263/262 216/264/262 215/265/262
f 218/237/263 211/230/263 213/232/263
f 215/234/264 220/239/264 222/241/264
f 219/266/265 222/267/265 221/268/265
f 224/243/266 217/236/266 219/238/266
f 221/240/267 226/245/267 228/247/267
f 225/269/268 228/270/268 227/271/268
f 182/201/269 223/242/269 225/244/269
f 227/246/270 184/203/270 186/205/270
f 199/218/271 211/230/271 223/242/271
f 185/272/272 188/273/272 183/274/272
f 227/271/273 182/250/273 225/269/273
f 220/239/274 208/227/274 196/215/274
f 191/253/275 194/275/275 189/251/275
f 197/256/276 200/276/276 195/254/276
f 203/259/277 206/277/277 201/257/277
f 209/262/278 212/278/278 207/260/278
f 215/265/279 218/279/279 213/263/279
f 221/268/280 224/280/280 219/266/280
f 188/207/247 187/206/247 181/200/247
f 185/204/248 184/203/248 190/209/248
f 186/248/249 185/281/249 183/249/249
f 189/251/250 188/273/250 192/252/250
f 194/213/251 193/212/251 187/206/251
f 191/210/252 190/209/252 196/215/252
f 195/254/253 194/275/253 198/255/253
f 200/219/254 199/218/254 193/212/254
f 197/216/255 196/215/255 202/221/255
f 201/257/256 200/276/256 204/258/256
f 206/225/257 205/224/257 199/218/257
f 203/222/258 202/221/258 208/227/258
f 207/260/259 206/277/259 210/261/259
f 212/231/260 211/230/260 205/224/260
f 209/228/261 208/227/261 214/233/261
f 213/263/262 212/278/262 216/264/262
f 218/237/263 217/236/263 211/230/263
f 215/234/264 214/233/264 220/239/264
f 219/266/265 218/279/265 222/267/265
f 224/243/266 223/242/266 217/236/266
f 221/240/267 220/239/267 226/245/267
f 225/269/268 224/280/268 228/270/268
f 182/201/269 181/200/269 223/242/269
f 227/246/270 226/245/270 184/203/270
f 223/242/271 181/200/271 187/206/271
f 187/206/271 193/212/271 199/218/271
f 199/218/271 205/224/271 211/230/271
f 211/230/271 217/236/271 223/242/271
f 223/242/271 187/206/271 199/218/271
f 185/272/272 192/252/272 188/273/272
f 227/271/273 186/248/273 182/250/273
f 196/215/274 190/209/274 184/203/274
f 184/203/274 226/245/274 220/239/274
f 220/239/274 214/233/274 208/227/274
f 208/227/274 202/221/274 196/215/274
f 196/215/274 184/203/274 220/239/274
f 191/253/275 198/255/275 194/275/275
f 197/256/276 204/258/276 200/276/276
f 203/259/277 210/261/277 206/277/277
f 209/262/278 216/264/278 212/278/278
f 215/265/279 222/267/279 218/279/279
f 221/268/280 228/270/280 224/280/280
