mtllib town_street_lamp.mtl
o town_street_lamp

# Group: wrought_iron
v -0.180000 -0.180000 0.000000
v -0.180000 -0.180000 0.140000
v -0.180000 0.180000 0.000000
v -0.180000 0.180000 0.140000
v 0.180000 -0.180000 0.000000
v 0.180000 -0.180000 0.140000
v 0.180000 0.180000 0.000000
v 0.180000 0.180000 0.140000
v 0.000000 0.000000 0.140000
v 0.060000 0.000000 0.140000
v 0.060000 0.000000 0.760000
v 0.000000 0.000000 0.760000
v 0.051962 0.030000 0.140000
v 0.051962 0.030000 0.760000
v 0.030000 0.051962 0.140000
v 0.030000 0.051962 0.760000
v 0.000000 0.060000 0.140000
v 0.000000 0.060000 0.760000
v -0.030000 0.051962 0.140000
v -0.030000 0.051962 0.760000
v -0.051962 0.030000 0.140000
v -0.051962 0.030000 0.760000
v -0.060000 0.000000 0.140000
v -0.060000 0.000000 0.760000
v -0.051962 -0.030000 0.140000
v -0.051962 -0.030000 0.760000
v -0.030000 -0.051962 0.140000
v -0.030000 -0.051962 0.760000
v -0.000000 -0.060000 0.140000
v -0.000000 -0.060000 0.760000
v 0.030000 -0.051962 0.140000
v 0.030000 -0.051962 0.760000
v 0.051962 -0.030000 0.140000
v 0.051962 -0.030000 0.760000
v 0.000000 0.000000 0.180000
v 0.090000 0.000000 0.180000
v 0.090000 0.000000 0.220000
v 0.000000 0.000000 0.220000
v 0.077942 0.045000 0.180000
v 0.077942 0.045000 0.220000
v 0.045000 0.077942 0.180000
v 0.045000 0.077942 0.220000
v 0.000000 0.090000 0.180000
v 0.000000 0.090000 0.220000
v -0.045000 0.077942 0.180000
v -0.045000 0.077942 0.220000
v -0.077942 0.045000 0.180000
v -0.077942 0.045000 0.220000
v -0.090000 0.000000 0.180000
v -0.090000 0.000000 0.220000
v -0.077942 -0.045000 0.180000
v -0.077942 -0.045000 0.220000
v -0.045000 -0.077942 0.180000
v -0.045000 -0.077942 0.220000
v -0.000000 -0.090000 0.180000
v -0.000000 -0.090000 0.220000
v 0.045000 -0.077942 0.180000
v 0.045000 -0.077942 0.220000
v 0.077942 -0.045000 0.180000
v 0.077942 -0.045000 0.220000
v 0.000000 0.000000 0.700000
v 0.090000 0.000000 0.700000
v 0.090000 0.000000 0.740000
v 0.000000 0.000000 0.740000
v 0.077942 0.045000 0.700000
v 0.077942 0.045000 0.740000
v 0.045000 0.077942 0.700000
v 0.045000 0.077942 0.740000
v 0.000000 0.090000 0.700000
v 0.000000 0.090000 0.740000
v -0.045000 0.077942 0.700000
v -0.045000 0.077942 0.740000
v -0.077942 0.045000 0.700000
v -0.077942 0.045000 0.740000
v -0.090000 0.000000 0.700000
v -0.090000 0.000000 0.740000
v -0.077942 -0.045000 0.700000
v -0.077942 -0.045000 0.740000
v -0.045000 -0.077942 0.700000
v -0.045000 -0.077942 0.740000
v -0.000000 -0.090000 0.700000
v -0.000000 -0.090000 0.740000
v 0.045000 -0.077942 0.700000
v 0.045000 -0.077942 0.740000
v 0.077942 -0.045000 0.700000
v 0.077942 -0.045000 0.740000
v -0.140000 -0.140000 0.755000
v -0.140000 -0.140000 0.805000
v -0.140000 0.140000 0.755000
v -0.140000 0.140000 0.805000
v 0.140000 -0.140000 0.755000
v 0.140000 -0.140000 0.805000
v 0.140000 0.140000 0.755000
v 0.140000 0.140000 0.805000
v -0.150000 -0.150000 0.930000
v -0.150000 -0.150000 0.990000
v -0.150000 0.150000 0.930000
v -0.150000 0.150000 0.990000
v 0.150000 -0.150000 0.930000
v 0.150000 -0.150000 0.990000
v 0.150000 0.150000 0.930000
v 0.150000 0.150000 0.990000
v 0.000000 0.000000 0.980000
v 0.030000 0.000000 0.980000
v 0.030000 0.000000 1.100000
v 0.000000 0.000000 1.100000
v 0.021213 0.021213 0.980000
v 0.021213 0.021213 1.100000
v 0.000000 0.030000 0.980000
v 0.000000 0.030000 1.100000
v -0.021213 0.021213 0.980000
v -0.021213 0.021213 1.100000
v -0.030000 0.000000 0.980000
v -0.030000 0.000000 1.100000
v -0.021213 -0.021213 0.980000
v -0.021213 -0.021213 1.100000
v -0.000000 -0.030000 0.980000
v -0.000000 -0.030000 1.100000
v 0.021213 -0.021213 0.980000
v 0.021213 -0.021213 1.100000
vt 0.0 0.0
vn -0.577350 -0.577350 -0.577350
vn -0.577350 -0.577350 0.577350
vn -0.577350 0.577350 -0.577350
vn -0.577350 0.577350 0.577350
vn 0.577350 -0.577350 -0.577350
vn 0.577350 -0.577350 0.577350
vn 0.577350 0.577350 -0.577350
vn 0.577350 0.577350 0.577350
vn 0.000000 0.000000 -1.000000
vn 0.757162 -0.000000 -0.653227
vn 0.757162 -0.000000 0.653227
vn 0.000000 0.000000 1.000000
vn 0.655722 0.378581 -0.653227
vn 0.655722 0.378581 0.653227
vn 0.378581 0.655722 -0.653227
vn 0.378581 0.655722 0.653227
vn 0.000000 0.757162 -0.653227
vn -0.000000 0.757162 0.653227
vn -0.378581 0.655722 -0.653227
vn -0.378581 0.655722 0.653227
vn -0.655722 0.378581 -0.653227
vn -0.655722 0.378581 0.653227
vn -0.757162 0.000000 -0.653227
vn -0.757162 0.000000 0.653227
vn -0.655722 -0.378581 -0.653227
vn -0.655722 -0.378581 0.653227
vn -0.378581 -0.655722 -0.653227
vn -0.378581 -0.655722 0.653227
vn -0.000000 -0.757162 -0.653227
vn -0.000000 -0.757162 0.653227
vn 0.378581 -0.655722 -0.653227
vn 0.378581 -0.655722 0.653227
vn 0.655722 -0.378581 -0.653227
vn 0.655722 -0.378581 0.653227
vn 0.000000 0.000000 -1.000000
vn 0.757162 -0.000000 -0.653227
vn 0.757162 -0.000000 0.653227
vn 0.000000 0.000000 1.000000
vn 0.655722 0.378581 -0.653227
vn 0.655722 0.378581 0.653227
vn 0.378581 0.655722 -0.653227
vn 0.378581 0.655722 0.653227
vn 0.000000 0.757162 -0.653227
vn 0.000000 0.757162 0.653227
vn -0.378581 0.655722 -0.653227
vn -0.378581 0.655722 0.653227
vn -0.655722 0.378581 -0.653227
vn -0.655722 0.378581 0.653227
vn -0.757162 0.000000 -0.653227
vn -0.757162 0.000000 0.653227
vn -0.655722 -0.378581 -0.653227
vn -0.655722 -0.378581 0.653227
vn -0.378581 -0.655722 -0.653227
vn -0.378581 -0.655722 0.653227
vn -0.000000 -0.757162 -0.653227
vn -0.000000 -0.757162 0.653227
vn 0.378581 -0.655722 -0.653227
vn 0.378581 -0.655722 0.653227
vn 0.655722 -0.378581 -0.653227
vn 0.655722 -0.378581 0.653227
vn 0.000000 0.000000 -1.000000
vn 0.757162 -0.000000 -0.653227
vn 0.757162 -0.000000 0.653227
vn 0.000000 0.000000 1.000000
vn 0.655722 0.378581 -0.653227
vn 0.655722 0.378581 0.653227
vn 0.378581 0.655722 -0.653227
vn 0.378581 0.655722 0.653227
vn 0.000000 0.757162 -0.653227
vn 0.000000 0.757162 0.653227
vn -0.378581 0.655722 -0.653227
vn -0.378581 0.655722 0.653227
vn -0.655722 0.378581 -0.653227
vn -0.655722 0.378581 0.653227
vn -0.757162 0.000000 -0.653227
vn -0.757162 0.000000 0.653227
vn -0.655722 -0.378581 -0.653227
vn -0.655722 -0.378581 0.653227
vn -0.378581 -0.655722 -0.653227
vn -0.378581 -0.655722 0.653227
vn -0.000000 -0.757162 -0.653227
vn -0.000000 -0.757162 0.653227
vn 0.378581 -0.655722 -0.653227
vn 0.378581 -0.655722 0.653227
vn 0.655722 -0.378581 -0.653227
vn 0.655722 -0.378581 0.653227
vn -0.577350 -0.577350 -0.577350
vn -0.577350 -0.577350 0.577350
vn -0.577350 0.577350 -0.577350
vn -0.577350 0.577350 0.577350
vn 0.577350 -0.577350 -0.577350
vn 0.577350 -0.577350 0.577350
vn 0.577350 0.577350 -0.577350
vn 0.577350 0.577350 0.577350
vn -0.577350 -0.577350 -0.577350
vn -0.577350 -0.577350 0.577350
vn -0.577350 0.577350 -0.577350
vn -0.577350 0.577350 0.577350
vn 0.577350 -0.577350 -0.577350
vn 0.577350 -0.577350 0.577350
vn 0.577350 0.577350 -0.577350
vn 0.577350 0.577350 0.577350
vn 0.000000 0.000000 -1.000000
vn 0.776382 -0.000000 -0.630262
vn 0.776382 -0.000000 0.630262
vn 0.000000 0.000000 1.000000
vn 0.548985 0.548985 -0.630262
vn 0.548985 0.548985 0.630262
vn -0.000000 0.776382 -0.630262
vn 0.000000 0.776382 0.630262
vn -0.548985 0.548985 -0.630262
vn -0.548985 0.548985 0.630262
vn -0.776382 0.000000 -0.630262
vn -0.776382 0.000000 0.630262
vn -0.548985 -0.548985 -0.630262
vn -0.548985 -0.548985 0.630262
vn -0.000000 -0.776382 -0.630262
vn -0.000000 -0.776382 0.630262
vn 0.548985 -0.548985 -0.630262
vn 0.548985 -0.548985 0.630262
usemtl wrought_iron
f 2/1/2 4/1/4 1/1/1
f 5/1/5 2/1/2 1/1/1
f 1/1/1 4/1/4 3/1/3
f 3/1/3 5/1/5 1/1/1
f 2/1/2 8/1/8 4/1/4
f 6/1/6 2/1/2 5/1/5
f 6/1/6 8/1/8 2/1/2
f 4/1/4 8/1/8 3/1/3
f 7/1/7 5/1/5 3/1/3
f 3/1/3 8/1/8 7/1/7
f 7/1/7 6/1/6 5/1/5
f 8/1/8 6/1/6 7/1/7
f 10/1/10 9/1/9 13/1/13
f 10/1/10 13/1/13 11/1/11
f 11/1/11 13/1/13 14/1/14
f 11/1/11 14/1/14 12/1/12
f 13/1/13 9/1/9 15/1/15
f 13/1/13 15/1/15 14/1/14
f 14/1/14 15/1/15 16/1/16
f 14/1/14 16/1/16 12/1/12
f 15/1/15 9/1/9 17/1/17
f 15/1/15 17/1/17 16/1/16
f 16/1/16 17/1/17 18/1/18
f 16/1/16 18/1/18 12/1/12
f 17/1/17 9/1/9 19/1/19
f 17/1/17 19/1/19 18/1/18
f 18/1/18 19/1/19 20/1/20
f 18/1/18 20/1/20 12/1/12
f 19/1/19 9/1/9 21/1/21
f 19/1/19 21/1/21 20/1/20
f 20/1/20 21/1/21 22/1/22
f 20/1/20 22/1/22 12/1/12
f 21/1/21 9/1/9 23/1/23
f 21/1/21 23/1/23 22/1/22
f 22/1/22 23/1/23 24/1/24
f 22/1/22 24/1/24 12/1/12
f 23/1/23 9/1/9 25/1/25
f 23/1/23 25/1/25 24/1/24
f 24/1/24 25/1/25 26/1/26
f 24/1/24 26/1/26 12/1/12
f 25/1/25 9/1/9 27/1/27
f 25/1/25 27/1/27 26/1/26
f 26/1/26 27/1/27 28/1/28
f 26/1/26 28/1/28 12/1/12
f 27/1/27 9/1/9 29/1/29
f 27/1/27 29/1/29 28/1/28
f 28/1/28 29/1/29 30/1/30
f 28/1/28 30/1/30 12/1/12
f 29/1/29 9/1/9 31/1/31
f 29/1/29 31/1/31 30/1/30
f 30/1/30 31/1/31 32/1/32
f 30/1/30 32/1/32 12/1/12
f 31/1/31 9/1/9 33/1/33
f 31/1/31 33/1/33 32/1/32
f 32/1/32 33/1/33 34/1/34
f 32/1/32 34/1/34 12/1/12
f 33/1/33 9/1/9 10/1/10
f 33/1/33 10/1/10 34/1/34
f 34/1/34 10/1/10 11/1/11
f 34/1/34 11/1/11 12/1/12
f 36/1/36 35/1/35 39/1/39
f 36/1/36 39/1/39 37/1/37
f 37/1/37 39/1/39 40/1/40
f 37/1/37 40/1/40 38/1/38
f 39/1/39 35/1/35 41/1/41
f 39/1/39 41/1/41 40/1/40
f 40/1/40 41/1/41 42/1/42
f 40/1/40 42/1/42 38/1/38
f 41/1/41 35/1/35 43/1/43
f 41/1/41 43/1/43 42/1/42
f 42/1/42 43/1/43 44/1/44
f 42/1/42 44/1/44 38/1/38
f 43/1/43 35/1/35 45/1/45
f 43/1/43 45/1/45 44/1/44
f 44/1/44 45/1/45 46/1/46
f 44/1/44 46/1/46 38/1/38
f 45/1/45 35/1/35 47/1/47
f 45/1/45 47/1/47 46/1/46
f 46/1/46 47/1/47 48/1/48
f 46/1/46 48/1/48 38/1/38
f 47/1/47 35/1/35 49/1/49
f 47/1/47 49/1/49 48/1/48
f 48/1/48 49/1/49 50/1/50
f 48/1/48 50/1/50 38/1/38
f 49/1/49 35/1/35 51/1/51
f 49/1/49 51/1/51 50/1/50
f 50/1/50 51/1/51 52/1/52
f 50/1/50 52/1/52 38/1/38
f 51/1/51 35/1/35 53/1/53
f 51/1/51 53/1/53 52/1/52
f 52/1/52 53/1/53 54/1/54
f 52/1/52 54/1/54 38/1/38
f 53/1/53 35/1/35 55/1/55
f 53/1/53 55/1/55 54/1/54
f 54/1/54 55/1/55 56/1/56
f 54/1/54 56/1/56 38/1/38
f 55/1/55 35/1/35 57/1/57
f 55/1/55 57/1/57 56/1/56
f 56/1/56 57/1/57 58/1/58
f 56/1/56 58/1/58 38/1/38
f 57/1/57 35/1/35 59/1/59
f 57/1/57 59/1/59 58/1/58
f 58/1/58 59/1/59 60/1/60
f 58/1/58 60/1/60 38/1/38
f 59/1/59 35/1/35 36/1/36
f 59/1/59 36/1/36 60/1/60
f 60/1/60 36/1/36 37/1/37
f 60/1/60 37/1/37 38/1/38
f 62/1/62 61/1/61 65/1/65
f 62/1/62 65/1/65 63/1/63
f 63/1/63 65/1/65 66/1/66
f 63/1/63 66/1/66 64/1/64
f 65/1/65 61/1/61 67/1/67
f 65/1/65 67/1/67 66/1/66
f 66/1/66 67/1/67 68/1/68
f 66/1/66 68/1/68 64/1/64
f 67/1/67 61/1/61 69/1/69
f 67/1/67 69/1/69 68/1/68
f 68/1/68 69/1/69 70/1/70
f 68/1/68 70/1/70 64/1/64
f 69/1/69 61/1/61 71/1/71
f 69/1/69 71/1/71 70/1/70
f 70/1/70 71/1/71 72/1/72
f 70/1/70 72/1/72 64/1/64
f 71/1/71 61/1/61 73/1/73
f 71/1/71 73/1/73 72/1/72
f 72/1/72 73/1/73 74/1/74
f 72/1/72 74/1/74 64/1/64
f 73/1/73 61/1/61 75/1/75
f 73/1/73 75/1/75 74/1/74
f 74/1/74 75/1/75 76/1/76
f 74/1/74 76/1/76 64/1/64
f 75/1/75 61/1/61 77/1/77
f 75/1/75 77/1/77 76/1/76
f 76/1/76 77/1/77 78/1/78
f 76/1/76 78/1/78 64/1/64
f 77/1/77 61/1/61 79/1/79
f 77/1/77 79/1/79 78/1/78
f 78/1/78 79/1/79 80/1/80
f 78/1/78 80/1/80 64/1/64
f 79/1/79 61/1/61 81/1/81
f 79/1/79 81/1/81 80/1/80
f 80/1/80 81/1/81 82/1/82
f 80/1/80 82/1/82 64/1/64
f 81/1/81 61/1/61 83/1/83
f 81/1/81 83/1/83 82/1/82
f 82/1/82 83/1/83 84/1/84
f 82/1/82 84/1/84 64/1/64
f 83/1/83 61/1/61 85/1/85
f 83/1/83 85/1/85 84/1/84
f 84/1/84 85/1/85 86/1/86
f 84/1/84 86/1/86 64/1/64
f 85/1/85 61/1/61 62/1/62
f 85/1/85 62/1/62 86/1/86
f 86/1/86 62/1/62 63/1/63
f 86/1/86 63/1/63 64/1/64
f 88/1/88 90/1/90 87/1/87
f 91/1/91 88/1/88 87/1/87
f 87/1/87 90/1/90 89/1/89
f 89/1/89 91/1/91 87/1/87
f 88/1/88 94/1/94 90/1/90
f 92/1/92 88/1/88 91/1/91
f 92/1/92 94/1/94 88/1/88
f 90/1/90 94/1/94 89/1/89
f 93/1/93 91/1/91 89/1/89
f 89/1/89 94/1/94 93/1/93
f 93/1/93 92/1/92 91/1/91
f 94/1/94 92/1/92 93/1/93
f 96/1/96 98/1/98 95/1/95
f 99/1/99 96/1/96 95/1/95
f 95/1/95 98/1/98 97/1/97
f 97/1/97 99/1/99 95/1/95
f 96/1/96 102/1/102 98/1/98
f 100/1/100 96/1/96 99/1/99
f 100/1/100 102/1/102 96/1/96
f 98/1/98 102/1/102 97/1/97
f 101/1/101 99/1/99 97/1/97
f 97/1/97 102/1/102 101/1/101
f 101/1/101 100/1/100 99/1/99
f 102/1/102 100/1/100 101/1/101
f 104/1/104 103/1/103 107/1/107
f 104/1/104 107/1/107 105/1/105
f 105/1/105 107/1/107 108/1/108
f 105/1/105 108/1/108 106/1/106
f 107/1/107 103/1/103 109/1/109
f 107/1/107 109/1/109 108/1/108
f 108/1/108 109/1/109 110/1/110
f 108/1/108 110/1/110 106/1/106
f 109/1/109 103/1/103 111/1/111
f 109/1/109 111/1/111 110/1/110
f 110/1/110 111/1/111 112/1/112
f 110/1/110 112/1/112 106/1/106
f 111/1/111 103/1/103 113/1/113
f 111/1/111 113/1/113 112/1/112
f 112/1/112 113/1/113 114/1/114
f 112/1/112 114/1/114 106/1/106
f 113/1/113 103/1/103 115/1/115
f 113/1/113 115/1/115 114/1/114
f 114/1/114 115/1/115 116/1/116
f 114/1/114 116/1/116 106/1/106
f 115/1/115 103/1/103 117/1/117
f 115/1/115 117/1/117 116/1/116
f 116/1/116 117/1/117 118/1/118
f 116/1/116 118/1/118 106/1/106
f 117/1/117 103/1/103 119/1/119
f 117/1/117 119/1/119 118/1/118
f 118/1/118 119/1/119 120/1/120
f 118/1/118 120/1/120 106/1/106
f 119/1/119 103/1/103 104/1/104
f 119/1/119 104/1/104 120/1/120
f 120/1/120 104/1/104 105/1/105
f 120/1/120 105/1/105 106/1/106

# Group: lantern_glass
v -0.110000 -0.110000 0.790000
v -0.110000 -0.110000 0.950000
v -0.110000 0.110000 0.790000
v -0.110000 0.110000 0.950000
v 0.110000 -0.110000 0.790000
v 0.110000 -0.110000 0.950000
v 0.110000 0.110000 0.790000
v 0.110000 0.110000 0.950000
vt 0.0 0.0
vn -0.577350 -0.577350 -0.577350
vn -0.577350 -0.577350 0.577350
vn -0.577350 0.577350 -0.577350
vn -0.577350 0.577350 0.577350
vn 0.577350 -0.577350 -0.577350
vn 0.577350 -0.577350 0.577350
vn 0.577350 0.577350 -0.577350
vn 0.577350 0.577350 0.577350
usemtl lantern_glass
f 122/1/122 124/1/124 121/1/121
f 125/1/125 122/1/122 121/1/121
f 121/1/121 124/1/124 123/1/123
f 123/1/123 125/1/125 121/1/121
f 122/1/122 128/1/128 124/1/124
f 126/1/126 122/1/122 125/1/125
f 126/1/126 128/1/128 122/1/122
f 124/1/124 128/1/128 123/1/123
f 127/1/127 125/1/125 123/1/123
f 123/1/123 128/1/128 127/1/127
f 127/1/127 126/1/126 125/1/125
f 128/1/128 126/1/126 127/1/127

# Group: lamp_glow
v -0.031544 0.051039 0.870000
v 0.031544 0.051039 0.870000
v -0.031544 -0.051039 0.870000
v 0.031544 -0.051039 0.870000
v 0.000000 -0.031544 0.921039
v 0.000000 0.031544 0.921039
v 0.000000 -0.031544 0.818961
v 0.000000 0.031544 0.818961
v 0.051039 0.000000 0.838456
v 0.051039 0.000000 0.901544
v -0.051039 0.000000 0.838456
v -0.051039 0.000000 0.901544
v 0.000000 0.060000 0.870000
v 0.000000 -0.060000 0.870000
v -0.018541 -0.048541 0.900000
v 0.018541 -0.048541 0.900000
v -0.018541 0.048541 0.900000
v 0.018541 0.048541 0.900000
v 0.000000 0.000000 0.930000
v -0.018541 -0.048541 0.840000
v 0.018541 -0.048541 0.840000
v -0.018541 0.048541 0.840000
v 0.018541 0.048541 0.840000
v 0.000000 0.000000 0.810000
v 0.048541 0.030000 0.851459
v 0.048541 -0.030000 0.851459
v 0.030000 -0.018541 0.821459
v 0.030000 0.018541 0.821459
v 0.048541 0.030000 0.888541
v 0.048541 -0.030000 0.888541
v 0.030000 -0.018541 0.918541
v 0.030000 0.018541 0.918541
v 0.060000 0.000000 0.870000
v -0.048541 0.030000 0.851459
v -0.048541 -0.030000 0.851459
v -0.030000 -0.018541 0.821459
v -0.030000 0.018541 0.821459
v -0.048541 0.030000 0.888541
v -0.048541 -0.030000 0.888541
v -0.030000 -0.018541 0.918541
v -0.030000 0.018541 0.918541
v -0.060000 0.000000 0.870000
vt 0.0 0.0
vn -0.525731 0.850651 -0.000000
vn 0.525731 0.850651 0.000000
vn -0.525731 -0.850651 0.000000
vn 0.525731 -0.850651 -0.000000
vn -0.000000 -0.525731 0.850651
vn 0.000000 0.525731 0.850651
vn 0.000000 -0.525731 -0.850651
vn -0.000000 0.525731 -0.850651
vn 0.850651 0.000000 -0.525731
vn 0.850651 -0.000000 0.525731
vn -0.850651 -0.000000 -0.525731
vn -0.850651 0.000000 0.525731
vn 0.000000 1.000000 -0.000000
vn -0.000000 -1.000000 -0.000000
vn -0.309017 -0.809017 0.500000
vn 0.309017 -0.809017 0.500000
vn -0.309017 0.809017 0.500000
vn 0.309017 0.809017 0.500000
vn 0.000000 0.000000 1.000000
vn -0.309017 -0.809017 -0.500000
vn 0.309017 -0.809017 -0.500000
vn -0.309017 0.809017 -0.500000
vn 0.309017 0.809017 -0.500000
vn 0.000000 0.000000 -1.000000
vn 0.809017 0.500000 -0.309017
vn 0.809017 -0.500000 -0.309017
vn 0.500000 -0.309017 -0.809017
vn 0.500000 0.309017 -0.809017
vn 0.809017 0.500000 0.309017
vn 0.809017 -0.500000 0.309017
vn 0.500000 -0.309017 0.809017
vn 0.500000 0.309017 0.809017
vn 1.000000 -0.000000 0.000000
vn -0.809017 0.500000 -0.309017
vn -0.809017 -0.500000 -0.309017
vn -0.500000 -0.309017 -0.809017
vn -0.500000 0.309017 -0.809017
vn -0.809017 0.500000 0.309017
vn -0.809017 -0.500000 0.309017
vn -0.500000 -0.309017 0.809017
vn -0.500000 0.309017 0.809017
vn -1.000000 0.000000 0.000000
usemtl lamp_glow
f 129/1/129 166/1/166 145/1/145
f 166/1/166 140/1/140 169/1/169
f 145/1/145 169/1/169 134/1/134
f 166/1/166 169/1/169 145/1/145
f 129/1/129 145/1/145 141/1/141
f 145/1/145 134/1/134 146/1/146
f 141/1/141 146/1/146 130/1/130
f 145/1/145 146/1/146 141/1/141
f 129/1/129 141/1/141 150/1/150
f 141/1/141 130/1/130 151/1/151
f 150/1/150 151/1/151 136/1/136
f 141/1/141 151/1/151 150/1/150
f 129/1/129 150/1/150 162/1/162
f 150/1/150 136/1/136 165/1/165
f 162/1/162 165/1/165 139/1/139
f 150/1/150 165/1/165 162/1/162
f 129/1/129 162/1/162 166/1/166
f 162/1/162 139/1/139 170/1/170
f 166/1/166 170/1/170 140/1/140
f 162/1/162 170/1/170 166/1/166
f 130/1/130 146/1/146 157/1/157
f 146/1/146 134/1/134 160/1/160
f 157/1/157 160/1/160 138/1/138
f 146/1/146 160/1/160 157/1/157
f 134/1/134 169/1/169 147/1/147
f 169/1/169 140/1/140 168/1/168
f 147/1/147 168/1/168 133/1/133
f 169/1/169 168/1/168 147/1/147
f 140/1/140 170/1/170 167/1/167
f 170/1/170 139/1/139 163/1/163
f 167/1/167 163/1/163 131/1/131
f 170/1/170 163/1/163 167/1/167
f 139/1/139 165/1/165 164/1/164
f 165/1/165 136/1/136 152/1/152
f 164/1/164 152/1/152 135/1/135
f 165/1/165 152/1/152 164/1/164
f 136/1/136 151/1/151 156/1/156
f 151/1/151 130/1/130 153/1/153
f 156/1/156 153/1/153 137/1/137
f 151/1/151 153/1/153 156/1/156
f 132/1/132 158/1/158 144/1/144
f 158/1/158 138/1/138 159/1/159
f 144/1/144 159/1/159 133/1/133
f 158/1/158 159/1/159 144/1/144
f 132/1/132 144/1/144 142/1/142
f 144/1/144 133/1/133 143/1/143
f 142/1/142 143/1/143 131/1/131
f 144/1/144 143/1/143 142/1/142
f 132/1/132 142/1/142 149/1/149
f 142/1/142 131/1/131 148/1/148
f 149/1/149 148/1/148 135/1/135
f 142/1/142 148/1/148 149/1/149
f 132/1/132 149/1/149 154/1/154
f 149/1/149 135/1/135 155/1/155
f 154/1/154 155/1/155 137/1/137
f 149/1/149 155/1/155 154/1/154
f 132/1/132 154/1/154 158/1/158
f 154/1/154 137/1/137 161/1/161
f 158/1/158 161/1/161 138/1/138
f 154/1/154 161/1/161 158/1/158
f 133/1/133 159/1/159 147/1/147
f 159/1/159 138/1/138 160/1/160
f 147/1/147 160/1/160 134/1/134
f 159/1/159 160/1/160 147/1/147
f 131/1/131 143/1/143 167/1/167
f 143/1/143 133/1/133 168/1/168
f 167/1/167 168/1/168 140/1/140
f 143/1/143 168/1/168 167/1/167
f 135/1/135 148/1/148 164/1/164
f 148/1/148 131/1/131 163/1/163
f 164/1/164 163/1/163 139/1/139
f 148/1/148 163/1/163 164/1/164
f 137/1/137 155/1/155 156/1/156
f 155/1/155 135/1/135 152/1/152
f 156/1/156 152/1/152 136/1/136
f 155/1/155 152/1/152 156/1/156
f 138/1/138 161/1/161 157/1/157
f 161/1/161 137/1/137 153/1/153
f 157/1/157 153/1/153 130/1/130
f 161/1/161 153/1/153 157/1/157

