mtllib town_barrel_stack.mtl
o town_barrel_stack

# Group: barrel_wood
v -0.200000 -0.050000 0.000000
v 0.020000 -0.050000 0.000000
v 0.020000 -0.050000 0.480000
v -0.200000 -0.050000 0.480000
v 0.003253 0.034190 0.000000
v 0.003253 0.034190 0.480000
v -0.044437 0.105563 0.000000
v -0.044437 0.105563 0.480000
v -0.115810 0.153253 0.000000
v -0.115810 0.153253 0.480000
v -0.200000 0.170000 0.000000
v -0.200000 0.170000 0.480000
v -0.284190 0.153253 0.000000
v -0.284190 0.153253 0.480000
v -0.355563 0.105563 0.000000
v -0.355563 0.105563 0.480000
v -0.403253 0.034190 0.000000
v -0.403253 0.034190 0.480000
v -0.420000 -0.050000 0.000000
v -0.420000 -0.050000 0.480000
v -0.403253 -0.134190 0.000000
v -0.403253 -0.134190 0.480000
v -0.355563 -0.205563 0.000000
v -0.355563 -0.205563 0.480000
v -0.284190 -0.253253 0.000000
v -0.284190 -0.253253 0.480000
v -0.200000 -0.270000 0.000000
v -0.200000 -0.270000 0.480000
v -0.115810 -0.253253 0.000000
v -0.115810 -0.253253 0.480000
v -0.044437 -0.205563 0.000000
v -0.044437 -0.205563 0.480000
v 0.003253 -0.134190 0.000000
v 0.003253 -0.134190 0.480000
v 0.200000 0.050000 0.000000
v 0.420000 0.050000 0.000000
v 0.420000 0.050000 0.480000
v 0.200000 0.050000 0.480000
v 0.403253 0.134190 0.000000
v 0.403253 0.134190 0.480000
v 0.355563 0.205563 0.000000
v 0.355563 0.205563 0.480000
v 0.284190 0.253253 0.000000
v 0.284190 0.253253 0.480000
v 0.200000 0.270000 0.000000
v 0.200000 0.270000 0.480000
v 0.115810 0.253253 0.000000
v 0.115810 0.253253 0.480000
v 0.044437 0.205563 0.000000
v 0.044437 0.205563 0.480000
v -0.003253 0.134190 0.000000
v -0.003253 0.134190 0.480000
v -0.020000 0.050000 0.000000
v -0.020000 0.050000 0.480000
v -0.003253 -0.034190 0.000000
v -0.003253 -0.034190 0.480000
v 0.044437 -0.105563 0.000000
v 0.044437 -0.105563 0.480000
v 0.115810 -0.153253 0.000000
v 0.115810 -0.153253 0.480000
v 0.200000 -0.170000 0.000000
v 0.200000 -0.170000 0.480000
v 0.284190 -0.153253 0.000000
v 0.284190 -0.153253 0.480000
v 0.355563 -0.105563 0.000000
v 0.355563 -0.105563 0.480000
v 0.403253 -0.034190 0.000000
v 0.403253 -0.034190 0.480000
v 0.000000 0.000000 0.480000
v 0.220000 0.000000 0.480000
v 0.220000 0.000000 0.960000
v 0.000000 0.000000 0.960000
v 0.203253 0.084190 0.480000
v 0.203253 0.084190 0.960000
v 0.155563 0.155563 0.480000
v 0.155563 0.155563 0.960000
v 0.084190 0.203253 0.480000
v 0.084190 0.203253 0.960000
v 0.000000 0.220000 0.480000
v 0.000000 0.220000 0.960000
v -0.084190 0.203253 0.480000
v -0.084190 0.203253 0.960000
v -0.155563 0.155563 0.480000
v -0.155563 0.155563 0.960000
v -0.203253 0.084190 0.480000
v -0.203253 0.084190 0.960000
v -0.220000 0.000000 0.480000
v -0.220000 0.000000 0.960000
v -0.203253 -0.084190 0.480000
v -0.203253 -0.084190 0.960000
v -0.155563 -0.155563 0.480000
v -0.155563 -0.155563 0.960000
v -0.084190 -0.203253 0.480000
v -0.084190 -0.203253 0.960000
v -0.000000 -0.220000 0.480000
v -0.000000 -0.220000 0.960000
v 0.084190 -0.203253 0.480000
v 0.084190 -0.203253 0.960000
v 0.155563 -0.155563 0.480000
v 0.155563 -0.155563 0.960000
v 0.203253 -0.084190 0.480000
v 0.203253 -0.084190 0.960000
vt 0.0 0.0
vn 0.000000 0.000000 -1.000000
vn 0.746203 -0.000000 -0.665719
vn 0.746203 -0.000000 0.665719
vn 0.000000 0.000000 1.000000
vn 0.689401 0.285559 -0.665719
vn 0.689401 0.285559 0.665719
vn 0.527645 0.527645 -0.665719
vn 0.527645 0.527645 0.665719
vn 0.285559 0.689401 -0.665719
vn 0.285559 0.689401 0.665719
vn 0.000000 0.746203 -0.665719
vn -0.000000 0.746203 0.665719
vn -0.285559 0.689401 -0.665719
vn -0.285559 0.689401 0.665719
vn -0.527645 0.527645 -0.665719
vn -0.527645 0.527645 0.665719
vn -0.689401 0.285559 -0.665719
vn -0.689401 0.285559 0.665719
vn -0.746203 0.000000 -0.665719
vn -0.746203 0.000000 0.665719
vn -0.689401 -0.285559 -0.665719
vn -0.689401 -0.285559 0.665719
vn -0.527645 -0.527645 -0.665719
vn -0.527645 -0.527645 0.665719
vn -0.285559 -0.689401 -0.665719
vn -0.285559 -0.689401 0.665719
vn -0.000000 -0.746203 -0.665719
vn -0.000000 -0.746203 0.665719
vn 0.285559 -0.689401 -0.665719
vn 0.285559 -0.689401 0.665719
vn 0.527645 -0.527645 -0.665719
vn 0.527645 -0.527645 0.665719
vn 0.689401 -0.285559 -0.665719
vn 0.689401 -0.285559 0.665719
vn 0.000000 0.000000 -1.000000
vn 0.746203 -0.000000 -0.665719
vn 0.746203 -0.000000 0.665719
vn 0.000000 0.000000 1.000000
vn 0.689401 0.285559 -0.665719
vn 0.689401 0.285559 0.665719
vn 0.527645 0.527645 -0.665719
vn 0.527645 0.527645 0.665719
vn 0.285559 0.689401 -0.665719
vn 0.285559 0.689401 0.665719
vn 0.000000 0.746203 -0.665719
vn -0.000000 0.746203 0.665719
vn -0.285559 0.689401 -0.665719
vn -0.285559 0.689401 0.665719
vn -0.527645 0.527645 -0.665719
vn -0.527645 0.527645 0.665719
vn -0.689401 0.285559 -0.665719
vn -0.689401 0.285559 0.665719
vn -0.746203 0.000000 -0.665719
vn -0.746203 0.000000 0.665719
vn -0.689401 -0.285559 -0.665719
vn -0.689401 -0.285559 0.665719
vn -0.527645 -0.527645 -0.665719
vn -0.527645 -0.527645 0.665719
vn -0.285559 -0.689401 -0.665719
vn -0.285559 -0.689401 0.665719
vn -0.000000 -0.746203 -0.665719
vn 0.000000 -0.746203 0.665719
vn 0.285559 -0.689401 -0.665719
vn 0.285559 -0.689401 0.665719
vn 0.527645 -0.527645 -0.665719
vn 0.527645 -0.527645 0.665719
vn 0.689401 -0.285559 -0.665719
vn 0.689401 -0.285559 0.665719
vn 0.000000 0.000000 -1.000000
vn 0.746203 -0.000000 -0.665719
vn 0.746203 -0.000000 0.665719
vn 0.000000 0.000000 1.000000
vn 0.689401 0.285559 -0.665719
vn 0.689401 0.285559 0.665719
vn 0.527645 0.527645 -0.665719
vn 0.527645 0.527645 0.665719
vn 0.285559 0.689401 -0.665719
vn 0.285559 0.689401 0.665719
vn 0.000000 0.746203 -0.665719
vn -0.000000 0.746203 0.665719
vn -0.285559 0.689401 -0.665719
vn -0.285559 0.689401 0.665719
vn -0.527645 0.527645 -0.665719
vn -0.527645 0.527645 0.665719
vn -0.689401 0.285559 -0.665719
vn -0.689401 0.285559 0.665719
vn -0.746203 0.000000 -0.665719
vn -0.746203 0.000000 0.665719
vn -0.689401 -0.285559 -0.665719
vn -0.689401 -0.285559 0.665719
vn -0.527645 -0.527645 -0.665719
vn -0.527645 -0.527645 0.665719
vn -0.285559 -0.689401 -0.665719
vn -0.285559 -0.689401 0.665719
vn -0.000000 -0.746203 -0.665719
vn -0.000000 -0.746203 0.665719
vn 0.285559 -0.689401 -0.665719
vn 0.285559 -0.689401 0.665719
vn 0.527645 -0.527645 -0.665719
vn 0.527645 -0.527645 0.665719
vn 0.689401 -0.285559 -0.665719
vn 0.689401 -0.285559 0.665719
usemtl barrel_wood
f 2/1/2 1/1/1 5/1/5
f 2/1/2 5/1/5 3/1/3
f 3/1/3 5/1/5 6/1/6
f 3/1/3 6/1/6 4/1/4
f 5/1/5 1/1/1 7/1/7
f 5/1/5 7/1/7 6/1/6
f 6/1/6 7/1/7 8/1/8
f 6/1/6 8/1/8 4/1/4
f 7/1/7 1/1/1 9/1/9
f 7/1/7 9/1/9 8/1/8
f 8/1/8 9/1/9 10/1/10
f 8/1/8 10/1/10 4/1/4
f 9/1/9 1/1/1 11/1/11
f 9/1/9 11/1/11 10/1/10
f 10/1/10 11/1/11 12/1/12
f 10/1/10 12/1/12 4/1/4
f 11/1/11 1/1/1 13/1/13
f 11/1/11 13/1/13 12/1/12
f 12/1/12 13/1/13 14/1/14
f 12/1/12 14/1/14 4/1/4
f 13/1/13 1/1/1 15/1/15
f 13/1/13 15/1/15 14/1/14
f 14/1/14 15/1/15 16/1/16
f 14/1/14 16/1/16 4/1/4
f 15/1/15 1/1/1 17/1/17
f 15/1/15 17/1/17 16/1/16
f 16/1/16 17/1/17 18/1/18
f 16/1/16 18/1/18 4/1/4
f 17/1/17 1/1/1 19/1/19
f 17/1/17 19/1/19 18/1/18
f 18/1/18 19/1/19 20/1/20
f 18/1/18 20/1/20 4/1/4
f 19/1/19 1/1/1 21/1/21
f 19/1/19 21/1/21 20/1/20
f 20/1/20 21/1/21 22/1/22
f 20/1/20 22/1/22 4/1/4
f 21/1/21 1/1/1 23/1/23
f 21/1/21 23/1/23 22/1/22
f 22/1/22 23/1/23 24/1/24
f 22/1/22 24/1/24 4/1/4
f 23/1/23 1/1/1 25/1/25
f 23/1/23 25/1/25 24/1/24
f 24/1/24 25/1/25 26/1/26
f 24/1/24 26/1/26 4/1/4
f 25/1/25 1/1/1 27/1/27
f 25/1/25 27/1/27 26/1/26
f 26/1/26 27/1/27 28/1/28
f 26/1/26 28/1/28 4/1/4
f 27/1/27 1/1/1 29/1/29
f 27/1/27 29/1/29 28/1/28
f 28/1/28 29/1/29 30/1/30
f 28/1/28 30/1/30 4/1/4
f 29/1/29 1/1/1 31/1/31
f 29/1/29 31/1/31 30/1/30
f 30/1/30 31/1/31 32/1/32
f 30/1/30 32/1/32 4/1/4
f 31/1/31 1/1/1 33/1/33
f 31/1/31 33/1/33 32/1/32
f 32/1/32 33/1/33 34/1/34
f 32/1/32 34/1/34 4/1/4
f 33/1/33 1/1/1 2/1/2
f 33/1/33 2/1/2 34/1/34
f 34/1/34 2/1/2 3/1/3
f 34/1/34 3/1/3 4/1/4
f 36/1/36 35/1/35 39/1/39
f 36/1/36 39/1/39 37/1/37
f 37/1/37 39/1/39 40/1/40
f 37/1/37 40/1/40 38/1/38
f 39/1/39 35/1/35 41/1/41
f 39/1/39 41/1/41 40/1/40
f 40/1/40 41/1/41 42/1/42
f 40/1/40 42/1/42 38/1/38
f 41/1/41 35/1/35 43/1/43
f 41/1/41 43/1/43 42/1/42
f 42/1/42 43/1/43 44/1/44
f 42/1/42 44/1/44 38/1/38
f 43/1/43 35/1/35 45/1/45
f 43/1/43 45/1/45 44/1/44
f 44/1/44 45/1/45 46/1/46
f 44/1/44 46/1/46 38/1/38
f 45/1/45 35/1/35 47/1/47
f 45/1/45 47/1/47 46/1/46
f 46/1/46 47/1/47 48/1/48
f 46/1/46 48/1/48 38/1/38
f 47/1/47 35/1/35 49/1/49
f 47/1/47 49/1/49 48/1/48
f 48/1/48 49/1/49 50/1/50
f 48/1/48 50/1/50 38/1/38
f 49/1/49 35/1/35 51/1/51
f 49/1/49 51/1/51 50/1/50
f 50/1/50 51/1/51 52/1/52
f 50/1/50 52/1/52 38/1/38
f 51/1/51 35/1/35 53/1/53
f 51/1/51 53/1/53 52/1/52
f 52/1/52 53/1/53 54/1/54
f 52/1/52 54/1/54 38/1/38
f 53/1/53 35/1/35 55/1/55
f 53/1/53 55/1/55 54/1/54
f 54/1/54 55/1/55 56/1/56
f 54/1/54 56/1/56 38/1/38
f 55/1/55 35/1/35 57/1/57
f 55/1/55 57/1/57 56/1/56
f 56/1/56 57/1/57 58/1/58
f 56/1/56 58/1/58 38/1/38
f 57/1/57 35/1/35 59/1/59
f 57/1/57 59/1/59 58/1/58
f 58/1/58 59/1/59 60/1/60
f 58/1/58 60/1/60 38/1/38
f 59/1/59 35/1/35 61/1/61
f 59/1/59 61/1/61 60/1/60
f 60/1/60 61/1/61 62/1/62
f 60/1/60 62/1/62 38/1/38
f 61/1/61 35/1/35 63/1/63
f 61/1/61 63/1/63 62/1/62
f 62/1/62 63/1/63 64/1/64
f 62/1/62 64/1/64 38/1/38
f 63/1/63 35/1/35 65/1/65
f 63/1/63 65/1/65 64/1/64
f 64/1/64 65/1/65 66/1/66
f 64/1/64 66/1/66 38/1/38
f 65/1/65 35/1/35 67/1/67
f 65/1/65 67/1/67 66/1/66
f 66/1/66 67/1/67 68/1/68
f 66/1/66 68/1/68 38/1/38
f 67/1/67 35/1/35 36/1/36
f 67/1/67 36/1/36 68/1/68
f 68/1/68 36/1/36 37/1/37
f 68/1/68 37/1/37 38/1/38
f 70/1/70 69/1/69 73/1/73
f 70/1/70 73/1/73 71/1/71
f 71/1/71 73/1/73 74/1/74
f 71/1/71 74/1/74 72/1/72
f 73/1/73 69/1/69 75/1/75
f 73/1/73 75/1/75 74/1/74
f 74/1/74 75/1/75 76/1/76
f 74/1/74 76/1/76 72/1/72
f 75/1/75 69/1/69 77/1/77
f 75/1/75 77/1/77 76/1/76
f 76/1/76 77/1/77 78/1/78
f 76/1/76 78/1/78 72/1/72
f 77/1/77 69/1/69 79/1/79
f 77/1/77 79/1/79 78/1/78
f 78/1/78 79/1/79 80/1/80
f 78/1/78 80/1/80 72/1/72
f 79/1/79 69/1/69 81/1/81
f 79/1/79 81/1/81 80/1/80
f 80/1/80 81/1/81 82/1/82
f 80/1/80 82/1/82 72/1/72
f 81/1/81 69/1/69 83/1/83
f 81/1/81 83/1/83 82/1/82
f 82/1/82 83/1/83 84/1/84
f 82/1/82 84/1/84 72/1/72
f 83/1/83 69/1/69 85/1/85
f 83/1/83 85/1/85 84/1/84
f 84/1/84 85/1/85 86/1/86
f 84/1/84 86/1/86 72/1/72
f 85/1/85 69/1/69 87/1/87
f 85/1/85 87/1/87 86/1/86
f 86/1/86 87/1/87 88/1/88
f 86/1/86 88/1/88 72/1/72
f 87/1/87 69/1/69 89/1/89
f 87/1/87 89/1/89 88/1/88
f 88/1/88 89/1/89 90/1/90
f 88/1/88 90/1/90 72/1/72
f 89/1/89 69/1/69 91/1/91
f 89/1/89 91/1/91 90/1/90
f 90/1/90 91/1/91 92/1/92
f 90/1/90 92/1/92 72/1/72
f 91/1/91 69/1/69 93/1/93
f 91/1/91 93/1/93 92/1/92
f 92/1/92 93/1/93 94/1/94
f 92/1/92 94/1/94 72/1/72
f 93/1/93 69/1/69 95/1/95
f 93/1/93 95/1/95 94/1/94
f 94/1/94 95/1/95 96/1/96
f 94/1/94 96/1/96 72/1/72
f 95/1/95 69/1/69 97/1/97
f 95/1/95 97/1/97 96/1/96
f 96/1/96 97/1/97 98/1/98
f 96/1/96 98/1/98 72/1/72
f 97/1/97 69/1/69 99/1/99
f 97/1/97 99/1/99 98/1/98
f 98/1/98 99/1/99 100/1/100
f 98/1/98 100/1/100 72/1/72
f 99/1/99 69/1/69 101/1/101
f 99/1/99 101/1/101 100/1/100
f 100/1/100 101/1/101 102/1/102
f 100/1/100 102/1/102 72/1/72
f 101/1/101 69/1/69 70/1/70
f 101/1/101 70/1/70 102/1/102
f 102/1/102 70/1/70 71/1/71
f 102/1/102 71/1/71 72/1/72

# Group: iron_ring
v -0.200000 -0.050000 0.060000
v 0.030000 -0.050000 0.060000
v 0.030000 -0.050000 0.100000
v -0.200000 -0.050000 0.100000
v 0.012492 0.038017 0.060000
v 0.012492 0.038017 0.100000
v -0.037365 0.112635 0.060000
v -0.037365 0.112635 0.100000
v -0.111983 0.162492 0.060000
v -0.111983 0.162492 0.100000
v -0.200000 0.180000 0.060000
v -0.200000 0.180000 0.100000
v -0.288017 0.162492 0.060000
v -0.288017 0.162492 0.100000
v -0.362635 0.112635 0.060000
v -0.362635 0.112635 0.100000
v -0.412492 0.038017 0.060000
v -0.412492 0.038017 0.100000
v -0.430000 -0.050000 0.060000
v -0.430000 -0.050000 0.100000
v -0.412492 -0.138017 0.060000
v -0.412492 -0.138017 0.100000
v -0.362635 -0.212635 0.060000
v -0.362635 -0.212635 0.100000
v -0.288017 -0.262492 0.060000
v -0.288017 -0.262492 0.100000
v -0.200000 -0.280000 0.060000
v -0.200000 -0.280000 0.100000
v -0.111983 -0.262492 0.060000
v -0.111983 -0.262492 0.100000
v -0.037365 -0.212635 0.060000
v -0.037365 -0.212635 0.100000
v 0.012492 -0.138017 0.060000
v 0.012492 -0.138017 0.100000
v -0.200000 -0.050000 0.380000
v 0.030000 -0.050000 0.380000
v 0.030000 -0.050000 0.420000
v -0.200000 -0.050000 0.420000
v 0.012492 0.038017 0.380000
v 0.012492 0.038017 0.420000
v -0.037365 0.112635 0.380000
v -0.037365 0.112635 0.420000
v -0.111983 0.162492 0.380000
v -0.111983 0.162492 0.420000
v -0.200000 0.180000 0.380000
v -0.200000 0.180000 0.420000
v -0.288017 0.162492 0.380000
v -0.288017 0.162492 0.420000
v -0.362635 0.112635 0.380000
v -0.362635 0.112635 0.420000
v -0.412492 0.038017 0.380000
v -0.412492 0.038017 0.420000
v -0.430000 -0.050000 0.380000
v -0.430000 -0.050000 0.420000
v -0.412492 -0.138017 0.380000
v -0.412492 -0.138017 0.420000
v -0.362635 -0.212635 0.380000
v -0.362635 -0.212635 0.420000
v -0.288017 -0.262492 0.380000
v -0.288017 -0.262492 0.420000
v -0.200000 -0.280000 0.380000
v -0.200000 -0.280000 0.420000
v -0.111983 -0.262492 0.380000
v -0.111983 -0.262492 0.420000
v -0.037365 -0.212635 0.380000
v -0.037365 -0.212635 0.420000
v 0.012492 -0.138017 0.380000
v 0.012492 -0.138017 0.420000
v 0.200000 0.050000 0.060000
v 0.430000 0.050000 0.060000
v 0.430000 0.050000 0.100000
v 0.200000 0.050000 0.100000
v 0.412492 0.138017 0.060000
v 0.412492 0.138017 0.100000
v 0.362635 0.212635 0.060000
v 0.362635 0.212635 0.100000
v 0.288017 0.262492 0.060000
v 0.288017 0.262492 0.100000
v 0.200000 0.280000 0.060000
v 0.200000 0.280000 0.100000
v 0.111983 0.262492 0.060000
v 0.111983 0.262492 0.100000
v 0.037365 0.212635 0.060000
v 0.037365 0.212635 0.100000
v -0.012492 0.138017 0.060000
v -0.012492 0.138017 0.100000
v -0.030000 0.050000 0.060000
v -0.030000 0.050000 0.100000
v -0.012492 -0.038017 0.060000
v -0.012492 -0.038017 0.100000
v 0.037365 -0.112635 0.060000
v 0.037365 -0.112635 0.100000
v 0.111983 -0.162492 0.060000
v 0.111983 -0.162492 0.100000
v 0.200000 -0.180000 0.060000
v 0.200000 -0.180000 0.100000
v 0.288017 -0.162492 0.060000
v 0.288017 -0.162492 0.100000
v 0.362635 -0.112635 0.060000
v 0.362635 -0.112635 0.100000
v 0.412492 -0.038017 0.060000
v 0.412492 -0.038017 0.100000
v 0.200000 0.050000 0.380000
v 0.430000 0.050000 0.380000
v 0.430000 0.050000 0.420000
v 0.200000 0.050000 0.420000
v 0.412492 0.138017 0.380000
v 0.412492 0.138017 0.420000
v 0.362635 0.212635 0.380000
v 0.362635 0.212635 0.420000
v 0.288017 0.262492 0.380000
v 0.288017 0.262492 0.420000
v 0.200000 0.280000 0.380000
v 0.200000 0.280000 0.420000
v 0.111983 0.262492 0.380000
v 0.111983 0.262492 0.420000
v 0.037365 0.212635 0.380000
v 0.037365 0.212635 0.420000
v -0.012492 0.138017 0.380000
v -0.012492 0.138017 0.420000
v -0.030000 0.050000 0.380000
v -0.030000 0.050000 0.420000
v -0.012492 -0.038017 0.380000
v -0.012492 -0.038017 0.420000
v 0.037365 -0.112635 0.380000
v 0.037365 -0.112635 0.420000
v 0.111983 -0.162492 0.380000
v 0.111983 -0.162492 0.420000
v 0.200000 -0.180000 0.380000
v 0.200000 -0.180000 0.420000
v 0.288017 -0.162492 0.380000
v 0.288017 -0.162492 0.420000
v 0.362635 -0.112635 0.380000
v 0.362635 -0.112635 0.420000
v 0.412492 -0.038017 0.380000
v 0.412492 -0.038017 0.420000
v 0.000000 0.000000 0.540000
v 0.230000 0.000000 0.540000
v 0.230000 0.000000 0.580000
v 0.000000 0.000000 0.580000
v 0.212492 0.088017 0.540000
v 0.212492 0.088017 0.580000
v 0.162635 0.162635 0.540000
v 0.162635 0.162635 0.580000
v 0.088017 0.212492 0.540000
v 0.088017 0.212492 0.580000
v 0.000000 0.230000 0.540000
v 0.000000 0.230000 0.580000
v -0.088017 0.212492 0.540000
v -0.088017 0.212492 0.580000
v -0.162635 0.162635 0.540000
v -0.162635 0.162635 0.580000
v -0.212492 0.088017 0.540000
v -0.212492 0.088017 0.580000
v -0.230000 0.000000 0.540000
v -0.230000 0.000000 0.580000
v -0.212492 -0.088017 0.540000
v -0.212492 -0.088017 0.580000
v -0.162635 -0.162635 0.540000
v -0.162635 -0.162635 0.580000
v -0.088017 -0.212492 0.540000
v -0.088017 -0.212492 0.580000
v -0.000000 -0.230000 0.540000
v -0.000000 -0.230000 0.580000
v 0.088017 -0.212492 0.540000
v 0.088017 -0.212492 0.580000
v 0.162635 -0.162635 0.540000
v 0.162635 -0.162635 0.580000
v 0.212492 -0.088017 0.540000
v 0.212492 -0.088017 0.580000
v 0.000000 0.000000 0.860000
v 0.230000 0.000000 0.860000
v 0.230000 0.000000 0.900000
v 0.000000 0.000000 0.900000
v 0.212492 0.088017 0.860000
v 0.212492 0.088017 0.900000
v 0.162635 0.162635 0.860000
v 0.162635 0.162635 0.900000
v 0.088017 0.212492 0.860000
v 0.088017 0.212492 0.900000
v 0.000000 0.230000 0.860000
v 0.000000 0.230000 0.900000
v -0.088017 0.212492 0.860000
v -0.088017 0.212492 0.900000
v -0.162635 0.162635 0.860000
v -0.162635 0.162635 0.900000
v -0.212492 0.088017 0.860000
v -0.212492 0.088017 0.900000
v -0.230000 0.000000 0.860000
v -0.230000 0.000000 0.900000
v -0.212492 -0.088017 0.860000
v -0.212492 -0.088017 0.900000
v -0.162635 -0.162635 0.860000
v -0.162635 -0.162635 0.900000
v -0.088017 -0.212492 0.860000
v -0.088017 -0.212492 0.900000
v -0.000000 -0.230000 0.860000
v -0.000000 -0.230000 0.900000
v 0.088017 -0.212492 0.860000
v 0.088017 -0.212492 0.900000
v 0.162635 -0.162635 0.860000
v 0.162635 -0.162635 0.900000
v 0.212492 -0.088017 0.860000
v 0.212492 -0.088017 0.900000
vt 0.0 0.0
vn 0.000000 0.000000 -1.000000
vn 0.746203 -0.000000 -0.665719
vn 0.746203 -0.000000 0.665719
vn 0.000000 0.000000 1.000000
vn 0.689401 0.285559 -0.665719
vn 0.689401 0.285559 0.665719
vn 0.527645 0.527645 -0.665719
vn 0.527645 0.527645 0.665719
vn 0.285559 0.689401 -0.665719
vn 0.285559 0.689401 0.665719
vn 0.000000 0.746203 -0.665719
vn -0.000000 0.746203 0.665719
vn -0.285559 0.689401 -0.665719
vn -0.285559 0.689401 0.665719
vn -0.527645 0.527645 -0.665719
vn -0.527645 0.527645 0.665719
vn -0.689401 0.285559 -0.665719
vn -0.689401 0.285559 0.665719
vn -0.746203 0.000000 -0.665719
vn -0.746203 -0.000000 0.665719
vn -0.689401 -0.285559 -0.665719
vn -0.689401 -0.285559 0.665719
vn -0.527645 -0.527645 -0.665719
vn -0.527645 -0.527645 0.665719
vn -0.285559 -0.689401 -0.665719
vn -0.285559 -0.689401 0.665719
vn 0.000000 -0.746203 -0.665719
vn -0.000000 -0.746203 0.665719
vn 0.285559 -0.689401 -0.665719
vn 0.285559 -0.689401 0.665719
vn 0.527645 -0.527645 -0.665719
vn 0.527645 -0.527645 0.665719
vn 0.689401 -0.285559 -0.665719
vn 0.689401 -0.285559 0.665719
vn 0.000000 0.000000 -1.000000
vn 0.746203 -0.000000 -0.665719
vn 0.746203 -0.000000 0.665719
vn 0.000000 0.000000 1.000000
vn 0.689401 0.285559 -0.665719
vn 0.689401 0.285559 0.665719
vn 0.527645 0.527645 -0.665719
vn 0.527645 0.527645 0.665719
vn 0.285559 0.689401 -0.665719
vn 0.285559 0.689401 0.665719
vn 0.000000 0.746203 -0.665719
vn 0.000000 0.746203 0.665719
vn -0.285559 0.689401 -0.665719
vn -0.285559 0.689401 0.665719
vn -0.527645 0.527645 -0.665719
vn -0.527645 0.527645 0.665719
vn -0.689401 0.285559 -0.665719
vn -0.689401 0.285559 0.665719
vn -0.746203 0.000000 -0.665719
vn -0.746203 -0.000000 0.665719
vn -0.689401 -0.285559 -0.665719
vn -0.689401 -0.285559 0.665719
vn -0.527645 -0.527645 -0.665719
vn -0.527645 -0.527645 0.665719
vn -0.285559 -0.689401 -0.665719
vn -0.285559 -0.689401 0.665719
vn 0.000000 -0.746203 -0.665719
vn -0.000000 -0.746203 0.665719
vn 0.285559 -0.689401 -0.665719
vn 0.285559 -0.689401 0.665719
vn 0.527645 -0.527645 -0.665719
vn 0.527645 -0.527645 0.665719
vn 0.689401 -0.285559 -0.665719
vn 0.689401 -0.285559 0.665719
vn 0.000000 0.000000 -1.000000
vn 0.746203 -0.000000 -0.665719
vn 0.746203 -0.000000 0.665719
vn 0.000000 0.000000 1.000000
vn 0.689401 0.285559 -0.665719
vn 0.689401 0.285559 0.665719
vn 0.527645 0.527645 -0.665719
vn 0.527645 0.527645 0.665719
vn 0.285559 0.689401 -0.665719
vn 0.285559 0.689401 0.665719
vn 0.000000 0.746203 -0.665719
vn 0.000000 0.746203 0.665719
vn -0.285559 0.689401 -0.665719
vn -0.285559 0.689401 0.665719
vn -0.527645 0.527645 -0.665719
vn -0.527645 0.527645 0.665719
vn -0.689401 0.285559 -0.665719
vn -0.689401 0.285559 0.665719
vn -0.746203 0.000000 -0.665719
vn -0.746203 0.000000 0.665719
vn -0.689401 -0.285559 -0.665719
vn -0.689401 -0.285559 0.665719
vn -0.527645 -0.527645 -0.665719
vn -0.527645 -0.527645 0.665719
vn -0.285559 -0.689401 -0.665719
vn -0.285559 -0.689401 0.665719
vn -0.000000 -0.746203 -0.665719
vn -0.000000 -0.746203 0.665719
vn 0.285559 -0.689401 -0.665719
vn 0.285559 -0.689401 0.665719
vn 0.527645 -0.527645 -0.665719
vn 0.527645 -0.527645 0.665719
vn 0.689401 -0.285559 -0.665719
vn 0.689401 -0.285559 0.665719
vn 0.000000 0.000000 -1.000000
vn 0.746203 -0.000000 -0.665719
vn 0.746203 -0.000000 0.665719
vn 0.000000 0.000000 1.000000
vn 0.689401 0.285559 -0.665719
vn 0.689401 0.285559 0.665719
vn 0.527645 0.527645 -0.665719
vn 0.527645 0.527645 0.665719
vn 0.285559 0.689401 -0.665719
vn 0.285559 0.689401 0.665719
vn 0.000000 0.746203 -0.665719
vn 0.000000 0.746203 0.665719
vn -0.285559 0.689401 -0.665719
vn -0.285559 0.689401 0.665719
vn -0.527645 0.527645 -0.665719
vn -0.527645 0.527645 0.665719
vn -0.689401 0.285559 -0.665719
vn -0.689401 0.285559 0.665719
vn -0.746203 0.000000 -0.665719
vn -0.746203 0.000000 0.665719
vn -0.689401 -0.285559 -0.665719
vn -0.689401 -0.285559 0.665719
vn -0.527645 -0.527645 -0.665719
vn -0.527645 -0.527645 0.665719
vn -0.285559 -0.689401 -0.665719
vn -0.285559 -0.689401 0.665719
vn -0.000000 -0.746203 -0.665719
vn -0.000000 -0.746203 0.665719
vn 0.285559 -0.689401 -0.665719
vn 0.285559 -0.689401 0.665719
vn 0.527645 -0.527645 -0.665719
vn 0.527645 -0.527645 0.665719
vn 0.689401 -0.285559 -0.665719
vn 0.689401 -0.285559 0.665719
vn 0.000000 0.000000 -1.000000
vn 0.746203 -0.000000 -0.665719
vn 0.746203 -0.000000 0.665719
vn 0.000000 0.000000 1.000000
vn 0.689401 0.285559 -0.665719
vn 0.689401 0.285559 0.665719
vn 0.527645 0.527645 -0.665719
vn 0.527645 0.527645 0.665719
vn 0.285559 0.689401 -0.665719
vn 0.285559 0.689401 0.665719
vn 0.000000 0.746203 -0.665719
vn -0.000000 0.746203 0.665719
vn -0.285559 0.689401 -0.665719
vn -0.285559 0.689401 0.665719
vn -0.527645 0.527645 -0.665719
vn -0.527645 0.527645 0.665719
vn -0.689401 0.285559 -0.665719
vn -0.689401 0.285559 0.665719
vn -0.746203 0.000000 -0.665719
vn -0.746203 0.000000 0.665719
vn -0.689401 -0.285559 -0.665719
vn -0.689401 -0.285559 0.665719
vn -0.527645 -0.527645 -0.665719
vn -0.527645 -0.527645 0.665719
vn -0.285559 -0.689401 -0.665719
vn -0.285559 -0.689401 0.665719
vn -0.000000 -0.746203 -0.665719
vn -0.000000 -0.746203 0.665719
vn 0.285559 -0.689401 -0.665719
vn 0.285559 -0.689401 0.665719
vn 0.527645 -0.527645 -0.665719
vn 0.527645 -0.527645 0.665719
vn 0.689401 -0.285559 -0.665719
vn 0.689401 -0.285559 0.665719
vn 0.000000 0.000000 -1.000000
vn 0.746203 -0.000000 -0.665719
vn 0.746203 -0.000000 0.665719
vn 0.000000 0.000000 1.000000
vn 0.689401 0.285559 -0.665719
vn 0.689401 0.285559 0.665719
vn 0.527645 0.527645 -0.665719
vn 0.527645 0.527645 0.665719
vn 0.285559 0.689401 -0.665719
vn 0.285559 0.689401 0.665719
vn 0.000000 0.746203 -0.665719
vn -0.000000 0.746203 0.665719
vn -0.285559 0.689401 -0.665719
vn -0.285559 0.689401 0.665719
vn -0.527645 0.527645 -0.665719
vn -0.527645 0.527645 0.665719
vn -0.689401 0.285559 -0.665719
vn -0.689401 0.285559 0.665719
vn -0.746203 0.000000 -0.665719
vn -0.746203 0.000000 0.665719
vn -0.689401 -0.285559 -0.665719
vn -0.689401 -0.285559 0.665719
vn -0.527645 -0.527645 -0.665719
vn -0.527645 -0.527645 0.665719
vn -0.285559 -0.689401 -0.665719
vn -0.285559 -0.689401 0.665719
vn -0.000000 -0.746203 -0.665719
vn -0.000000 -0.746203 0.665719
vn 0.285559 -0.689401 -0.665719
vn 0.285559 -0.689401 0.665719
vn 0.527645 -0.527645 -0.665719
vn 0.527645 -0.527645 0.665719
vn 0.689401 -0.285559 -0.665719
vn 0.689401 -0.285559 0.665719
usemtl iron_ring
f 104/1/104 103/1/103 107/1/107
f 104/1/104 107/1/107 105/1/105
f 105/1/105 107/1/107 108/1/108
f 105/1/105 108/1/108 106/1/106
f 107/1/107 103/1/103 109/1/109
f 107/1/107 109/1/109 108/1/108
f 108/1/108 109/1/109 110/1/110
f 108/1/108 110/1/110 106/1/106
f 109/1/109 103/1/103 111/1/111
f 109/1/109 111/1/111 110/1/110
f 110/1/110 111/1/111 112/1/112
f 110/1/110 112/1/112 106/1/106
f 111/1/111 103/1/103 113/1/113
f 111/1/111 113/1/113 112/1/112
f 112/1/112 113/1/113 114/1/114
f 112/1/112 114/1/114 106/1/106
f 113/1/113 103/1/103 115/1/115
f 113/1/113 115/1/115 114/1/114
f 114/1/114 115/1/115 116/1/116
f 114/1/114 116/1/116 106/1/106
f 115/1/115 103/1/103 117/1/117
f 115/1/115 117/1/117 116/1/116
f 116/1/116 117/1/117 118/1/118
f 116/1/116 118/1/118 106/1/106
f 117/1/117 103/1/103 119/1/119
f 117/1/117 119/1/119 118/1/118
f 118/1/118 119/1/119 120/1/120
f 118/1/118 120/1/120 106/1/106
f 119/1/119 103/1/103 121/1/121
f 119/1/119 121/1/121 120/1/120
f 120/1/120 121/1/121 122/1/122
f 120/1/120 122/1/122 106/1/106
f 121/1/121 103/1/103 123/1/123
f 121/1/121 123/1/123 122/1/122
f 122/1/122 123/1/123 124/1/124
f 122/1/122 124/1/124 106/1/106
f 123/1/123 103/1/103 125/1/125
f 123/1/123 125/1/125 124/1/124
f 124/1/124 125/1/125 126/1/126
f 124/1/124 126/1/126 106/1/106
f 125/1/125 103/1/103 127/1/127
f 125/1/125 127/1/127 126/1/126
f 126/1/126 127/1/127 128/1/128
f 126/1/126 128/1/128 106/1/106
f 127/1/127 103/1/103 129/1/129
f 127/1/127 129/1/129 128/1/128
f 128/1/128 129/1/129 130/1/130
f 128/1/128 130/1/130 106/1/106
f 129/1/129 103/1/103 131/1/131
f 129/1/129 131/1/131 130/1/130
f 130/1/130 131/1/131 132/1/132
f 130/1/130 132/1/132 106/1/106
f 131/1/131 103/1/103 133/1/133
f 131/1/131 133/1/133 132/1/132
f 132/1/132 133/1/133 134/1/134
f 132/1/132 134/1/134 106/1/106
f 133/1/133 103/1/103 135/1/135
f 133/1/133 135/1/135 134/1/134
f 134/1/134 135/1/135 136/1/136
f 134/1/134 136/1/136 106/1/106
f 135/1/135 103/1/103 104/1/104
f 135/1/135 104/1/104 136/1/136
f 136/1/136 104/1/104 105/1/105
f 136/1/136 105/1/105 106/1/106
f 138/1/138 137/1/137 141/1/141
f 138/1/138 141/1/141 139/1/139
f 139/1/139 141/1/141 142/1/142
f 139/1/139 142/1/142 140/1/140
f 141/1/141 137/1/137 143/1/143
f 141/1/141 143/1/143 142/1/142
f 142/1/142 143/1/143 144/1/144
f 142/1/142 144/1/144 140/1/140
f 143/1/143 137/1/137 145/1/145
f 143/1/143 145/1/145 144/1/144
f 144/1/144 145/1/145 146/1/146
f 144/1/144 146/1/146 140/1/140
f 145/1/145 137/1/137 147/1/147
f 145/1/145 147/1/147 146/1/146
f 146/1/146 147/1/147 148/1/148
f 146/1/146 148/1/148 140/1/140
f 147/1/147 137/1/137 149/1/149
f 147/1/147 149/1/149 148/1/148
f 148/1/148 149/1/149 150/1/150
f 148/1/148 150/1/150 140/1/140
f 149/1/149 137/1/137 151/1/151
f 149/1/149 151/1/151 150/1/150
f 150/1/150 151/1/151 152/1/152
f 150/1/150 152/1/152 140/1/140
f 151/1/151 137/1/137 153/1/153
f 151/1/151 153/1/153 152/1/152
f 152/1/152 153/1/153 154/1/154
f 152/1/152 154/1/154 140/1/140
f 153/1/153 137/1/137 155/1/155
f 153/1/153 155/1/155 154/1/154
f 154/1/154 155/1/155 156/1/156
f 154/1/154 156/1/156 140/1/140
f 155/1/155 137/1/137 157/1/157
f 155/1/155 157/1/157 156/1/156
f 156/1/156 157/1/157 158/1/158
f 156/1/156 158/1/158 140/1/140
f 157/1/157 137/1/137 159/1/159
f 157/1/157 159/1/159 158/1/158
f 158/1/158 159/1/159 160/1/160
f 158/1/158 160/1/160 140/1/140
f 159/1/159 137/1/137 161/1/161
f 159/1/159 161/1/161 160/1/160
f 160/1/160 161/1/161 162/1/162
f 160/1/160 162/1/162 140/1/140
f 161/1/161 137/1/137 163/1/163
f 161/1/161 163/1/163 162/1/162
f 162/1/162 163/1/163 164/1/164
f 162/1/162 164/1/164 140/1/140
f 163/1/163 137/1/137 165/1/165
f 163/1/163 165/1/165 164/1/164
f 164/1/164 165/1/165 166/1/166
f 164/1/164 166/1/166 140/1/140
f 165/1/165 137/1/137 167/1/167
f 165/1/165 167/1/167 166/1/166
f 166/1/166 167/1/167 168/1/168
f 166/1/166 168/1/168 140/1/140
f 167/1/167 137/1/137 169/1/169
f 167/1/167 169/1/169 168/1/168
f 168/1/168 169/1/169 170/1/170
f 168/1/168 170/1/170 140/1/140
f 169/1/169 137/1/137 138/1/138
f 169/1/169 138/1/138 170/1/170
f 170/1/170 138/1/138 139/1/139
f 170/1/170 139/1/139 140/1/140
f 172/1/172 171/1/171 175/1/175
f 172/1/172 175/1/175 173/1/173
f 173/1/173 175/1/175 176/1/176
f 173/1/173 176/1/176 174/1/174
f 175/1/175 171/1/171 177/1/177
f 175/1/175 177/1/177 176/1/176
f 176/1/176 177/1/177 178/1/178
f 176/1/176 178/1/178 174/1/174
f 177/1/177 171/1/171 179/1/179
f 177/1/177 179/1/179 178/1/178
f 178/1/178 179/1/179 180/1/180
f 178/1/178 180/1/180 174/1/174
f 179/1/179 171/1/171 181/1/181
f 179/1/179 181/1/181 180/1/180
f 180/1/180 181/1/181 182/1/182
f 180/1/180 182/1/182 174/1/174
f 181/1/181 171/1/171 183/1/183
f 181/1/181 183/1/183 182/1/182
f 182/1/182 183/1/183 184/1/184
f 182/1/182 184/1/184 174/1/174
f 183/1/183 171/1/171 185/1/185
f 183/1/183 185/1/185 184/1/184
f 184/1/184 185/1/185 186/1/186
f 184/1/184 186/1/186 174/1/174
f 185/1/185 171/1/171 187/1/187
f 185/1/185 187/1/187 186/1/186
f 186/1/186 187/1/187 188/1/188
f 186/1/186 188/1/188 174/1/174
f 187/1/187 171/1/171 189/1/189
f 187/1/187 189/1/189 188/1/188
f 188/1/188 189/1/189 190/1/190
f 188/1/188 190/1/190 174/1/174
f 189/1/189 171/1/171 191/1/191
f 189/1/189 191/1/191 190/1/190
f 190/1/190 191/1/191 192/1/192
f 190/1/190 192/1/192 174/1/174
f 191/1/191 171/1/171 193/1/193
f 191/1/191 193/1/193 192/1/192
f 192/1/192 193/1/193 194/1/194
f 192/1/192 194/1/194 174/1/174
f 193/1/193 171/1/171 195/1/195
f 193/1/193 195/1/195 194/1/194
f 194/1/194 195/1/195 196/1/196
f 194/1/194 196/1/196 174/1/174
f 195/1/195 171/1/171 197/1/197
f 195/1/195 197/1/197 196/1/196
f 196/1/196 197/1/197 198/1/198
f 196/1/196 198/1/198 174/1/174
f 197/1/197 171/1/171 199/1/199
f 197/1/197 199/1/199 198/1/198
f 198/1/198 199/1/199 200/1/200
f 198/1/198 200/1/200 174/1/174
f 199/1/199 171/1/171 201/1/201
f 199/1/199 201/1/201 200/1/200
f 200/1/200 201/1/201 202/1/202
f 200/1/200 202/1/202 174/1/174
f 201/1/201 171/1/171 203/1/203
f 201/1/201 203/1/203 202/1/202
f 202/1/202 203/1/203 204/1/204
f 202/1/202 204/1/204 174/1/174
f 203/1/203 171/1/171 172/1/172
f 203/1/203 172/1/172 204/1/204
f 204/1/204 172/1/172 173/1/173
f 204/1/204 173/1/173 174/1/174
f 206/1/206 205/1/205 209/1/209
f 206/1/206 209/1/209 207/1/207
f 207/1/207 209/1/209 210/1/210
f 207/1/207 210/1/210 208/1/208
f 209/1/209 205/1/205 211/1/211
f 209/1/209 211/1/211 210/1/210
f 210/1/210 211/1/211 212/1/212
f 210/1/210 212/1/212 208/1/208
f 211/1/211 205/1/205 213/1/213
f 211/1/211 213/1/213 212/1/212
f 212/1/212 213/1/213 214/1/214
f 212/1/212 214/1/214 208/1/208
f 213/1/213 205/1/205 215/1/215
f 213/1/213 215/1/215 214/1/214
f 214/1/214 215/1/215 216/1/216
f 214/1/214 216/1/216 208/1/208
f 215/1/215 205/1/205 217/1/217
f 215/1/215 217/1/217 216/1/216
f 216/1/216 217/1/217 218/1/218
f 216/1/216 218/1/218 208/1/208
f 217/1/217 205/1/205 219/1/219
f 217/1/217 219/1/219 218/1/218
f 218/1/218 219/1/219 220/1/220
f 218/1/218 220/1/220 208/1/208
f 219/1/219 205/1/205 221/1/221
f 219/1/219 221/1/221 220/1/220
f 220/1/220 221/1/221 222/1/222
f 220/1/220 222/1/222 208/1/208
f 221/1/221 205/1/205 223/1/223
f 221/1/221 223/1/223 222/1/222
f 222/1/222 223/1/223 224/1/224
f 222/1/222 224/1/224 208/1/208
f 223/1/223 205/1/205 225/1/225
f 223/1/223 225/1/225 224/1/224
f 224/1/224 225/1/225 226/1/226
f 224/1/224 226/1/226 208/1/208
f 225/1/225 205/1/205 227/1/227
f 225/1/225 227/1/227 226/1/226
f 226/1/226 227/1/227 228/1/228
f 226/1/226 228/1/228 208/1/208
f 227/1/227 205/1/205 229/1/229
f 227/1/227 229/1/229 228/1/228
f 228/1/228 229/1/229 230/1/230
f 228/1/228 230/1/230 208/1/208
f 229/1/229 205/1/205 231/1/231
f 229/1/229 231/1/231 230/1/230
f 230/1/230 231/1/231 232/1/232
f 230/1/230 232/1/232 208/1/208
f 231/1/231 205/1/205 233/1/233
f 231/1/231 233/1/233 232/1/232
f 232/1/232 233/1/233 234/1/234
f 232/1/232 234/1/234 208/1/208
f 233/1/233 205/1/205 235/1/235
f 233/1/233 235/1/235 234/1/234
f 234/1/234 235/1/235 236/1/236
f 234/1/234 236/1/236 208/1/208
f 235/1/235 205/1/205 237/1/237
f 235/1/235 237/1/237 236/1/236
f 236/1/236 237/1/237 238/1/238
f 236/1/236 238/1/238 208/1/208
f 237/1/237 205/1/205 206/1/206
f 237/1/237 206/1/206 238/1/238
f 238/1/238 206/1/206 207/1/207
f 238/1/238 207/1/207 208/1/208
f 240/1/240 239/1/239 243/1/243
f 240/1/240 243/1/243 241/1/241
f 241/1/241 243/1/243 244/1/244
f 241/1/241 244/1/244 242/1/242
f 243/1/243 239/1/239 245/1/245
f 243/1/243 245/1/245 244/1/244
f 244/1/244 245/1/245 246/1/246
f 244/1/244 246/1/246 242/1/242
f 245/1/245 239/1/239 247/1/247
f 245/1/245 247/1/247 246/1/246
f 246/1/246 247/1/247 248/1/248
f 246/1/246 248/1/248 242/1/242
f 247/1/247 239/1/239 249/1/249
f 247/1/247 249/1/249 248/1/248
f 248/1/248 249/1/249 250/1/250
f 248/1/248 250/1/250 242/1/242
f 249/1/249 239/1/239 251/1/251
f 249/1/249 251/1/251 250/1/250
f 250/1/250 251/1/251 252/1/252
f 250/1/250 252/1/252 242/1/242
f 251/1/251 239/1/239 253/1/253
f 251/1/251 253/1/253 252/1/252
f 252/1/252 253/1/253 254/1/254
f 252/1/252 254/1/254 242/1/242
f 253/1/253 239/1/239 255/1/255
f 253/1/253 255/1/255 254/1/254
f 254/1/254 255/1/255 256/1/256
f 254/1/254 256/1/256 242/1/242
f 255/1/255 239/1/239 257/1/257
f 255/1/255 257/1/257 256/1/256
f 256/1/256 257/1/257 258/1/258
f 256/1/256 258/1/258 242/1/242
f 257/1/257 239/1/239 259/1/259
f 257/1/257 259/1/259 258/1/258
f 258/1/258 259/1/259 260/1/260
f 258/1/258 260/1/260 242/1/242
f 259/1/259 239/1/239 261/1/261
f 259/1/259 261/1/261 260/1/260
f 260/1/260 261/1/261 262/1/262
f 260/1/260 262/1/262 242/1/242
f 261/1/261 239/1/239 263/1/263
f 261/1/261 263/1/263 262/1/262
f 262/1/262 263/1/263 264/1/264
f 262/1/262 264/1/264 242/1/242
f 263/1/263 239/1/239 265/1/265
f 263/1/263 265/1/265 264/1/264
f 264/1/264 265/1/265 266/1/266
f 264/1/264 266/1/266 242/1/242
f 265/1/265 239/1/239 267/1/267
f 265/1/265 267/1/267 266/1/266
f 266/1/266 267/1/267 268/1/268
f 266/1/266 268/1/268 242/1/242
f 267/1/267 239/1/239 269/1/269
f 267/1/267 269/1/269 268/1/268
f 268/1/268 269/1/269 270/1/270
f 268/1/268 270/1/270 242/1/242
f 269/1/269 239/1/239 271/1/271
f 269/1/269 271/1/271 270/1/270
f 270/1/270 271/1/271 272/1/272
f 270/1/270 272/1/272 242/1/242
f 271/1/271 239/1/239 240/1/240
f 271/1/271 240/1/240 272/1/272
f 272/1/272 240/1/240 241/1/241
f 272/1/272 241/1/241 242/1/242
f 274/1/274 273/1/273 277/1/277
f 274/1/274 277/1/277 275/1/275
f 275/1/275 277/1/277 278/1/278
f 275/1/275 278/1/278 276/1/276
f 277/1/277 273/1/273 279/1/279
f 277/1/277 279/1/279 278/1/278
f 278/1/278 279/1/279 280/1/280
f 278/1/278 280/1/280 276/1/276
f 279/1/279 273/1/273 281/1/281
f 279/1/279 281/1/281 280/1/280
f 280/1/280 281/1/281 282/1/282
f 280/1/280 282/1/282 276/1/276
f 281/1/281 273/1/273 283/1/283
f 281/1/281 283/1/283 282/1/282
f 282/1/282 283/1/283 284/1/284
f 282/1/282 284/1/284 276/1/276
f 283/1/283 273/1/273 285/1/285
f 283/1/283 285/1/285 284/1/284
f 284/1/284 285/1/285 286/1/286
f 284/1/284 286/1/286 276/1/276
f 285/1/285 273/1/273 287/1/287
f 285/1/285 287/1/287 286/1/286
f 286/1/286 287/1/287 288/1/288
f 286/1/286 288/1/288 276/1/276
f 287/1/287 273/1/273 289/1/289
f 287/1/287 289/1/289 288/1/288
f 288/1/288 289/1/289 290/1/290
f 288/1/288 290/1/290 276/1/276
f 289/1/289 273/1/273 291/1/291
f 289/1/289 291/1/291 290/1/290
f 290/1/290 291/1/291 292/1/292
f 290/1/290 292/1/292 276/1/276
f 291/1/291 273/1/273 293/1/293
f 291/1/291 293/1/293 292/1/292
f 292/1/292 293/1/293 294/1/294
f 292/1/292 294/1/294 276/1/276
f 293/1/293 273/1/273 295/1/295
f 293/1/293 295/1/295 294/1/294
f 294/1/294 295/1/295 296/1/296
f 294/1/294 296/1/296 276/1/276
f 295/1/295 273/1/273 297/1/297
f 295/1/295 297/1/297 296/1/296
f 296/1/296 297/1/297 298/1/298
f 296/1/296 298/1/298 276/1/276
f 297/1/297 273/1/273 299/1/299
f 297/1/297 299/1/299 298/1/298
f 298/1/298 299/1/299 300/1/300
f 298/1/298 300/1/300 276/1/276
f 299/1/299 273/1/273 301/1/301
f 299/1/299 301/1/301 300/1/300
f 300/1/300 301/1/301 302/1/302
f 300/1/300 302/1/302 276/1/276
f 301/1/301 273/1/273 303/1/303
f 301/1/301 303/1/303 302/1/302
f 302/1/302 303/1/303 304/1/304
f 302/1/302 304/1/304 276/1/276
f 303/1/303 273/1/273 305/1/305
f 303/1/303 305/1/305 304/1/304
f 304/1/304 305/1/305 306/1/306
f 304/1/304 306/1/306 276/1/276
f 305/1/305 273/1/273 274/1/274
f 305/1/305 274/1/274 306/1/306
f 306/1/306 274/1/274 275/1/275
f 306/1/306 275/1/275 276/1/276

